<?xml version="1.0" encoding="UTF-8" standalone="no"?><svg xmlns="http://www.w3.org/2000/svg" xmlns:xlink="http://www.w3.org/1999/xlink" clip-rule="evenodd" stroke-miterlimit="10" viewBox="0 0 306 29"><desc>SVG generated by Keynote</desc><defs></defs><g transform="matrix(1.00, 0.00, -0.00, -1.00, 0.0, 29.0)"><text xml:space="preserve" font-family="GillSans-Light,Gill Sans" font-size="36.0" fill="#525252" transform="matrix(1.00, 0.00, -0.00, -1.00, 0.3, 2.2)">G</text><text xml:space="preserve" font-family="GillSans-Light,Gill Sans" font-size="36.0" fill="#525252" transform="matrix(1.00, 0.00, -0.00, -1.00, 26.2, 2.2)">i</text><text xml:space="preserve" font-family="GillSans-Light,Gill Sans" font-size="36.0" fill="#525252" transform="matrix(1.00, 0.00, -0.00, -1.00, 33.0, 2.2)">a</text><text xml:space="preserve" font-family="GillSans-Light,Gill Sans" font-size="36.0" fill="#525252" transform="matrix(1.00, 0.00, -0.00, -1.00, 48.3, 2.2)">c</text><text xml:space="preserve" font-family="GillSans-Light,Gill Sans" font-size="36.0" fill="#525252" transform="matrix(1.00, 0.00, -0.00, -1.00, 63.3, 2.2)">o</text><text xml:space="preserve" font-family="GillSans-Light,Gill Sans" font-size="36.0" fill="#525252" transform="matrix(1.00, 0.00, -0.00, -1.00, 82.8, 2.2)">m</text><text xml:space="preserve" font-family="GillSans-Light,Gill Sans" font-size="36.0" fill="#525252" transform="matrix(1.00, 0.00, -0.00, -1.00, 110.6, 2.2)">o</text><text xml:space="preserve" font-family="GillSans-Light,Gill Sans" font-size="36.0" fill="#525252" transform="matrix(1.00, 0.00, -0.00, -1.00, 130.1, 2.2)"> </text><text xml:space="preserve" font-family="GillSans-Light,Gill Sans" font-size="36.0" fill="#525252" transform="matrix(1.00, 0.00, -0.00, -1.00, 140.1, 2.2)">B</text><text xml:space="preserve" font-family="GillSans-Light,Gill Sans" font-size="36.0" fill="#525252" transform="matrix(1.00, 0.00, -0.00, -1.00, 159.2, 2.2)">R</text><text xml:space="preserve" font-family="GillSans-Light,Gill Sans" font-size="36.0" fill="#525252" transform="matrix(1.00, 0.00, -0.00, -1.00, 179.8, 2.2)">E</text><text xml:space="preserve" font-family="GillSans-Light,Gill Sans" font-size="36.0" fill="#525252" transform="matrix(1.00, 0.00, -0.00, -1.00, 197.5, 2.2)">S</text><text xml:space="preserve" font-family="GillSans-Light,Gill Sans" font-size="36.0" fill="#525252" transform="matrix(1.00, 0.00, -0.00, -1.00, 214.4, 2.2)">C</text><text xml:space="preserve" font-family="GillSans-Light,Gill Sans" font-size="36.0" fill="#525252" transform="matrix(1.00, 0.00, -0.00, -1.00, 238.8, 2.2)">I</text><text xml:space="preserve" font-family="GillSans-Light,Gill Sans" font-size="36.0" fill="#525252" transform="matrix(1.00, 0.00, -0.00, -1.00, 246.2, 2.2)">A</text><text xml:space="preserve" font-family="GillSans-Light,Gill Sans" font-size="36.0" fill="#525252" transform="matrix(1.00, 0.00, -0.00, -1.00, 270.3, 2.2)">N</text><text xml:space="preserve" font-family="GillSans-Light,Gill Sans" font-size="36.0" fill="#525252" transform="matrix(1.00, 0.00, -0.00, -1.00, 298.0, 2.2)">I</text></g></svg>