<?xml version="1.0" encoding="UTF-8" standalone="no"?><svg xmlns="http://www.w3.org/2000/svg" xmlns:xlink="http://www.w3.org/1999/xlink" clip-rule="evenodd" stroke-miterlimit="10" viewBox="0 0 332 24"><desc>SVG generated by Keynote</desc><defs></defs><g transform="matrix(1.00, 0.00, -0.00, -1.00, 0.0, 24.0)"><text xml:space="preserve" font-family="GillSans-Light,Gill Sans" font-size="29.0" fill="#525252" transform="matrix(1.00, 0.00, -0.00, -1.00, -0.2, 2.2)">P</text><text xml:space="preserve" font-family="GillSans-Light,Gill Sans" font-size="29.0" fill="#525252" transform="matrix(1.00, 0.00, -0.00, -1.00, 14.6, 2.2)">O</text><text xml:space="preserve" font-family="GillSans-Light,Gill Sans" font-size="29.0" fill="#525252" transform="matrix(1.00, 0.00, -0.00, -1.00, 38.5, 2.2)">L</text><text xml:space="preserve" font-family="GillSans-Light,Gill Sans" font-size="29.0" fill="#525252" transform="matrix(1.00, 0.00, -0.00, -1.00, 52.1, 2.2)">I</text><text xml:space="preserve" font-family="GillSans-Light,Gill Sans" font-size="29.0" fill="#525252" transform="matrix(1.00, 0.00, -0.00, -1.00, 58.1, 2.2)">T</text><text xml:space="preserve" font-family="GillSans-Light,Gill Sans" font-size="29.0" fill="#525252" transform="matrix(1.00, 0.00, -0.00, -1.00, 74.7, 2.2)">E</text><text xml:space="preserve" font-family="GillSans-Light,Gill Sans" font-size="29.0" fill="#525252" transform="matrix(1.00, 0.00, -0.00, -1.00, 89.0, 2.2)">C</text><text xml:space="preserve" font-family="GillSans-Light,Gill Sans" font-size="29.0" fill="#525252" transform="matrix(1.00, 0.00, -0.00, -1.00, 108.6, 2.2)">N</text><text xml:space="preserve" font-family="GillSans-Light,Gill Sans" font-size="29.0" fill="#525252" transform="matrix(1.00, 0.00, -0.00, -1.00, 130.9, 2.2)">I</text><text xml:space="preserve" font-family="GillSans-Light,Gill Sans" font-size="29.0" fill="#525252" transform="matrix(1.00, 0.00, -0.00, -1.00, 137.0, 2.2)">C</text><text xml:space="preserve" font-family="GillSans-Light,Gill Sans" font-size="29.0" fill="#525252" transform="matrix(1.00, 0.00, -0.00, -1.00, 156.6, 2.2)">O</text><text xml:space="preserve" font-family="GillSans-Light,Gill Sans" font-size="29.0" fill="#525252" transform="matrix(1.00, 0.00, -0.00, -1.00, 180.5, 2.2)"> </text><text xml:space="preserve" font-family="GillSans-Light,Gill Sans" font-size="29.0" fill="#525252" transform="matrix(1.00, 0.00, -0.00, -1.00, 188.5, 2.2)">D</text><text xml:space="preserve" font-family="GillSans-Light,Gill Sans" font-size="29.0" fill="#525252" transform="matrix(1.00, 0.00, -0.00, -1.00, 210.0, 2.2)">I</text><text xml:space="preserve" font-family="GillSans-Light,Gill Sans" font-size="29.0" fill="#525252" transform="matrix(1.00, 0.00, -0.00, -1.00, 216.0, 2.2)"> </text><text xml:space="preserve" font-family="GillSans-Light,Gill Sans" font-size="29.0" fill="#525252" transform="matrix(1.00, 0.00, -0.00, -1.00, 224.1, 2.2)">M</text><text xml:space="preserve" font-family="GillSans-Light,Gill Sans" font-size="29.0" fill="#525252" transform="matrix(1.00, 0.00, -0.00, -1.00, 246.7, 2.2)">I</text><text xml:space="preserve" font-family="GillSans-Light,Gill Sans" font-size="29.0" fill="#525252" transform="matrix(1.00, 0.00, -0.00, -1.00, 252.7, 2.2)">L</text><text xml:space="preserve" font-family="GillSans-Light,Gill Sans" font-size="29.0" fill="#525252" transform="matrix(1.00, 0.00, -0.00, -1.00, 266.4, 2.2)">A</text><text xml:space="preserve" font-family="GillSans-Light,Gill Sans" font-size="29.0" fill="#525252" transform="matrix(1.00, 0.00, -0.00, -1.00, 285.7, 2.2)">N</text><text xml:space="preserve" font-family="GillSans-Light,Gill Sans" font-size="29.0" fill="#525252" transform="matrix(1.00, 0.00, -0.00, -1.00, 308.1, 2.2)">O</text></g></svg>