<?xml version="1.0" encoding="UTF-8" standalone="no"?><svg xmlns="http://www.w3.org/2000/svg" xmlns:xlink="http://www.w3.org/1999/xlink" clip-rule="evenodd" stroke-miterlimit="10" viewBox="0 0 765 36"><desc>SVG generated by Keynote</desc><defs></defs><g transform="matrix(1.00, 0.00, -0.00, -1.00, 0.0, 36.0)"><text xml:space="preserve" font-family="GillSans,Gill Sans" font-size="45.5" fill="#525252" transform="matrix(1.00, 0.00, -0.00, -1.00, 2.9, 2.4)">V</text><text xml:space="preserve" font-family="GillSans,Gill Sans" font-size="45.5" fill="#525252" transform="matrix(1.00, 0.00, -0.00, -1.00, 30.4, 2.4)">I</text><text xml:space="preserve" font-family="GillSans,Gill Sans" font-size="45.5" fill="#525252" transform="matrix(1.00, 0.00, -0.00, -1.00, 41.7, 2.4)">R</text><text xml:space="preserve" font-family="GillSans,Gill Sans" font-size="45.5" fill="#525252" transform="matrix(1.00, 0.00, -0.00, -1.00, 65.1, 2.4)">T</text><text xml:space="preserve" font-family="GillSans,Gill Sans" font-size="45.5" fill="#525252" transform="matrix(1.00, 0.00, -0.00, -1.00, 92.6, 2.4)">U</text><text xml:space="preserve" font-family="GillSans,Gill Sans" font-size="45.5" fill="#525252" transform="matrix(1.00, 0.00, -0.00, -1.00, 123.7, 2.4)">A</text><text xml:space="preserve" font-family="GillSans,Gill Sans" font-size="45.5" fill="#525252" transform="matrix(1.00, 0.00, -0.00, -1.00, 154.0, 2.4)">L</text><text xml:space="preserve" font-family="GillSans,Gill Sans" font-size="45.5" fill="#525252" transform="matrix(1.00, 0.00, -0.00, -1.00, 176.4, 2.4)"> </text><text xml:space="preserve" font-family="GillSans,Gill Sans" font-size="45.5" fill="#525252" transform="matrix(1.00, 0.00, -0.00, -1.00, 189.0, 2.4)">M</text><text xml:space="preserve" font-family="GillSans,Gill Sans" font-size="45.5" fill="#525252" transform="matrix(1.00, 0.00, -0.00, -1.00, 224.5, 2.4)">A</text><text xml:space="preserve" font-family="GillSans,Gill Sans" font-size="45.5" fill="#525252" transform="matrix(1.00, 0.00, -0.00, -1.00, 253.0, 2.4)">C</text><text xml:space="preserve" font-family="GillSans,Gill Sans" font-size="45.5" fill="#525252" transform="matrix(1.00, 0.00, -0.00, -1.00, 285.2, 2.4)">H</text><text xml:space="preserve" font-family="GillSans,Gill Sans" font-size="45.5" fill="#525252" transform="matrix(1.00, 0.00, -0.00, -1.00, 318.4, 2.4)">I</text><text xml:space="preserve" font-family="GillSans,Gill Sans" font-size="45.5" fill="#525252" transform="matrix(1.00, 0.00, -0.00, -1.00, 329.8, 2.4)">N</text><text xml:space="preserve" font-family="GillSans,Gill Sans" font-size="45.5" fill="#525252" transform="matrix(1.00, 0.00, -0.00, -1.00, 365.3, 2.4)">E</text><text xml:space="preserve" font-family="GillSans,Gill Sans" font-size="45.5" fill="#525252" transform="matrix(1.00, 0.00, -0.00, -1.00, 388.1, 2.4)"> </text><text xml:space="preserve" font-family="GillSans,Gill Sans" font-size="45.5" fill="#525252" transform="matrix(1.00, 0.00, -0.00, -1.00, 400.7, 2.4)">C</text><text xml:space="preserve" font-family="GillSans,Gill Sans" font-size="45.5" fill="#525252" transform="matrix(1.00, 0.00, -0.00, -1.00, 432.9, 2.4)">O</text><text xml:space="preserve" font-family="GillSans,Gill Sans" font-size="45.5" fill="#525252" transform="matrix(1.00, 0.00, -0.00, -1.00, 470.4, 2.4)">N</text><text xml:space="preserve" font-family="GillSans,Gill Sans" font-size="45.5" fill="#525252" transform="matrix(1.00, 0.00, -0.00, -1.00, 505.9, 2.4)">S</text><text xml:space="preserve" font-family="GillSans,Gill Sans" font-size="45.5" fill="#525252" transform="matrix(1.00, 0.00, -0.00, -1.00, 526.7, 2.4)">O</text><text xml:space="preserve" font-family="GillSans,Gill Sans" font-size="45.5" fill="#525252" transform="matrix(1.00, 0.00, -0.00, -1.00, 564.2, 2.4)">L</text><text xml:space="preserve" font-family="GillSans,Gill Sans" font-size="45.5" fill="#525252" transform="matrix(1.00, 0.00, -0.00, -1.00, 586.5, 2.4)">I</text><text xml:space="preserve" font-family="GillSans,Gill Sans" font-size="45.5" fill="#525252" transform="matrix(1.00, 0.00, -0.00, -1.00, 597.9, 2.4)">D</text><text xml:space="preserve" font-family="GillSans,Gill Sans" font-size="45.5" fill="#525252" transform="matrix(1.00, 0.00, -0.00, -1.00, 629.5, 2.4)">A</text><text xml:space="preserve" font-family="GillSans,Gill Sans" font-size="45.5" fill="#525252" transform="matrix(1.00, 0.00, -0.00, -1.00, 655.3, 2.4)">T</text><text xml:space="preserve" font-family="GillSans,Gill Sans" font-size="45.5" fill="#525252" transform="matrix(1.00, 0.00, -0.00, -1.00, 682.8, 2.4)">I</text><text xml:space="preserve" font-family="GillSans,Gill Sans" font-size="45.5" fill="#525252" transform="matrix(1.00, 0.00, -0.00, -1.00, 694.1, 2.4)">O</text><text xml:space="preserve" font-family="GillSans,Gill Sans" font-size="45.5" fill="#525252" transform="matrix(1.00, 0.00, -0.00, -1.00, 731.6, 2.4)">N</text></g></svg>