<?xml version="1.0" encoding="UTF-8" standalone="no"?><svg xmlns="http://www.w3.org/2000/svg" xmlns:xlink="http://www.w3.org/1999/xlink" clip-rule="evenodd" stroke-miterlimit="10" viewBox="0 0 1024 768"><desc>SVG generated by Keynote</desc><defs></defs><g transform="matrix(1.00, 0.00, -0.00, -1.00, 0.0, 768.0)"><g><clipPath id="clip0x6000050b2780"><path d="M 0.0 768.0 L 1024.0 768.0 L 1024.0 0.0 L 0.0 0.0 Z M 0.0 768.0 "></path></clipPath><g clip-path="url(#clip0x6000050b2780)"><image xlink:href="../../BE03AB4A-F5E0-4685-80C7-20DCBC62631F/assets/574DCE55A4CF432400CBDDDE1DFDFC9B.jpeg" width="2048.00" height="1536.00" transform="matrix(0.50, 0.00, -0.00, -0.50, 0.0, 768.0)"></image></g></g><path d="M 958.3 700.1 L 958.0 724.6 C 958.0 726.4 959.8 728.0 961.7 728.0 L 986.1 728.0 C 988.0 728.0 990.0 726.4 990.0 724.6 L 990.0 700.1 C 990.0 698.3 988.0 697.0 986.1 697.0 L 961.7 697.0 C 959.8 697.0 958.3 698.3 958.3 700.1 Z M 958.3 700.1 " fill="#2D93FA"></path><text xml:space="preserve" font-family="GillSans,Gill Sans" font-size="72.0" fill="#525252" transform="matrix(1.00, 0.00, -0.00, -1.00, 325.0, 625.6)">F</text><text xml:space="preserve" font-family="GillSans,Gill Sans" font-size="72.0" fill="#525252" transform="matrix(1.00, 0.00, -0.00, -1.00, 355.2, 625.6)">A</text><text xml:space="preserve" font-family="GillSans,Gill Sans" font-size="72.0" fill="#525252" transform="matrix(1.00, 0.00, -0.00, -1.00, 403.2, 625.6)">K</text><text xml:space="preserve" font-family="GillSans,Gill Sans" font-size="72.0" fill="#525252" transform="matrix(1.00, 0.00, -0.00, -1.00, 450.4, 625.6)">E</text><text xml:space="preserve" font-family="GillSans,Gill Sans" font-size="72.0" fill="#525252" transform="matrix(1.00, 0.00, -0.00, -1.00, 486.4, 625.6)">S</text><text xml:space="preserve" font-family="GillSans,Gill Sans" font-size="72.0" fill="#525252" transform="matrix(1.00, 0.00, -0.00, -1.00, 519.4, 625.6)">T</text><text xml:space="preserve" font-family="GillSans,Gill Sans" font-size="72.0" fill="#525252" transform="matrix(1.00, 0.00, -0.00, -1.00, 555.7, 625.6)">A</text><text xml:space="preserve" font-family="GillSans,Gill Sans" font-size="72.0" fill="#525252" transform="matrix(1.00, 0.00, -0.00, -1.00, 600.8, 625.6)">C</text><text xml:space="preserve" font-family="GillSans,Gill Sans" font-size="72.0" fill="#525252" transform="matrix(1.00, 0.00, -0.00, -1.00, 651.8, 625.6)">K</text><text xml:space="preserve" font-family="GillSans-Light,Gill Sans" font-size="31.2" fill="#525252" transform="matrix(1.00, 0.00, -0.00, -1.00, 54.6, 438.5)">•</text><text xml:space="preserve" font-family="GillSans-Light,Gill Sans" font-size="38.0" fill="#525252" transform="matrix(1.00, 0.00, -0.00, -1.00, 88.4, 436.2)">D</text><text xml:space="preserve" font-family="GillSans-Light,Gill Sans" font-size="38.0" fill="#525252" transform="matrix(1.00, 0.00, -0.00, -1.00, 116.6, 436.2)">o</text><text xml:space="preserve" font-family="GillSans-Light,Gill Sans" font-size="38.0" fill="#525252" transform="matrix(1.00, 0.00, -0.00, -1.00, 137.2, 436.2)">c</text><text xml:space="preserve" font-family="GillSans-Light,Gill Sans" font-size="38.0" fill="#525252" transform="matrix(1.00, 0.00, -0.00, -1.00, 153.0, 436.2)">k</text><text xml:space="preserve" font-family="GillSans-Light,Gill Sans" font-size="38.0" fill="#525252" transform="matrix(1.00, 0.00, -0.00, -1.00, 168.8, 436.2)">e</text><text xml:space="preserve" font-family="GillSans-Light,Gill Sans" font-size="38.0" fill="#525252" transform="matrix(1.00, 0.00, -0.00, -1.00, 187.0, 436.2)">r</text><text xml:space="preserve" font-family="GillSans-Light,Gill Sans" font-size="31.2" fill="#525252" transform="matrix(1.00, 0.00, -0.00, -1.00, 54.6, 357.5)">•</text><text xml:space="preserve" font-family="GillSans-Light,Gill Sans" font-size="38.0" fill="#525252" transform="matrix(1.00, 0.00, -0.00, -1.00, 88.4, 355.2)">1</text><text xml:space="preserve" font-family="GillSans-Light,Gill Sans" font-size="38.0" fill="#525252" transform="matrix(1.00, 0.00, -0.00, -1.00, 107.4, 355.2)"> </text><text xml:space="preserve" font-family="GillSans-Light,Gill Sans" font-size="38.0" fill="#525252" transform="matrix(1.00, 0.00, -0.00, -1.00, 118.0, 355.2)">+</text><text xml:space="preserve" font-family="GillSans-Light,Gill Sans" font-size="38.0" fill="#525252" transform="matrix(1.00, 0.00, -0.00, -1.00, 143.1, 355.2)"> </text><text xml:space="preserve" font-family="GillSans-Light,Gill Sans" font-size="38.0" fill="#525252" transform="matrix(1.00, 0.00, -0.00, -1.00, 153.6, 355.2)">N</text><text xml:space="preserve" font-family="GillSans-Light,Gill Sans" font-size="38.0" fill="#525252" transform="matrix(1.00, 0.00, -0.00, -1.00, 182.9, 355.2)"> </text><text xml:space="preserve" font-family="GillSans-Light,Gill Sans" font-size="38.0" fill="#525252" transform="matrix(1.00, 0.00, -0.00, -1.00, 191.2, 355.2)">A</text><text xml:space="preserve" font-family="GillSans-Light,Gill Sans" font-size="38.0" fill="#525252" transform="matrix(1.00, 0.00, -0.00, -1.00, 216.5, 355.2)">r</text><text xml:space="preserve" font-family="GillSans-Light,Gill Sans" font-size="38.0" fill="#525252" transform="matrix(1.00, 0.00, -0.00, -1.00, 229.2, 355.2)">c</text><text xml:space="preserve" font-family="GillSans-Light,Gill Sans" font-size="38.0" fill="#525252" transform="matrix(1.00, 0.00, -0.00, -1.00, 245.0, 355.2)">h</text><text xml:space="preserve" font-family="GillSans-Light,Gill Sans" font-size="38.0" fill="#525252" transform="matrix(1.00, 0.00, -0.00, -1.00, 263.7, 355.2)">i</text><text xml:space="preserve" font-family="GillSans-Light,Gill Sans" font-size="38.0" fill="#525252" transform="matrix(1.00, 0.00, -0.00, -1.00, 270.8, 355.2)">t</text><text xml:space="preserve" font-family="GillSans-Light,Gill Sans" font-size="38.0" fill="#525252" transform="matrix(1.00, 0.00, -0.00, -1.00, 282.3, 355.2)">e</text><text xml:space="preserve" font-family="GillSans-Light,Gill Sans" font-size="38.0" fill="#525252" transform="matrix(1.00, 0.00, -0.00, -1.00, 300.5, 355.2)">c</text><text xml:space="preserve" font-family="GillSans-Light,Gill Sans" font-size="38.0" fill="#525252" transform="matrix(1.00, 0.00, -0.00, -1.00, 316.3, 355.2)">t</text><text xml:space="preserve" font-family="GillSans-Light,Gill Sans" font-size="38.0" fill="#525252" transform="matrix(1.00, 0.00, -0.00, -1.00, 327.8, 355.2)">u</text><text xml:space="preserve" font-family="GillSans-Light,Gill Sans" font-size="38.0" fill="#525252" transform="matrix(1.00, 0.00, -0.00, -1.00, 346.4, 355.2)">r</text><text xml:space="preserve" font-family="GillSans-Light,Gill Sans" font-size="38.0" fill="#525252" transform="matrix(1.00, 0.00, -0.00, -1.00, 359.1, 355.2)">e</text><text xml:space="preserve" font-family="GillSans-Light,Gill Sans" font-size="31.2" fill="#525252" transform="matrix(1.00, 0.00, -0.00, -1.00, 54.6, 276.5)">•</text><text xml:space="preserve" font-family="GillSans-Light,Gill Sans" font-size="38.0" fill="#525252" transform="matrix(1.00, 0.00, -0.00, -1.00, 88.4, 274.2)">D</text><text xml:space="preserve" font-family="GillSans-Light,Gill Sans" font-size="38.0" fill="#525252" transform="matrix(1.00, 0.00, -0.00, -1.00, 116.6, 274.2)">e</text><text xml:space="preserve" font-family="GillSans-Light,Gill Sans" font-size="38.0" fill="#525252" transform="matrix(1.00, 0.00, -0.00, -1.00, 134.8, 274.2)">v</text><text xml:space="preserve" font-family="GillSans-Light,Gill Sans" font-size="38.0" fill="#525252" transform="matrix(1.00, 0.00, -0.00, -1.00, 151.0, 274.2)">S</text><text xml:space="preserve" font-family="GillSans-Light,Gill Sans" font-size="38.0" fill="#525252" transform="matrix(1.00, 0.00, -0.00, -1.00, 168.8, 274.2)">t</text><text xml:space="preserve" font-family="GillSans-Light,Gill Sans" font-size="38.0" fill="#525252" transform="matrix(1.00, 0.00, -0.00, -1.00, 180.3, 274.2)">a</text><text xml:space="preserve" font-family="GillSans-Light,Gill Sans" font-size="38.0" fill="#525252" transform="matrix(1.00, 0.00, -0.00, -1.00, 196.5, 274.2)">c</text><text xml:space="preserve" font-family="GillSans-Light,Gill Sans" font-size="38.0" fill="#525252" transform="matrix(1.00, 0.00, -0.00, -1.00, 212.3, 274.2)">k</text><text xml:space="preserve" font-family="GillSans-Light,Gill Sans" font-size="31.2" fill="#525252" transform="matrix(1.00, 0.00, -0.00, -1.00, 54.6, 195.5)">•</text><text xml:space="preserve" font-family="GillSans-Light,Gill Sans" font-size="38.0" fill="#525252" transform="matrix(1.00, 0.00, -0.00, -1.00, 88.4, 193.2)">S</text><text xml:space="preserve" font-family="GillSans-Light,Gill Sans" font-size="38.0" fill="#525252" transform="matrix(1.00, 0.00, -0.00, -1.00, 106.3, 193.2)">c</text><text xml:space="preserve" font-family="GillSans-Light,Gill Sans" font-size="38.0" fill="#525252" transform="matrix(1.00, 0.00, -0.00, -1.00, 122.1, 193.2)">r</text><text xml:space="preserve" font-family="GillSans-Light,Gill Sans" font-size="38.0" fill="#525252" transform="matrix(1.00, 0.00, -0.00, -1.00, 135.7, 193.2)">i</text><text xml:space="preserve" font-family="GillSans-Light,Gill Sans" font-size="38.0" fill="#525252" transform="matrix(1.00, 0.00, -0.00, -1.00, 142.9, 193.2)">p</text><text xml:space="preserve" font-family="GillSans-Light,Gill Sans" font-size="38.0" fill="#525252" transform="matrix(1.00, 0.00, -0.00, -1.00, 162.2, 193.2)">t</text><text xml:space="preserve" font-family="GillSans-Light,Gill Sans" font-size="38.0" fill="#525252" transform="matrix(1.00, 0.00, -0.00, -1.00, 173.7, 193.2)">s</text><g><clipPath id="clip0x6000050b5060"><path d="M 922.0 729.0 L 990.0 729.0 L 990.0 660.0 L 922.0 660.0 Z M 921.6 728.9 "></path></clipPath><g clip-path="url(#clip0x6000050b5060)"><image xlink:href="../../5597C60D-90F3-4109-98AE-7C9C8B692B7E/assets/DF84E74DAD5AE495E861FECE6DD80E8F.png" width="500.00" height="500.00" transform="matrix(0.14, 0.00, -0.00, -0.14, 922.0, 729.0)"></image></g></g><text xml:space="preserve" font-family="GillSans-Light,Gill Sans" font-size="30.0" fill="#525252" transform="matrix(1.00, 0.00, -0.00, -1.00, 629.5, 47.2)">g</text><text xml:space="preserve" font-family="GillSans-Light,Gill Sans" font-size="30.0" fill="#525252" transform="matrix(1.00, 0.00, -0.00, -1.00, 642.3, 47.2)">i</text><text xml:space="preserve" font-family="GillSans-Light,Gill Sans" font-size="30.0" fill="#525252" transform="matrix(1.00, 0.00, -0.00, -1.00, 647.9, 47.2)">t</text><text xml:space="preserve" font-family="GillSans-Light,Gill Sans" font-size="30.0" fill="#525252" transform="matrix(1.00, 0.00, -0.00, -1.00, 657.0, 47.2)">h</text><text xml:space="preserve" font-family="GillSans-Light,Gill Sans" font-size="30.0" fill="#525252" transform="matrix(1.00, 0.00, -0.00, -1.00, 671.7, 47.2)">u</text><text xml:space="preserve" font-family="GillSans-Light,Gill Sans" font-size="30.0" fill="#525252" transform="matrix(1.00, 0.00, -0.00, -1.00, 686.4, 47.2)">b</text><text xml:space="preserve" font-family="GillSans-Light,Gill Sans" font-size="30.0" fill="#525252" transform="matrix(1.00, 0.00, -0.00, -1.00, 701.1, 47.2)">.</text><text xml:space="preserve" font-family="GillSans-Light,Gill Sans" font-size="30.0" fill="#525252" transform="matrix(1.00, 0.00, -0.00, -1.00, 706.4, 47.2)">c</text><text xml:space="preserve" font-family="GillSans-Light,Gill Sans" font-size="30.0" fill="#525252" transform="matrix(1.00, 0.00, -0.00, -1.00, 718.9, 47.2)">o</text><text xml:space="preserve" font-family="GillSans-Light,Gill Sans" font-size="30.0" fill="#525252" transform="matrix(1.00, 0.00, -0.00, -1.00, 735.2, 47.2)">m</text><text xml:space="preserve" font-family="GillSans-Light,Gill Sans" font-size="30.0" fill="#525252" transform="matrix(1.00, 0.00, -0.00, -1.00, 758.3, 47.2)">/</text><text xml:space="preserve" font-family="GillSans-Light,Gill Sans" font-size="30.0" fill="#525252" transform="matrix(1.00, 0.00, -0.00, -1.00, 766.7, 47.2)">a</text><text xml:space="preserve" font-family="GillSans-Light,Gill Sans" font-size="30.0" fill="#525252" transform="matrix(1.00, 0.00, -0.00, -1.00, 779.5, 47.2)">f</text><text xml:space="preserve" font-family="GillSans-Light,Gill Sans" font-size="30.0" fill="#525252" transform="matrix(1.00, 0.00, -0.00, -1.00, 786.7, 47.2)">f</text><text xml:space="preserve" font-family="GillSans-Light,Gill Sans" font-size="30.0" fill="#525252" transform="matrix(1.00, 0.00, -0.00, -1.00, 793.5, 47.2)">e</text><text xml:space="preserve" font-family="GillSans-Light,Gill Sans" font-size="30.0" fill="#525252" transform="matrix(1.00, 0.00, -0.00, -1.00, 807.9, 47.2)">a</text><text xml:space="preserve" font-family="GillSans-Light,Gill Sans" font-size="30.0" fill="#525252" transform="matrix(1.00, 0.00, -0.00, -1.00, 820.7, 47.2)">r</text><text xml:space="preserve" font-family="GillSans-Light,Gill Sans" font-size="30.0" fill="#525252" transform="matrix(1.00, 0.00, -0.00, -1.00, 830.6, 47.2)">/</text><text xml:space="preserve" font-family="GillSans-Light,Gill Sans" font-size="30.0" fill="#525252" transform="matrix(1.00, 0.00, -0.00, -1.00, 839.1, 47.2)">f</text><text xml:space="preserve" font-family="GillSans-Light,Gill Sans" font-size="30.0" fill="#525252" transform="matrix(1.00, 0.00, -0.00, -1.00, 846.3, 47.2)">a</text><text xml:space="preserve" font-family="GillSans-Light,Gill Sans" font-size="30.0" fill="#525252" transform="matrix(1.00, 0.00, -0.00, -1.00, 859.1, 47.2)">k</text><text xml:space="preserve" font-family="GillSans-Light,Gill Sans" font-size="30.0" fill="#525252" transform="matrix(1.00, 0.00, -0.00, -1.00, 871.6, 47.2)">e</text><text xml:space="preserve" font-family="GillSans-Light,Gill Sans" font-size="30.0" fill="#525252" transform="matrix(1.00, 0.00, -0.00, -1.00, 885.9, 47.2)">s</text><text xml:space="preserve" font-family="GillSans-Light,Gill Sans" font-size="30.0" fill="#525252" transform="matrix(1.00, 0.00, -0.00, -1.00, 896.6, 47.2)">t</text><text xml:space="preserve" font-family="GillSans-Light,Gill Sans" font-size="30.0" fill="#525252" transform="matrix(1.00, 0.00, -0.00, -1.00, 905.6, 47.2)">a</text><text xml:space="preserve" font-family="GillSans-Light,Gill Sans" font-size="30.0" fill="#525252" transform="matrix(1.00, 0.00, -0.00, -1.00, 918.4, 47.2)">c</text><text xml:space="preserve" font-family="GillSans-Light,Gill Sans" font-size="30.0" fill="#525252" transform="matrix(1.00, 0.00, -0.00, -1.00, 930.9, 47.2)">k</text><g><clipPath id="clip0x6000050b5480"><path d="M 628.5 43.2 L 943.8 43.2 L 943.8 46.7 L 628.5 46.7 Z M 628.5 43.2 "></path></clipPath><g clip-path="url(#clip0x6000050b5480)"><path d="M 4.5 33.1 L 318.8 33.1 " fill="none" stroke="#525252" stroke-width="1.49" transform="matrix(1.00, 0.00, 0.00, -1.00, 625.0, 78.0)"></path></g></g><g><clipPath id="clip0x6000050b56c0"><path d="M 445.4 409.0 L 704.2 409.0 L 704.2 528.3 L 445.4 528.3 Z M 445.4 409.0 "></path></clipPath><g clip-path="url(#clip0x6000050b56c0)"><path d="M -0.4 102.8 L -0.4 9.9 C -0.4 4.4 4.4 0.3 9.9 0.3 L 241.9 0.3 C 247.3 0.3 251.6 4.4 251.6 9.9 L 251.6 102.4 C 251.6 107.9 247.3 112.3 241.9 112.3 L 9.9 112.3 C 4.4 112.3 -0.4 108.2 -0.4 102.8 Z M 0.0 102.4 " fill="none" stroke="#EA3C43" stroke-width="5.00" transform="matrix(1.00, 0.00, 0.00, -1.00, 448.9, 524.8)"></path></g></g><g><clipPath id="clip0x6000050b5900"><path d="M 457.8 441.1 L 691.7 441.1 L 691.7 512.6 L 457.8 512.6 Z M 457.8 441.1 "></path></clipPath><g clip-path="url(#clip0x6000050b5900)"><text xml:space="preserve" font-family="GillSans,Gill Sans" font-size="25.0" fill="#EA3C43" transform="matrix(1.00, 0.00, -0.00, -1.00, 495.2, 482.2)">C</text><text xml:space="preserve" font-family="GillSans,Gill Sans" font-size="25.0" fill="#EA3C43" transform="matrix(1.00, 0.00, -0.00, -1.00, 512.9, 482.2)">O</text><text xml:space="preserve" font-family="GillSans,Gill Sans" font-size="25.0" fill="#EA3C43" transform="matrix(1.00, 0.00, -0.00, -1.00, 533.5, 482.2)">N</text><text xml:space="preserve" font-family="GillSans,Gill Sans" font-size="25.0" fill="#EA3C43" transform="matrix(1.00, 0.00, -0.00, -1.00, 553.0, 482.2)">T</text><text xml:space="preserve" font-family="GillSans,Gill Sans" font-size="25.0" fill="#EA3C43" transform="matrix(1.00, 0.00, -0.00, -1.00, 568.1, 482.2)">R</text><text xml:space="preserve" font-family="GillSans,Gill Sans" font-size="25.0" fill="#EA3C43" transform="matrix(1.00, 0.00, -0.00, -1.00, 581.7, 482.2)">O</text><text xml:space="preserve" font-family="GillSans,Gill Sans" font-size="25.0" fill="#EA3C43" transform="matrix(1.00, 0.00, -0.00, -1.00, 602.3, 482.2)">L</text><text xml:space="preserve" font-family="GillSans,Gill Sans" font-size="25.0" fill="#EA3C43" transform="matrix(1.00, 0.00, -0.00, -1.00, 614.5, 482.2)">L</text><text xml:space="preserve" font-family="GillSans,Gill Sans" font-size="25.0" fill="#EA3C43" transform="matrix(1.00, 0.00, -0.00, -1.00, 626.8, 482.2)">E</text><text xml:space="preserve" font-family="GillSans,Gill Sans" font-size="25.0" fill="#EA3C43" transform="matrix(1.00, 0.00, -0.00, -1.00, 639.3, 482.2)">R</text><text xml:space="preserve" font-family="GillSans-Light,Gill Sans" font-size="25.0" fill="#EA3C43" transform="matrix(1.00, 0.00, -0.00, -1.00, 654.4, 482.2)"> </text><text xml:space="preserve" font-family="GillSans-Light,Gill Sans" font-size="25.0" fill="#EA3C43" transform="matrix(1.00, 0.00, -0.00, -1.00, 539.5, 454.2)">N</text><text xml:space="preserve" font-family="GillSans-Light,Gill Sans" font-size="25.0" fill="#EA3C43" transform="matrix(1.00, 0.00, -0.00, -1.00, 558.7, 454.2)">O</text><text xml:space="preserve" font-family="GillSans-Light,Gill Sans" font-size="25.0" fill="#EA3C43" transform="matrix(1.00, 0.00, -0.00, -1.00, 579.3, 454.2)">D</text><text xml:space="preserve" font-family="GillSans-Light,Gill Sans" font-size="25.0" fill="#EA3C43" transform="matrix(1.00, 0.00, -0.00, -1.00, 597.8, 454.2)">E</text></g></g><g><clipPath id="clip0x608004ead740"><path d="M 637.9 423.8 L 689.2 423.8 L 689.2 465.8 L 637.9 465.8 Z M 637.9 423.8 "></path></clipPath><g clip-path="url(#clip0x608004ead740)"><image xlink:href="../../B0AA1713-97D4-40B8-9578-D2576DFDE6E2/assets/39FF6B4CBDB334DB044D3EEAA0837883.png" width="292.00" height="239.00" transform="matrix(0.17, 0.00, -0.00, -0.18, 638.0, 466.0)"></image></g></g><g><clipPath id="clip0x6000050b6080"><path d="M 723.4 409.0 L 982.2 409.0 L 982.2 528.3 L 723.4 528.3 Z M 723.4 409.0 "></path></clipPath><g clip-path="url(#clip0x6000050b6080)"><path d="M -0.4 102.8 L -0.4 9.9 C -0.4 4.4 4.4 0.3 9.9 0.3 L 241.9 0.3 C 247.3 0.3 251.6 4.4 251.6 9.9 L 251.6 102.4 C 251.6 107.9 247.3 112.3 241.9 112.3 L 9.9 112.3 C 4.4 112.3 -0.4 108.2 -0.4 102.8 Z M 0.0 102.4 " fill="none" stroke="#595E5D" stroke-width="5.00" transform="matrix(1.00, 0.00, 0.00, -1.00, 726.9, 524.8)"></path></g></g><g><clipPath id="clip0x6000050b62c0"><path d="M 735.9 441.3 L 969.7 441.3 L 969.7 512.6 L 735.9 512.6 Z M 735.9 441.3 "></path></clipPath><g clip-path="url(#clip0x6000050b62c0)"><text xml:space="preserve" font-family="GillSans,Gill Sans" font-size="25.0" fill="#525252" transform="matrix(1.00, 0.00, -0.00, -1.00, 794.9, 482.2)">C</text><text xml:space="preserve" font-family="GillSans,Gill Sans" font-size="25.0" fill="#525252" transform="matrix(1.00, 0.00, -0.00, -1.00, 812.6, 482.2)">O</text><text xml:space="preserve" font-family="GillSans,Gill Sans" font-size="25.0" fill="#525252" transform="matrix(1.00, 0.00, -0.00, -1.00, 833.1, 482.2)">M</text><text xml:space="preserve" font-family="GillSans,Gill Sans" font-size="25.0" fill="#525252" transform="matrix(1.00, 0.00, -0.00, -1.00, 852.7, 482.2)">P</text><text xml:space="preserve" font-family="GillSans,Gill Sans" font-size="25.0" fill="#525252" transform="matrix(1.00, 0.00, -0.00, -1.00, 865.4, 482.2)">U</text><text xml:space="preserve" font-family="GillSans,Gill Sans" font-size="25.0" fill="#525252" transform="matrix(1.00, 0.00, -0.00, -1.00, 883.1, 482.2)">T</text><text xml:space="preserve" font-family="GillSans,Gill Sans" font-size="25.0" fill="#525252" transform="matrix(1.00, 0.00, -0.00, -1.00, 898.2, 482.2)">E</text><text xml:space="preserve" font-family="GillSans-Light,Gill Sans" font-size="25.0" fill="#525252" transform="matrix(1.00, 0.00, -0.00, -1.00, 804.3, 454.4)"> </text><text xml:space="preserve" font-family="GillSans-Light,Gill Sans" font-size="25.0" fill="#525252" transform="matrix(1.00, 0.00, -0.00, -1.00, 811.2, 454.4)">N</text><text xml:space="preserve" font-family="GillSans-Light,Gill Sans" font-size="25.0" fill="#525252" transform="matrix(1.00, 0.00, -0.00, -1.00, 830.5, 454.4)">O</text><text xml:space="preserve" font-family="GillSans-Light,Gill Sans" font-size="25.0" fill="#525252" transform="matrix(1.00, 0.00, -0.00, -1.00, 851.1, 454.4)">D</text><text xml:space="preserve" font-family="GillSans-Light,Gill Sans" font-size="25.0" fill="#525252" transform="matrix(1.00, 0.00, -0.00, -1.00, 869.6, 454.4)">E</text><text xml:space="preserve" font-family="GillSans-Light,Gill Sans" font-size="25.0" fill="#525252" transform="matrix(1.00, 0.00, -0.00, -1.00, 881.8, 454.4)"> </text><text xml:space="preserve" font-family="GillSans-Light,Gill Sans" font-size="25.0" fill="#525252" transform="matrix(1.00, 0.00, -0.00, -1.00, 888.8, 454.4)">1</text></g></g><g><clipPath id="clip0x6000050b69e0"><path d="M 921.7 423.0 L 973.0 423.0 L 973.0 465.0 L 921.7 465.0 Z M 921.7 423.0 "></path></clipPath><g clip-path="url(#clip0x6000050b69e0)"><image xlink:href="../../B0AA1713-97D4-40B8-9578-D2576DFDE6E2/assets/39FF6B4CBDB334DB044D3EEAA0837883.png" width="292.00" height="239.00" transform="matrix(0.17, 0.00, -0.00, -0.18, 922.0, 465.0)"></image></g></g><g><clipPath id="clip0x608004ead7a0"><path d="M 723.4 276.9 L 982.2 276.9 L 982.2 396.2 L 723.4 396.2 Z M 723.4 276.9 "></path></clipPath><g clip-path="url(#clip0x608004ead7a0)"><path d="M -0.4 102.7 L -0.4 9.9 C -0.4 4.4 4.4 0.2 9.9 0.2 L 241.9 0.2 C 247.3 0.2 251.6 4.4 251.6 9.9 L 251.6 102.4 C 251.6 107.9 247.3 112.2 241.9 112.2 L 9.9 112.2 C 4.4 112.2 -0.4 108.1 -0.4 102.7 Z M 0.0 102.4 " fill="none" stroke="#595E5D" stroke-width="5.00" transform="matrix(1.00, 0.00, 0.00, -1.00, 726.9, 392.7)"></path></g></g><g><clipPath id="clip0x608004eadbc0"><path d="M 735.9 309.2 L 969.7 309.2 L 969.7 380.4 L 735.9 380.4 Z M 735.9 309.2 "></path></clipPath><g clip-path="url(#clip0x608004eadbc0)"><text xml:space="preserve" font-family="GillSans,Gill Sans" font-size="25.0" fill="#525252" transform="matrix(1.00, 0.00, -0.00, -1.00, 794.9, 350.0)">C</text><text xml:space="preserve" font-family="GillSans,Gill Sans" font-size="25.0" fill="#525252" transform="matrix(1.00, 0.00, -0.00, -1.00, 812.6, 350.0)">O</text><text xml:space="preserve" font-family="GillSans,Gill Sans" font-size="25.0" fill="#525252" transform="matrix(1.00, 0.00, -0.00, -1.00, 833.1, 350.0)">M</text><text xml:space="preserve" font-family="GillSans,Gill Sans" font-size="25.0" fill="#525252" transform="matrix(1.00, 0.00, -0.00, -1.00, 852.7, 350.0)">P</text><text xml:space="preserve" font-family="GillSans,Gill Sans" font-size="25.0" fill="#525252" transform="matrix(1.00, 0.00, -0.00, -1.00, 865.4, 350.0)">U</text><text xml:space="preserve" font-family="GillSans,Gill Sans" font-size="25.0" fill="#525252" transform="matrix(1.00, 0.00, -0.00, -1.00, 883.1, 350.0)">T</text><text xml:space="preserve" font-family="GillSans,Gill Sans" font-size="25.0" fill="#525252" transform="matrix(1.00, 0.00, -0.00, -1.00, 898.2, 350.0)">E</text><text xml:space="preserve" font-family="GillSans-Light,Gill Sans" font-size="25.0" fill="#525252" transform="matrix(1.00, 0.00, -0.00, -1.00, 804.3, 322.2)"> </text><text xml:space="preserve" font-family="GillSans-Light,Gill Sans" font-size="25.0" fill="#525252" transform="matrix(1.00, 0.00, -0.00, -1.00, 811.2, 322.2)">N</text><text xml:space="preserve" font-family="GillSans-Light,Gill Sans" font-size="25.0" fill="#525252" transform="matrix(1.00, 0.00, -0.00, -1.00, 830.5, 322.2)">O</text><text xml:space="preserve" font-family="GillSans-Light,Gill Sans" font-size="25.0" fill="#525252" transform="matrix(1.00, 0.00, -0.00, -1.00, 851.1, 322.2)">D</text><text xml:space="preserve" font-family="GillSans-Light,Gill Sans" font-size="25.0" fill="#525252" transform="matrix(1.00, 0.00, -0.00, -1.00, 869.6, 322.2)">E</text><text xml:space="preserve" font-family="GillSans-Light,Gill Sans" font-size="25.0" fill="#525252" transform="matrix(1.00, 0.00, -0.00, -1.00, 881.8, 322.2)"> </text><text xml:space="preserve" font-family="GillSans-Light,Gill Sans" font-size="25.0" fill="#525252" transform="matrix(1.00, 0.00, -0.00, -1.00, 888.8, 322.2)">3</text></g></g><g><clipPath id="clip0x6000050b6fe0"><path d="M 921.7 289.8 L 973.0 289.8 L 973.0 331.8 L 921.7 331.8 Z M 921.7 289.8 "></path></clipPath><g clip-path="url(#clip0x6000050b6fe0)"><image xlink:href="../../B0AA1713-97D4-40B8-9578-D2576DFDE6E2/assets/39FF6B4CBDB334DB044D3EEAA0837883.png" width="292.00" height="239.00" transform="matrix(0.17, 0.00, -0.00, -0.18, 922.0, 332.0)"></image></g></g><g><clipPath id="clip0x6000050b7040"><path d="M 723.4 144.7 L 982.2 144.7 L 982.2 264.0 L 723.4 264.0 Z M 723.4 144.7 "></path></clipPath><g clip-path="url(#clip0x6000050b7040)"><path d="M -0.4 102.5 L -0.4 9.9 C -0.4 4.4 4.4 0.0 9.9 0.0 L 241.9 0.0 C 247.3 0.0 251.6 4.4 251.6 9.9 L 251.6 102.4 C 251.6 107.9 247.3 112.0 241.9 112.0 L 9.9 112.0 C 4.4 112.0 -0.4 108.0 -0.4 102.5 Z M 0.0 102.4 " fill="none" stroke="#595E5D" stroke-width="5.00" transform="matrix(1.00, 0.00, 0.00, -1.00, 726.9, 260.5)"></path></g></g><g><clipPath id="clip0x6000050b7460"><path d="M 735.9 177.0 L 969.7 177.0 L 969.7 248.3 L 735.9 248.3 Z M 735.9 177.0 "></path></clipPath><g clip-path="url(#clip0x6000050b7460)"><text xml:space="preserve" font-family="GillSans,Gill Sans" font-size="25.0" fill="#525252" transform="matrix(1.00, 0.00, -0.00, -1.00, 794.9, 217.9)">C</text><text xml:space="preserve" font-family="GillSans,Gill Sans" font-size="25.0" fill="#525252" transform="matrix(1.00, 0.00, -0.00, -1.00, 812.6, 217.9)">O</text><text xml:space="preserve" font-family="GillSans,Gill Sans" font-size="25.0" fill="#525252" transform="matrix(1.00, 0.00, -0.00, -1.00, 833.1, 217.9)">M</text><text xml:space="preserve" font-family="GillSans,Gill Sans" font-size="25.0" fill="#525252" transform="matrix(1.00, 0.00, -0.00, -1.00, 852.7, 217.9)">P</text><text xml:space="preserve" font-family="GillSans,Gill Sans" font-size="25.0" fill="#525252" transform="matrix(1.00, 0.00, -0.00, -1.00, 865.4, 217.9)">U</text><text xml:space="preserve" font-family="GillSans,Gill Sans" font-size="25.0" fill="#525252" transform="matrix(1.00, 0.00, -0.00, -1.00, 883.1, 217.9)">T</text><text xml:space="preserve" font-family="GillSans,Gill Sans" font-size="25.0" fill="#525252" transform="matrix(1.00, 0.00, -0.00, -1.00, 898.2, 217.9)">E</text><text xml:space="preserve" font-family="GillSans-Light,Gill Sans" font-size="25.0" fill="#525252" transform="matrix(1.00, 0.00, -0.00, -1.00, 800.9, 190.1)"> </text><text xml:space="preserve" font-family="GillSans-Light,Gill Sans" font-size="25.0" fill="#525252" transform="matrix(1.00, 0.00, -0.00, -1.00, 807.8, 190.1)">N</text><text xml:space="preserve" font-family="GillSans-Light,Gill Sans" font-size="25.0" fill="#525252" transform="matrix(1.00, 0.00, -0.00, -1.00, 827.1, 190.1)">O</text><text xml:space="preserve" font-family="GillSans-Light,Gill Sans" font-size="25.0" fill="#525252" transform="matrix(1.00, 0.00, -0.00, -1.00, 847.7, 190.1)">D</text><text xml:space="preserve" font-family="GillSans-Light,Gill Sans" font-size="25.0" fill="#525252" transform="matrix(1.00, 0.00, -0.00, -1.00, 866.2, 190.1)">E</text><text xml:space="preserve" font-family="GillSans-Light,Gill Sans" font-size="25.0" fill="#525252" transform="matrix(1.00, 0.00, -0.00, -1.00, 878.5, 190.1)"> </text><text xml:space="preserve" font-family="GillSans-Light,Gill Sans" font-size="25.0" fill="#525252" transform="matrix(1.00, 0.00, -0.00, -1.00, 885.4, 190.1)">N</text></g></g><g><clipPath id="clip0x608004eae2e0"><path d="M 921.7 154.4 L 973.0 154.4 L 973.0 196.4 L 921.7 196.4 Z M 921.7 154.4 "></path></clipPath><g clip-path="url(#clip0x608004eae2e0)"><image xlink:href="../../B0AA1713-97D4-40B8-9578-D2576DFDE6E2/assets/39FF6B4CBDB334DB044D3EEAA0837883.png" width="292.00" height="239.00" transform="matrix(0.17, 0.00, -0.00, -0.18, 922.0, 196.0)"></image></g></g><g><clipPath id="clip0x608004eae340"><path d="M 445.4 276.9 L 704.2 276.9 L 704.2 396.2 L 445.4 396.2 Z M 445.4 276.9 "></path></clipPath><g clip-path="url(#clip0x608004eae340)"><path d="M -0.4 102.7 L -0.4 9.9 C -0.4 4.4 4.4 0.2 9.9 0.2 L 241.9 0.2 C 247.3 0.2 251.6 4.4 251.6 9.9 L 251.6 102.4 C 251.6 107.9 247.3 112.2 241.9 112.2 L 9.9 112.2 C 4.4 112.2 -0.4 108.1 -0.4 102.7 Z M 0.0 102.4 " fill="none" stroke="#595E5D" stroke-width="5.00" transform="matrix(1.00, 0.00, 0.00, -1.00, 448.9, 392.7)"></path></g></g><g><clipPath id="clip0x6000050b77c0"><path d="M 457.9 309.2 L 691.7 309.2 L 691.7 380.4 L 457.9 380.4 Z M 457.9 309.2 "></path></clipPath><g clip-path="url(#clip0x6000050b77c0)"><text xml:space="preserve" font-family="GillSans,Gill Sans" font-size="25.0" fill="#525252" transform="matrix(1.00, 0.00, -0.00, -1.00, 516.9, 350.0)">C</text><text xml:space="preserve" font-family="GillSans,Gill Sans" font-size="25.0" fill="#525252" transform="matrix(1.00, 0.00, -0.00, -1.00, 534.6, 350.0)">O</text><text xml:space="preserve" font-family="GillSans,Gill Sans" font-size="25.0" fill="#525252" transform="matrix(1.00, 0.00, -0.00, -1.00, 555.1, 350.0)">M</text><text xml:space="preserve" font-family="GillSans,Gill Sans" font-size="25.0" fill="#525252" transform="matrix(1.00, 0.00, -0.00, -1.00, 574.7, 350.0)">P</text><text xml:space="preserve" font-family="GillSans,Gill Sans" font-size="25.0" fill="#525252" transform="matrix(1.00, 0.00, -0.00, -1.00, 587.4, 350.0)">U</text><text xml:space="preserve" font-family="GillSans,Gill Sans" font-size="25.0" fill="#525252" transform="matrix(1.00, 0.00, -0.00, -1.00, 605.1, 350.0)">T</text><text xml:space="preserve" font-family="GillSans,Gill Sans" font-size="25.0" fill="#525252" transform="matrix(1.00, 0.00, -0.00, -1.00, 620.2, 350.0)">E</text><text xml:space="preserve" font-family="GillSans-Light,Gill Sans" font-size="25.0" fill="#525252" transform="matrix(1.00, 0.00, -0.00, -1.00, 526.3, 322.2)"> </text><text xml:space="preserve" font-family="GillSans-Light,Gill Sans" font-size="25.0" fill="#525252" transform="matrix(1.00, 0.00, -0.00, -1.00, 533.2, 322.2)">N</text><text xml:space="preserve" font-family="GillSans-Light,Gill Sans" font-size="25.0" fill="#525252" transform="matrix(1.00, 0.00, -0.00, -1.00, 552.5, 322.2)">O</text><text xml:space="preserve" font-family="GillSans-Light,Gill Sans" font-size="25.0" fill="#525252" transform="matrix(1.00, 0.00, -0.00, -1.00, 573.1, 322.2)">D</text><text xml:space="preserve" font-family="GillSans-Light,Gill Sans" font-size="25.0" fill="#525252" transform="matrix(1.00, 0.00, -0.00, -1.00, 591.6, 322.2)">E</text><text xml:space="preserve" font-family="GillSans-Light,Gill Sans" font-size="25.0" fill="#525252" transform="matrix(1.00, 0.00, -0.00, -1.00, 603.8, 322.2)"> </text><text xml:space="preserve" font-family="GillSans-Light,Gill Sans" font-size="25.0" fill="#525252" transform="matrix(1.00, 0.00, -0.00, -1.00, 610.8, 322.2)">2</text></g></g><g><clipPath id="clip0x6000050b7ee0"><path d="M 643.7 289.8 L 695.0 289.8 L 695.0 331.8 L 643.7 331.8 Z M 643.7 289.8 "></path></clipPath><g clip-path="url(#clip0x6000050b7ee0)"><image xlink:href="../../B0AA1713-97D4-40B8-9578-D2576DFDE6E2/assets/39FF6B4CBDB334DB044D3EEAA0837883.png" width="292.00" height="239.00" transform="matrix(0.17, 0.00, -0.00, -0.18, 644.0, 332.0)"></image></g></g><g><clipPath id="clip0x6000050b7f40"><path d="M 547.1 197.1 L 561.6 197.1 L 561.6 211.6 L 547.1 211.6 Z M 547.1 197.1 "></path></clipPath><g clip-path="url(#clip0x6000050b7f40)"><path d="M 558.8 208.8 C 561.2 206.3 561.2 202.4 558.8 200.0 C 556.4 197.5 552.4 197.5 550.0 200.0 C 547.5 202.4 547.5 206.3 550.0 208.8 C 552.4 211.2 556.4 211.2 558.8 208.8 Z M 558.8 208.8 " fill="#7F8685"></path></g></g><g><clipPath id="clip0x6000050b8360"><path d="M 567.5 197.1 L 582.0 197.1 L 582.0 211.6 L 567.5 211.6 Z M 567.5 197.1 "></path></clipPath><g clip-path="url(#clip0x6000050b8360)"><path d="M 579.2 208.8 C 581.6 206.3 581.6 202.4 579.2 200.0 C 576.8 197.5 572.8 197.5 570.4 200.0 C 567.9 202.4 567.9 206.3 570.4 208.8 C 572.8 211.2 576.8 211.2 579.2 208.8 Z M 579.2 208.8 " fill="#7F8685"></path></g></g><g><clipPath id="clip0x6000050b85a0"><path d="M 587.9 197.1 L 602.4 197.1 L 602.4 211.6 L 587.9 211.6 Z M 587.9 197.1 "></path></clipPath><g clip-path="url(#clip0x6000050b85a0)"><path d="M 599.6 208.8 C 602.0 206.3 602.0 202.4 599.6 200.0 C 597.2 197.5 593.2 197.5 590.8 200.0 C 588.3 202.4 588.3 206.3 590.8 208.8 C 593.2 211.2 597.2 211.2 599.6 208.8 Z M 599.6 208.8 " fill="#7F8685"></path></g></g><image xlink:href="../../B0AA1713-97D4-40B8-9578-D2576DFDE6E2/assets/39FF6B4CBDB334DB044D3EEAA0837883.png" width="292.00" height="239.00" transform="matrix(0.24, 0.00, -0.00, -0.24, 212.0, 479.0)"></image><image xlink:href="../../BE03AB4A-F5E0-4685-80C7-20DCBC62631F/assets/9A6ABB4995EF94E3903C16036EBAD4B5.png" width="720.00" height="720.00" transform="matrix(0.06, 0.00, -0.00, -0.06, 27.0, 739.0)"></image></g></svg>