<?xml version="1.0" encoding="UTF-8" standalone="no"?><svg xmlns="http://www.w3.org/2000/svg" xmlns:xlink="http://www.w3.org/1999/xlink" clip-rule="evenodd" stroke-miterlimit="10" viewBox="0 0 238 308"><desc>SVG generated by Keynote</desc><defs></defs><g transform="matrix(1.00, 0.00, -0.00, -1.00, 0.0, 308.0)"><g><clipPath id="clip0x608003eb9260"><path d="M 140.2 65.8 L 0.5 153.7 L 97.4 307.8 L 237.2 219.9 Z M 140.2 65.8 "></path></clipPath><g clip-path="url(#clip0x608003eb9260)"><path d="M 70.9 110.6 C 109.0 86.6 159.3 98.1 183.3 136.2 C 204.0 169.1 198.2 211.1 171.7 237.4 L 165.7 263.7 L 139.4 257.1 C 104.7 268.3 65.6 255.3 45.3 223.0 C 21.3 184.9 32.8 134.5 70.9 110.6 Z M 70.9 110.6 " fill="#0096FF"></path></g></g><g><clipPath id="clip0x6080038b2fc0"><path d="M 45.9 107.5 L 188.7 107.5 L 188.7 250.3 L 45.9 250.3 Z M 45.9 107.5 "></path></clipPath><g clip-path="url(#clip0x6080038b2fc0)"><path d="M 46.9 178.9 C 46.9 217.8 78.4 249.3 117.3 249.3 C 156.2 249.3 187.7 217.8 187.7 178.9 C 187.7 140.0 156.2 108.5 117.3 108.5 C 78.4 108.5 46.9 140.0 46.9 178.9 Z M 46.9 178.9 " fill="#FFFFFF"></path></g></g><g><clipPath id="clip0x6080040b1dc0"><path d="M 31.8 96.4 L 196.8 96.4 L 196.8 261.4 L 31.8 261.4 Z M 31.8 96.4 "></path></clipPath><g clip-path="url(#clip0x6080040b1dc0)"><path d="M 169.7 204.0 C 169.7 203.1 168.9 202.0 168.0 202.0 L 60.5 202.0 C 59.6 202.0 59.0 203.1 59.0 204.0 L 59.0 205.6 C 59.0 206.5 59.7 207.0 60.5 207.3 L 114.3 225.7 L 168.0 207.3 C 169.0 206.9 169.7 206.5 169.7 205.6 C 169.7 205.6 169.7 204.0 169.7 204.0 Z M 152.1 192.2 L 152.0 153.0 L 139.0 153.0 L 139.0 192.2 C 139.0 192.2 152.1 192.2 152.1 192.2 Z M 138.3 194.1 C 137.4 194.1 137.0 194.9 137.0 195.8 L 137.0 198.8 C 137.0 199.7 137.4 200.0 138.3 200.0 L 153.2 200.0 C 154.1 200.0 155.0 199.7 155.0 198.8 L 155.0 195.8 C 155.0 194.9 154.1 194.1 153.2 194.1 C 153.2 194.1 138.3 194.1 138.3 194.1 Z M 120.6 192.2 L 121.0 153.0 L 108.0 153.0 L 108.0 192.2 C 108.0 192.2 120.6 192.2 120.6 192.2 Z M 106.8 194.1 C 105.9 194.1 105.0 194.9 105.0 195.8 L 105.0 198.8 C 105.0 199.7 105.9 200.0 106.8 200.0 L 121.7 200.0 C 122.6 200.0 123.0 199.7 123.0 198.8 L 123.0 195.8 C 123.0 194.9 122.6 194.1 121.7 194.1 C 121.7 194.1 106.8 194.1 106.8 194.1 Z M 161.0 150.8 C 161.9 150.8 163.0 150.1 163.0 149.2 L 163.0 145.9 C 163.0 145.0 161.9 144.0 161.0 144.0 L 67.6 144.0 C 66.7 144.0 66.0 145.0 66.0 145.9 L 66.0 149.2 C 66.0 150.1 66.7 150.8 67.6 150.8 C 67.6 150.8 161.0 150.8 161.0 150.8 Z M 89.2 192.2 L 89.0 153.0 L 77.0 153.0 L 77.0 192.2 C 77.0 192.2 89.2 192.2 89.2 192.2 Z M 75.4 194.1 C 74.5 194.1 74.0 194.9 74.0 195.8 L 74.0 198.8 C 74.0 199.7 74.5 200.0 75.4 200.0 L 90.3 200.0 C 91.2 200.0 92.0 199.7 92.0 198.8 L 92.0 195.8 C 92.0 194.9 91.2 194.1 90.3 194.1 C 90.3 194.1 75.4 194.1 75.4 194.1 Z M 166.8 137.4 C 166.8 136.5 166.1 136.0 165.1 136.0 L 63.4 136.0 C 62.5 136.0 62.0 136.5 62.0 137.4 L 62.0 140.7 C 62.0 141.6 62.5 142.0 63.4 142.0 L 165.1 142.0 C 166.1 142.0 166.8 141.6 166.8 140.7 C 166.8 140.7 166.8 137.4 166.8 137.4 Z M 114.3 260.4 C 69.3 260.4 32.8 223.9 32.8 178.9 C 32.8 133.8 69.3 97.4 114.3 97.4 C 159.3 97.4 195.8 133.8 195.8 178.9 C 195.8 223.9 159.3 260.4 114.3 260.4 Z M 114.3 260.4 " fill="#0096FF"></path></g></g><g><clipPath id="clip0x6080036a1440"><path d="M 23.6 -5.0 L 282.2 -5.0 L 282.2 97.6 L 23.6 97.6 Z M 23.6 -5.0 "></path></clipPath><g clip-path="url(#clip0x6080036a1440)"><text xml:space="preserve" font-family="GillSans,Gill Sans" font-size="36.0" fill="#525252" transform="matrix(1.00, 0.00, -0.00, -1.00, 96.3, 54.6)">4</text><text xml:space="preserve" font-family="GillSans,Gill Sans" font-size="36.0" fill="#525252" transform="matrix(1.00, 0.00, -0.00, -1.00, 114.3, 54.6)">9</text><text xml:space="preserve" font-family="GillSans,Gill Sans" font-size="36.0" fill="#525252" transform="matrix(1.00, 0.00, -0.00, -1.00, 132.3, 54.6)">1</text><text xml:space="preserve" font-family="GillSans-Light,Gill Sans" font-size="36.0" fill="#525252" transform="matrix(1.00, 0.00, -0.00, -1.00, 34.4, 13.9)">C</text><text xml:space="preserve" font-family="GillSans-Light,Gill Sans" font-size="36.0" fill="#525252" transform="matrix(1.00, 0.00, -0.00, -1.00, 58.8, 13.9)">o</text><text xml:space="preserve" font-family="GillSans-Light,Gill Sans" font-size="36.0" fill="#525252" transform="matrix(1.00, 0.00, -0.00, -1.00, 78.3, 13.9)">m</text><text xml:space="preserve" font-family="GillSans-Light,Gill Sans" font-size="36.0" fill="#525252" transform="matrix(1.00, 0.00, -0.00, -1.00, 106.0, 13.9)">p</text><text xml:space="preserve" font-family="GillSans-Light,Gill Sans" font-size="36.0" fill="#525252" transform="matrix(1.00, 0.00, -0.00, -1.00, 124.4, 13.9)">a</text><text xml:space="preserve" font-family="GillSans-Light,Gill Sans" font-size="36.0" fill="#525252" transform="matrix(1.00, 0.00, -0.00, -1.00, 139.7, 13.9)">n</text><text xml:space="preserve" font-family="GillSans-Light,Gill Sans" font-size="36.0" fill="#525252" transform="matrix(1.00, 0.00, -0.00, -1.00, 157.4, 13.9)">i</text><text xml:space="preserve" font-family="GillSans-Light,Gill Sans" font-size="36.0" fill="#525252" transform="matrix(1.00, 0.00, -0.00, -1.00, 164.2, 13.9)">e</text><text xml:space="preserve" font-family="GillSans-Light,Gill Sans" font-size="36.0" fill="#525252" transform="matrix(1.00, 0.00, -0.00, -1.00, 181.4, 13.9)">s</text></g></g></g></svg>