<?xml version="1.0" encoding="UTF-8" standalone="no"?><svg xmlns="http://www.w3.org/2000/svg" xmlns:xlink="http://www.w3.org/1999/xlink" clip-rule="evenodd" stroke-miterlimit="10" viewBox="0 0 297 291"><desc>SVG generated by Keynote</desc><defs></defs><g transform="matrix(1.00, 0.00, -0.00, -1.00, 0.0, 291.0)"><g><clipPath id="clip0x6080040a22e0"><path d="M 237.4 207.7 L 162.5 60.7 L 0.3 143.3 L 75.2 290.4 Z M 237.4 207.7 "></path></clipPath><g clip-path="url(#clip0x6080040a22e0)"><path d="M 199.1 134.6 C 219.5 174.8 203.6 223.9 163.5 244.3 C 128.8 262.0 87.5 252.4 63.7 223.7 L 38.0 215.3 L 47.0 189.7 C 38.9 154.2 55.5 116.3 89.4 99.0 C 129.5 78.6 178.6 94.5 199.1 134.6 Z M 199.1 134.6 " fill="#FFA254"></path></g></g><g><clipPath id="clip0x6080040a4bc0"><path d="M 53.8 116.9 L 199.0 116.9 L 199.0 242.4 L 53.8 242.4 Z M 53.8 116.9 "></path></clipPath><g clip-path="url(#clip0x6080040a4bc0)"><text xml:space="preserve" font-family="GillSans-BoldItalic,Gill Sans" font-style="italic" font-weight="bold" font-size="60.0" fill="#FEFFFE" transform="matrix(1.00, 0.00, -0.00, -1.00, 94.6, 158.5)">{</text><text xml:space="preserve" font-family="GillSans-BoldItalic,Gill Sans" font-style="italic" font-weight="bold" font-size="60.0" fill="#FEFFFE" transform="matrix(1.00, 0.00, -0.00, -1.00, 117.7, 158.5)"> </text><text xml:space="preserve" font-family="GillSans-BoldItalic,Gill Sans" font-style="italic" font-weight="bold" font-size="60.0" fill="#FEFFFE" transform="matrix(1.00, 0.00, -0.00, -1.00, 135.2, 158.5)">}</text></g></g><g><clipPath id="clip0x6000038b6d40"><path d="M 81.6 -4.4 L 392.6 -4.4 L 392.6 98.2 L 81.6 98.2 Z M 81.6 -4.4 "></path></clipPath><g clip-path="url(#clip0x6000038b6d40)"><text xml:space="preserve" font-family="GillSans,Gill Sans" font-size="36.0" fill="#525252" transform="matrix(1.00, 0.00, -0.00, -1.00, 149.4, 55.2)">2</text><text xml:space="preserve" font-family="GillSans,Gill Sans" font-size="36.0" fill="#525252" transform="matrix(1.00, 0.00, -0.00, -1.00, 167.4, 55.2)">0</text><text xml:space="preserve" font-family="GillSans,Gill Sans" font-size="36.0" fill="#525252" transform="matrix(1.00, 0.00, -0.00, -1.00, 185.4, 55.2)">M</text><text xml:space="preserve" font-family="GillSans,Gill Sans" font-size="36.0" fill="#525252" transform="matrix(1.00, 0.00, -0.00, -1.00, 213.5, 55.2)">+</text><text xml:space="preserve" font-family="GillSans-Light,Gill Sans" font-size="36.0" fill="#525252" transform="matrix(1.00, 0.00, -0.00, -1.00, 92.5, 14.4)">L</text><text xml:space="preserve" font-family="GillSans-Light,Gill Sans" font-size="36.0" fill="#525252" transform="matrix(1.00, 0.00, -0.00, -1.00, 109.4, 14.4)">i</text><text xml:space="preserve" font-family="GillSans-Light,Gill Sans" font-size="36.0" fill="#525252" transform="matrix(1.00, 0.00, -0.00, -1.00, 116.2, 14.4)">n</text><text xml:space="preserve" font-family="GillSans-Light,Gill Sans" font-size="36.0" fill="#525252" transform="matrix(1.00, 0.00, -0.00, -1.00, 133.8, 14.4)">e</text><text xml:space="preserve" font-family="GillSans-Light,Gill Sans" font-size="36.0" fill="#525252" transform="matrix(1.00, 0.00, -0.00, -1.00, 151.1, 14.4)">s</text><text xml:space="preserve" font-family="GillSans-Light,Gill Sans" font-size="36.0" fill="#525252" transform="matrix(1.00, 0.00, -0.00, -1.00, 163.8, 14.4)"> </text><text xml:space="preserve" font-family="GillSans-Light,Gill Sans" font-size="36.0" fill="#525252" transform="matrix(1.00, 0.00, -0.00, -1.00, 173.8, 14.4)">o</text><text xml:space="preserve" font-family="GillSans-Light,Gill Sans" font-size="36.0" fill="#525252" transform="matrix(1.00, 0.00, -0.00, -1.00, 193.3, 14.4)">f</text><text xml:space="preserve" font-family="GillSans-Light,Gill Sans" font-size="36.0" fill="#525252" transform="matrix(1.00, 0.00, -0.00, -1.00, 202.0, 14.4)"> </text><text xml:space="preserve" font-family="GillSans-Light,Gill Sans" font-size="36.0" fill="#525252" transform="matrix(1.00, 0.00, -0.00, -1.00, 212.0, 14.4)">C</text><text xml:space="preserve" font-family="GillSans-Light,Gill Sans" font-size="36.0" fill="#525252" transform="matrix(1.00, 0.00, -0.00, -1.00, 236.3, 14.4)">o</text><text xml:space="preserve" font-family="GillSans-Light,Gill Sans" font-size="36.0" fill="#525252" transform="matrix(1.00, 0.00, -0.00, -1.00, 255.8, 14.4)">d</text><text xml:space="preserve" font-family="GillSans-Light,Gill Sans" font-size="36.0" fill="#525252" transform="matrix(1.00, 0.00, -0.00, -1.00, 274.2, 14.4)">e</text></g></g></g></svg>