<?xml version="1.0" encoding="UTF-8" standalone="no"?><svg xmlns="http://www.w3.org/2000/svg" xmlns:xlink="http://www.w3.org/1999/xlink" clip-rule="evenodd" stroke-miterlimit="10" viewBox="0 0 244 152"><desc>SVG generated by Keynote</desc><defs></defs><g transform="matrix(1.00, 0.00, -0.00, -1.00, 0.0, 152.0)"><path d="M 1.6 25.2 L 2.0 127.5 C 2.0 140.3 12.0 151.0 24.8 151.0 L 219.7 151.0 C 232.5 151.0 243.0 140.3 243.0 127.5 L 243.0 25.2 C 243.0 12.4 232.5 2.0 219.7 2.0 L 24.8 2.0 C 12.0 2.0 1.6 12.4 1.6 25.2 Z M 1.6 25.2 " fill="#4BA034"></path><g><clipPath id="clip0x6080042aea00"><path d="M -4.7 2.0 L 249.2 2.0 L 249.2 150.7 L -4.7 150.7 Z M -4.7 2.0 "></path></clipPath><g clip-path="url(#clip0x6080042aea00)"><text xml:space="preserve" font-family="GillSans,Gill Sans" font-size="36.0" fill="#FEFFFF" transform="matrix(1.00, 0.00, -0.00, -1.00, 19.4, 84.3)">S</text><text xml:space="preserve" font-family="GillSans,Gill Sans" font-size="36.0" fill="#FEFFFF" transform="matrix(1.00, 0.00, -0.00, -1.00, 35.9, 84.3)">I</text><text xml:space="preserve" font-family="GillSans,Gill Sans" font-size="36.0" fill="#FEFFFF" transform="matrix(1.00, 0.00, -0.00, -1.00, 44.9, 84.3)">M</text><text xml:space="preserve" font-family="GillSans,Gill Sans" font-size="36.0" fill="#FEFFFF" transform="matrix(1.00, 0.00, -0.00, -1.00, 73.0, 84.3)">U</text><text xml:space="preserve" font-family="GillSans,Gill Sans" font-size="36.0" fill="#FEFFFF" transform="matrix(1.00, 0.00, -0.00, -1.00, 98.5, 84.3)">L</text><text xml:space="preserve" font-family="GillSans,Gill Sans" font-size="36.0" fill="#FEFFFF" transform="matrix(1.00, 0.00, -0.00, -1.00, 116.2, 84.3)">A</text><text xml:space="preserve" font-family="GillSans,Gill Sans" font-size="36.0" fill="#FEFFFF" transform="matrix(1.00, 0.00, -0.00, -1.00, 136.6, 84.3)">T</text><text xml:space="preserve" font-family="GillSans,Gill Sans" font-size="36.0" fill="#FEFFFF" transform="matrix(1.00, 0.00, -0.00, -1.00, 158.3, 84.3)">I</text><text xml:space="preserve" font-family="GillSans,Gill Sans" font-size="36.0" fill="#FEFFFF" transform="matrix(1.00, 0.00, -0.00, -1.00, 167.3, 84.3)">O</text><text xml:space="preserve" font-family="GillSans,Gill Sans" font-size="36.0" fill="#FEFFFF" transform="matrix(1.00, 0.00, -0.00, -1.00, 197.0, 84.3)">N</text><text xml:space="preserve" font-family="GillSans,Gill Sans" font-size="36.0" fill="#FEFFFF" transform="matrix(1.00, 0.00, -0.00, -1.00, 225.1, 84.3)"> </text><text xml:space="preserve" font-family="GillSans,Gill Sans" font-size="36.0" fill="#FEFFFF" transform="matrix(1.00, 0.00, -0.00, -1.00, 38.7, 43.3)">D</text><text xml:space="preserve" font-family="GillSans,Gill Sans" font-size="36.0" fill="#FEFFFF" transform="matrix(1.00, 0.00, -0.00, -1.00, 63.7, 43.3)">A</text><text xml:space="preserve" font-family="GillSans,Gill Sans" font-size="36.0" fill="#FEFFFF" transform="matrix(1.00, 0.00, -0.00, -1.00, 84.1, 43.3)">T</text><text xml:space="preserve" font-family="GillSans,Gill Sans" font-size="36.0" fill="#FEFFFF" transform="matrix(1.00, 0.00, -0.00, -1.00, 102.3, 43.3)">A</text><text xml:space="preserve" font-family="GillSans,Gill Sans" font-size="36.0" fill="#FEFFFF" transform="matrix(1.00, 0.00, -0.00, -1.00, 126.3, 43.3)">B</text><text xml:space="preserve" font-family="GillSans,Gill Sans" font-size="36.0" fill="#FEFFFF" transform="matrix(1.00, 0.00, -0.00, -1.00, 147.3, 43.3)">A</text><text xml:space="preserve" font-family="GillSans,Gill Sans" font-size="36.0" fill="#FEFFFF" transform="matrix(1.00, 0.00, -0.00, -1.00, 171.3, 43.3)">S</text><text xml:space="preserve" font-family="GillSans,Gill Sans" font-size="36.0" fill="#FEFFFF" transform="matrix(1.00, 0.00, -0.00, -1.00, 187.8, 43.3)">E</text></g></g></g></svg>