<?xml version="1.0" encoding="UTF-8" standalone="no"?><svg xmlns="http://www.w3.org/2000/svg" xmlns:xlink="http://www.w3.org/1999/xlink" clip-rule="evenodd" stroke-miterlimit="10" viewBox="0 0 244 152"><desc>SVG generated by Keynote</desc><defs></defs><g transform="matrix(1.00, 0.00, -0.00, -1.00, 0.0, 152.0)"><path d="M 1.6 24.1 L 2.0 128.2 C 2.0 140.6 11.6 151.0 23.9 151.0 L 220.6 151.0 C 232.9 151.0 243.0 140.6 243.0 128.2 L 243.0 24.1 C 243.0 11.8 232.9 2.0 220.6 2.0 L 23.9 2.0 C 11.6 2.0 1.6 11.8 1.6 24.1 Z M 1.6 24.1 " fill="#4F27AE"></path><g><clipPath id="clip0x6000042bdd00"><path d="M -4.7 1.8 L 249.2 1.8 L 249.2 150.6 L -4.7 150.6 Z M -4.7 1.8 "></path></clipPath><g clip-path="url(#clip0x6000042bdd00)"><text xml:space="preserve" font-family="GillSans,Gill Sans" font-size="36.0" fill="#FEFFFF" transform="matrix(1.00, 0.00, -0.00, -1.00, 19.4, 84.1)">S</text><text xml:space="preserve" font-family="GillSans,Gill Sans" font-size="36.0" fill="#FEFFFF" transform="matrix(1.00, 0.00, -0.00, -1.00, 35.9, 84.1)">I</text><text xml:space="preserve" font-family="GillSans,Gill Sans" font-size="36.0" fill="#FEFFFF" transform="matrix(1.00, 0.00, -0.00, -1.00, 44.9, 84.1)">M</text><text xml:space="preserve" font-family="GillSans,Gill Sans" font-size="36.0" fill="#FEFFFF" transform="matrix(1.00, 0.00, -0.00, -1.00, 73.0, 84.1)">U</text><text xml:space="preserve" font-family="GillSans,Gill Sans" font-size="36.0" fill="#FEFFFF" transform="matrix(1.00, 0.00, -0.00, -1.00, 98.5, 84.1)">L</text><text xml:space="preserve" font-family="GillSans,Gill Sans" font-size="36.0" fill="#FEFFFF" transform="matrix(1.00, 0.00, -0.00, -1.00, 116.2, 84.1)">A</text><text xml:space="preserve" font-family="GillSans,Gill Sans" font-size="36.0" fill="#FEFFFF" transform="matrix(1.00, 0.00, -0.00, -1.00, 136.6, 84.1)">T</text><text xml:space="preserve" font-family="GillSans,Gill Sans" font-size="36.0" fill="#FEFFFF" transform="matrix(1.00, 0.00, -0.00, -1.00, 158.3, 84.1)">I</text><text xml:space="preserve" font-family="GillSans,Gill Sans" font-size="36.0" fill="#FEFFFF" transform="matrix(1.00, 0.00, -0.00, -1.00, 167.3, 84.1)">O</text><text xml:space="preserve" font-family="GillSans,Gill Sans" font-size="36.0" fill="#FEFFFF" transform="matrix(1.00, 0.00, -0.00, -1.00, 197.0, 84.1)">N</text><text xml:space="preserve" font-family="GillSans,Gill Sans" font-size="36.0" fill="#FEFFFF" transform="matrix(1.00, 0.00, -0.00, -1.00, 225.1, 84.1)"> </text><text xml:space="preserve" font-family="GillSans,Gill Sans" font-size="36.0" fill="#FEFFFF" transform="matrix(1.00, 0.00, -0.00, -1.00, 74.1, 43.1)">T</text><text xml:space="preserve" font-family="GillSans,Gill Sans" font-size="36.0" fill="#FEFFFF" transform="matrix(1.00, 0.00, -0.00, -1.00, 93.5, 43.1)">O</text><text xml:space="preserve" font-family="GillSans,Gill Sans" font-size="36.0" fill="#FEFFFF" transform="matrix(1.00, 0.00, -0.00, -1.00, 123.1, 43.1)">O</text><text xml:space="preserve" font-family="GillSans,Gill Sans" font-size="36.0" fill="#FEFFFF" transform="matrix(1.00, 0.00, -0.00, -1.00, 152.8, 43.1)">L</text></g></g></g></svg>