<?xml version="1.0" encoding="UTF-8" standalone="no"?><svg xmlns="http://www.w3.org/2000/svg" xmlns:xlink="http://www.w3.org/1999/xlink" clip-rule="evenodd" stroke-miterlimit="10" viewBox="0 0 270 250"><desc>SVG generated by Keynote</desc><defs></defs><g transform="matrix(1.00, 0.00, -0.00, -1.00, 0.0, 250.0)"><g><clipPath id="clip0x6000042b3a40"><path d="M 0.3 31.8 L 249.2 31.8 L 249.2 249.6 L 0.3 249.6 Z M 0.3 31.8 "></path></clipPath><g clip-path="url(#clip0x6000042b3a40)"><path d="M -0.3 204.1 L -0.3 7.0 C -0.3 3.1 3.1 -0.4 7.0 -0.4 L 234.9 -0.4 C 238.8 -0.4 241.7 3.1 241.7 7.0 L 241.7 203.8 C 241.7 207.6 238.8 210.6 234.9 210.6 L 7.0 210.6 C 3.1 210.6 -0.3 208.0 -0.3 204.1 Z M 0.0 203.8 " fill="none" stroke="#4F27AE" stroke-width="5.00" transform="matrix(1.00, 0.00, 0.00, -1.00, 3.8, 246.1)"></path></g></g><g><clipPath id="clip0x6000042b4100"><path d="M 12.6 200.3 L 237.0 200.3 L 237.0 237.8 L 12.6 237.8 Z M 12.6 200.3 "></path></clipPath><g clip-path="url(#clip0x6000042b4100)"><text xml:space="preserve" font-family="LucidaConsole,Lucida Console" font-size="25.0" fill="#4F27AE" transform="matrix(1.00, 0.00, -0.00, -1.00, 19.3, 211.9)">o</text><text xml:space="preserve" font-family="LucidaConsole,Lucida Console" font-size="25.0" fill="#4F27AE" transform="matrix(1.00, 0.00, -0.00, -1.00, 34.4, 211.9)">s</text><text xml:space="preserve" font-family="LucidaConsole,Lucida Console" font-size="25.0" fill="#4F27AE" transform="matrix(1.00, 0.00, -0.00, -1.00, 49.4, 211.9)">c</text><text xml:space="preserve" font-family="LucidaConsole,Lucida Console" font-size="25.0" fill="#4F27AE" transform="matrix(1.00, 0.00, -0.00, -1.00, 64.5, 211.9)">a</text><text xml:space="preserve" font-family="LucidaConsole,Lucida Console" font-size="25.0" fill="#4F27AE" transform="matrix(1.00, 0.00, -0.00, -1.00, 79.5, 211.9)">r</text><text xml:space="preserve" font-family="LucidaConsole,Lucida Console" font-size="25.0" fill="#4F27AE" transform="matrix(1.00, 0.00, -0.00, -1.00, 94.6, 211.9)">d</text><text xml:space="preserve" font-family="LucidaConsole,Lucida Console" font-size="25.0" fill="#4F27AE" transform="matrix(1.00, 0.00, -0.00, -1.00, 109.6, 211.9)">.</text><text xml:space="preserve" font-family="LucidaConsole,Lucida Console" font-size="25.0" fill="#4F27AE" transform="matrix(1.00, 0.00, -0.00, -1.00, 124.7, 211.9)">s</text><text xml:space="preserve" font-family="LucidaConsole,Lucida Console" font-size="25.0" fill="#4F27AE" transform="matrix(1.00, 0.00, -0.00, -1.00, 139.7, 211.9)">i</text><text xml:space="preserve" font-family="LucidaConsole,Lucida Console" font-size="25.0" fill="#4F27AE" transform="matrix(1.00, 0.00, -0.00, -1.00, 154.8, 211.9)">m</text><text xml:space="preserve" font-family="LucidaConsole,Lucida Console" font-size="25.0" fill="#4F27AE" transform="matrix(1.00, 0.00, -0.00, -1.00, 169.8, 211.9)">.</text><text xml:space="preserve" font-family="LucidaConsole,Lucida Console" font-size="25.0" fill="#4F27AE" transform="matrix(1.00, 0.00, -0.00, -1.00, 184.9, 211.9)">a</text><text xml:space="preserve" font-family="LucidaConsole,Lucida Console" font-size="25.0" fill="#4F27AE" transform="matrix(1.00, 0.00, -0.00, -1.00, 199.9, 211.9)">p</text><text xml:space="preserve" font-family="LucidaConsole,Lucida Console" font-size="25.0" fill="#4F27AE" transform="matrix(1.00, 0.00, -0.00, -1.00, 215.0, 211.9)">i</text></g></g><g><clipPath id="clip0x6000042b4820"><path d="M 226.0 0.6 L 269.3 0.6 L 269.3 94.9 L 226.0 94.9 Z M 226.0 0.6 "></path></clipPath><g clip-path="url(#clip0x6000042b4820)"><path d="M 229.0 92.0 L 266.0 92.0 L 266.0 4.0 L 229.0 4.0 Z M 229.0 91.9 " fill="#B4B4B4"></path><path d="M -0.0 -0.1 L 37.0 -0.1 L 37.0 87.9 L -0.0 87.9 Z M 0.0 0.0 " fill="none" stroke="#5A5E5D" stroke-width="4.00" transform="matrix(1.00, 0.00, 0.00, -1.00, 229.0, 91.9)"></path></g></g><g><clipPath id="clip0x6000042b4b20"><path d="M 256.5 81.8 L 263.6 81.8 L 263.6 88.8 L 256.5 88.8 Z M 256.5 81.8 "></path></clipPath><g clip-path="url(#clip0x6000042b4b20)"><path d="M 263.0 83.0 L 258.0 83.0 L 258.0 88.0 L 263.0 88.0 Z M 262.6 82.8 " fill="#00F900"></path></g></g><g><clipPath id="clip0x6000042b4d60"><path d="M 256.5 75.0 L 263.6 75.0 L 263.6 82.1 L 256.5 82.1 Z M 256.5 75.0 "></path></clipPath><g clip-path="url(#clip0x6000042b4d60)"><path d="M 263.0 76.0 L 258.0 76.0 L 258.0 81.0 L 263.0 81.0 Z M 262.6 76.0 " fill="#FF2600"></path></g></g><g><clipPath id="clip0x6000042b4fa0"><path d="M 256.5 68.2 L 263.6 68.2 L 263.6 75.3 L 256.5 75.3 Z M 256.5 68.2 "></path></clipPath><g clip-path="url(#clip0x6000042b4fa0)"><path d="M 263.0 69.0 L 258.0 69.0 L 258.0 74.0 L 263.0 74.0 Z M 262.6 69.2 " fill="#7F8685"></path></g></g><g><clipPath id="clip0x6000042b51e0"><path d="M 18.4 97.3 L 231.1 97.3 L 231.1 162.2 L 18.4 162.2 Z M 18.4 97.3 "></path></clipPath><g clip-path="url(#clip0x6000042b51e0)"><path d="M 19.0 161.0 L 230.0 161.0 L 230.0 98.0 L 19.0 98.0 Z M 19.4 161.2 " fill="#2D93FA" fill-opacity="0.70"></path></g></g><g><clipPath id="clip0x6000042b5420"><path d="M 17.1 97.9 L 232.4 97.9 L 232.4 161.2 L 17.1 161.2 Z M 17.1 97.9 "></path></clipPath><g clip-path="url(#clip0x6000042b5420)"><text xml:space="preserve" font-family="LucidaConsole,Lucida Console" font-size="25.0" fill="#FEFFFF" transform="matrix(1.00, 0.00, -0.00, -1.00, 49.4, 134.5)">n</text><text xml:space="preserve" font-family="LucidaConsole,Lucida Console" font-size="25.0" fill="#FEFFFF" transform="matrix(1.00, 0.00, -0.00, -1.00, 64.5, 134.5)">o</text><text xml:space="preserve" font-family="LucidaConsole,Lucida Console" font-size="25.0" fill="#FEFFFF" transform="matrix(1.00, 0.00, -0.00, -1.00, 79.5, 134.5)">v</text><text xml:space="preserve" font-family="LucidaConsole,Lucida Console" font-size="25.0" fill="#FEFFFF" transform="matrix(1.00, 0.00, -0.00, -1.00, 94.6, 134.5)">a</text><text xml:space="preserve" font-family="LucidaConsole,Lucida Console" font-size="25.0" fill="#FEFFFF" transform="matrix(1.00, 0.00, -0.00, -1.00, 109.6, 134.5)">c</text><text xml:space="preserve" font-family="LucidaConsole,Lucida Console" font-size="25.0" fill="#FEFFFF" transform="matrix(1.00, 0.00, -0.00, -1.00, 124.7, 134.5)">l</text><text xml:space="preserve" font-family="LucidaConsole,Lucida Console" font-size="25.0" fill="#FEFFFF" transform="matrix(1.00, 0.00, -0.00, -1.00, 139.7, 134.5)">i</text><text xml:space="preserve" font-family="LucidaConsole,Lucida Console" font-size="25.0" fill="#FEFFFF" transform="matrix(1.00, 0.00, -0.00, -1.00, 154.8, 134.5)">e</text><text xml:space="preserve" font-family="LucidaConsole,Lucida Console" font-size="25.0" fill="#FEFFFF" transform="matrix(1.00, 0.00, -0.00, -1.00, 169.8, 134.5)">n</text><text xml:space="preserve" font-family="LucidaConsole,Lucida Console" font-size="25.0" fill="#FEFFFF" transform="matrix(1.00, 0.00, -0.00, -1.00, 184.9, 134.5)">t</text><text xml:space="preserve" font-family="LucidaConsole,Lucida Console" font-size="25.0" fill="#FEFFFF" transform="matrix(1.00, 0.00, -0.00, -1.00, 200.1, 134.5)"> </text><text xml:space="preserve" font-family="LucidaConsole,Lucida Console" font-size="25.0" fill="#FEFFFF" transform="matrix(1.00, 0.00, -0.00, -1.00, 57.0, 109.5)">.</text><text xml:space="preserve" font-family="LucidaConsole,Lucida Console" font-size="25.0" fill="#FEFFFF" transform="matrix(1.00, 0.00, -0.00, -1.00, 72.0, 109.5)">c</text><text xml:space="preserve" font-family="LucidaConsole,Lucida Console" font-size="25.0" fill="#FEFFFF" transform="matrix(1.00, 0.00, -0.00, -1.00, 87.1, 109.5)">r</text><text xml:space="preserve" font-family="LucidaConsole,Lucida Console" font-size="25.0" fill="#FEFFFF" transform="matrix(1.00, 0.00, -0.00, -1.00, 102.1, 109.5)">e</text><text xml:space="preserve" font-family="LucidaConsole,Lucida Console" font-size="25.0" fill="#FEFFFF" transform="matrix(1.00, 0.00, -0.00, -1.00, 117.2, 109.5)">a</text><text xml:space="preserve" font-family="LucidaConsole,Lucida Console" font-size="25.0" fill="#FEFFFF" transform="matrix(1.00, 0.00, -0.00, -1.00, 132.2, 109.5)">t</text><text xml:space="preserve" font-family="LucidaConsole,Lucida Console" font-size="25.0" fill="#FEFFFF" transform="matrix(1.00, 0.00, -0.00, -1.00, 147.3, 109.5)">e</text><text xml:space="preserve" font-family="LucidaConsole,Lucida Console" font-size="25.0" fill="#FEFFFF" transform="matrix(1.00, 0.00, -0.00, -1.00, 162.3, 109.5)">(</text><text xml:space="preserve" font-family="LucidaConsole,Lucida Console" font-size="25.0" fill="#FEFFFF" transform="matrix(1.00, 0.00, -0.00, -1.00, 177.4, 109.5)">)</text></g></g></g></svg>