<?xml version="1.0" encoding="UTF-8" standalone="no"?><svg xmlns="http://www.w3.org/2000/svg" xmlns:xlink="http://www.w3.org/1999/xlink" clip-rule="evenodd" stroke-miterlimit="10" viewBox="0 0 289 36"><desc>SVG generated by Keynote</desc><defs></defs><g transform="matrix(1.00, 0.00, -0.00, -1.00, 0.0, 36.0)"><text xml:space="preserve" font-family="GillSans-Light,Gill Sans" font-size="30.0" fill="#525252" transform="matrix(1.00, 0.00, -0.00, -1.00, 1.2, 8.5)">g</text><text xml:space="preserve" font-family="GillSans-Light,Gill Sans" font-size="30.0" fill="#525252" transform="matrix(1.00, 0.00, -0.00, -1.00, 14.0, 8.5)">i</text><text xml:space="preserve" font-family="GillSans-Light,Gill Sans" font-size="30.0" fill="#525252" transform="matrix(1.00, 0.00, -0.00, -1.00, 19.6, 8.5)">t</text><text xml:space="preserve" font-family="GillSans-Light,Gill Sans" font-size="30.0" fill="#525252" transform="matrix(1.00, 0.00, -0.00, -1.00, 28.6, 8.5)">h</text><text xml:space="preserve" font-family="GillSans-Light,Gill Sans" font-size="30.0" fill="#525252" transform="matrix(1.00, 0.00, -0.00, -1.00, 43.4, 8.5)">u</text><text xml:space="preserve" font-family="GillSans-Light,Gill Sans" font-size="30.0" fill="#525252" transform="matrix(1.00, 0.00, -0.00, -1.00, 58.1, 8.5)">b</text><text xml:space="preserve" font-family="GillSans-Light,Gill Sans" font-size="30.0" fill="#525252" transform="matrix(1.00, 0.00, -0.00, -1.00, 72.7, 8.5)">.</text><text xml:space="preserve" font-family="GillSans-Light,Gill Sans" font-size="30.0" fill="#525252" transform="matrix(1.00, 0.00, -0.00, -1.00, 78.0, 8.5)">c</text><text xml:space="preserve" font-family="GillSans-Light,Gill Sans" font-size="30.0" fill="#525252" transform="matrix(1.00, 0.00, -0.00, -1.00, 90.6, 8.5)">o</text><text xml:space="preserve" font-family="GillSans-Light,Gill Sans" font-size="30.0" fill="#525252" transform="matrix(1.00, 0.00, -0.00, -1.00, 106.8, 8.5)">m</text><text xml:space="preserve" font-family="GillSans-Light,Gill Sans" font-size="30.0" fill="#525252" transform="matrix(1.00, 0.00, -0.00, -1.00, 129.9, 8.5)">/</text><text xml:space="preserve" font-family="GillSans-Light,Gill Sans" font-size="30.0" fill="#525252" transform="matrix(1.00, 0.00, -0.00, -1.00, 138.4, 8.5)">a</text><text xml:space="preserve" font-family="GillSans-Light,Gill Sans" font-size="30.0" fill="#525252" transform="matrix(1.00, 0.00, -0.00, -1.00, 151.2, 8.5)">f</text><text xml:space="preserve" font-family="GillSans-Light,Gill Sans" font-size="30.0" fill="#525252" transform="matrix(1.00, 0.00, -0.00, -1.00, 158.4, 8.5)">f</text><text xml:space="preserve" font-family="GillSans-Light,Gill Sans" font-size="30.0" fill="#525252" transform="matrix(1.00, 0.00, -0.00, -1.00, 165.1, 8.5)">e</text><text xml:space="preserve" font-family="GillSans-Light,Gill Sans" font-size="30.0" fill="#525252" transform="matrix(1.00, 0.00, -0.00, -1.00, 179.5, 8.5)">a</text><text xml:space="preserve" font-family="GillSans-Light,Gill Sans" font-size="30.0" fill="#525252" transform="matrix(1.00, 0.00, -0.00, -1.00, 192.3, 8.5)">r</text><text xml:space="preserve" font-family="GillSans-Light,Gill Sans" font-size="30.0" fill="#525252" transform="matrix(1.00, 0.00, -0.00, -1.00, 202.3, 8.5)">/</text><text xml:space="preserve" font-family="GillSans-Light,Gill Sans" font-size="30.0" fill="#525252" transform="matrix(1.00, 0.00, -0.00, -1.00, 210.7, 8.5)">o</text><text xml:space="preserve" font-family="GillSans-Light,Gill Sans" font-size="30.0" fill="#525252" transform="matrix(1.00, 0.00, -0.00, -1.00, 227.0, 8.5)">s</text><text xml:space="preserve" font-family="GillSans-Light,Gill Sans" font-size="30.0" fill="#525252" transform="matrix(1.00, 0.00, -0.00, -1.00, 237.6, 8.5)">c</text><text xml:space="preserve" font-family="GillSans-Light,Gill Sans" font-size="30.0" fill="#525252" transform="matrix(1.00, 0.00, -0.00, -1.00, 250.1, 8.5)">a</text><text xml:space="preserve" font-family="GillSans-Light,Gill Sans" font-size="30.0" fill="#525252" transform="matrix(1.00, 0.00, -0.00, -1.00, 262.9, 8.5)">r</text><text xml:space="preserve" font-family="GillSans-Light,Gill Sans" font-size="30.0" fill="#525252" transform="matrix(1.00, 0.00, -0.00, -1.00, 272.9, 8.5)">d</text><g><clipPath id="clip0x6000042b3260"><path d="M 0.2 4.5 L 288.2 4.5 L 288.2 7.9 L 0.2 7.9 Z M 0.2 4.5 "></path></clipPath><g clip-path="url(#clip0x6000042b3260)"><path d="M 4.5 33.1 L 291.6 33.1 " fill="none" stroke="#525252" stroke-width="1.49" transform="matrix(1.00, 0.00, 0.00, -1.00, -3.3, 39.3)"></path></g></g></g></svg>