<?xml version="1.0" encoding="UTF-8" standalone="no"?><svg xmlns="http://www.w3.org/2000/svg" xmlns:xlink="http://www.w3.org/1999/xlink" clip-rule="evenodd" stroke-miterlimit="10" viewBox="0 0 282 37"><desc>SVG generated by Keynote</desc><defs></defs><g transform="matrix(1.00, 0.00, -0.00, -1.00, 0.0, 37.0)"><text xml:space="preserve" font-family="GillSans-Light,Gill Sans" font-size="27.1" fill="#525252" transform="matrix(1.00, 0.00, -0.00, -1.00, 1.0, 12.3)">•</text><text xml:space="preserve" font-family="GillSans-Light,Gill Sans" font-size="33.0" fill="#525252" transform="matrix(1.00, 0.00, -0.00, -1.00, 34.9, 9.6)">I</text><text xml:space="preserve" font-family="GillSans-Light,Gill Sans" font-size="33.0" fill="#525252" transform="matrix(1.00, 0.00, -0.00, -1.00, 41.7, 9.6)">n</text><text xml:space="preserve" font-family="GillSans-Light,Gill Sans" font-size="33.0" fill="#525252" transform="matrix(1.00, 0.00, -0.00, -1.00, 57.9, 9.6)">p</text><text xml:space="preserve" font-family="GillSans-Light,Gill Sans" font-size="33.0" fill="#525252" transform="matrix(1.00, 0.00, -0.00, -1.00, 74.7, 9.6)">u</text><text xml:space="preserve" font-family="GillSans-Light,Gill Sans" font-size="33.0" fill="#525252" transform="matrix(1.00, 0.00, -0.00, -1.00, 90.9, 9.6)">t</text><text xml:space="preserve" font-family="GillSans-Light,Gill Sans" font-size="33.0" fill="#525252" transform="matrix(1.00, 0.00, -0.00, -1.00, 100.9, 9.6)"> </text><text xml:space="preserve" font-family="GillSans,Gill Sans" font-size="33.0" fill="#525252" transform="matrix(1.00, 0.00, -0.00, -1.00, 110.0, 9.6)">R</text><text xml:space="preserve" font-family="GillSans,Gill Sans" font-size="33.0" fill="#525252" transform="matrix(1.00, 0.00, -0.00, -1.00, 130.0, 9.6)">e</text><text xml:space="preserve" font-family="GillSans,Gill Sans" font-size="33.0" fill="#525252" transform="matrix(1.00, 0.00, -0.00, -1.00, 145.8, 9.6)">p</text><text xml:space="preserve" font-family="GillSans,Gill Sans" font-size="33.0" fill="#525252" transform="matrix(1.00, 0.00, -0.00, -1.00, 162.3, 9.6)">e</text><text xml:space="preserve" font-family="GillSans,Gill Sans" font-size="33.0" fill="#525252" transform="matrix(1.00, 0.00, -0.00, -1.00, 178.1, 9.6)">a</text><text xml:space="preserve" font-family="GillSans,Gill Sans" font-size="33.0" fill="#525252" transform="matrix(1.00, 0.00, -0.00, -1.00, 192.2, 9.6)">t</text><text xml:space="preserve" font-family="GillSans,Gill Sans" font-size="33.0" fill="#525252" transform="matrix(1.00, 0.00, -0.00, -1.00, 203.1, 9.6)">a</text><text xml:space="preserve" font-family="GillSans,Gill Sans" font-size="33.0" fill="#525252" transform="matrix(1.00, 0.00, -0.00, -1.00, 217.2, 9.6)">b</text><text xml:space="preserve" font-family="GillSans,Gill Sans" font-size="33.0" fill="#525252" transform="matrix(1.00, 0.00, -0.00, -1.00, 233.7, 9.6)">i</text><text xml:space="preserve" font-family="GillSans,Gill Sans" font-size="33.0" fill="#525252" transform="matrix(1.00, 0.00, -0.00, -1.00, 241.0, 9.6)">l</text><text xml:space="preserve" font-family="GillSans,Gill Sans" font-size="33.0" fill="#525252" transform="matrix(1.00, 0.00, -0.00, -1.00, 248.2, 9.6)">i</text><text xml:space="preserve" font-family="GillSans,Gill Sans" font-size="33.0" fill="#525252" transform="matrix(1.00, 0.00, -0.00, -1.00, 255.4, 9.6)">t</text><text xml:space="preserve" font-family="GillSans,Gill Sans" font-size="33.0" fill="#525252" transform="matrix(1.00, 0.00, -0.00, -1.00, 266.4, 9.6)">y</text></g></svg>