<?xml version="1.0" encoding="UTF-8" standalone="no"?><svg xmlns="http://www.w3.org/2000/svg" xmlns:xlink="http://www.w3.org/1999/xlink" clip-rule="evenodd" stroke-miterlimit="10" viewBox="0 0 1024 768"><desc>SVG generated by Keynote</desc><defs></defs><g transform="matrix(1.00, 0.00, -0.00, -1.00, 0.0, 768.0)"><g><clipPath id="clip0x600003cbc620"><path d="M 0.0 768.0 L 1024.0 768.0 L 1024.0 0.0 L 0.0 0.0 Z M 0.0 768.0 "></path></clipPath><g clip-path="url(#clip0x600003cbc620)"><image xlink:href="../../BE03AB4A-F5E0-4685-80C7-20DCBC62631F/assets/574DCE55A4CF432400CBDDDE1DFDFC9B.jpeg" width="2048.00" height="1536.00" transform="matrix(0.50, 0.00, -0.00, -0.50, 0.0, 768.0)"></image></g></g><g><clipPath id="clip0x608003ab1b20"><path d="M 363.0 679.0 L 661.0 679.0 L 661.0 381.0 L 363.0 381.0 Z M 362.8 679.0 "></path></clipPath><g clip-path="url(#clip0x608003ab1b20)"><g><clipPath id="clip0x608003ca6c00"><path d="M 362.8 380.5 L 661.2 380.5 L 661.2 679.0 L 362.8 679.0 Z M 362.8 380.5 "></path></clipPath><g clip-path="url(#clip0x608003ca6c00)"><image xlink:href="DF84E74DAD5AE495E861FECE6DD80E8F.png" width="500.00" height="500.00" transform="matrix(0.60, 0.00, -0.00, -0.60, 363.0, 679.0)"></image></g></g></g></g><g><clipPath id="clip0x600003ab9140"><path d="M 318.3 195.7 L 705.7 195.7 L 705.7 402.7 L 318.3 402.7 Z M 318.3 195.7 "></path></clipPath><g clip-path="url(#clip0x600003ab9140)"><text xml:space="preserve" font-family="GillSans,Gill Sans" font-size="120.0" fill="#494949" transform="matrix(1.00, 0.00, -0.00, -1.00, 353.3, 257.9)">a</text><text xml:space="preserve" font-family="GillSans,Gill Sans" font-size="120.0" fill="#494949" transform="matrix(1.00, 0.00, -0.00, -1.00, 404.5, 257.9)">D</text><text xml:space="preserve" font-family="GillSans,Gill Sans" font-size="120.0" fill="#494949" transform="matrix(1.00, 0.00, -0.00, -1.00, 494.5, 257.9)">o</text><text xml:space="preserve" font-family="GillSans,Gill Sans" font-size="120.0" fill="#494949" transform="matrix(1.00, 0.00, -0.00, -1.00, 560.6, 257.9)">c</text><text xml:space="preserve" font-family="GillSans,Gill Sans" font-size="120.0" fill="#494949" transform="matrix(1.00, 0.00, -0.00, -1.00, 613.2, 257.9)">k</text></g></g><image xlink:href="../../BE03AB4A-F5E0-4685-80C7-20DCBC62631F/assets/9A6ABB4995EF94E3903C16036EBAD4B5.png" width="720.00" height="720.00" transform="matrix(0.06, 0.00, -0.00, -0.06, 27.0, 739.0)"></image></g></svg>