<?xml version="1.0" encoding="UTF-8" standalone="no"?><svg xmlns="http://www.w3.org/2000/svg" xmlns:xlink="http://www.w3.org/1999/xlink" clip-rule="evenodd" stroke-miterlimit="10" viewBox="0 0 1024 768"><desc>SVG generated by Keynote</desc><defs></defs><g transform="matrix(1.00, 0.00, -0.00, -1.00, 0.0, 768.0)"><g><clipPath id="clip0x6000044aa380"><path d="M 0.0 768.0 L 1024.0 768.0 L 1024.0 0.0 L 0.0 0.0 Z M 0.0 768.0 "></path></clipPath><g clip-path="url(#clip0x6000044aa380)"><image xlink:href="../../BE03AB4A-F5E0-4685-80C7-20DCBC62631F/assets/574DCE55A4CF432400CBDDDE1DFDFC9B.jpeg" width="2048.00" height="1536.00" transform="matrix(0.50, 0.00, -0.00, -0.50, 0.0, 768.0)"></image></g></g><text xml:space="preserve" font-family="GillSans-Light,Gill Sans" font-size="72.0" fill="#525252" transform="matrix(1.00, 0.00, -0.00, -1.00, 275.6, 637.3)">F</text><text xml:space="preserve" font-family="GillSans-Light,Gill Sans" font-size="72.0" fill="#525252" transform="matrix(1.00, 0.00, -0.00, -1.00, 307.1, 637.3)">U</text><text xml:space="preserve" font-family="GillSans-Light,Gill Sans" font-size="72.0" fill="#525252" transform="matrix(1.00, 0.00, -0.00, -1.00, 357.4, 637.3)">T</text><text xml:space="preserve" font-family="GillSans-Light,Gill Sans" font-size="72.0" fill="#525252" transform="matrix(1.00, 0.00, -0.00, -1.00, 398.7, 637.3)">U</text><text xml:space="preserve" font-family="GillSans-Light,Gill Sans" font-size="72.0" fill="#525252" transform="matrix(1.00, 0.00, -0.00, -1.00, 449.0, 637.3)">R</text><text xml:space="preserve" font-family="GillSans-Light,Gill Sans" font-size="72.0" fill="#525252" transform="matrix(1.00, 0.00, -0.00, -1.00, 490.3, 637.3)">E</text><text xml:space="preserve" font-family="GillSans-Light,Gill Sans" font-size="72.0" fill="#525252" transform="matrix(1.00, 0.00, -0.00, -1.00, 525.6, 637.3)"> </text><text xml:space="preserve" font-family="GillSans-Light,Gill Sans" font-size="72.0" fill="#525252" transform="matrix(1.00, 0.00, -0.00, -1.00, 538.4, 637.3)">W</text><text xml:space="preserve" font-family="GillSans-Light,Gill Sans" font-size="72.0" fill="#525252" transform="matrix(1.00, 0.00, -0.00, -1.00, 609.7, 637.3)">O</text><text xml:space="preserve" font-family="GillSans-Light,Gill Sans" font-size="72.0" fill="#525252" transform="matrix(1.00, 0.00, -0.00, -1.00, 669.0, 637.3)">R</text><text xml:space="preserve" font-family="GillSans-Light,Gill Sans" font-size="72.0" fill="#525252" transform="matrix(1.00, 0.00, -0.00, -1.00, 710.3, 637.3)">K</text><text xml:space="preserve" font-family="GillSans-Light,Gill Sans" font-size="33.9" fill="#525252" transform="matrix(1.00, 0.00, -0.00, -1.00, 95.6, 514.9)">•</text><text xml:space="preserve" font-family="GillSans-Light,Gill Sans" font-size="41.4" fill="#525252" transform="matrix(1.00, 0.00, -0.00, -1.00, 132.5, 511.5)">T</text><text xml:space="preserve" font-family="GillSans-Light,Gill Sans" font-size="41.4" fill="#525252" transform="matrix(1.00, 0.00, -0.00, -1.00, 150.8, 511.5)">e</text><text xml:space="preserve" font-family="GillSans-Light,Gill Sans" font-size="41.4" fill="#525252" transform="matrix(1.00, 0.00, -0.00, -1.00, 170.6, 511.5)">s</text><text xml:space="preserve" font-family="GillSans-Light,Gill Sans" font-size="41.4" fill="#525252" transform="matrix(1.00, 0.00, -0.00, -1.00, 185.3, 511.5)">t</text><text xml:space="preserve" font-family="GillSans-Light,Gill Sans" font-size="41.4" fill="#525252" transform="matrix(1.00, 0.00, -0.00, -1.00, 197.8, 511.5)"> </text><text xml:space="preserve" font-family="GillSans-Light,Gill Sans" font-size="41.4" fill="#525252" transform="matrix(1.00, 0.00, -0.00, -1.00, 209.3, 511.5)">w</text><text xml:space="preserve" font-family="GillSans-Light,Gill Sans" font-size="41.4" fill="#525252" transform="matrix(1.00, 0.00, -0.00, -1.00, 238.6, 511.5)">i</text><text xml:space="preserve" font-family="GillSans-Light,Gill Sans" font-size="41.4" fill="#525252" transform="matrix(1.00, 0.00, -0.00, -1.00, 246.4, 511.5)">t</text><text xml:space="preserve" font-family="GillSans-Light,Gill Sans" font-size="41.4" fill="#525252" transform="matrix(1.00, 0.00, -0.00, -1.00, 258.9, 511.5)">h</text><text xml:space="preserve" font-family="GillSans-Light,Gill Sans" font-size="41.4" fill="#525252" transform="matrix(1.00, 0.00, -0.00, -1.00, 279.2, 511.5)"> </text><text xml:space="preserve" font-family="GillSans,Gill Sans" font-size="41.4" fill="#525252" transform="matrix(1.00, 0.00, -0.00, -1.00, 290.7, 511.5)">m</text><text xml:space="preserve" font-family="GillSans,Gill Sans" font-size="41.4" fill="#525252" transform="matrix(1.00, 0.00, -0.00, -1.00, 322.6, 511.5)">o</text><text xml:space="preserve" font-family="GillSans,Gill Sans" font-size="41.4" fill="#525252" transform="matrix(1.00, 0.00, -0.00, -1.00, 345.4, 511.5)">r</text><text xml:space="preserve" font-family="GillSans,Gill Sans" font-size="41.4" fill="#525252" transform="matrix(1.00, 0.00, -0.00, -1.00, 361.0, 511.5)">e</text><text xml:space="preserve" font-family="GillSans,Gill Sans" font-size="41.4" fill="#525252" transform="matrix(1.00, 0.00, -0.00, -1.00, 380.8, 511.5)"> </text><text xml:space="preserve" font-family="GillSans,Gill Sans" font-size="41.4" fill="#525252" transform="matrix(1.00, 0.00, -0.00, -1.00, 392.3, 511.5)">r</text><text xml:space="preserve" font-family="GillSans,Gill Sans" font-size="41.4" fill="#525252" transform="matrix(1.00, 0.00, -0.00, -1.00, 407.9, 511.5)">e</text><text xml:space="preserve" font-family="GillSans,Gill Sans" font-size="41.4" fill="#525252" transform="matrix(1.00, 0.00, -0.00, -1.00, 427.7, 511.5)">a</text><text xml:space="preserve" font-family="GillSans,Gill Sans" font-size="41.4" fill="#525252" transform="matrix(1.00, 0.00, -0.00, -1.00, 445.4, 511.5)">l</text><text xml:space="preserve" font-family="GillSans,Gill Sans" font-size="41.4" fill="#525252" transform="matrix(1.00, 0.00, -0.00, -1.00, 454.5, 511.5)">i</text><text xml:space="preserve" font-family="GillSans,Gill Sans" font-size="41.4" fill="#525252" transform="matrix(1.00, 0.00, -0.00, -1.00, 463.5, 511.5)">s</text><text xml:space="preserve" font-family="GillSans,Gill Sans" font-size="41.4" fill="#525252" transform="matrix(1.00, 0.00, -0.00, -1.00, 479.5, 511.5)">t</text><text xml:space="preserve" font-family="GillSans,Gill Sans" font-size="41.4" fill="#525252" transform="matrix(1.00, 0.00, -0.00, -1.00, 493.3, 511.5)">i</text><text xml:space="preserve" font-family="GillSans,Gill Sans" font-size="41.4" fill="#525252" transform="matrix(1.00, 0.00, -0.00, -1.00, 502.3, 511.5)">c</text><text xml:space="preserve" font-family="GillSans-Light,Gill Sans" font-size="41.4" fill="#525252" transform="matrix(1.00, 0.00, -0.00, -1.00, 520.5, 511.5)"> </text><text xml:space="preserve" font-family="GillSans-Light,Gill Sans" font-size="41.4" fill="#525252" transform="matrix(1.00, 0.00, -0.00, -1.00, 532.0, 511.5)">s</text><text xml:space="preserve" font-family="GillSans-Light,Gill Sans" font-size="41.4" fill="#525252" transform="matrix(1.00, 0.00, -0.00, -1.00, 546.6, 511.5)">i</text><text xml:space="preserve" font-family="GillSans-Light,Gill Sans" font-size="41.4" fill="#525252" transform="matrix(1.00, 0.00, -0.00, -1.00, 554.4, 511.5)">m</text><text xml:space="preserve" font-family="GillSans-Light,Gill Sans" font-size="41.4" fill="#525252" transform="matrix(1.00, 0.00, -0.00, -1.00, 585.7, 511.5)">u</text><text xml:space="preserve" font-family="GillSans-Light,Gill Sans" font-size="41.4" fill="#525252" transform="matrix(1.00, 0.00, -0.00, -1.00, 606.0, 511.5)">l</text><text xml:space="preserve" font-family="GillSans-Light,Gill Sans" font-size="41.4" fill="#525252" transform="matrix(1.00, 0.00, -0.00, -1.00, 613.8, 511.5)">a</text><text xml:space="preserve" font-family="GillSans-Light,Gill Sans" font-size="41.4" fill="#525252" transform="matrix(1.00, 0.00, -0.00, -1.00, 631.4, 511.5)">t</text><text xml:space="preserve" font-family="GillSans-Light,Gill Sans" font-size="41.4" fill="#525252" transform="matrix(1.00, 0.00, -0.00, -1.00, 643.9, 511.5)">i</text><text xml:space="preserve" font-family="GillSans-Light,Gill Sans" font-size="41.4" fill="#525252" transform="matrix(1.00, 0.00, -0.00, -1.00, 651.7, 511.5)">o</text><text xml:space="preserve" font-family="GillSans-Light,Gill Sans" font-size="41.4" fill="#525252" transform="matrix(1.00, 0.00, -0.00, -1.00, 674.2, 511.5)">n</text><text xml:space="preserve" font-family="GillSans-Light,Gill Sans" font-size="41.4" fill="#525252" transform="matrix(1.00, 0.00, -0.00, -1.00, 694.5, 511.5)"> </text><text xml:space="preserve" font-family="GillSans-Light,Gill Sans" font-size="41.4" fill="#525252" transform="matrix(1.00, 0.00, -0.00, -1.00, 706.0, 511.5)">e</text><text xml:space="preserve" font-family="GillSans-Light,Gill Sans" font-size="41.4" fill="#525252" transform="matrix(1.00, 0.00, -0.00, -1.00, 725.8, 511.5)">n</text><text xml:space="preserve" font-family="GillSans-Light,Gill Sans" font-size="41.4" fill="#525252" transform="matrix(1.00, 0.00, -0.00, -1.00, 745.5, 511.5)">v</text><text xml:space="preserve" font-family="GillSans-Light,Gill Sans" font-size="41.4" fill="#525252" transform="matrix(1.00, 0.00, -0.00, -1.00, 763.1, 511.5)">i</text><text xml:space="preserve" font-family="GillSans-Light,Gill Sans" font-size="41.4" fill="#525252" transform="matrix(1.00, 0.00, -0.00, -1.00, 770.9, 511.5)">r</text><text xml:space="preserve" font-family="GillSans-Light,Gill Sans" font-size="41.4" fill="#525252" transform="matrix(1.00, 0.00, -0.00, -1.00, 784.7, 511.5)">o</text><text xml:space="preserve" font-family="GillSans-Light,Gill Sans" font-size="41.4" fill="#525252" transform="matrix(1.00, 0.00, -0.00, -1.00, 807.1, 511.5)">n</text><text xml:space="preserve" font-family="GillSans-Light,Gill Sans" font-size="41.4" fill="#525252" transform="matrix(1.00, 0.00, -0.00, -1.00, 827.4, 511.5)">m</text><text xml:space="preserve" font-family="GillSans-Light,Gill Sans" font-size="41.4" fill="#525252" transform="matrix(1.00, 0.00, -0.00, -1.00, 859.4, 511.5)">e</text><text xml:space="preserve" font-family="GillSans-Light,Gill Sans" font-size="41.4" fill="#525252" transform="matrix(1.00, 0.00, -0.00, -1.00, 879.2, 511.5)">n</text><text xml:space="preserve" font-family="GillSans-Light,Gill Sans" font-size="41.4" fill="#525252" transform="matrix(1.00, 0.00, -0.00, -1.00, 899.5, 511.5)">t</text><text xml:space="preserve" font-family="GillSans-Light,Gill Sans" font-size="41.4" fill="#525252" transform="matrix(1.00, 0.00, -0.00, -1.00, 912.0, 511.5)">s</text><text xml:space="preserve" font-family="GillSans-Light,Gill Sans" font-size="26.6" fill="#525252" transform="matrix(1.00, 0.00, -0.00, -1.00, 136.6, 423.3)">•</text><text xml:space="preserve" font-family="GillSans-Light,Gill Sans" font-size="32.4" fill="#525252" transform="matrix(1.00, 0.00, -0.00, -1.00, 173.5, 421.1)">S</text><text xml:space="preserve" font-family="GillSans-Light,Gill Sans" font-size="32.4" fill="#525252" transform="matrix(1.00, 0.00, -0.00, -1.00, 188.7, 421.1)">i</text><text xml:space="preserve" font-family="GillSans-Light,Gill Sans" font-size="32.4" fill="#525252" transform="matrix(1.00, 0.00, -0.00, -1.00, 194.8, 421.1)">m</text><text xml:space="preserve" font-family="GillSans-Light,Gill Sans" font-size="32.4" fill="#525252" transform="matrix(1.00, 0.00, -0.00, -1.00, 219.2, 421.1)">u</text><text xml:space="preserve" font-family="GillSans-Light,Gill Sans" font-size="32.4" fill="#525252" transform="matrix(1.00, 0.00, -0.00, -1.00, 235.1, 421.1)">l</text><text xml:space="preserve" font-family="GillSans-Light,Gill Sans" font-size="32.4" fill="#525252" transform="matrix(1.00, 0.00, -0.00, -1.00, 241.2, 421.1)">a</text><text xml:space="preserve" font-family="GillSans-Light,Gill Sans" font-size="32.4" fill="#525252" transform="matrix(1.00, 0.00, -0.00, -1.00, 255.0, 421.1)">t</text><text xml:space="preserve" font-family="GillSans-Light,Gill Sans" font-size="32.4" fill="#525252" transform="matrix(1.00, 0.00, -0.00, -1.00, 264.8, 421.1)">i</text><text xml:space="preserve" font-family="GillSans-Light,Gill Sans" font-size="32.4" fill="#525252" transform="matrix(1.00, 0.00, -0.00, -1.00, 270.9, 421.1)">o</text><text xml:space="preserve" font-family="GillSans-Light,Gill Sans" font-size="32.4" fill="#525252" transform="matrix(1.00, 0.00, -0.00, -1.00, 288.5, 421.1)">n</text><text xml:space="preserve" font-family="GillSans-Light,Gill Sans" font-size="32.4" fill="#525252" transform="matrix(1.00, 0.00, -0.00, -1.00, 304.4, 421.1)"> </text><text xml:space="preserve" font-family="GillSans,Gill Sans" font-size="32.4" fill="#525252" transform="matrix(1.00, 0.00, -0.00, -1.00, 313.4, 421.1)">o</text><text xml:space="preserve" font-family="GillSans,Gill Sans" font-size="32.4" fill="#525252" transform="matrix(1.00, 0.00, -0.00, -1.00, 331.2, 421.1)">p</text><text xml:space="preserve" font-family="GillSans,Gill Sans" font-size="32.4" fill="#525252" transform="matrix(1.00, 0.00, -0.00, -1.00, 347.4, 421.1)">e</text><text xml:space="preserve" font-family="GillSans,Gill Sans" font-size="32.4" fill="#525252" transform="matrix(1.00, 0.00, -0.00, -1.00, 362.9, 421.1)">r</text><text xml:space="preserve" font-family="GillSans,Gill Sans" font-size="32.4" fill="#525252" transform="matrix(1.00, 0.00, -0.00, -1.00, 375.8, 421.1)">a</text><text xml:space="preserve" font-family="GillSans,Gill Sans" font-size="32.4" fill="#525252" transform="matrix(1.00, 0.00, -0.00, -1.00, 389.6, 421.1)">t</text><text xml:space="preserve" font-family="GillSans,Gill Sans" font-size="32.4" fill="#525252" transform="matrix(1.00, 0.00, -0.00, -1.00, 400.4, 421.1)">i</text><text xml:space="preserve" font-family="GillSans,Gill Sans" font-size="32.4" fill="#525252" transform="matrix(1.00, 0.00, -0.00, -1.00, 407.5, 421.1)">o</text><text xml:space="preserve" font-family="GillSans,Gill Sans" font-size="32.4" fill="#525252" transform="matrix(1.00, 0.00, -0.00, -1.00, 425.4, 421.1)">n</text><text xml:space="preserve" font-family="GillSans,Gill Sans" font-size="32.4" fill="#525252" transform="matrix(1.00, 0.00, -0.00, -1.00, 441.6, 421.1)"> </text><text xml:space="preserve" font-family="GillSans,Gill Sans" font-size="32.4" fill="#525252" transform="matrix(1.00, 0.00, -0.00, -1.00, 450.6, 421.1)">d</text><text xml:space="preserve" font-family="GillSans,Gill Sans" font-size="32.4" fill="#525252" transform="matrix(1.00, 0.00, -0.00, -1.00, 467.1, 421.1)">e</text><text xml:space="preserve" font-family="GillSans,Gill Sans" font-size="32.4" fill="#525252" transform="matrix(1.00, 0.00, -0.00, -1.00, 482.6, 421.1)">n</text><text xml:space="preserve" font-family="GillSans,Gill Sans" font-size="32.4" fill="#525252" transform="matrix(1.00, 0.00, -0.00, -1.00, 498.8, 421.1)">s</text><text xml:space="preserve" font-family="GillSans,Gill Sans" font-size="32.4" fill="#525252" transform="matrix(1.00, 0.00, -0.00, -1.00, 511.2, 421.1)">i</text><text xml:space="preserve" font-family="GillSans,Gill Sans" font-size="32.4" fill="#525252" transform="matrix(1.00, 0.00, -0.00, -1.00, 518.4, 421.1)">t</text><text xml:space="preserve" font-family="GillSans,Gill Sans" font-size="32.4" fill="#525252" transform="matrix(1.00, 0.00, -0.00, -1.00, 529.1, 421.1)">y</text><text xml:space="preserve" font-family="GillSans-Light,Gill Sans" font-size="26.6" fill="#525252" transform="matrix(1.00, 0.00, -0.00, -1.00, 136.6, 337.2)">•</text><text xml:space="preserve" font-family="GillSans-Light,Gill Sans" font-size="32.4" fill="#525252" transform="matrix(1.00, 0.00, -0.00, -1.00, 173.5, 335.0)">C</text><text xml:space="preserve" font-family="GillSans-Light,Gill Sans" font-size="32.4" fill="#525252" transform="matrix(1.00, 0.00, -0.00, -1.00, 195.4, 335.0)">h</text><text xml:space="preserve" font-family="GillSans-Light,Gill Sans" font-size="32.4" fill="#525252" transform="matrix(1.00, 0.00, -0.00, -1.00, 211.3, 335.0)">a</text><text xml:space="preserve" font-family="GillSans-Light,Gill Sans" font-size="32.4" fill="#525252" transform="matrix(1.00, 0.00, -0.00, -1.00, 225.1, 335.0)">n</text><text xml:space="preserve" font-family="GillSans-Light,Gill Sans" font-size="32.4" fill="#525252" transform="matrix(1.00, 0.00, -0.00, -1.00, 241.0, 335.0)">g</text><text xml:space="preserve" font-family="GillSans-Light,Gill Sans" font-size="32.4" fill="#525252" transform="matrix(1.00, 0.00, -0.00, -1.00, 254.8, 335.0)">e</text><text xml:space="preserve" font-family="GillSans-Light,Gill Sans" font-size="32.4" fill="#525252" transform="matrix(1.00, 0.00, -0.00, -1.00, 270.3, 335.0)"> </text><text xml:space="preserve" font-family="GillSans-Light,Gill Sans" font-size="32.4" fill="#525252" transform="matrix(1.00, 0.00, -0.00, -1.00, 279.3, 335.0)">s</text><text xml:space="preserve" font-family="GillSans-Light,Gill Sans" font-size="32.4" fill="#525252" transform="matrix(1.00, 0.00, -0.00, -1.00, 290.8, 335.0)">i</text><text xml:space="preserve" font-family="GillSans-Light,Gill Sans" font-size="32.4" fill="#525252" transform="matrix(1.00, 0.00, -0.00, -1.00, 296.9, 335.0)">m</text><text xml:space="preserve" font-family="GillSans-Light,Gill Sans" font-size="32.4" fill="#525252" transform="matrix(1.00, 0.00, -0.00, -1.00, 321.4, 335.0)">u</text><text xml:space="preserve" font-family="GillSans-Light,Gill Sans" font-size="32.4" fill="#525252" transform="matrix(1.00, 0.00, -0.00, -1.00, 337.3, 335.0)">l</text><text xml:space="preserve" font-family="GillSans-Light,Gill Sans" font-size="32.4" fill="#525252" transform="matrix(1.00, 0.00, -0.00, -1.00, 343.3, 335.0)">a</text><text xml:space="preserve" font-family="GillSans-Light,Gill Sans" font-size="32.4" fill="#525252" transform="matrix(1.00, 0.00, -0.00, -1.00, 357.2, 335.0)">t</text><text xml:space="preserve" font-family="GillSans-Light,Gill Sans" font-size="32.4" fill="#525252" transform="matrix(1.00, 0.00, -0.00, -1.00, 366.9, 335.0)">i</text><text xml:space="preserve" font-family="GillSans-Light,Gill Sans" font-size="32.4" fill="#525252" transform="matrix(1.00, 0.00, -0.00, -1.00, 373.0, 335.0)">o</text><text xml:space="preserve" font-family="GillSans-Light,Gill Sans" font-size="32.4" fill="#525252" transform="matrix(1.00, 0.00, -0.00, -1.00, 390.6, 335.0)">n</text><text xml:space="preserve" font-family="GillSans,Gill Sans" font-size="32.4" fill="#525252" transform="matrix(1.00, 0.00, -0.00, -1.00, 406.5, 335.0)"> </text><text xml:space="preserve" font-family="GillSans,Gill Sans" font-size="32.4" fill="#525252" transform="matrix(1.00, 0.00, -0.00, -1.00, 415.5, 335.0)">s</text><text xml:space="preserve" font-family="GillSans,Gill Sans" font-size="32.4" fill="#525252" transform="matrix(1.00, 0.00, -0.00, -1.00, 427.9, 335.0)">t</text><text xml:space="preserve" font-family="GillSans,Gill Sans" font-size="32.4" fill="#525252" transform="matrix(1.00, 0.00, -0.00, -1.00, 438.7, 335.0)">a</text><text xml:space="preserve" font-family="GillSans,Gill Sans" font-size="32.4" fill="#525252" transform="matrix(1.00, 0.00, -0.00, -1.00, 452.6, 335.0)">r</text><text xml:space="preserve" font-family="GillSans,Gill Sans" font-size="32.4" fill="#525252" transform="matrix(1.00, 0.00, -0.00, -1.00, 466.0, 335.0)">t</text><text xml:space="preserve" font-family="GillSans,Gill Sans" font-size="32.4" fill="#525252" transform="matrix(1.00, 0.00, -0.00, -1.00, 476.8, 335.0)">i</text><text xml:space="preserve" font-family="GillSans,Gill Sans" font-size="32.4" fill="#525252" transform="matrix(1.00, 0.00, -0.00, -1.00, 483.9, 335.0)">n</text><text xml:space="preserve" font-family="GillSans,Gill Sans" font-size="32.4" fill="#525252" transform="matrix(1.00, 0.00, -0.00, -1.00, 500.1, 335.0)">g</text><text xml:space="preserve" font-family="GillSans,Gill Sans" font-size="32.4" fill="#525252" transform="matrix(1.00, 0.00, -0.00, -1.00, 513.9, 335.0)"> </text><text xml:space="preserve" font-family="GillSans,Gill Sans" font-size="32.4" fill="#525252" transform="matrix(1.00, 0.00, -0.00, -1.00, 522.9, 335.0)">s</text><text xml:space="preserve" font-family="GillSans,Gill Sans" font-size="32.4" fill="#525252" transform="matrix(1.00, 0.00, -0.00, -1.00, 535.4, 335.0)">t</text><text xml:space="preserve" font-family="GillSans,Gill Sans" font-size="32.4" fill="#525252" transform="matrix(1.00, 0.00, -0.00, -1.00, 546.2, 335.0)">a</text><text xml:space="preserve" font-family="GillSans,Gill Sans" font-size="32.4" fill="#525252" transform="matrix(1.00, 0.00, -0.00, -1.00, 560.0, 335.0)">t</text><text xml:space="preserve" font-family="GillSans,Gill Sans" font-size="32.4" fill="#525252" transform="matrix(1.00, 0.00, -0.00, -1.00, 570.8, 335.0)">e</text><text xml:space="preserve" font-family="GillSans-Light,Gill Sans" font-size="33.9" fill="#525252" transform="matrix(1.00, 0.00, -0.00, -1.00, 95.6, 243.3)">•</text><text xml:space="preserve" font-family="GillSans-Light,Gill Sans" font-size="41.4" fill="#525252" transform="matrix(1.00, 0.00, -0.00, -1.00, 132.5, 239.9)">C</text><text xml:space="preserve" font-family="GillSans-Light,Gill Sans" font-size="41.4" fill="#525252" transform="matrix(1.00, 0.00, -0.00, -1.00, 160.5, 239.9)">o</text><text xml:space="preserve" font-family="GillSans-Light,Gill Sans" font-size="41.4" fill="#525252" transform="matrix(1.00, 0.00, -0.00, -1.00, 182.9, 239.9)">m</text><text xml:space="preserve" font-family="GillSans-Light,Gill Sans" font-size="41.4" fill="#525252" transform="matrix(1.00, 0.00, -0.00, -1.00, 214.8, 239.9)">p</text><text xml:space="preserve" font-family="GillSans-Light,Gill Sans" font-size="41.4" fill="#525252" transform="matrix(1.00, 0.00, -0.00, -1.00, 235.9, 239.9)">a</text><text xml:space="preserve" font-family="GillSans-Light,Gill Sans" font-size="41.4" fill="#525252" transform="matrix(1.00, 0.00, -0.00, -1.00, 253.6, 239.9)">r</text><text xml:space="preserve" font-family="GillSans-Light,Gill Sans" font-size="41.4" fill="#525252" transform="matrix(1.00, 0.00, -0.00, -1.00, 267.4, 239.9)">e</text><text xml:space="preserve" font-family="GillSans-Light,Gill Sans" font-size="41.4" fill="#525252" transform="matrix(1.00, 0.00, -0.00, -1.00, 287.2, 239.9)"> </text><text xml:space="preserve" font-family="GillSans,Gill Sans" font-size="41.4" fill="#525252" transform="matrix(1.00, 0.00, -0.00, -1.00, 298.7, 239.9)">d</text><text xml:space="preserve" font-family="GillSans,Gill Sans" font-size="41.4" fill="#525252" transform="matrix(1.00, 0.00, -0.00, -1.00, 319.8, 239.9)">o</text><text xml:space="preserve" font-family="GillSans,Gill Sans" font-size="41.4" fill="#525252" transform="matrix(1.00, 0.00, -0.00, -1.00, 342.2, 239.9)">w</text><text xml:space="preserve" font-family="GillSans,Gill Sans" font-size="41.4" fill="#525252" transform="matrix(1.00, 0.00, -0.00, -1.00, 372.0, 239.9)">n</text><text xml:space="preserve" font-family="GillSans,Gill Sans" font-size="41.4" fill="#525252" transform="matrix(1.00, 0.00, -0.00, -1.00, 392.7, 239.9)">s</text><text xml:space="preserve" font-family="GillSans,Gill Sans" font-size="41.4" fill="#525252" transform="matrix(1.00, 0.00, -0.00, -1.00, 408.7, 239.9)">c</text><text xml:space="preserve" font-family="GillSans,Gill Sans" font-size="41.4" fill="#525252" transform="matrix(1.00, 0.00, -0.00, -1.00, 426.8, 239.9)">a</text><text xml:space="preserve" font-family="GillSans,Gill Sans" font-size="41.4" fill="#525252" transform="matrix(1.00, 0.00, -0.00, -1.00, 444.4, 239.9)">l</text><text xml:space="preserve" font-family="GillSans,Gill Sans" font-size="41.4" fill="#525252" transform="matrix(1.00, 0.00, -0.00, -1.00, 453.5, 239.9)">e</text><text xml:space="preserve" font-family="GillSans,Gill Sans" font-size="41.4" fill="#525252" transform="matrix(1.00, 0.00, -0.00, -1.00, 473.4, 239.9)"> </text><text xml:space="preserve" font-family="GillSans,Gill Sans" font-size="41.4" fill="#525252" transform="matrix(1.00, 0.00, -0.00, -1.00, 484.9, 239.9)">t</text><text xml:space="preserve" font-family="GillSans,Gill Sans" font-size="41.4" fill="#525252" transform="matrix(1.00, 0.00, -0.00, -1.00, 498.6, 239.9)">i</text><text xml:space="preserve" font-family="GillSans,Gill Sans" font-size="41.4" fill="#525252" transform="matrix(1.00, 0.00, -0.00, -1.00, 507.7, 239.9)">m</text><text xml:space="preserve" font-family="GillSans,Gill Sans" font-size="41.4" fill="#525252" transform="matrix(1.00, 0.00, -0.00, -1.00, 539.6, 239.9)">e</text><text xml:space="preserve" font-family="GillSans,Gill Sans" font-size="41.4" fill="#525252" transform="matrix(1.00, 0.00, -0.00, -1.00, 559.5, 239.9)">s</text><text xml:space="preserve" font-family="GillSans-Light,Gill Sans" font-size="41.4" fill="#525252" transform="matrix(1.00, 0.00, -0.00, -1.00, 575.4, 239.9)"> </text><text xml:space="preserve" font-family="GillSans-Light,Gill Sans" font-size="41.4" fill="#525252" transform="matrix(1.00, 0.00, -0.00, -1.00, 586.9, 239.9)">w</text><text xml:space="preserve" font-family="GillSans-Light,Gill Sans" font-size="41.4" fill="#525252" transform="matrix(1.00, 0.00, -0.00, -1.00, 616.2, 239.9)">i</text><text xml:space="preserve" font-family="GillSans-Light,Gill Sans" font-size="41.4" fill="#525252" transform="matrix(1.00, 0.00, -0.00, -1.00, 624.0, 239.9)">t</text><text xml:space="preserve" font-family="GillSans-Light,Gill Sans" font-size="41.4" fill="#525252" transform="matrix(1.00, 0.00, -0.00, -1.00, 636.5, 239.9)">h</text><text xml:space="preserve" font-family="GillSans-Light,Gill Sans" font-size="41.4" fill="#525252" transform="matrix(1.00, 0.00, -0.00, -1.00, 656.8, 239.9)"> </text><text xml:space="preserve" font-family="GillSans,Gill Sans" font-size="41.4" fill="#525252" transform="matrix(1.00, 0.00, -0.00, -1.00, 668.3, 239.9)">r</text><text xml:space="preserve" font-family="GillSans,Gill Sans" font-size="41.4" fill="#525252" transform="matrix(1.00, 0.00, -0.00, -1.00, 683.9, 239.9)">e</text><text xml:space="preserve" font-family="GillSans,Gill Sans" font-size="41.4" fill="#525252" transform="matrix(1.00, 0.00, -0.00, -1.00, 703.7, 239.9)">a</text><text xml:space="preserve" font-family="GillSans,Gill Sans" font-size="41.4" fill="#525252" transform="matrix(1.00, 0.00, -0.00, -1.00, 721.4, 239.9)">l</text><text xml:space="preserve" font-family="GillSans,Gill Sans" font-size="41.4" fill="#525252" transform="matrix(1.00, 0.00, -0.00, -1.00, 730.4, 239.9)"> </text><text xml:space="preserve" font-family="GillSans,Gill Sans" font-size="41.4" fill="#525252" transform="matrix(1.00, 0.00, -0.00, -1.00, 741.9, 239.9)">p</text><text xml:space="preserve" font-family="GillSans,Gill Sans" font-size="41.4" fill="#525252" transform="matrix(1.00, 0.00, -0.00, -1.00, 762.6, 239.9)">o</text><text xml:space="preserve" font-family="GillSans,Gill Sans" font-size="41.4" fill="#525252" transform="matrix(1.00, 0.00, -0.00, -1.00, 785.1, 239.9)">w</text><text xml:space="preserve" font-family="GillSans,Gill Sans" font-size="41.4" fill="#525252" transform="matrix(1.00, 0.00, -0.00, -1.00, 814.0, 239.9)">e</text><text xml:space="preserve" font-family="GillSans,Gill Sans" font-size="41.4" fill="#525252" transform="matrix(1.00, 0.00, -0.00, -1.00, 833.9, 239.9)">r</text><text xml:space="preserve" font-family="GillSans,Gill Sans" font-size="41.4" fill="#525252" transform="matrix(1.00, 0.00, -0.00, -1.00, 846.9, 239.9)">-</text><text xml:space="preserve" font-family="GillSans,Gill Sans" font-size="41.4" fill="#525252" transform="matrix(1.00, 0.00, -0.00, -1.00, 860.3, 239.9)">o</text><text xml:space="preserve" font-family="GillSans,Gill Sans" font-size="41.4" fill="#525252" transform="matrix(1.00, 0.00, -0.00, -1.00, 883.2, 239.9)">f</text><text xml:space="preserve" font-family="GillSans,Gill Sans" font-size="41.4" fill="#525252" transform="matrix(1.00, 0.00, -0.00, -1.00, 893.5, 239.9)">f</text><text xml:space="preserve" font-family="GillSans,Gill Sans" font-size="41.4" fill="#525252" transform="matrix(1.00, 0.00, -0.00, -1.00, 903.9, 239.9)"> </text><text xml:space="preserve" font-family="GillSans,Gill Sans" font-size="41.4" fill="#525252" transform="matrix(1.00, 0.00, -0.00, -1.00, 132.5, 182.0)">t</text><text xml:space="preserve" font-family="GillSans,Gill Sans" font-size="41.4" fill="#525252" transform="matrix(1.00, 0.00, -0.00, -1.00, 146.2, 182.0)">i</text><text xml:space="preserve" font-family="GillSans,Gill Sans" font-size="41.4" fill="#525252" transform="matrix(1.00, 0.00, -0.00, -1.00, 155.3, 182.0)">m</text><text xml:space="preserve" font-family="GillSans,Gill Sans" font-size="41.4" fill="#525252" transform="matrix(1.00, 0.00, -0.00, -1.00, 187.2, 182.0)">e</text><text xml:space="preserve" font-family="GillSans,Gill Sans" font-size="41.4" fill="#525252" transform="matrix(1.00, 0.00, -0.00, -1.00, 207.1, 182.0)">s</text><text xml:space="preserve" font-family="GillSans-Light,Gill Sans" font-size="33.9" fill="#525252" transform="matrix(1.00, 0.00, -0.00, -1.00, 95.6, 86.3)">•</text><text xml:space="preserve" font-family="GillSans-Light,Gill Sans" font-size="41.4" fill="#525252" transform="matrix(1.00, 0.00, -0.00, -1.00, 132.5, 83.0)">I</text><text xml:space="preserve" font-family="GillSans-Light,Gill Sans" font-size="41.4" fill="#525252" transform="matrix(1.00, 0.00, -0.00, -1.00, 141.1, 83.0)">m</text><text xml:space="preserve" font-family="GillSans-Light,Gill Sans" font-size="41.4" fill="#525252" transform="matrix(1.00, 0.00, -0.00, -1.00, 173.0, 83.0)">p</text><text xml:space="preserve" font-family="GillSans-Light,Gill Sans" font-size="41.4" fill="#525252" transform="matrix(1.00, 0.00, -0.00, -1.00, 194.1, 83.0)">l</text><text xml:space="preserve" font-family="GillSans-Light,Gill Sans" font-size="41.4" fill="#525252" transform="matrix(1.00, 0.00, -0.00, -1.00, 201.9, 83.0)">e</text><text xml:space="preserve" font-family="GillSans-Light,Gill Sans" font-size="41.4" fill="#525252" transform="matrix(1.00, 0.00, -0.00, -1.00, 221.7, 83.0)">m</text><text xml:space="preserve" font-family="GillSans-Light,Gill Sans" font-size="41.4" fill="#525252" transform="matrix(1.00, 0.00, -0.00, -1.00, 253.6, 83.0)">e</text><text xml:space="preserve" font-family="GillSans-Light,Gill Sans" font-size="41.4" fill="#525252" transform="matrix(1.00, 0.00, -0.00, -1.00, 273.4, 83.0)">n</text><text xml:space="preserve" font-family="GillSans-Light,Gill Sans" font-size="41.4" fill="#525252" transform="matrix(1.00, 0.00, -0.00, -1.00, 293.7, 83.0)">t</text><text xml:space="preserve" font-family="GillSans-Light,Gill Sans" font-size="41.4" fill="#525252" transform="matrix(1.00, 0.00, -0.00, -1.00, 306.2, 83.0)"> </text><text xml:space="preserve" font-family="GillSans,Gill Sans" font-size="41.4" fill="#525252" transform="matrix(1.00, 0.00, -0.00, -1.00, 317.7, 83.0)">b</text><text xml:space="preserve" font-family="GillSans,Gill Sans" font-size="41.4" fill="#525252" transform="matrix(1.00, 0.00, -0.00, -1.00, 338.4, 83.0)">e</text><text xml:space="preserve" font-family="GillSans,Gill Sans" font-size="41.4" fill="#525252" transform="matrix(1.00, 0.00, -0.00, -1.00, 358.3, 83.0)">t</text><text xml:space="preserve" font-family="GillSans,Gill Sans" font-size="41.4" fill="#525252" transform="matrix(1.00, 0.00, -0.00, -1.00, 372.1, 83.0)">t</text><text xml:space="preserve" font-family="GillSans,Gill Sans" font-size="41.4" fill="#525252" transform="matrix(1.00, 0.00, -0.00, -1.00, 385.8, 83.0)">e</text><text xml:space="preserve" font-family="GillSans,Gill Sans" font-size="41.4" fill="#525252" transform="matrix(1.00, 0.00, -0.00, -1.00, 405.7, 83.0)">r</text><text xml:space="preserve" font-family="GillSans,Gill Sans" font-size="41.4" fill="#525252" transform="matrix(1.00, 0.00, -0.00, -1.00, 422.1, 83.0)"> </text><text xml:space="preserve" font-family="GillSans,Gill Sans" font-size="41.4" fill="#525252" transform="matrix(1.00, 0.00, -0.00, -1.00, 433.6, 83.0)">a</text><text xml:space="preserve" font-family="GillSans,Gill Sans" font-size="41.4" fill="#525252" transform="matrix(1.00, 0.00, -0.00, -1.00, 451.2, 83.0)">l</text><text xml:space="preserve" font-family="GillSans,Gill Sans" font-size="41.4" fill="#525252" transform="matrix(1.00, 0.00, -0.00, -1.00, 460.3, 83.0)">g</text><text xml:space="preserve" font-family="GillSans,Gill Sans" font-size="41.4" fill="#525252" transform="matrix(1.00, 0.00, -0.00, -1.00, 477.6, 83.0)">o</text><text xml:space="preserve" font-family="GillSans,Gill Sans" font-size="41.4" fill="#525252" transform="matrix(1.00, 0.00, -0.00, -1.00, 500.4, 83.0)">r</text><text xml:space="preserve" font-family="GillSans,Gill Sans" font-size="41.4" fill="#525252" transform="matrix(1.00, 0.00, -0.00, -1.00, 516.8, 83.0)">i</text><text xml:space="preserve" font-family="GillSans,Gill Sans" font-size="41.4" fill="#525252" transform="matrix(1.00, 0.00, -0.00, -1.00, 525.9, 83.0)">t</text><text xml:space="preserve" font-family="GillSans,Gill Sans" font-size="41.4" fill="#525252" transform="matrix(1.00, 0.00, -0.00, -1.00, 539.7, 83.0)">h</text><text xml:space="preserve" font-family="GillSans,Gill Sans" font-size="41.4" fill="#525252" transform="matrix(1.00, 0.00, -0.00, -1.00, 560.4, 83.0)">m</text><text xml:space="preserve" font-family="GillSans,Gill Sans" font-size="41.4" fill="#525252" transform="matrix(1.00, 0.00, -0.00, -1.00, 592.3, 83.0)">s</text><image xlink:href="../../BE03AB4A-F5E0-4685-80C7-20DCBC62631F/assets/9A6ABB4995EF94E3903C16036EBAD4B5.png" width="720.00" height="720.00" transform="matrix(0.06, 0.00, -0.00, -0.06, 27.0, 739.0)"></image></g></svg>