<?xml version="1.0" encoding="UTF-8" standalone="no"?><svg xmlns="http://www.w3.org/2000/svg" xmlns:xlink="http://www.w3.org/1999/xlink" clip-rule="evenodd" stroke-miterlimit="10" viewBox="0 0 985 440"><desc>SVG generated by Keynote</desc><defs></defs><g transform="matrix(1.00, 0.00, -0.00, -1.00, 0.0, 440.0)"><g><clipPath id="clip0x6080044b88a0"><path d="M 2.0 438.7 L 983.8 438.7 L 983.8 0.8 L 2.0 0.8 Z M 2.0 438.7 "></path></clipPath><g clip-path="url(#clip0x6080044b88a0)"><path d="M 2.3 438.4 L 198.5 438.4 L 198.5 340.8 L 2.3 340.8 Z M 2.3 438.4 " fill="#D7610D"></path><path d="M 198.5 438.4 L 394.8 438.4 L 394.8 340.8 L 198.5 340.8 Z M 198.5 438.4 " fill="#D7610D"></path><path d="M 394.8 438.4 L 591.0 438.4 L 591.0 340.8 L 394.8 340.8 Z M 394.8 438.4 " fill="#D7610D"></path><path d="M 591.0 438.4 L 787.3 438.4 L 787.3 340.8 L 591.0 340.8 Z M 591.0 438.4 " fill="#D7610D"></path><path d="M 787.3 438.4 L 983.5 438.4 L 983.5 340.8 L 787.3 340.8 Z M 787.3 438.4 " fill="#D7610D"></path><path d="M 2.3 340.8 L 198.5 340.8 L 198.5 272.8 L 2.3 272.8 Z M 2.3 340.8 " fill="#FFA254"></path><path d="M 2.3 272.8 L 198.5 272.8 L 198.5 204.9 L 2.3 204.9 Z M 2.3 272.8 " fill="#FFA254"></path><path d="M 2.3 204.9 L 198.5 204.9 L 198.5 136.9 L 2.3 136.9 Z M 2.3 204.9 " fill="#FFA254"></path><path d="M 2.3 136.9 L 198.5 136.9 L 198.5 69.0 L 2.3 69.0 Z M 2.3 136.9 " fill="#FFA254"></path><path d="M 2.3 69.0 L 198.5 69.0 L 198.5 1.1 L 2.3 1.1 Z M 2.3 69.0 " fill="#FFA254"></path></g></g><g><clipPath id="clip0x6080044b8e40"><path d="M 2.0 438.7 L 983.8 438.7 L 983.8 0.8 L 2.0 0.8 Z M 2.0 438.7 "></path></clipPath><g clip-path="url(#clip0x6080044b8e40)"><g><clipPath id="clip0x6080044b8fc0"><path d="M 2.5 341.0 L 198.3 341.0 L 198.3 438.2 L 2.5 438.2 Z M 2.5 341.0 "></path></clipPath><g clip-path="url(#clip0x6080044b8fc0)"><text xml:space="preserve" font-family="GillSans-Light,Gill Sans" font-size="30.0" fill="#FEFFFF" transform="matrix(1.00, 0.00, -0.00, -1.00, 69.5, 379.3)">C</text><text xml:space="preserve" font-family="GillSans-Light,Gill Sans" font-size="30.0" fill="#FEFFFF" transform="matrix(1.00, 0.00, -0.00, -1.00, 89.8, 379.3)">o</text><text xml:space="preserve" font-family="GillSans-Light,Gill Sans" font-size="30.0" fill="#FEFFFF" transform="matrix(1.00, 0.00, -0.00, -1.00, 106.0, 379.3)">n</text><text xml:space="preserve" font-family="GillSans-Light,Gill Sans" font-size="30.0" fill="#FEFFFF" transform="matrix(1.00, 0.00, -0.00, -1.00, 120.7, 379.3)">s</text></g></g></g></g><g><clipPath id="clip0x6080044b9320"><path d="M 2.0 438.7 L 983.8 438.7 L 983.8 0.8 L 2.0 0.8 Z M 2.0 438.7 "></path></clipPath><g clip-path="url(#clip0x6080044b9320)"><g><clipPath id="clip0x6080044b94a0"><path d="M 198.8 341.0 L 394.5 341.0 L 394.5 438.2 L 198.8 438.2 Z M 198.8 341.0 "></path></clipPath><g clip-path="url(#clip0x6080044b94a0)"><text xml:space="preserve" font-family="GillSans-Light,Gill Sans" font-size="30.0" fill="#FEFFFF" transform="matrix(1.00, 0.00, -0.00, -1.00, 256.7, 396.3)">v</text><text xml:space="preserve" font-family="GillSans-Light,Gill Sans" font-size="30.0" fill="#FEFFFF" transform="matrix(1.00, 0.00, -0.00, -1.00, 269.5, 396.3)">C</text><text xml:space="preserve" font-family="GillSans-Light,Gill Sans" font-size="30.0" fill="#FEFFFF" transform="matrix(1.00, 0.00, -0.00, -1.00, 289.8, 396.3)">P</text><text xml:space="preserve" font-family="GillSans-Light,Gill Sans" font-size="30.0" fill="#FEFFFF" transform="matrix(1.00, 0.00, -0.00, -1.00, 305.0, 396.3)">U</text><text xml:space="preserve" font-family="GillSans-Light,Gill Sans" font-size="30.0" fill="#FEFFFF" transform="matrix(1.00, 0.00, -0.00, -1.00, 326.0, 396.3)">s</text><text xml:space="preserve" font-family="GillSans-Light,Gill Sans" font-size="30.0" fill="#FEFFFF" transform="matrix(1.00, 0.00, -0.00, -1.00, 336.6, 396.3)"> </text><text xml:space="preserve" font-family="GillSans-Light,Gill Sans" font-size="30.0" fill="#FEFFFF" transform="matrix(1.00, 0.00, -0.00, -1.00, 277.1, 362.3)">[</text><text xml:space="preserve" font-family="GillSans-Light,Gill Sans" font-size="30.0" fill="#FEFFFF" transform="matrix(1.00, 0.00, -0.00, -1.00, 286.2, 362.3)">%</text><text xml:space="preserve" font-family="GillSans-Light,Gill Sans" font-size="30.0" fill="#FEFFFF" transform="matrix(1.00, 0.00, -0.00, -1.00, 307.1, 362.3)">]</text><text xml:space="preserve" font-family="GillSans-Light,Gill Sans" font-size="30.0" fill="#FEFFFF" transform="matrix(1.00, 0.00, -0.00, -1.00, 316.2, 362.3)"> </text></g></g></g></g><g><clipPath id="clip0x6080044b9a40"><path d="M 2.0 438.7 L 983.8 438.7 L 983.8 0.8 L 2.0 0.8 Z M 2.0 438.7 "></path></clipPath><g clip-path="url(#clip0x6080044b9a40)"><g><clipPath id="clip0x6080044b9bc0"><path d="M 395.0 341.0 L 590.8 341.0 L 590.8 438.2 L 395.0 438.2 Z M 395.0 341.0 "></path></clipPath><g clip-path="url(#clip0x6080044b9bc0)"><text xml:space="preserve" font-family="GillSans-Light,Gill Sans" font-size="30.0" fill="#FEFFFF" transform="matrix(1.00, 0.00, -0.00, -1.00, 462.6, 396.3)">R</text><text xml:space="preserve" font-family="GillSans-Light,Gill Sans" font-size="30.0" fill="#FEFFFF" transform="matrix(1.00, 0.00, -0.00, -1.00, 479.8, 396.3)">A</text><text xml:space="preserve" font-family="GillSans-Light,Gill Sans" font-size="30.0" fill="#FEFFFF" transform="matrix(1.00, 0.00, -0.00, -1.00, 499.8, 396.3)">M</text><text xml:space="preserve" font-family="GillSans-Light,Gill Sans" font-size="30.0" fill="#FEFFFF" transform="matrix(1.00, 0.00, -0.00, -1.00, 523.2, 396.3)"> </text><text xml:space="preserve" font-family="GillSans-Light,Gill Sans" font-size="30.0" fill="#FEFFFF" transform="matrix(1.00, 0.00, -0.00, -1.00, 473.4, 362.3)">[</text><text xml:space="preserve" font-family="GillSans-Light,Gill Sans" font-size="30.0" fill="#FEFFFF" transform="matrix(1.00, 0.00, -0.00, -1.00, 482.4, 362.3)">%</text><text xml:space="preserve" font-family="GillSans-Light,Gill Sans" font-size="30.0" fill="#FEFFFF" transform="matrix(1.00, 0.00, -0.00, -1.00, 503.4, 362.3)">]</text><text xml:space="preserve" font-family="GillSans-Light,Gill Sans" font-size="30.0" fill="#FEFFFF" transform="matrix(1.00, 0.00, -0.00, -1.00, 512.4, 362.3)"> </text></g></g></g></g><g><clipPath id="clip0x6080044ba0a0"><path d="M 2.0 438.7 L 983.8 438.7 L 983.8 0.8 L 2.0 0.8 Z M 2.0 438.7 "></path></clipPath><g clip-path="url(#clip0x6080044ba0a0)"><g><clipPath id="clip0x6080044ba220"><path d="M 591.3 341.0 L 787.0 341.0 L 787.0 438.2 L 591.3 438.2 Z M 591.3 341.0 "></path></clipPath><g clip-path="url(#clip0x6080044ba220)"><text xml:space="preserve" font-family="GillSans-Light,Gill Sans" font-size="30.0" fill="#FEFFFF" transform="matrix(1.00, 0.00, -0.00, -1.00, 663.5, 396.3)">D</text><text xml:space="preserve" font-family="GillSans-Light,Gill Sans" font-size="30.0" fill="#FEFFFF" transform="matrix(1.00, 0.00, -0.00, -1.00, 685.7, 396.3)">i</text><text xml:space="preserve" font-family="GillSans-Light,Gill Sans" font-size="30.0" fill="#FEFFFF" transform="matrix(1.00, 0.00, -0.00, -1.00, 691.4, 396.3)">s</text><text xml:space="preserve" font-family="GillSans-Light,Gill Sans" font-size="30.0" fill="#FEFFFF" transform="matrix(1.00, 0.00, -0.00, -1.00, 702.0, 396.3)">k</text><text xml:space="preserve" font-family="GillSans-Light,Gill Sans" font-size="30.0" fill="#FEFFFF" transform="matrix(1.00, 0.00, -0.00, -1.00, 714.8, 396.3)"> </text><text xml:space="preserve" font-family="GillSans-Light,Gill Sans" font-size="30.0" fill="#FEFFFF" transform="matrix(1.00, 0.00, -0.00, -1.00, 669.6, 362.3)">[</text><text xml:space="preserve" font-family="GillSans-Light,Gill Sans" font-size="30.0" fill="#FEFFFF" transform="matrix(1.00, 0.00, -0.00, -1.00, 678.7, 362.3)">%</text><text xml:space="preserve" font-family="GillSans-Light,Gill Sans" font-size="30.0" fill="#FEFFFF" transform="matrix(1.00, 0.00, -0.00, -1.00, 699.6, 362.3)">]</text><text xml:space="preserve" font-family="GillSans-Light,Gill Sans" font-size="30.0" fill="#FEFFFF" transform="matrix(1.00, 0.00, -0.00, -1.00, 708.7, 362.3)"> </text></g></g></g></g><g><clipPath id="clip0x6000046a5280"><path d="M 2.0 438.7 L 983.8 438.7 L 983.8 0.8 L 2.0 0.8 Z M 2.0 438.7 "></path></clipPath><g clip-path="url(#clip0x6000046a5280)"><g><clipPath id="clip0x6000046a54c0"><path d="M 787.5 341.0 L 983.3 341.0 L 983.3 438.2 L 787.5 438.2 Z M 787.5 341.0 "></path></clipPath><g clip-path="url(#clip0x6000046a54c0)"><text xml:space="preserve" font-family="GillSans-Light,Gill Sans" font-size="30.0" fill="#FEFFFF" transform="matrix(1.00, 0.00, -0.00, -1.00, 823.8, 379.3)">B</text><text xml:space="preserve" font-family="GillSans-Light,Gill Sans" font-size="30.0" fill="#FEFFFF" transform="matrix(1.00, 0.00, -0.00, -1.00, 839.8, 379.3)">u</text><text xml:space="preserve" font-family="GillSans-Light,Gill Sans" font-size="30.0" fill="#FEFFFF" transform="matrix(1.00, 0.00, -0.00, -1.00, 854.5, 379.3)">s</text><text xml:space="preserve" font-family="GillSans-Light,Gill Sans" font-size="30.0" fill="#FEFFFF" transform="matrix(1.00, 0.00, -0.00, -1.00, 865.1, 379.3)">y</text><text xml:space="preserve" font-family="GillSans-Light,Gill Sans" font-size="30.0" fill="#FEFFFF" transform="matrix(1.00, 0.00, -0.00, -1.00, 877.6, 379.3)">C</text><text xml:space="preserve" font-family="GillSans-Light,Gill Sans" font-size="30.0" fill="#FEFFFF" transform="matrix(1.00, 0.00, -0.00, -1.00, 897.9, 379.3)">m</text><text xml:space="preserve" font-family="GillSans-Light,Gill Sans" font-size="30.0" fill="#FEFFFF" transform="matrix(1.00, 0.00, -0.00, -1.00, 921.0, 379.3)">p</text><text xml:space="preserve" font-family="GillSans-Light,Gill Sans" font-size="30.0" fill="#FEFFFF" transform="matrix(1.00, 0.00, -0.00, -1.00, 936.3, 379.3)">s</text></g></g></g></g><g><clipPath id="clip0x6000046a59a0"><path d="M 2.0 438.7 L 983.8 438.7 L 983.8 0.8 L 2.0 0.8 Z M 2.0 438.7 "></path></clipPath><g clip-path="url(#clip0x6000046a59a0)"><g><clipPath id="clip0x6000046a5b20"><path d="M 2.5 273.1 L 198.3 273.1 L 198.3 340.5 L 2.5 340.5 Z M 2.5 273.1 "></path></clipPath><g clip-path="url(#clip0x6000046a5b20)"><text xml:space="preserve" font-family="GillSans-Light,Gill Sans" font-size="30.0" fill="#FEFFFF" transform="matrix(1.00, 0.00, -0.00, -1.00, 63.6, 296.7)">V</text><text xml:space="preserve" font-family="GillSans-Light,Gill Sans" font-size="30.0" fill="#FEFFFF" transform="matrix(1.00, 0.00, -0.00, -1.00, 80.0, 296.7)">a</text><text xml:space="preserve" font-family="GillSans-Light,Gill Sans" font-size="30.0" fill="#FEFFFF" transform="matrix(1.00, 0.00, -0.00, -1.00, 92.8, 296.7)">n</text><text xml:space="preserve" font-family="GillSans-Light,Gill Sans" font-size="30.0" fill="#FEFFFF" transform="matrix(1.00, 0.00, -0.00, -1.00, 107.5, 296.7)">i</text><text xml:space="preserve" font-family="GillSans-Light,Gill Sans" font-size="30.0" fill="#FEFFFF" transform="matrix(1.00, 0.00, -0.00, -1.00, 113.1, 296.7)">l</text><text xml:space="preserve" font-family="GillSans-Light,Gill Sans" font-size="30.0" fill="#FEFFFF" transform="matrix(1.00, 0.00, -0.00, -1.00, 118.8, 296.7)">l</text><text xml:space="preserve" font-family="GillSans-Light,Gill Sans" font-size="30.0" fill="#FEFFFF" transform="matrix(1.00, 0.00, -0.00, -1.00, 124.4, 296.7)">a</text><text xml:space="preserve" font-family="GillSans-Light,Gill Sans" font-size="30.0" fill="#FEFFFF" transform="matrix(1.00, 0.00, -0.00, -1.00, 137.2, 296.7)"> </text></g></g></g></g><g><clipPath id="clip0x6000046a6000"><path d="M 2.0 438.7 L 983.8 438.7 L 983.8 0.8 L 2.0 0.8 Z M 2.0 438.7 "></path></clipPath><g clip-path="url(#clip0x6000046a6000)"><g><clipPath id="clip0x6000046a6180"><path d="M 198.8 273.1 L 394.5 273.1 L 394.5 340.5 L 198.8 340.5 Z M 198.8 273.1 "></path></clipPath><g clip-path="url(#clip0x6000046a6180)"><text xml:space="preserve" font-family="GillSans,Gill Sans" font-size="26.0" fill="#595E5D" transform="matrix(1.00, 0.00, -0.00, -1.00, 261.3, 297.5)">2</text><text xml:space="preserve" font-family="GillSans,Gill Sans" font-size="26.0" fill="#595E5D" transform="matrix(1.00, 0.00, -0.00, -1.00, 274.3, 297.5)">2</text><text xml:space="preserve" font-family="GillSans,Gill Sans" font-size="26.0" fill="#595E5D" transform="matrix(1.00, 0.00, -0.00, -1.00, 287.3, 297.5)">.</text><text xml:space="preserve" font-family="GillSans,Gill Sans" font-size="26.0" fill="#595E5D" transform="matrix(1.00, 0.00, -0.00, -1.00, 293.0, 297.5)">9</text><text xml:space="preserve" font-family="GillSans,Gill Sans" font-size="26.0" fill="#595E5D" transform="matrix(1.00, 0.00, -0.00, -1.00, 306.0, 297.5)">1</text><text xml:space="preserve" font-family="GillSans,Gill Sans" font-size="26.0" fill="#595E5D" transform="matrix(1.00, 0.00, -0.00, -1.00, 319.0, 297.5)">8</text></g></g></g></g><g><clipPath id="clip0x6000046a65a0"><path d="M 2.0 438.7 L 983.8 438.7 L 983.8 0.8 L 2.0 0.8 Z M 2.0 438.7 "></path></clipPath><g clip-path="url(#clip0x6000046a65a0)"><g><clipPath id="clip0x6000046a6720"><path d="M 395.0 273.1 L 590.8 273.1 L 590.8 340.5 L 395.0 340.5 Z M 395.0 273.1 "></path></clipPath><g clip-path="url(#clip0x6000046a6720)"><text xml:space="preserve" font-family="GillSans,Gill Sans" font-size="26.0" fill="#595E5D" transform="matrix(1.00, 0.00, -0.00, -1.00, 457.6, 297.5)">3</text><text xml:space="preserve" font-family="GillSans,Gill Sans" font-size="26.0" fill="#595E5D" transform="matrix(1.00, 0.00, -0.00, -1.00, 470.6, 297.5)">4</text><text xml:space="preserve" font-family="GillSans,Gill Sans" font-size="26.0" fill="#595E5D" transform="matrix(1.00, 0.00, -0.00, -1.00, 483.6, 297.5)">.</text><text xml:space="preserve" font-family="GillSans,Gill Sans" font-size="26.0" fill="#595E5D" transform="matrix(1.00, 0.00, -0.00, -1.00, 489.3, 297.5)">6</text><text xml:space="preserve" font-family="GillSans,Gill Sans" font-size="26.0" fill="#595E5D" transform="matrix(1.00, 0.00, -0.00, -1.00, 502.3, 297.5)">3</text><text xml:space="preserve" font-family="GillSans,Gill Sans" font-size="26.0" fill="#595E5D" transform="matrix(1.00, 0.00, -0.00, -1.00, 515.3, 297.5)">8</text></g></g></g></g><g><clipPath id="clip0x6000046a6b40"><path d="M 2.0 438.7 L 983.8 438.7 L 983.8 0.8 L 2.0 0.8 Z M 2.0 438.7 "></path></clipPath><g clip-path="url(#clip0x6000046a6b40)"><g><clipPath id="clip0x6000046a6cc0"><path d="M 591.3 273.1 L 787.0 273.1 L 787.0 340.5 L 591.3 340.5 Z M 591.3 273.1 "></path></clipPath><g clip-path="url(#clip0x6000046a6cc0)"><text xml:space="preserve" font-family="GillSans,Gill Sans" font-size="26.0" fill="#595E5D" transform="matrix(1.00, 0.00, -0.00, -1.00, 660.3, 297.5)">2</text><text xml:space="preserve" font-family="GillSans,Gill Sans" font-size="26.0" fill="#595E5D" transform="matrix(1.00, 0.00, -0.00, -1.00, 673.3, 297.5)">.</text><text xml:space="preserve" font-family="GillSans,Gill Sans" font-size="26.0" fill="#595E5D" transform="matrix(1.00, 0.00, -0.00, -1.00, 679.0, 297.5)">5</text><text xml:space="preserve" font-family="GillSans,Gill Sans" font-size="26.0" fill="#595E5D" transform="matrix(1.00, 0.00, -0.00, -1.00, 692.0, 297.5)">0</text><text xml:space="preserve" font-family="GillSans,Gill Sans" font-size="26.0" fill="#595E5D" transform="matrix(1.00, 0.00, -0.00, -1.00, 705.0, 297.5)">5</text></g></g></g></g><g><clipPath id="clip0x6000046a7080"><path d="M 2.0 438.7 L 983.8 438.7 L 983.8 0.8 L 2.0 0.8 Z M 2.0 438.7 "></path></clipPath><g clip-path="url(#clip0x6000046a7080)"><g><clipPath id="clip0x6000046a7200"><path d="M 787.5 273.1 L 983.3 273.1 L 983.3 340.5 L 787.5 340.5 Z M 787.5 273.1 "></path></clipPath><g clip-path="url(#clip0x6000046a7200)"><text xml:space="preserve" font-family="GillSans,Gill Sans" font-size="26.0" fill="#595E5D" transform="matrix(1.00, 0.00, -0.00, -1.00, 856.5, 297.5)">7</text><text xml:space="preserve" font-family="GillSans,Gill Sans" font-size="26.0" fill="#595E5D" transform="matrix(1.00, 0.00, -0.00, -1.00, 869.5, 297.5)">.</text><text xml:space="preserve" font-family="GillSans,Gill Sans" font-size="26.0" fill="#595E5D" transform="matrix(1.00, 0.00, -0.00, -1.00, 875.3, 297.5)">7</text><text xml:space="preserve" font-family="GillSans,Gill Sans" font-size="26.0" fill="#595E5D" transform="matrix(1.00, 0.00, -0.00, -1.00, 888.3, 297.5)">5</text><text xml:space="preserve" font-family="GillSans,Gill Sans" font-size="26.0" fill="#595E5D" transform="matrix(1.00, 0.00, -0.00, -1.00, 901.3, 297.5)">3</text></g></g></g></g><g><clipPath id="clip0x6000046a75c0"><path d="M 2.0 438.7 L 983.8 438.7 L 983.8 0.8 L 2.0 0.8 Z M 2.0 438.7 "></path></clipPath><g clip-path="url(#clip0x6000046a75c0)"><g><clipPath id="clip0x6000046a7740"><path d="M 2.5 205.1 L 198.3 205.1 L 198.3 272.6 L 2.5 272.6 Z M 2.5 205.1 "></path></clipPath><g clip-path="url(#clip0x6000046a7740)"><text xml:space="preserve" font-family="GillSans-Light,Gill Sans" font-size="30.0" fill="#FEFFFF" transform="matrix(1.00, 0.00, -0.00, -1.00, 50.7, 228.7)">R</text><text xml:space="preserve" font-family="GillSans-Light,Gill Sans" font-size="30.0" fill="#FEFFFF" transform="matrix(1.00, 0.00, -0.00, -1.00, 67.9, 228.7)">a</text><text xml:space="preserve" font-family="GillSans-Light,Gill Sans" font-size="30.0" fill="#FEFFFF" transform="matrix(1.00, 0.00, -0.00, -1.00, 80.7, 228.7)">n</text><text xml:space="preserve" font-family="GillSans-Light,Gill Sans" font-size="30.0" fill="#FEFFFF" transform="matrix(1.00, 0.00, -0.00, -1.00, 95.4, 228.7)">d</text><text xml:space="preserve" font-family="GillSans-Light,Gill Sans" font-size="30.0" fill="#FEFFFF" transform="matrix(1.00, 0.00, -0.00, -1.00, 110.7, 228.7)">o</text><text xml:space="preserve" font-family="GillSans-Light,Gill Sans" font-size="30.0" fill="#FEFFFF" transform="matrix(1.00, 0.00, -0.00, -1.00, 127.0, 228.7)">m</text><text xml:space="preserve" font-family="GillSans-Light,Gill Sans" font-size="30.0" fill="#FEFFFF" transform="matrix(1.00, 0.00, -0.00, -1.00, 150.1, 228.7)"> </text></g></g></g></g><g><clipPath id="clip0x6000046a7bc0"><path d="M 2.0 438.7 L 983.8 438.7 L 983.8 0.8 L 2.0 0.8 Z M 2.0 438.7 "></path></clipPath><g clip-path="url(#clip0x6000046a7bc0)"><g><clipPath id="clip0x6000046a7d40"><path d="M 198.8 205.1 L 394.5 205.1 L 394.5 272.6 L 198.8 272.6 Z M 198.8 205.1 "></path></clipPath><g clip-path="url(#clip0x6000046a7d40)"><text xml:space="preserve" font-family="GillSans,Gill Sans" font-size="26.0" fill="#595E5D" transform="matrix(1.00, 0.00, -0.00, -1.00, 261.3, 229.6)">2</text><text xml:space="preserve" font-family="GillSans,Gill Sans" font-size="26.0" fill="#595E5D" transform="matrix(1.00, 0.00, -0.00, -1.00, 274.3, 229.6)">6</text><text xml:space="preserve" font-family="GillSans,Gill Sans" font-size="26.0" fill="#595E5D" transform="matrix(1.00, 0.00, -0.00, -1.00, 287.3, 229.6)">.</text><text xml:space="preserve" font-family="GillSans,Gill Sans" font-size="26.0" fill="#595E5D" transform="matrix(1.00, 0.00, -0.00, -1.00, 293.0, 229.6)">8</text><text xml:space="preserve" font-family="GillSans,Gill Sans" font-size="26.0" fill="#595E5D" transform="matrix(1.00, 0.00, -0.00, -1.00, 306.0, 229.6)">6</text><text xml:space="preserve" font-family="GillSans,Gill Sans" font-size="26.0" fill="#595E5D" transform="matrix(1.00, 0.00, -0.00, -1.00, 319.0, 229.6)">1</text></g></g></g></g><g><clipPath id="clip0x6000046a8160"><path d="M 2.0 438.7 L 983.8 438.7 L 983.8 0.8 L 2.0 0.8 Z M 2.0 438.7 "></path></clipPath><g clip-path="url(#clip0x6000046a8160)"><g><clipPath id="clip0x6000046a82e0"><path d="M 395.0 205.1 L 590.8 205.1 L 590.8 272.6 L 395.0 272.6 Z M 395.0 205.1 "></path></clipPath><g clip-path="url(#clip0x6000046a82e0)"><text xml:space="preserve" font-family="GillSans,Gill Sans" font-size="26.0" fill="#595E5D" transform="matrix(1.00, 0.00, -0.00, -1.00, 457.6, 229.6)">4</text><text xml:space="preserve" font-family="GillSans,Gill Sans" font-size="26.0" fill="#595E5D" transform="matrix(1.00, 0.00, -0.00, -1.00, 470.6, 229.6)">0</text><text xml:space="preserve" font-family="GillSans,Gill Sans" font-size="26.0" fill="#595E5D" transform="matrix(1.00, 0.00, -0.00, -1.00, 483.6, 229.6)">.</text><text xml:space="preserve" font-family="GillSans,Gill Sans" font-size="26.0" fill="#595E5D" transform="matrix(1.00, 0.00, -0.00, -1.00, 489.3, 229.6)">2</text><text xml:space="preserve" font-family="GillSans,Gill Sans" font-size="26.0" fill="#595E5D" transform="matrix(1.00, 0.00, -0.00, -1.00, 502.3, 229.6)">4</text><text xml:space="preserve" font-family="GillSans,Gill Sans" font-size="26.0" fill="#595E5D" transform="matrix(1.00, 0.00, -0.00, -1.00, 515.3, 229.6)">7</text></g></g></g></g><g><clipPath id="clip0x6000046a8700"><path d="M 2.0 438.7 L 983.8 438.7 L 983.8 0.8 L 2.0 0.8 Z M 2.0 438.7 "></path></clipPath><g clip-path="url(#clip0x6000046a8700)"><g><clipPath id="clip0x6000046a8880"><path d="M 591.3 205.1 L 787.0 205.1 L 787.0 272.6 L 591.3 272.6 Z M 591.3 205.1 "></path></clipPath><g clip-path="url(#clip0x6000046a8880)"><text xml:space="preserve" font-family="GillSans,Gill Sans" font-size="26.0" fill="#595E5D" transform="matrix(1.00, 0.00, -0.00, -1.00, 660.3, 229.6)">2</text><text xml:space="preserve" font-family="GillSans,Gill Sans" font-size="26.0" fill="#595E5D" transform="matrix(1.00, 0.00, -0.00, -1.00, 673.3, 229.6)">.</text><text xml:space="preserve" font-family="GillSans,Gill Sans" font-size="26.0" fill="#595E5D" transform="matrix(1.00, 0.00, -0.00, -1.00, 679.0, 229.6)">9</text><text xml:space="preserve" font-family="GillSans,Gill Sans" font-size="26.0" fill="#595E5D" transform="matrix(1.00, 0.00, -0.00, -1.00, 692.0, 229.6)">3</text><text xml:space="preserve" font-family="GillSans,Gill Sans" font-size="26.0" fill="#595E5D" transform="matrix(1.00, 0.00, -0.00, -1.00, 705.0, 229.6)">7</text></g></g></g></g><g><clipPath id="clip0x6000046a8c40"><path d="M 2.0 438.7 L 983.8 438.7 L 983.8 0.8 L 2.0 0.8 Z M 2.0 438.7 "></path></clipPath><g clip-path="url(#clip0x6000046a8c40)"><g><clipPath id="clip0x6000046a8dc0"><path d="M 787.5 205.1 L 983.3 205.1 L 983.3 272.6 L 787.5 272.6 Z M 787.5 205.1 "></path></clipPath><g clip-path="url(#clip0x6000046a8dc0)"><text xml:space="preserve" font-family="GillSans,Gill Sans" font-size="26.0" fill="#595E5D" transform="matrix(1.00, 0.00, -0.00, -1.00, 856.5, 229.6)">6</text><text xml:space="preserve" font-family="GillSans,Gill Sans" font-size="26.0" fill="#595E5D" transform="matrix(1.00, 0.00, -0.00, -1.00, 869.5, 229.6)">.</text><text xml:space="preserve" font-family="GillSans,Gill Sans" font-size="26.0" fill="#595E5D" transform="matrix(1.00, 0.00, -0.00, -1.00, 875.3, 229.6)">6</text><text xml:space="preserve" font-family="GillSans,Gill Sans" font-size="26.0" fill="#595E5D" transform="matrix(1.00, 0.00, -0.00, -1.00, 888.3, 229.6)">1</text><text xml:space="preserve" font-family="GillSans,Gill Sans" font-size="26.0" fill="#595E5D" transform="matrix(1.00, 0.00, -0.00, -1.00, 901.3, 229.6)">7</text></g></g></g></g><g><clipPath id="clip0x6000046a9180"><path d="M 2.0 438.7 L 983.8 438.7 L 983.8 0.8 L 2.0 0.8 Z M 2.0 438.7 "></path></clipPath><g clip-path="url(#clip0x6000046a9180)"><g><clipPath id="clip0x6000046a9300"><path d="M 2.5 137.2 L 198.3 137.2 L 198.3 204.6 L 2.5 204.6 Z M 2.5 137.2 "></path></clipPath><g clip-path="url(#clip0x6000046a9300)"><text xml:space="preserve" font-family="GillSans-Light,Gill Sans" font-size="30.0" fill="#FEFFFF" transform="matrix(1.00, 0.00, -0.00, -1.00, 79.6, 160.8)">G</text><text xml:space="preserve" font-family="GillSans-Light,Gill Sans" font-size="30.0" fill="#FEFFFF" transform="matrix(1.00, 0.00, -0.00, -1.00, 101.2, 160.8)">A</text><text xml:space="preserve" font-family="GillSans-Light,Gill Sans" font-size="30.0" fill="#FEFFFF" transform="matrix(1.00, 0.00, -0.00, -1.00, 121.2, 160.8)"> </text></g></g></g></g><g><clipPath id="clip0x6000046a9600"><path d="M 2.0 438.7 L 983.8 438.7 L 983.8 0.8 L 2.0 0.8 Z M 2.0 438.7 "></path></clipPath><g clip-path="url(#clip0x6000046a9600)"><g><clipPath id="clip0x6000046a9780"><path d="M 198.8 137.2 L 394.5 137.2 L 394.5 204.6 L 198.8 204.6 Z M 198.8 137.2 "></path></clipPath><g clip-path="url(#clip0x6000046a9780)"><text xml:space="preserve" font-family="GillSans,Gill Sans" font-size="26.0" fill="#595E5D" transform="matrix(1.00, 0.00, -0.00, -1.00, 261.3, 161.6)">3</text><text xml:space="preserve" font-family="GillSans,Gill Sans" font-size="26.0" fill="#595E5D" transform="matrix(1.00, 0.00, -0.00, -1.00, 274.3, 161.6)">1</text><text xml:space="preserve" font-family="GillSans,Gill Sans" font-size="26.0" fill="#595E5D" transform="matrix(1.00, 0.00, -0.00, -1.00, 287.3, 161.6)">.</text><text xml:space="preserve" font-family="GillSans,Gill Sans" font-size="26.0" fill="#595E5D" transform="matrix(1.00, 0.00, -0.00, -1.00, 293.0, 161.6)">4</text><text xml:space="preserve" font-family="GillSans,Gill Sans" font-size="26.0" fill="#595E5D" transform="matrix(1.00, 0.00, -0.00, -1.00, 306.0, 161.6)">1</text><text xml:space="preserve" font-family="GillSans,Gill Sans" font-size="26.0" fill="#595E5D" transform="matrix(1.00, 0.00, -0.00, -1.00, 319.0, 161.6)">3</text></g></g></g></g><g><clipPath id="clip0x6000046a9ba0"><path d="M 2.0 438.7 L 983.8 438.7 L 983.8 0.8 L 2.0 0.8 Z M 2.0 438.7 "></path></clipPath><g clip-path="url(#clip0x6000046a9ba0)"><g><clipPath id="clip0x6000046a9d20"><path d="M 395.0 137.2 L 590.8 137.2 L 590.8 204.6 L 395.0 204.6 Z M 395.0 137.2 "></path></clipPath><g clip-path="url(#clip0x6000046a9d20)"><text xml:space="preserve" font-family="GillSans,Gill Sans" font-size="26.0" fill="#595E5D" transform="matrix(1.00, 0.00, -0.00, -1.00, 457.6, 161.6)">4</text><text xml:space="preserve" font-family="GillSans,Gill Sans" font-size="26.0" fill="#595E5D" transform="matrix(1.00, 0.00, -0.00, -1.00, 470.6, 161.6)">6</text><text xml:space="preserve" font-family="GillSans,Gill Sans" font-size="26.0" fill="#595E5D" transform="matrix(1.00, 0.00, -0.00, -1.00, 483.6, 161.6)">.</text><text xml:space="preserve" font-family="GillSans,Gill Sans" font-size="26.0" fill="#595E5D" transform="matrix(1.00, 0.00, -0.00, -1.00, 489.3, 161.6)">7</text><text xml:space="preserve" font-family="GillSans,Gill Sans" font-size="26.0" fill="#595E5D" transform="matrix(1.00, 0.00, -0.00, -1.00, 502.3, 161.6)">5</text><text xml:space="preserve" font-family="GillSans,Gill Sans" font-size="26.0" fill="#595E5D" transform="matrix(1.00, 0.00, -0.00, -1.00, 515.3, 161.6)">9</text></g></g></g></g><g><clipPath id="clip0x6000046aa140"><path d="M 2.0 438.7 L 983.8 438.7 L 983.8 0.8 L 2.0 0.8 Z M 2.0 438.7 "></path></clipPath><g clip-path="url(#clip0x6000046aa140)"><g><clipPath id="clip0x6000046aa2c0"><path d="M 591.3 137.2 L 787.0 137.2 L 787.0 204.6 L 591.3 204.6 Z M 591.3 137.2 "></path></clipPath><g clip-path="url(#clip0x6000046aa2c0)"><text xml:space="preserve" font-family="GillSans,Gill Sans" font-size="26.0" fill="#595E5D" transform="matrix(1.00, 0.00, -0.00, -1.00, 660.3, 161.6)">3</text><text xml:space="preserve" font-family="GillSans,Gill Sans" font-size="26.0" fill="#595E5D" transform="matrix(1.00, 0.00, -0.00, -1.00, 673.3, 161.6)">.</text><text xml:space="preserve" font-family="GillSans,Gill Sans" font-size="26.0" fill="#595E5D" transform="matrix(1.00, 0.00, -0.00, -1.00, 679.0, 161.6)">4</text><text xml:space="preserve" font-family="GillSans,Gill Sans" font-size="26.0" fill="#595E5D" transform="matrix(1.00, 0.00, -0.00, -1.00, 692.0, 161.6)">4</text><text xml:space="preserve" font-family="GillSans,Gill Sans" font-size="26.0" fill="#595E5D" transform="matrix(1.00, 0.00, -0.00, -1.00, 705.0, 161.6)">0</text></g></g></g></g><g><clipPath id="clip0x6000046aa680"><path d="M 2.0 438.7 L 983.8 438.7 L 983.8 0.8 L 2.0 0.8 Z M 2.0 438.7 "></path></clipPath><g clip-path="url(#clip0x6000046aa680)"><g><clipPath id="clip0x6000046aa800"><path d="M 787.5 137.2 L 983.3 137.2 L 983.3 204.6 L 787.5 204.6 Z M 787.5 137.2 "></path></clipPath><g clip-path="url(#clip0x6000046aa800)"><text xml:space="preserve" font-family="GillSans,Gill Sans" font-size="26.0" fill="#595E5D" transform="matrix(1.00, 0.00, -0.00, -1.00, 856.5, 161.6)">5</text><text xml:space="preserve" font-family="GillSans,Gill Sans" font-size="26.0" fill="#595E5D" transform="matrix(1.00, 0.00, -0.00, -1.00, 869.5, 161.6)">.</text><text xml:space="preserve" font-family="GillSans,Gill Sans" font-size="26.0" fill="#595E5D" transform="matrix(1.00, 0.00, -0.00, -1.00, 875.3, 161.6)">3</text><text xml:space="preserve" font-family="GillSans,Gill Sans" font-size="26.0" fill="#595E5D" transform="matrix(1.00, 0.00, -0.00, -1.00, 888.3, 161.6)">6</text><text xml:space="preserve" font-family="GillSans,Gill Sans" font-size="26.0" fill="#595E5D" transform="matrix(1.00, 0.00, -0.00, -1.00, 901.3, 161.6)">7</text></g></g></g></g><g><clipPath id="clip0x6000046aabc0"><path d="M 2.0 438.7 L 983.8 438.7 L 983.8 0.8 L 2.0 0.8 Z M 2.0 438.7 "></path></clipPath><g clip-path="url(#clip0x6000046aabc0)"><g><clipPath id="clip0x6000046aad40"><path d="M 2.5 69.2 L 198.3 69.2 L 198.3 136.7 L 2.5 136.7 Z M 2.5 69.2 "></path></clipPath><g clip-path="url(#clip0x6000046aad40)"><text xml:space="preserve" font-family="GillSans-Light,Gill Sans" font-size="30.0" fill="#FEFFFF" transform="matrix(1.00, 0.00, -0.00, -1.00, 50.5, 92.8)">G</text><text xml:space="preserve" font-family="GillSans-Light,Gill Sans" font-size="30.0" fill="#FEFFFF" transform="matrix(1.00, 0.00, -0.00, -1.00, 72.0, 92.8)">A</text><text xml:space="preserve" font-family="GillSans-Light,Gill Sans" font-size="30.0" fill="#FEFFFF" transform="matrix(1.00, 0.00, -0.00, -1.00, 92.1, 92.8)"> </text><text xml:space="preserve" font-family="GillSans-Light,Gill Sans" font-size="30.0" fill="#FEFFFF" transform="matrix(1.00, 0.00, -0.00, -1.00, 100.4, 92.8)">B</text><text xml:space="preserve" font-family="GillSans-Light,Gill Sans" font-size="30.0" fill="#FEFFFF" transform="matrix(1.00, 0.00, -0.00, -1.00, 116.3, 92.8)">e</text><text xml:space="preserve" font-family="GillSans-Light,Gill Sans" font-size="30.0" fill="#FEFFFF" transform="matrix(1.00, 0.00, -0.00, -1.00, 130.7, 92.8)">s</text><text xml:space="preserve" font-family="GillSans-Light,Gill Sans" font-size="30.0" fill="#FEFFFF" transform="matrix(1.00, 0.00, -0.00, -1.00, 141.3, 92.8)">t</text></g></g></g></g><g><clipPath id="clip0x6000046ab1c0"><path d="M 2.0 438.7 L 983.8 438.7 L 983.8 0.8 L 2.0 0.8 Z M 2.0 438.7 "></path></clipPath><g clip-path="url(#clip0x6000046ab1c0)"><g><clipPath id="clip0x6000046ab340"><path d="M 198.8 69.2 L 394.5 69.2 L 394.5 136.7 L 198.8 136.7 Z M 198.8 69.2 "></path></clipPath><g clip-path="url(#clip0x6000046ab340)"><text xml:space="preserve" font-family="GillSans,Gill Sans" font-size="26.0" fill="#595E5D" transform="matrix(1.00, 0.00, -0.00, -1.00, 261.3, 93.7)">3</text><text xml:space="preserve" font-family="GillSans,Gill Sans" font-size="26.0" fill="#595E5D" transform="matrix(1.00, 0.00, -0.00, -1.00, 274.3, 93.7)">7</text><text xml:space="preserve" font-family="GillSans,Gill Sans" font-size="26.0" fill="#595E5D" transform="matrix(1.00, 0.00, -0.00, -1.00, 287.3, 93.7)">.</text><text xml:space="preserve" font-family="GillSans,Gill Sans" font-size="26.0" fill="#595E5D" transform="matrix(1.00, 0.00, -0.00, -1.00, 293.0, 93.7)">2</text><text xml:space="preserve" font-family="GillSans,Gill Sans" font-size="26.0" fill="#595E5D" transform="matrix(1.00, 0.00, -0.00, -1.00, 306.0, 93.7)">1</text><text xml:space="preserve" font-family="GillSans,Gill Sans" font-size="26.0" fill="#595E5D" transform="matrix(1.00, 0.00, -0.00, -1.00, 319.0, 93.7)">7</text></g></g></g></g><g><clipPath id="clip0x6000046ab760"><path d="M 2.0 438.7 L 983.8 438.7 L 983.8 0.8 L 2.0 0.8 Z M 2.0 438.7 "></path></clipPath><g clip-path="url(#clip0x6000046ab760)"><g><clipPath id="clip0x6000046ab8e0"><path d="M 395.0 69.2 L 590.8 69.2 L 590.8 136.7 L 395.0 136.7 Z M 395.0 69.2 "></path></clipPath><g clip-path="url(#clip0x6000046ab8e0)"><text xml:space="preserve" font-family="GillSans,Gill Sans" font-size="26.0" fill="#595E5D" transform="matrix(1.00, 0.00, -0.00, -1.00, 457.6, 93.7)">5</text><text xml:space="preserve" font-family="GillSans,Gill Sans" font-size="26.0" fill="#595E5D" transform="matrix(1.00, 0.00, -0.00, -1.00, 470.6, 93.7)">4</text><text xml:space="preserve" font-family="GillSans,Gill Sans" font-size="26.0" fill="#595E5D" transform="matrix(1.00, 0.00, -0.00, -1.00, 483.6, 93.7)">.</text><text xml:space="preserve" font-family="GillSans,Gill Sans" font-size="26.0" fill="#595E5D" transform="matrix(1.00, 0.00, -0.00, -1.00, 489.3, 93.7)">6</text><text xml:space="preserve" font-family="GillSans,Gill Sans" font-size="26.0" fill="#595E5D" transform="matrix(1.00, 0.00, -0.00, -1.00, 502.3, 93.7)">3</text><text xml:space="preserve" font-family="GillSans,Gill Sans" font-size="26.0" fill="#595E5D" transform="matrix(1.00, 0.00, -0.00, -1.00, 515.3, 93.7)">8</text></g></g></g></g><g><clipPath id="clip0x6000046abd00"><path d="M 2.0 438.7 L 983.8 438.7 L 983.8 0.8 L 2.0 0.8 Z M 2.0 438.7 "></path></clipPath><g clip-path="url(#clip0x6000046abd00)"><g><clipPath id="clip0x6000046abe80"><path d="M 591.3 69.2 L 787.0 69.2 L 787.0 136.7 L 591.3 136.7 Z M 591.3 69.2 "></path></clipPath><g clip-path="url(#clip0x6000046abe80)"><text xml:space="preserve" font-family="GillSans,Gill Sans" font-size="26.0" fill="#595E5D" transform="matrix(1.00, 0.00, -0.00, -1.00, 660.3, 93.7)">4</text><text xml:space="preserve" font-family="GillSans,Gill Sans" font-size="26.0" fill="#595E5D" transform="matrix(1.00, 0.00, -0.00, -1.00, 673.3, 93.7)">.</text><text xml:space="preserve" font-family="GillSans,Gill Sans" font-size="26.0" fill="#595E5D" transform="matrix(1.00, 0.00, -0.00, -1.00, 679.0, 93.7)">0</text><text xml:space="preserve" font-family="GillSans,Gill Sans" font-size="26.0" fill="#595E5D" transform="matrix(1.00, 0.00, -0.00, -1.00, 692.0, 93.7)">3</text><text xml:space="preserve" font-family="GillSans,Gill Sans" font-size="26.0" fill="#595E5D" transform="matrix(1.00, 0.00, -0.00, -1.00, 705.0, 93.7)">8</text></g></g></g></g><g><clipPath id="clip0x6000046ac240"><path d="M 2.0 438.7 L 983.8 438.7 L 983.8 0.8 L 2.0 0.8 Z M 2.0 438.7 "></path></clipPath><g clip-path="url(#clip0x6000046ac240)"><g><clipPath id="clip0x6000046ac3c0"><path d="M 787.5 69.2 L 983.3 69.2 L 983.3 136.7 L 787.5 136.7 Z M 787.5 69.2 "></path></clipPath><g clip-path="url(#clip0x6000046ac3c0)"><text xml:space="preserve" font-family="GillSans,Gill Sans" font-size="26.0" fill="#595E5D" transform="matrix(1.00, 0.00, -0.00, -1.00, 856.5, 93.7)">4</text><text xml:space="preserve" font-family="GillSans,Gill Sans" font-size="26.0" fill="#595E5D" transform="matrix(1.00, 0.00, -0.00, -1.00, 869.5, 93.7)">.</text><text xml:space="preserve" font-family="GillSans,Gill Sans" font-size="26.0" fill="#595E5D" transform="matrix(1.00, 0.00, -0.00, -1.00, 875.3, 93.7)">8</text><text xml:space="preserve" font-family="GillSans,Gill Sans" font-size="26.0" fill="#595E5D" transform="matrix(1.00, 0.00, -0.00, -1.00, 888.3, 93.7)">6</text><text xml:space="preserve" font-family="GillSans,Gill Sans" font-size="26.0" fill="#595E5D" transform="matrix(1.00, 0.00, -0.00, -1.00, 901.3, 93.7)">4</text></g></g></g></g><g><clipPath id="clip0x6000046ac780"><path d="M 2.0 438.7 L 983.8 438.7 L 983.8 0.8 L 2.0 0.8 Z M 2.0 438.7 "></path></clipPath><g clip-path="url(#clip0x6000046ac780)"><g><clipPath id="clip0x6000046ac900"><path d="M 2.5 1.3 L 198.3 1.3 L 198.3 68.7 L 2.5 68.7 Z M 2.5 1.3 "></path></clipPath><g clip-path="url(#clip0x6000046ac900)"><text xml:space="preserve" font-family="GillSans-Light,Gill Sans" font-size="30.0" fill="#FEFFFF" transform="matrix(1.00, 0.00, -0.00, -1.00, 56.9, 24.9)">H</text><text xml:space="preserve" font-family="GillSans-Light,Gill Sans" font-size="30.0" fill="#FEFFFF" transform="matrix(1.00, 0.00, -0.00, -1.00, 78.5, 24.9)">o</text><text xml:space="preserve" font-family="GillSans-Light,Gill Sans" font-size="30.0" fill="#FEFFFF" transform="matrix(1.00, 0.00, -0.00, -1.00, 94.8, 24.9)">l</text><text xml:space="preserve" font-family="GillSans-Light,Gill Sans" font-size="30.0" fill="#FEFFFF" transform="matrix(1.00, 0.00, -0.00, -1.00, 100.4, 24.9)">i</text><text xml:space="preserve" font-family="GillSans-Light,Gill Sans" font-size="30.0" fill="#FEFFFF" transform="matrix(1.00, 0.00, -0.00, -1.00, 106.1, 24.9)">s</text><text xml:space="preserve" font-family="GillSans-Light,Gill Sans" font-size="30.0" fill="#FEFFFF" transform="matrix(1.00, 0.00, -0.00, -1.00, 116.7, 24.9)">t</text><text xml:space="preserve" font-family="GillSans-Light,Gill Sans" font-size="30.0" fill="#FEFFFF" transform="matrix(1.00, 0.00, -0.00, -1.00, 125.7, 24.9)">i</text><text xml:space="preserve" font-family="GillSans-Light,Gill Sans" font-size="30.0" fill="#FEFFFF" transform="matrix(1.00, 0.00, -0.00, -1.00, 131.4, 24.9)">c</text><text xml:space="preserve" font-family="GillSans-Light,Gill Sans" font-size="30.0" fill="#FEFFFF" transform="matrix(1.00, 0.00, -0.00, -1.00, 143.9, 24.9)"> </text></g></g></g></g><g><clipPath id="clip0x6000046ace40"><path d="M 2.0 438.7 L 983.8 438.7 L 983.8 0.8 L 2.0 0.8 Z M 2.0 438.7 "></path></clipPath><g clip-path="url(#clip0x6000046ace40)"><g><clipPath id="clip0x6000046acfc0"><path d="M 198.8 1.3 L 394.5 1.3 L 394.5 68.7 L 198.8 68.7 Z M 198.8 1.3 "></path></clipPath><g clip-path="url(#clip0x6000046acfc0)"><text xml:space="preserve" font-family="GillSans,Gill Sans" font-size="26.0" fill="#595E5D" transform="matrix(1.00, 0.00, -0.00, -1.00, 261.3, 25.7)">3</text><text xml:space="preserve" font-family="GillSans,Gill Sans" font-size="26.0" fill="#595E5D" transform="matrix(1.00, 0.00, -0.00, -1.00, 274.3, 25.7)">0</text><text xml:space="preserve" font-family="GillSans,Gill Sans" font-size="26.0" fill="#595E5D" transform="matrix(1.00, 0.00, -0.00, -1.00, 287.3, 25.7)">.</text><text xml:space="preserve" font-family="GillSans,Gill Sans" font-size="26.0" fill="#595E5D" transform="matrix(1.00, 0.00, -0.00, -1.00, 293.0, 25.7)">5</text><text xml:space="preserve" font-family="GillSans,Gill Sans" font-size="26.0" fill="#595E5D" transform="matrix(1.00, 0.00, -0.00, -1.00, 306.0, 25.7)">9</text><text xml:space="preserve" font-family="GillSans,Gill Sans" font-size="26.0" fill="#595E5D" transform="matrix(1.00, 0.00, -0.00, -1.00, 319.0, 25.7)">8</text></g></g></g></g><g><clipPath id="clip0x6000046ad3e0"><path d="M 2.0 438.7 L 983.8 438.7 L 983.8 0.8 L 2.0 0.8 Z M 2.0 438.7 "></path></clipPath><g clip-path="url(#clip0x6000046ad3e0)"><g><clipPath id="clip0x6000046ad560"><path d="M 395.0 1.3 L 590.8 1.3 L 590.8 68.7 L 395.0 68.7 Z M 395.0 1.3 "></path></clipPath><g clip-path="url(#clip0x6000046ad560)"><text xml:space="preserve" font-family="GillSans,Gill Sans" font-size="26.0" fill="#595E5D" transform="matrix(1.00, 0.00, -0.00, -1.00, 457.6, 25.7)">4</text><text xml:space="preserve" font-family="GillSans,Gill Sans" font-size="26.0" fill="#595E5D" transform="matrix(1.00, 0.00, -0.00, -1.00, 470.6, 25.7)">5</text><text xml:space="preserve" font-family="GillSans,Gill Sans" font-size="26.0" fill="#595E5D" transform="matrix(1.00, 0.00, -0.00, -1.00, 483.6, 25.7)">.</text><text xml:space="preserve" font-family="GillSans,Gill Sans" font-size="26.0" fill="#595E5D" transform="matrix(1.00, 0.00, -0.00, -1.00, 489.3, 25.7)">8</text><text xml:space="preserve" font-family="GillSans,Gill Sans" font-size="26.0" fill="#595E5D" transform="matrix(1.00, 0.00, -0.00, -1.00, 502.3, 25.7)">1</text><text xml:space="preserve" font-family="GillSans,Gill Sans" font-size="26.0" fill="#595E5D" transform="matrix(1.00, 0.00, -0.00, -1.00, 515.3, 25.7)">1</text></g></g></g></g><g><clipPath id="clip0x6000046ad980"><path d="M 2.0 438.7 L 983.8 438.7 L 983.8 0.8 L 2.0 0.8 Z M 2.0 438.7 "></path></clipPath><g clip-path="url(#clip0x6000046ad980)"><g><clipPath id="clip0x6000046adb00"><path d="M 591.3 1.3 L 787.0 1.3 L 787.0 68.7 L 591.3 68.7 Z M 591.3 1.3 "></path></clipPath><g clip-path="url(#clip0x6000046adb00)"><text xml:space="preserve" font-family="GillSans,Gill Sans" font-size="26.0" fill="#595E5D" transform="matrix(1.00, 0.00, -0.00, -1.00, 660.3, 25.7)">3</text><text xml:space="preserve" font-family="GillSans,Gill Sans" font-size="26.0" fill="#595E5D" transform="matrix(1.00, 0.00, -0.00, -1.00, 673.3, 25.7)">.</text><text xml:space="preserve" font-family="GillSans,Gill Sans" font-size="26.0" fill="#595E5D" transform="matrix(1.00, 0.00, -0.00, -1.00, 679.0, 25.7)">3</text><text xml:space="preserve" font-family="GillSans,Gill Sans" font-size="26.0" fill="#595E5D" transform="matrix(1.00, 0.00, -0.00, -1.00, 692.0, 25.7)">7</text><text xml:space="preserve" font-family="GillSans,Gill Sans" font-size="26.0" fill="#595E5D" transform="matrix(1.00, 0.00, -0.00, -1.00, 705.0, 25.7)">1</text></g></g></g></g><g><clipPath id="clip0x6000046adec0"><path d="M 2.0 438.7 L 983.8 438.7 L 983.8 0.8 L 2.0 0.8 Z M 2.0 438.7 "></path></clipPath><g clip-path="url(#clip0x6000046adec0)"><g><clipPath id="clip0x6000046ae040"><path d="M 787.5 1.3 L 983.3 1.3 L 983.3 68.7 L 787.5 68.7 Z M 787.5 1.3 "></path></clipPath><g clip-path="url(#clip0x6000046ae040)"><text xml:space="preserve" font-family="GillSans,Gill Sans" font-size="26.0" fill="#595E5D" transform="matrix(1.00, 0.00, -0.00, -1.00, 856.5, 25.7)">6</text><text xml:space="preserve" font-family="GillSans,Gill Sans" font-size="26.0" fill="#595E5D" transform="matrix(1.00, 0.00, -0.00, -1.00, 869.5, 25.7)">.</text><text xml:space="preserve" font-family="GillSans,Gill Sans" font-size="26.0" fill="#595E5D" transform="matrix(1.00, 0.00, -0.00, -1.00, 875.3, 25.7)">1</text><text xml:space="preserve" font-family="GillSans,Gill Sans" font-size="26.0" fill="#595E5D" transform="matrix(1.00, 0.00, -0.00, -1.00, 888.3, 25.7)">4</text><text xml:space="preserve" font-family="GillSans,Gill Sans" font-size="26.0" fill="#595E5D" transform="matrix(1.00, 0.00, -0.00, -1.00, 901.3, 25.7)">3</text></g></g></g></g><g><clipPath id="clip0x6000046ae400"><path d="M 2.0 438.7 L 983.8 438.7 L 983.8 0.8 L 2.0 0.8 Z M 2.0 438.7 "></path></clipPath><g clip-path="url(#clip0x6000046ae400)"><path d="M 394.5 1.5 L 394.5 99.7 " fill="none" stroke="#7F7F7F" stroke-width="0.50" transform="matrix(1.00, 0.00, 0.00, -1.00, 0.3, 440.4)"></path><path d="M 394.5 99.7 L 394.5 439.9 " fill="none" stroke="#7F7F7F" stroke-width="0.50" transform="matrix(1.00, 0.00, 0.00, -1.00, 0.3, 440.4)"></path><path d="M 590.7 1.5 L 590.7 99.7 " fill="none" stroke="#7F7F7F" stroke-width="0.50" transform="matrix(1.00, 0.00, 0.00, -1.00, 0.3, 440.4)"></path><path d="M 590.7 99.7 L 590.7 439.9 " fill="none" stroke="#7F7F7F" stroke-width="0.50" transform="matrix(1.00, 0.00, 0.00, -1.00, 0.3, 440.4)"></path><path d="M 787.0 1.5 L 787.0 99.7 " fill="none" stroke="#7F7F7F" stroke-width="0.50" transform="matrix(1.00, 0.00, 0.00, -1.00, 0.3, 440.4)"></path><path d="M 787.0 99.7 L 787.0 439.9 " fill="none" stroke="#7F7F7F" stroke-width="0.50" transform="matrix(1.00, 0.00, 0.00, -1.00, 0.3, 440.4)"></path><path d="M 1.5 167.6 L 198.2 167.6 " fill="none" stroke="#7F7F7F" stroke-width="0.50" transform="matrix(1.00, 0.00, 0.00, -1.00, 0.3, 440.4)"></path><path d="M 198.2 167.6 L 983.7 167.6 " fill="none" stroke="#7F7F7F" stroke-width="0.50" transform="matrix(1.00, 0.00, 0.00, -1.00, 0.3, 440.4)"></path><path d="M 1.5 235.5 L 198.2 235.5 " fill="none" stroke="#7F7F7F" stroke-width="0.50" transform="matrix(1.00, 0.00, 0.00, -1.00, 0.3, 440.4)"></path><path d="M 198.2 235.5 L 983.7 235.5 " fill="none" stroke="#7F7F7F" stroke-width="0.50" transform="matrix(1.00, 0.00, 0.00, -1.00, 0.3, 440.4)"></path><path d="M 1.5 303.5 L 198.2 303.5 " fill="none" stroke="#D28A80" stroke-width="0.50" transform="matrix(1.00, 0.00, 0.00, -1.00, 0.3, 440.4)"></path><path d="M 198.2 303.5 L 983.7 303.5 " fill="none" stroke="#7F7F7F" stroke-width="0.50" transform="matrix(1.00, 0.00, 0.00, -1.00, 0.3, 440.4)"></path><path d="M 1.5 371.4 L 198.2 371.4 " fill="none" stroke="#D28A80" stroke-width="0.50" transform="matrix(1.00, 0.00, 0.00, -1.00, 0.3, 440.4)"></path><path d="M 198.2 371.4 L 983.7 371.4 " fill="none" stroke="#7F7F7F" stroke-width="0.50" transform="matrix(1.00, 0.00, 0.00, -1.00, 0.3, 440.4)"></path><path d="M 198.2 1.5 L 198.2 99.7 " fill="none" stroke="#7F7F7F" stroke-width="0.50" transform="matrix(1.00, 0.00, 0.00, -1.00, 0.3, 440.4)"></path><path d="M 198.2 99.7 L 198.2 303.5 " fill="none" stroke="#7F7F7F" stroke-width="0.50" transform="matrix(1.00, 0.00, 0.00, -1.00, 0.3, 440.4)"></path><path d="M 198.2 303.5 L 198.2 371.4 " fill="none" stroke="#D28A80" stroke-width="0.50" transform="matrix(1.00, 0.00, 0.00, -1.00, 0.3, 440.4)"></path><path d="M 198.2 371.4 L 198.2 439.9 " fill="none" stroke="#7F7F7F" stroke-width="0.50" transform="matrix(1.00, 0.00, 0.00, -1.00, 0.3, 440.4)"></path><path d="M 1.5 99.7 L 198.2 99.7 " fill="none" stroke="#7F7F7F" stroke-width="0.50" transform="matrix(1.00, 0.00, 0.00, -1.00, 0.3, 440.4)"></path><path d="M 198.2 99.7 L 983.7 99.7 " fill="none" stroke="#7F7F7F" stroke-width="0.50" transform="matrix(1.00, 0.00, 0.00, -1.00, 0.3, 440.4)"></path><path d="M 2.0 1.5 L 2.0 99.7 " fill="none" stroke="#7F7F7F" stroke-width="0.50" transform="matrix(1.00, 0.00, 0.00, -1.00, 0.3, 440.4)"></path><path d="M 2.0 99.7 L 2.0 303.5 " fill="none" stroke="#7F7F7F" stroke-width="0.50" transform="matrix(1.00, 0.00, 0.00, -1.00, 0.3, 440.4)"></path><path d="M 2.0 303.5 L 2.0 371.4 " fill="none" stroke="#D28A80" stroke-width="0.50" transform="matrix(1.00, 0.00, 0.00, -1.00, 0.3, 440.4)"></path><path d="M 2.0 371.4 L 2.0 439.9 " fill="none" stroke="#7F7F7F" stroke-width="0.50" transform="matrix(1.00, 0.00, 0.00, -1.00, 0.3, 440.4)"></path><path d="M 983.2 1.5 L 983.2 99.7 " fill="none" stroke="#7F7F7F" stroke-width="0.50" transform="matrix(1.00, 0.00, 0.00, -1.00, 0.3, 440.4)"></path><path d="M 983.2 99.7 L 983.2 439.9 " fill="none" stroke="#7F7F7F" stroke-width="0.50" transform="matrix(1.00, 0.00, 0.00, -1.00, 0.3, 440.4)"></path><path d="M 1.5 2.0 L 983.7 2.0 " fill="none" stroke="#7F7F7F" stroke-width="0.50" transform="matrix(1.00, 0.00, 0.00, -1.00, 0.3, 440.4)"></path><path d="M 1.5 439.4 L 198.2 439.4 " fill="none" stroke="#7F7F7F" stroke-width="0.50" transform="matrix(1.00, 0.00, 0.00, -1.00, 0.3, 440.4)"></path><path d="M 198.2 439.4 L 983.7 439.4 " fill="none" stroke="#7F7F7F" stroke-width="0.50" transform="matrix(1.00, 0.00, 0.00, -1.00, 0.3, 440.4)"></path></g></g></g></svg>