<?xml version="1.0" encoding="UTF-8" standalone="no"?><svg xmlns="http://www.w3.org/2000/svg" xmlns:xlink="http://www.w3.org/1999/xlink" clip-rule="evenodd" stroke-miterlimit="10" viewBox="0 0 1024 768"><desc>SVG generated by Keynote</desc><defs></defs><g transform="matrix(1.00, 0.00, -0.00, -1.00, 0.0, 768.0)"><g><clipPath id="clip0x6080044a5ca0"><path d="M 0.0 768.0 L 1024.0 768.0 L 1024.0 0.0 L 0.0 0.0 Z M 0.0 768.0 "></path></clipPath><g clip-path="url(#clip0x6080044a5ca0)"><image xlink:href="../../BE03AB4A-F5E0-4685-80C7-20DCBC62631F/assets/574DCE55A4CF432400CBDDDE1DFDFC9B.jpeg" width="2048.00" height="1536.00" transform="matrix(0.50, 0.00, -0.00, -0.50, 0.0, 768.0)"></image></g></g><g opacity="0.20"><g><clipPath id="clip0x6000044b1dc0"><path d="M 0.0 0.0 L 1024.0 0.0 L 1024.0 768.0 L 0.0 768.0 Z M 0.0 0.0 "></path></clipPath><g clip-path="url(#clip0x6000044b1dc0)"><image xlink:href="../../5E08060D-2256-4148-A615-095E935E5BFB/assets/84EB63A77C6F726465DE355D7646D231.png" width="1024.00" height="1024.00" transform="matrix(1.12, 0.00, -0.00, -1.12, -107.0, 768.0)"></image></g></g></g><text xml:space="preserve" font-family="GillSans-Light,Gill Sans" font-size="72.0" fill="#525252" transform="matrix(1.00, 0.00, -0.00, -1.00, 129.3, 627.7)">N</text><text xml:space="preserve" font-family="GillSans-Light,Gill Sans" font-size="72.0" fill="#525252" transform="matrix(1.00, 0.00, -0.00, -1.00, 184.8, 627.7)">O</text><text xml:space="preserve" font-family="GillSans-Light,Gill Sans" font-size="72.0" fill="#525252" transform="matrix(1.00, 0.00, -0.00, -1.00, 241.2, 627.7)">V</text><text xml:space="preserve" font-family="GillSans-Light,Gill Sans" font-size="72.0" fill="#525252" transform="matrix(1.00, 0.00, -0.00, -1.00, 279.7, 627.7)">A</text><text xml:space="preserve" font-family="GillSans-Light,Gill Sans" font-size="72.0" fill="#525252" transform="matrix(1.00, 0.00, -0.00, -1.00, 327.7, 627.7)">-</text><text xml:space="preserve" font-family="GillSans,Gill Sans" font-size="72.0" fill="#525252" transform="matrix(1.00, 0.00, -0.00, -1.00, 350.2, 627.7)">C</text><text xml:space="preserve" font-family="GillSans,Gill Sans" font-size="72.0" fill="#525252" transform="matrix(1.00, 0.00, -0.00, -1.00, 401.2, 627.7)">O</text><text xml:space="preserve" font-family="GillSans,Gill Sans" font-size="72.0" fill="#525252" transform="matrix(1.00, 0.00, -0.00, -1.00, 460.5, 627.7)">N</text><text xml:space="preserve" font-family="GillSans,Gill Sans" font-size="72.0" fill="#525252" transform="matrix(1.00, 0.00, -0.00, -1.00, 516.7, 627.7)">S</text><text xml:space="preserve" font-family="GillSans,Gill Sans" font-size="72.0" fill="#525252" transform="matrix(1.00, 0.00, -0.00, -1.00, 549.7, 627.7)">O</text><text xml:space="preserve" font-family="GillSans,Gill Sans" font-size="72.0" fill="#525252" transform="matrix(1.00, 0.00, -0.00, -1.00, 609.0, 627.7)">L</text><text xml:space="preserve" font-family="GillSans,Gill Sans" font-size="72.0" fill="#525252" transform="matrix(1.00, 0.00, -0.00, -1.00, 644.3, 627.7)">I</text><text xml:space="preserve" font-family="GillSans,Gill Sans" font-size="72.0" fill="#525252" transform="matrix(1.00, 0.00, -0.00, -1.00, 662.3, 627.7)">D</text><text xml:space="preserve" font-family="GillSans,Gill Sans" font-size="72.0" fill="#525252" transform="matrix(1.00, 0.00, -0.00, -1.00, 712.3, 627.7)">A</text><text xml:space="preserve" font-family="GillSans,Gill Sans" font-size="72.0" fill="#525252" transform="matrix(1.00, 0.00, -0.00, -1.00, 753.1, 627.7)">T</text><text xml:space="preserve" font-family="GillSans,Gill Sans" font-size="72.0" fill="#525252" transform="matrix(1.00, 0.00, -0.00, -1.00, 791.9, 627.7)">O</text><text xml:space="preserve" font-family="GillSans,Gill Sans" font-size="72.0" fill="#525252" transform="matrix(1.00, 0.00, -0.00, -1.00, 851.2, 627.7)">R</text><text xml:space="preserve" font-family="GillSans-Light,Gill Sans" font-size="37.7" fill="#525252" transform="matrix(1.00, 0.00, -0.00, -1.00, 140.2, 524.3)">•</text><text xml:space="preserve" font-family="GillSans-Light,Gill Sans" font-size="46.0" fill="#525252" transform="matrix(1.00, 0.00, -0.00, -1.00, 181.2, 521.8)">N</text><text xml:space="preserve" font-family="GillSans-Light,Gill Sans" font-size="46.0" fill="#525252" transform="matrix(1.00, 0.00, -0.00, -1.00, 216.7, 521.8)">o</text><text xml:space="preserve" font-family="GillSans-Light,Gill Sans" font-size="46.0" fill="#525252" transform="matrix(1.00, 0.00, -0.00, -1.00, 240.7, 521.8)">v</text><text xml:space="preserve" font-family="GillSans-Light,Gill Sans" font-size="46.0" fill="#525252" transform="matrix(1.00, 0.00, -0.00, -1.00, 260.3, 521.8)">a</text><text xml:space="preserve" font-family="GillSans-Light,Gill Sans" font-size="46.0" fill="#525252" transform="matrix(1.00, 0.00, -0.00, -1.00, 280.0, 521.8)"> </text><text xml:space="preserve" font-family="GillSans-Light,Gill Sans" font-size="46.0" fill="#525252" transform="matrix(1.00, 0.00, -0.00, -1.00, 292.7, 521.8)">s</text><text xml:space="preserve" font-family="GillSans-Light,Gill Sans" font-size="46.0" fill="#525252" transform="matrix(1.00, 0.00, -0.00, -1.00, 309.0, 521.8)">e</text><text xml:space="preserve" font-family="GillSans-Light,Gill Sans" font-size="46.0" fill="#525252" transform="matrix(1.00, 0.00, -0.00, -1.00, 331.1, 521.8)">r</text><text xml:space="preserve" font-family="GillSans-Light,Gill Sans" font-size="46.0" fill="#525252" transform="matrix(1.00, 0.00, -0.00, -1.00, 349.6, 521.8)">v</text><text xml:space="preserve" font-family="GillSans-Light,Gill Sans" font-size="46.0" fill="#525252" transform="matrix(1.00, 0.00, -0.00, -1.00, 369.2, 521.8)">i</text><text xml:space="preserve" font-family="GillSans-Light,Gill Sans" font-size="46.0" fill="#525252" transform="matrix(1.00, 0.00, -0.00, -1.00, 377.9, 521.8)">c</text><text xml:space="preserve" font-family="GillSans-Light,Gill Sans" font-size="46.0" fill="#525252" transform="matrix(1.00, 0.00, -0.00, -1.00, 397.0, 521.8)">e</text><text xml:space="preserve" font-family="LucidaConsole,Lucida Console" font-size="32.8" fill="#8C73B2" transform="matrix(1.00, 0.00, -0.00, -1.00, 140.2, 424.9)">•</text><text xml:space="preserve" font-family="LucidaConsole,Lucida Console" font-size="40.0" fill="#8C73B2" transform="matrix(1.00, 0.00, -0.00, -1.00, 181.2, 422.9)">@</text><text xml:space="preserve" font-family="LucidaConsole,Lucida Console" font-size="40.0" fill="#8C73B2" transform="matrix(1.00, 0.00, -0.00, -1.00, 205.3, 422.9)">p</text><text xml:space="preserve" font-family="LucidaConsole,Lucida Console" font-size="40.0" fill="#8C73B2" transform="matrix(1.00, 0.00, -0.00, -1.00, 229.4, 422.9)">e</text><text xml:space="preserve" font-family="LucidaConsole,Lucida Console" font-size="40.0" fill="#8C73B2" transform="matrix(1.00, 0.00, -0.00, -1.00, 253.5, 422.9)">r</text><text xml:space="preserve" font-family="LucidaConsole,Lucida Console" font-size="40.0" fill="#8C73B2" transform="matrix(1.00, 0.00, -0.00, -1.00, 277.6, 422.9)">i</text><text xml:space="preserve" font-family="LucidaConsole,Lucida Console" font-size="40.0" fill="#8C73B2" transform="matrix(1.00, 0.00, -0.00, -1.00, 301.7, 422.9)">o</text><text xml:space="preserve" font-family="LucidaConsole,Lucida Console" font-size="40.0" fill="#8C73B2" transform="matrix(1.00, 0.00, -0.00, -1.00, 325.7, 422.9)">d</text><text xml:space="preserve" font-family="LucidaConsole,Lucida Console" font-size="40.0" fill="#8C73B2" transform="matrix(1.00, 0.00, -0.00, -1.00, 349.8, 422.9)">i</text><text xml:space="preserve" font-family="LucidaConsole,Lucida Console" font-size="40.0" fill="#8C73B2" transform="matrix(1.00, 0.00, -0.00, -1.00, 373.9, 422.9)">c</text><text xml:space="preserve" font-family="LucidaConsole,Lucida Console" font-size="40.0" fill="#8C73B2" transform="matrix(1.00, 0.00, -0.00, -1.00, 398.0, 422.9)">_</text><text xml:space="preserve" font-family="LucidaConsole,Lucida Console" font-size="40.0" fill="#8C73B2" transform="matrix(1.00, 0.00, -0.00, -1.00, 422.1, 422.9)">t</text><text xml:space="preserve" font-family="LucidaConsole,Lucida Console" font-size="40.0" fill="#8C73B2" transform="matrix(1.00, 0.00, -0.00, -1.00, 446.1, 422.9)">a</text><text xml:space="preserve" font-family="LucidaConsole,Lucida Console" font-size="40.0" fill="#8C73B2" transform="matrix(1.00, 0.00, -0.00, -1.00, 470.2, 422.9)">s</text><text xml:space="preserve" font-family="LucidaConsole,Lucida Console" font-size="40.0" fill="#8C73B2" transform="matrix(1.00, 0.00, -0.00, -1.00, 494.3, 422.9)">k</text><text xml:space="preserve" font-family="LucidaConsole,Lucida Console" font-size="40.0" fill="#8C73B2" transform="matrix(1.00, 0.00, -0.00, -1.00, 518.4, 422.9)"> </text><text xml:space="preserve" font-family="GillSans-Light,Gill Sans" font-size="37.7" fill="#525252" transform="matrix(1.00, 0.00, -0.00, -1.00, 140.2, 321.9)">•</text><text xml:space="preserve" font-family="GillSans-Light,Gill Sans" font-size="46.0" fill="#525252" transform="matrix(1.00, 0.00, -0.00, -1.00, 181.2, 319.4)">C</text><text xml:space="preserve" font-family="GillSans-Light,Gill Sans" font-size="46.0" fill="#525252" transform="matrix(1.00, 0.00, -0.00, -1.00, 212.4, 319.4)">a</text><text xml:space="preserve" font-family="GillSans-Light,Gill Sans" font-size="46.0" fill="#525252" transform="matrix(1.00, 0.00, -0.00, -1.00, 232.0, 319.4)">l</text><text xml:space="preserve" font-family="GillSans-Light,Gill Sans" font-size="46.0" fill="#525252" transform="matrix(1.00, 0.00, -0.00, -1.00, 240.6, 319.4)">l</text><text xml:space="preserve" font-family="GillSans-Light,Gill Sans" font-size="46.0" fill="#525252" transform="matrix(1.00, 0.00, -0.00, -1.00, 249.3, 319.4)">s</text><text xml:space="preserve" font-family="GillSans-Light,Gill Sans" font-size="46.0" fill="#525252" transform="matrix(1.00, 0.00, -0.00, -1.00, 265.6, 319.4)"> </text><text xml:space="preserve" font-family="LucidaConsole,Lucida Console" font-size="40.0" fill="#FF9300" transform="matrix(1.00, 0.00, -0.00, -1.00, 181.2, 266.5)">s</text><text xml:space="preserve" font-family="LucidaConsole,Lucida Console" font-size="40.0" fill="#FF9300" transform="matrix(1.00, 0.00, -0.00, -1.00, 205.3, 266.5)">e</text><text xml:space="preserve" font-family="LucidaConsole,Lucida Console" font-size="40.0" fill="#FF9300" transform="matrix(1.00, 0.00, -0.00, -1.00, 229.4, 266.5)">l</text><text xml:space="preserve" font-family="LucidaConsole,Lucida Console" font-size="40.0" fill="#FF9300" transform="matrix(1.00, 0.00, -0.00, -1.00, 253.5, 266.5)">f</text><text xml:space="preserve" font-family="LucidaConsole,Lucida Console" font-size="40.0" fill="#525252" transform="matrix(1.00, 0.00, -0.00, -1.00, 277.6, 266.5)">.</text><text xml:space="preserve" font-family="LucidaConsole,Lucida Console" font-size="40.0" fill="#525252" transform="matrix(1.00, 0.00, -0.00, -1.00, 301.7, 266.5)">c</text><text xml:space="preserve" font-family="LucidaConsole,Lucida Console" font-size="40.0" fill="#525252" transform="matrix(1.00, 0.00, -0.00, -1.00, 325.8, 266.5)">o</text><text xml:space="preserve" font-family="LucidaConsole,Lucida Console" font-size="40.0" fill="#525252" transform="matrix(1.00, 0.00, -0.00, -1.00, 349.9, 266.5)">n</text><text xml:space="preserve" font-family="LucidaConsole,Lucida Console" font-size="40.0" fill="#525252" transform="matrix(1.00, 0.00, -0.00, -1.00, 374.0, 266.5)">s</text><text xml:space="preserve" font-family="LucidaConsole,Lucida Console" font-size="40.0" fill="#525252" transform="matrix(1.00, 0.00, -0.00, -1.00, 398.1, 266.5)">o</text><text xml:space="preserve" font-family="LucidaConsole,Lucida Console" font-size="40.0" fill="#525252" transform="matrix(1.00, 0.00, -0.00, -1.00, 422.1, 266.5)">l</text><text xml:space="preserve" font-family="LucidaConsole,Lucida Console" font-size="40.0" fill="#525252" transform="matrix(1.00, 0.00, -0.00, -1.00, 446.2, 266.5)">i</text><text xml:space="preserve" font-family="LucidaConsole,Lucida Console" font-size="40.0" fill="#525252" transform="matrix(1.00, 0.00, -0.00, -1.00, 470.3, 266.5)">d</text><text xml:space="preserve" font-family="LucidaConsole,Lucida Console" font-size="40.0" fill="#525252" transform="matrix(1.00, 0.00, -0.00, -1.00, 494.4, 266.5)">a</text><text xml:space="preserve" font-family="LucidaConsole,Lucida Console" font-size="40.0" fill="#525252" transform="matrix(1.00, 0.00, -0.00, -1.00, 518.5, 266.5)">t</text><text xml:space="preserve" font-family="LucidaConsole,Lucida Console" font-size="40.0" fill="#525252" transform="matrix(1.00, 0.00, -0.00, -1.00, 542.5, 266.5)">o</text><text xml:space="preserve" font-family="LucidaConsole,Lucida Console" font-size="40.0" fill="#525252" transform="matrix(1.00, 0.00, -0.00, -1.00, 566.6, 266.5)">r</text><text xml:space="preserve" font-family="LucidaConsole,Lucida Console" font-size="40.0" fill="#525252" transform="matrix(1.00, 0.00, -0.00, -1.00, 590.7, 266.5)">.</text><text xml:space="preserve" font-family="LucidaConsole,Lucida Console" font-size="40.0" fill="#525252" transform="matrix(1.00, 0.00, -0.00, -1.00, 614.8, 266.5)">c</text><text xml:space="preserve" font-family="LucidaConsole,Lucida Console" font-size="40.0" fill="#525252" transform="matrix(1.00, 0.00, -0.00, -1.00, 638.9, 266.5)">o</text><text xml:space="preserve" font-family="LucidaConsole,Lucida Console" font-size="40.0" fill="#525252" transform="matrix(1.00, 0.00, -0.00, -1.00, 663.0, 266.5)">n</text><text xml:space="preserve" font-family="LucidaConsole,Lucida Console" font-size="40.0" fill="#525252" transform="matrix(1.00, 0.00, -0.00, -1.00, 687.0, 266.5)">s</text><text xml:space="preserve" font-family="LucidaConsole,Lucida Console" font-size="40.0" fill="#525252" transform="matrix(1.00, 0.00, -0.00, -1.00, 711.1, 266.5)">o</text><text xml:space="preserve" font-family="LucidaConsole,Lucida Console" font-size="40.0" fill="#525252" transform="matrix(1.00, 0.00, -0.00, -1.00, 735.2, 266.5)">l</text><text xml:space="preserve" font-family="LucidaConsole,Lucida Console" font-size="40.0" fill="#525252" transform="matrix(1.00, 0.00, -0.00, -1.00, 759.3, 266.5)">i</text><text xml:space="preserve" font-family="LucidaConsole,Lucida Console" font-size="40.0" fill="#525252" transform="matrix(1.00, 0.00, -0.00, -1.00, 783.4, 266.5)">d</text><text xml:space="preserve" font-family="LucidaConsole,Lucida Console" font-size="40.0" fill="#525252" transform="matrix(1.00, 0.00, -0.00, -1.00, 807.4, 266.5)">a</text><text xml:space="preserve" font-family="LucidaConsole,Lucida Console" font-size="40.0" fill="#525252" transform="matrix(1.00, 0.00, -0.00, -1.00, 831.5, 266.5)">t</text><text xml:space="preserve" font-family="LucidaConsole,Lucida Console" font-size="40.0" fill="#525252" transform="matrix(1.00, 0.00, -0.00, -1.00, 855.6, 266.5)">e</text><text xml:space="preserve" font-family="LucidaConsole,Lucida Console" font-size="40.0" fill="#525252" transform="matrix(1.00, 0.00, -0.00, -1.00, 880.2, 266.5)"> </text><text xml:space="preserve" font-family="GillSans-Light,Gill Sans" font-size="37.7" fill="#525252" transform="matrix(1.00, 0.00, -0.00, -1.00, 140.2, 165.5)">•</text><text xml:space="preserve" font-family="GillSans-Light,Gill Sans" font-size="46.0" fill="#525252" transform="matrix(1.00, 0.00, -0.00, -1.00, 181.2, 163.0)">A</text><text xml:space="preserve" font-family="GillSans-Light,Gill Sans" font-size="46.0" fill="#525252" transform="matrix(1.00, 0.00, -0.00, -1.00, 211.9, 163.0)">p</text><text xml:space="preserve" font-family="GillSans-Light,Gill Sans" font-size="46.0" fill="#525252" transform="matrix(1.00, 0.00, -0.00, -1.00, 235.4, 163.0)">p</text><text xml:space="preserve" font-family="GillSans-Light,Gill Sans" font-size="46.0" fill="#525252" transform="matrix(1.00, 0.00, -0.00, -1.00, 258.8, 163.0)">l</text><text xml:space="preserve" font-family="GillSans-Light,Gill Sans" font-size="46.0" fill="#525252" transform="matrix(1.00, 0.00, -0.00, -1.00, 267.5, 163.0)">i</text><text xml:space="preserve" font-family="GillSans-Light,Gill Sans" font-size="46.0" fill="#525252" transform="matrix(1.00, 0.00, -0.00, -1.00, 276.1, 163.0)">e</text><text xml:space="preserve" font-family="GillSans-Light,Gill Sans" font-size="46.0" fill="#525252" transform="matrix(1.00, 0.00, -0.00, -1.00, 298.1, 163.0)">s</text><text xml:space="preserve" font-family="GillSans-Light,Gill Sans" font-size="46.0" fill="#525252" transform="matrix(1.00, 0.00, -0.00, -1.00, 314.4, 163.0)"> </text><text xml:space="preserve" font-family="GillSans-Light,Gill Sans" font-size="46.0" fill="#525252" transform="matrix(1.00, 0.00, -0.00, -1.00, 327.2, 163.0)">m</text><text xml:space="preserve" font-family="GillSans-Light,Gill Sans" font-size="46.0" fill="#525252" transform="matrix(1.00, 0.00, -0.00, -1.00, 362.7, 163.0)">i</text><text xml:space="preserve" font-family="GillSans-Light,Gill Sans" font-size="46.0" fill="#525252" transform="matrix(1.00, 0.00, -0.00, -1.00, 371.3, 163.0)">g</text><text xml:space="preserve" font-family="GillSans-Light,Gill Sans" font-size="46.0" fill="#525252" transform="matrix(1.00, 0.00, -0.00, -1.00, 390.9, 163.0)">r</text><text xml:space="preserve" font-family="GillSans-Light,Gill Sans" font-size="46.0" fill="#525252" transform="matrix(1.00, 0.00, -0.00, -1.00, 407.4, 163.0)">a</text><text xml:space="preserve" font-family="GillSans-Light,Gill Sans" font-size="46.0" fill="#525252" transform="matrix(1.00, 0.00, -0.00, -1.00, 427.0, 163.0)">t</text><text xml:space="preserve" font-family="GillSans-Light,Gill Sans" font-size="46.0" fill="#525252" transform="matrix(1.00, 0.00, -0.00, -1.00, 440.9, 163.0)">i</text><text xml:space="preserve" font-family="GillSans-Light,Gill Sans" font-size="46.0" fill="#525252" transform="matrix(1.00, 0.00, -0.00, -1.00, 449.5, 163.0)">o</text><text xml:space="preserve" font-family="GillSans-Light,Gill Sans" font-size="46.0" fill="#525252" transform="matrix(1.00, 0.00, -0.00, -1.00, 474.5, 163.0)">n</text><text xml:space="preserve" font-family="GillSans-Light,Gill Sans" font-size="46.0" fill="#525252" transform="matrix(1.00, 0.00, -0.00, -1.00, 497.0, 163.0)">s</text><text xml:space="preserve" font-family="GillSans-Light,Gill Sans" font-size="46.0" fill="#525252" transform="matrix(1.00, 0.00, -0.00, -1.00, 513.3, 163.0)">:</text><text xml:space="preserve" font-family="GillSans-Light,Gill Sans" font-size="46.0" fill="#525252" transform="matrix(1.00, 0.00, -0.00, -1.00, 517.7, 163.0)"> </text><text xml:space="preserve" font-family="LucidaConsole,Lucida Console" font-size="40.0" fill="#FF9300" transform="matrix(1.00, 0.00, -0.00, -1.00, 181.2, 110.1)">s</text><text xml:space="preserve" font-family="LucidaConsole,Lucida Console" font-size="40.0" fill="#FF9300" transform="matrix(1.00, 0.00, -0.00, -1.00, 205.3, 110.1)">e</text><text xml:space="preserve" font-family="LucidaConsole,Lucida Console" font-size="40.0" fill="#FF9300" transform="matrix(1.00, 0.00, -0.00, -1.00, 229.4, 110.1)">l</text><text xml:space="preserve" font-family="LucidaConsole,Lucida Console" font-size="40.0" fill="#FF9300" transform="matrix(1.00, 0.00, -0.00, -1.00, 253.5, 110.1)">f</text><text xml:space="preserve" font-family="LucidaConsole,Lucida Console" font-size="40.0" fill="#525252" transform="matrix(1.00, 0.00, -0.00, -1.00, 277.6, 110.1)">.</text><text xml:space="preserve" font-family="LucidaConsole,Lucida Console" font-size="40.0" fill="#525252" transform="matrix(1.00, 0.00, -0.00, -1.00, 301.7, 110.1)">_</text><text xml:space="preserve" font-family="LucidaConsole,Lucida Console" font-size="40.0" fill="#525252" transform="matrix(1.00, 0.00, -0.00, -1.00, 325.8, 110.1)">d</text><text xml:space="preserve" font-family="LucidaConsole,Lucida Console" font-size="40.0" fill="#525252" transform="matrix(1.00, 0.00, -0.00, -1.00, 349.9, 110.1)">o</text><text xml:space="preserve" font-family="LucidaConsole,Lucida Console" font-size="40.0" fill="#525252" transform="matrix(1.00, 0.00, -0.00, -1.00, 374.0, 110.1)">_</text><text xml:space="preserve" font-family="LucidaConsole,Lucida Console" font-size="40.0" fill="#525252" transform="matrix(1.00, 0.00, -0.00, -1.00, 398.1, 110.1)">l</text><text xml:space="preserve" font-family="LucidaConsole,Lucida Console" font-size="40.0" fill="#525252" transform="matrix(1.00, 0.00, -0.00, -1.00, 422.1, 110.1)">i</text><text xml:space="preserve" font-family="LucidaConsole,Lucida Console" font-size="40.0" fill="#525252" transform="matrix(1.00, 0.00, -0.00, -1.00, 446.2, 110.1)">v</text><text xml:space="preserve" font-family="LucidaConsole,Lucida Console" font-size="40.0" fill="#525252" transform="matrix(1.00, 0.00, -0.00, -1.00, 470.3, 110.1)">e</text><text xml:space="preserve" font-family="LucidaConsole,Lucida Console" font-size="40.0" fill="#525252" transform="matrix(1.00, 0.00, -0.00, -1.00, 494.4, 110.1)">_</text><text xml:space="preserve" font-family="LucidaConsole,Lucida Console" font-size="40.0" fill="#525252" transform="matrix(1.00, 0.00, -0.00, -1.00, 518.5, 110.1)">m</text><text xml:space="preserve" font-family="LucidaConsole,Lucida Console" font-size="40.0" fill="#525252" transform="matrix(1.00, 0.00, -0.00, -1.00, 542.5, 110.1)">i</text><text xml:space="preserve" font-family="LucidaConsole,Lucida Console" font-size="40.0" fill="#525252" transform="matrix(1.00, 0.00, -0.00, -1.00, 566.6, 110.1)">g</text><text xml:space="preserve" font-family="LucidaConsole,Lucida Console" font-size="40.0" fill="#525252" transform="matrix(1.00, 0.00, -0.00, -1.00, 590.7, 110.1)">r</text><text xml:space="preserve" font-family="LucidaConsole,Lucida Console" font-size="40.0" fill="#525252" transform="matrix(1.00, 0.00, -0.00, -1.00, 614.8, 110.1)">a</text><text xml:space="preserve" font-family="LucidaConsole,Lucida Console" font-size="40.0" fill="#525252" transform="matrix(1.00, 0.00, -0.00, -1.00, 638.9, 110.1)">t</text><text xml:space="preserve" font-family="LucidaConsole,Lucida Console" font-size="40.0" fill="#525252" transform="matrix(1.00, 0.00, -0.00, -1.00, 663.0, 110.1)">e</text><text xml:space="preserve" font-family="GillSans-Light,Gill Sans" font-size="30.0" fill="#525252" transform="matrix(1.00, 0.00, -0.00, -1.00, 329.9, 35.4)">b</text><text xml:space="preserve" font-family="GillSans-Light,Gill Sans" font-size="30.0" fill="#525252" transform="matrix(1.00, 0.00, -0.00, -1.00, 344.7, 35.4)">l</text><text xml:space="preserve" font-family="GillSans-Light,Gill Sans" font-size="30.0" fill="#525252" transform="matrix(1.00, 0.00, -0.00, -1.00, 350.4, 35.4)">u</text><text xml:space="preserve" font-family="GillSans-Light,Gill Sans" font-size="30.0" fill="#525252" transform="matrix(1.00, 0.00, -0.00, -1.00, 365.1, 35.4)">e</text><text xml:space="preserve" font-family="GillSans-Light,Gill Sans" font-size="30.0" fill="#525252" transform="matrix(1.00, 0.00, -0.00, -1.00, 379.5, 35.4)">p</text><text xml:space="preserve" font-family="GillSans-Light,Gill Sans" font-size="30.0" fill="#525252" transform="matrix(1.00, 0.00, -0.00, -1.00, 394.8, 35.4)">r</text><text xml:space="preserve" font-family="GillSans-Light,Gill Sans" font-size="30.0" fill="#525252" transform="matrix(1.00, 0.00, -0.00, -1.00, 405.5, 35.4)">i</text><text xml:space="preserve" font-family="GillSans-Light,Gill Sans" font-size="30.0" fill="#525252" transform="matrix(1.00, 0.00, -0.00, -1.00, 411.1, 35.4)">n</text><text xml:space="preserve" font-family="GillSans-Light,Gill Sans" font-size="30.0" fill="#525252" transform="matrix(1.00, 0.00, -0.00, -1.00, 425.8, 35.4)">t</text><text xml:space="preserve" font-family="GillSans-Light,Gill Sans" font-size="30.0" fill="#525252" transform="matrix(1.00, 0.00, -0.00, -1.00, 434.9, 35.4)">s</text><text xml:space="preserve" font-family="GillSans-Light,Gill Sans" font-size="30.0" fill="#525252" transform="matrix(1.00, 0.00, -0.00, -1.00, 445.5, 35.4)">.</text><text xml:space="preserve" font-family="GillSans-Light,Gill Sans" font-size="30.0" fill="#525252" transform="matrix(1.00, 0.00, -0.00, -1.00, 450.8, 35.4)">l</text><text xml:space="preserve" font-family="GillSans-Light,Gill Sans" font-size="30.0" fill="#525252" transform="matrix(1.00, 0.00, -0.00, -1.00, 456.4, 35.4)">a</text><text xml:space="preserve" font-family="GillSans-Light,Gill Sans" font-size="30.0" fill="#525252" transform="matrix(1.00, 0.00, -0.00, -1.00, 469.2, 35.4)">u</text><text xml:space="preserve" font-family="GillSans-Light,Gill Sans" font-size="30.0" fill="#525252" transform="matrix(1.00, 0.00, -0.00, -1.00, 484.0, 35.4)">n</text><text xml:space="preserve" font-family="GillSans-Light,Gill Sans" font-size="30.0" fill="#525252" transform="matrix(1.00, 0.00, -0.00, -1.00, 498.7, 35.4)">c</text><text xml:space="preserve" font-family="GillSans-Light,Gill Sans" font-size="30.0" fill="#525252" transform="matrix(1.00, 0.00, -0.00, -1.00, 511.2, 35.4)">h</text><text xml:space="preserve" font-family="GillSans-Light,Gill Sans" font-size="30.0" fill="#525252" transform="matrix(1.00, 0.00, -0.00, -1.00, 525.9, 35.4)">p</text><text xml:space="preserve" font-family="GillSans-Light,Gill Sans" font-size="30.0" fill="#525252" transform="matrix(1.00, 0.00, -0.00, -1.00, 541.2, 35.4)">a</text><text xml:space="preserve" font-family="GillSans-Light,Gill Sans" font-size="30.0" fill="#525252" transform="matrix(1.00, 0.00, -0.00, -1.00, 554.0, 35.4)">d</text><text xml:space="preserve" font-family="GillSans-Light,Gill Sans" font-size="30.0" fill="#525252" transform="matrix(1.00, 0.00, -0.00, -1.00, 569.3, 35.4)">.</text><text xml:space="preserve" font-family="GillSans-Light,Gill Sans" font-size="30.0" fill="#525252" transform="matrix(1.00, 0.00, -0.00, -1.00, 574.6, 35.4)">n</text><text xml:space="preserve" font-family="GillSans-Light,Gill Sans" font-size="30.0" fill="#525252" transform="matrix(1.00, 0.00, -0.00, -1.00, 589.3, 35.4)">e</text><text xml:space="preserve" font-family="GillSans-Light,Gill Sans" font-size="30.0" fill="#525252" transform="matrix(1.00, 0.00, -0.00, -1.00, 603.6, 35.4)">t</text><text xml:space="preserve" font-family="GillSans-Light,Gill Sans" font-size="30.0" fill="#525252" transform="matrix(1.00, 0.00, -0.00, -1.00, 612.7, 35.4)">/</text><text xml:space="preserve" font-family="GillSans-Light,Gill Sans" font-size="30.0" fill="#525252" transform="matrix(1.00, 0.00, -0.00, -1.00, 621.1, 35.4)">n</text><text xml:space="preserve" font-family="GillSans-Light,Gill Sans" font-size="30.0" fill="#525252" transform="matrix(1.00, 0.00, -0.00, -1.00, 635.8, 35.4)">o</text><text xml:space="preserve" font-family="GillSans-Light,Gill Sans" font-size="30.0" fill="#525252" transform="matrix(1.00, 0.00, -0.00, -1.00, 651.5, 35.4)">v</text><text xml:space="preserve" font-family="GillSans-Light,Gill Sans" font-size="30.0" fill="#525252" transform="matrix(1.00, 0.00, -0.00, -1.00, 664.3, 35.4)">a</text><text xml:space="preserve" font-family="GillSans-Light,Gill Sans" font-size="30.0" fill="#525252" transform="matrix(1.00, 0.00, -0.00, -1.00, 677.1, 35.4)">/</text><text xml:space="preserve" font-family="GillSans-Light,Gill Sans" font-size="30.0" fill="#525252" transform="matrix(1.00, 0.00, -0.00, -1.00, 685.5, 35.4)">+</text><text xml:space="preserve" font-family="GillSans-Light,Gill Sans" font-size="30.0" fill="#525252" transform="matrix(1.00, 0.00, -0.00, -1.00, 705.3, 35.4)">s</text><text xml:space="preserve" font-family="GillSans-Light,Gill Sans" font-size="30.0" fill="#525252" transform="matrix(1.00, 0.00, -0.00, -1.00, 715.9, 35.4)">p</text><text xml:space="preserve" font-family="GillSans-Light,Gill Sans" font-size="30.0" fill="#525252" transform="matrix(1.00, 0.00, -0.00, -1.00, 731.2, 35.4)">e</text><text xml:space="preserve" font-family="GillSans-Light,Gill Sans" font-size="30.0" fill="#525252" transform="matrix(1.00, 0.00, -0.00, -1.00, 745.6, 35.4)">c</text><text xml:space="preserve" font-family="GillSans-Light,Gill Sans" font-size="30.0" fill="#525252" transform="matrix(1.00, 0.00, -0.00, -1.00, 758.1, 35.4)">/</text><text xml:space="preserve" font-family="GillSans-Light,Gill Sans" font-size="30.0" fill="#525252" transform="matrix(1.00, 0.00, -0.00, -1.00, 766.5, 35.4)">n</text><text xml:space="preserve" font-family="GillSans-Light,Gill Sans" font-size="30.0" fill="#525252" transform="matrix(1.00, 0.00, -0.00, -1.00, 781.2, 35.4)">o</text><text xml:space="preserve" font-family="GillSans-Light,Gill Sans" font-size="30.0" fill="#525252" transform="matrix(1.00, 0.00, -0.00, -1.00, 796.9, 35.4)">v</text><text xml:space="preserve" font-family="GillSans-Light,Gill Sans" font-size="30.0" fill="#525252" transform="matrix(1.00, 0.00, -0.00, -1.00, 809.7, 35.4)">a</text><text xml:space="preserve" font-family="GillSans-Light,Gill Sans" font-size="30.0" fill="#525252" transform="matrix(1.00, 0.00, -0.00, -1.00, 822.5, 35.4)">-</text><text xml:space="preserve" font-family="GillSans-Light,Gill Sans" font-size="30.0" fill="#525252" transform="matrix(1.00, 0.00, -0.00, -1.00, 831.9, 35.4)">c</text><text xml:space="preserve" font-family="GillSans-Light,Gill Sans" font-size="30.0" fill="#525252" transform="matrix(1.00, 0.00, -0.00, -1.00, 844.4, 35.4)">o</text><text xml:space="preserve" font-family="GillSans-Light,Gill Sans" font-size="30.0" fill="#525252" transform="matrix(1.00, 0.00, -0.00, -1.00, 860.6, 35.4)">n</text><text xml:space="preserve" font-family="GillSans-Light,Gill Sans" font-size="30.0" fill="#525252" transform="matrix(1.00, 0.00, -0.00, -1.00, 875.3, 35.4)">s</text><text xml:space="preserve" font-family="GillSans-Light,Gill Sans" font-size="30.0" fill="#525252" transform="matrix(1.00, 0.00, -0.00, -1.00, 886.0, 35.4)">o</text><text xml:space="preserve" font-family="GillSans-Light,Gill Sans" font-size="30.0" fill="#525252" transform="matrix(1.00, 0.00, -0.00, -1.00, 902.2, 35.4)">l</text><text xml:space="preserve" font-family="GillSans-Light,Gill Sans" font-size="30.0" fill="#525252" transform="matrix(1.00, 0.00, -0.00, -1.00, 907.9, 35.4)">i</text><text xml:space="preserve" font-family="GillSans-Light,Gill Sans" font-size="30.0" fill="#525252" transform="matrix(1.00, 0.00, -0.00, -1.00, 913.5, 35.4)">d</text><text xml:space="preserve" font-family="GillSans-Light,Gill Sans" font-size="30.0" fill="#525252" transform="matrix(1.00, 0.00, -0.00, -1.00, 928.8, 35.4)">a</text><text xml:space="preserve" font-family="GillSans-Light,Gill Sans" font-size="30.0" fill="#525252" transform="matrix(1.00, 0.00, -0.00, -1.00, 941.6, 35.4)">t</text><text xml:space="preserve" font-family="GillSans-Light,Gill Sans" font-size="30.0" fill="#525252" transform="matrix(1.00, 0.00, -0.00, -1.00, 950.6, 35.4)">o</text><text xml:space="preserve" font-family="GillSans-Light,Gill Sans" font-size="30.0" fill="#525252" transform="matrix(1.00, 0.00, -0.00, -1.00, 966.9, 35.4)">r</text><g><clipPath id="clip0x6000044b4a60"><path d="M 328.9 31.4 L 976.9 31.4 L 976.9 34.9 L 328.9 34.9 Z M 328.9 31.4 "></path></clipPath><g clip-path="url(#clip0x6000044b4a60)"><path d="M 4.5 33.1 L 651.5 33.1 " fill="none" stroke="#525252" stroke-width="1.49" transform="matrix(1.00, 0.00, 0.00, -1.00, 325.4, 66.2)"></path></g></g><image xlink:href="../../BE03AB4A-F5E0-4685-80C7-20DCBC62631F/assets/9A6ABB4995EF94E3903C16036EBAD4B5.png" width="720.00" height="720.00" transform="matrix(0.06, 0.00, -0.00, -0.06, 27.0, 739.0)"></image></g></svg>