<?xml version="1.0" encoding="UTF-8" standalone="no"?><svg xmlns="http://www.w3.org/2000/svg" xmlns:xlink="http://www.w3.org/1999/xlink" clip-rule="evenodd" stroke-miterlimit="10" viewBox="0 0 199 95"><desc>SVG generated by Keynote</desc><defs></defs><g transform="matrix(1.00, 0.00, -0.00, -1.00, 0.0, 95.0)"><path d="M 4.5 15.0 L 4.5 79.9 C 4.5 85.9 9.1 90.5 15.1 90.5 L 184.3 90.5 C 190.2 90.5 195.5 85.9 195.5 79.9 L 195.5 15.3 C 195.5 9.3 190.2 4.5 184.3 4.5 L 15.1 4.5 C 9.1 4.5 4.5 9.0 4.5 15.0 Z M 4.3 15.3 " fill="#FB9301"></path><path d="M 0.2 75.7 L 0.2 10.8 C 0.2 4.9 4.9 0.2 10.8 0.2 L 180.0 0.2 C 186.0 0.2 191.2 4.9 191.2 10.8 L 191.2 75.4 C 191.2 81.4 186.0 86.2 180.0 86.2 L 10.8 86.2 C 4.9 86.2 0.2 81.7 0.2 75.7 Z M 0.0 75.4 " fill="none" stroke="#FF9300" stroke-width="5.00" transform="matrix(1.00, 0.00, 0.00, -1.00, 4.3, 90.7)"></path><g><clipPath id="clip0x6000048a0240"><path d="M 4.3 4.5 L 195.1 4.5 L 195.1 90.7 L 4.3 90.7 Z M 4.3 4.5 "></path></clipPath><g clip-path="url(#clip0x6000048a0240)"><text xml:space="preserve" font-family="LucidaConsole,Lucida Console" font-size="25.0" fill="#FEFFFE" transform="matrix(1.00, 0.00, -0.00, -1.00, 62.0, 53.5)">n</text><text xml:space="preserve" font-family="LucidaConsole,Lucida Console" font-size="25.0" fill="#FEFFFE" transform="matrix(1.00, 0.00, -0.00, -1.00, 77.1, 53.5)">o</text><text xml:space="preserve" font-family="LucidaConsole,Lucida Console" font-size="25.0" fill="#FEFFFE" transform="matrix(1.00, 0.00, -0.00, -1.00, 92.1, 53.5)">v</text><text xml:space="preserve" font-family="LucidaConsole,Lucida Console" font-size="25.0" fill="#FEFFFE" transform="matrix(1.00, 0.00, -0.00, -1.00, 107.2, 53.5)">a</text><text xml:space="preserve" font-family="LucidaConsole,Lucida Console" font-size="25.0" fill="#FEFFFE" transform="matrix(1.00, 0.00, -0.00, -1.00, 122.2, 53.5)">-</text><text xml:space="preserve" font-family="LucidaConsole,Lucida Console" font-size="25.0" fill="#FEFFFE" transform="matrix(1.00, 0.00, -0.00, -1.00, 47.0, 28.5)">c</text><text xml:space="preserve" font-family="LucidaConsole,Lucida Console" font-size="25.0" fill="#FEFFFE" transform="matrix(1.00, 0.00, -0.00, -1.00, 62.0, 28.5)">o</text><text xml:space="preserve" font-family="LucidaConsole,Lucida Console" font-size="25.0" fill="#FEFFFE" transform="matrix(1.00, 0.00, -0.00, -1.00, 77.1, 28.5)">m</text><text xml:space="preserve" font-family="LucidaConsole,Lucida Console" font-size="25.0" fill="#FEFFFE" transform="matrix(1.00, 0.00, -0.00, -1.00, 92.1, 28.5)">p</text><text xml:space="preserve" font-family="LucidaConsole,Lucida Console" font-size="25.0" fill="#FEFFFE" transform="matrix(1.00, 0.00, -0.00, -1.00, 107.2, 28.5)">u</text><text xml:space="preserve" font-family="LucidaConsole,Lucida Console" font-size="25.0" fill="#FEFFFE" transform="matrix(1.00, 0.00, -0.00, -1.00, 122.2, 28.5)">t</text><text xml:space="preserve" font-family="LucidaConsole,Lucida Console" font-size="25.0" fill="#FEFFFE" transform="matrix(1.00, 0.00, -0.00, -1.00, 137.3, 28.5)">e</text></g></g></g></svg>