<?xml version="1.0" encoding="UTF-8" standalone="no"?><svg xmlns="http://www.w3.org/2000/svg" xmlns:xlink="http://www.w3.org/1999/xlink" clip-rule="evenodd" stroke-miterlimit="10" viewBox="0 0 461 223"><desc>SVG generated by Keynote</desc><defs></defs><g transform="matrix(1.00, 0.00, -0.00, -1.00, 0.0, 223.0)"><g><clipPath id="clip0x608004cb5120"><path d="M 0.6 0.6 L 460.8 0.6 L 460.8 222.7 L 0.6 222.7 Z M 0.6 0.6 "></path></clipPath><g clip-path="url(#clip0x608004cb5120)"><path d="M 0.4 200.2 L 0.4 14.4 C 0.4 6.5 6.5 -0.3 14.4 -0.3 L 438.7 -0.3 C 446.7 -0.3 453.4 6.5 453.4 14.4 L 453.4 200.6 C 453.4 208.6 446.7 214.7 438.7 214.7 L 14.4 214.7 C 6.5 214.7 0.4 208.2 0.4 200.2 Z M 0.0 200.6 " fill="none" stroke="#595E5D" stroke-width="5.00" transform="matrix(1.00, 0.00, 0.00, -1.00, 4.1, 219.2)"></path></g></g><g><clipPath id="clip0x608004cb9440"><path d="M 210.0 169.4 L 445.9 169.4 L 445.9 197.4 L 210.0 197.4 Z M 210.0 169.4 "></path></clipPath><g clip-path="url(#clip0x608004cb9440)"><text xml:space="preserve" font-family="GillSans,Gill Sans" font-size="25.0" fill="#525252" transform="matrix(1.00, 0.00, -0.00, -1.00, 221.5, 174.2)">C</text><text xml:space="preserve" font-family="GillSans,Gill Sans" font-size="25.0" fill="#525252" transform="matrix(1.00, 0.00, -0.00, -1.00, 239.2, 174.2)">O</text><text xml:space="preserve" font-family="GillSans,Gill Sans" font-size="25.0" fill="#525252" transform="matrix(1.00, 0.00, -0.00, -1.00, 259.8, 174.2)">M</text><text xml:space="preserve" font-family="GillSans,Gill Sans" font-size="25.0" fill="#525252" transform="matrix(1.00, 0.00, -0.00, -1.00, 279.3, 174.2)">P</text><text xml:space="preserve" font-family="GillSans,Gill Sans" font-size="25.0" fill="#525252" transform="matrix(1.00, 0.00, -0.00, -1.00, 292.1, 174.2)">U</text><text xml:space="preserve" font-family="GillSans,Gill Sans" font-size="25.0" fill="#525252" transform="matrix(1.00, 0.00, -0.00, -1.00, 309.8, 174.2)">T</text><text xml:space="preserve" font-family="GillSans,Gill Sans" font-size="25.0" fill="#525252" transform="matrix(1.00, 0.00, -0.00, -1.00, 324.9, 174.2)">E</text><text xml:space="preserve" font-family="GillSans-Light,Gill Sans" font-size="25.0" fill="#525252" transform="matrix(1.00, 0.00, -0.00, -1.00, 337.4, 174.2)"> </text><text xml:space="preserve" font-family="GillSans-Light,Gill Sans" font-size="25.0" fill="#525252" transform="matrix(1.00, 0.00, -0.00, -1.00, 344.3, 174.2)">N</text><text xml:space="preserve" font-family="GillSans-Light,Gill Sans" font-size="25.0" fill="#525252" transform="matrix(1.00, 0.00, -0.00, -1.00, 363.6, 174.2)">O</text><text xml:space="preserve" font-family="GillSans-Light,Gill Sans" font-size="25.0" fill="#525252" transform="matrix(1.00, 0.00, -0.00, -1.00, 384.2, 174.2)">D</text><text xml:space="preserve" font-family="GillSans-Light,Gill Sans" font-size="25.0" fill="#525252" transform="matrix(1.00, 0.00, -0.00, -1.00, 402.7, 174.2)">E</text><text xml:space="preserve" font-family="GillSans-Light,Gill Sans" font-size="25.0" fill="#525252" transform="matrix(1.00, 0.00, -0.00, -1.00, 415.0, 174.2)"> </text><text xml:space="preserve" font-family="GillSans-Light,Gill Sans" font-size="25.0" fill="#525252" transform="matrix(1.00, 0.00, -0.00, -1.00, 421.9, 174.2)">1</text></g></g></g></svg>