<?xml version="1.0" encoding="UTF-8" standalone="no"?><svg xmlns="http://www.w3.org/2000/svg" xmlns:xlink="http://www.w3.org/1999/xlink" clip-rule="evenodd" stroke-miterlimit="10" viewBox="0 0 199 94"><desc>SVG generated by Keynote</desc><defs></defs><g transform="matrix(1.00, 0.00, -0.00, -1.00, 0.0, 94.0)"><path d="M 4.5 14.0 L 4.5 78.9 C 4.5 84.9 9.3 89.5 15.3 89.5 L 184.4 89.5 C 190.4 89.5 195.5 84.9 195.5 78.9 L 195.5 14.4 C 195.5 8.4 190.4 3.5 184.4 3.5 L 15.3 3.5 C 9.3 3.5 4.5 8.0 4.5 14.0 Z M 4.5 14.4 " fill="#EA3C43"></path><path d="M 0.0 75.8 L 0.0 10.8 C 0.0 4.9 4.9 0.3 10.8 0.3 L 180.0 0.3 C 186.0 0.3 191.0 4.9 191.0 10.8 L 191.0 75.4 C 191.0 81.4 186.0 86.3 180.0 86.3 L 10.8 86.3 C 4.9 86.3 0.0 81.8 0.0 75.8 Z M 0.0 75.4 " fill="none" stroke="#EB3D44" stroke-width="5.00" transform="matrix(1.00, 0.00, 0.00, -1.00, 4.5, 89.8)"></path><g><clipPath id="clip0x600004eb1220"><path d="M 4.5 3.5 L 195.3 3.5 L 195.3 89.8 L 4.5 89.8 Z M 4.5 3.5 "></path></clipPath><g clip-path="url(#clip0x600004eb1220)"><text xml:space="preserve" font-family="LucidaConsole,Lucida Console" font-size="25.0" fill="#FEFFFE" transform="matrix(1.00, 0.00, -0.00, -1.00, 39.6, 39.6)">k</text><text xml:space="preserve" font-family="LucidaConsole,Lucida Console" font-size="25.0" fill="#FEFFFE" transform="matrix(1.00, 0.00, -0.00, -1.00, 54.7, 39.6)">e</text><text xml:space="preserve" font-family="LucidaConsole,Lucida Console" font-size="25.0" fill="#FEFFFE" transform="matrix(1.00, 0.00, -0.00, -1.00, 69.7, 39.6)">y</text><text xml:space="preserve" font-family="LucidaConsole,Lucida Console" font-size="25.0" fill="#FEFFFE" transform="matrix(1.00, 0.00, -0.00, -1.00, 84.8, 39.6)">s</text><text xml:space="preserve" font-family="LucidaConsole,Lucida Console" font-size="25.0" fill="#FEFFFE" transform="matrix(1.00, 0.00, -0.00, -1.00, 99.8, 39.6)">t</text><text xml:space="preserve" font-family="LucidaConsole,Lucida Console" font-size="25.0" fill="#FEFFFE" transform="matrix(1.00, 0.00, -0.00, -1.00, 114.9, 39.6)">o</text><text xml:space="preserve" font-family="LucidaConsole,Lucida Console" font-size="25.0" fill="#FEFFFE" transform="matrix(1.00, 0.00, -0.00, -1.00, 129.9, 39.6)">n</text><text xml:space="preserve" font-family="LucidaConsole,Lucida Console" font-size="25.0" fill="#FEFFFE" transform="matrix(1.00, 0.00, -0.00, -1.00, 145.0, 39.6)">e</text></g></g></g></svg>