<?xml version="1.0" encoding="UTF-8" standalone="no"?><svg xmlns="http://www.w3.org/2000/svg" xmlns:xlink="http://www.w3.org/1999/xlink" clip-rule="evenodd" stroke-miterlimit="10" viewBox="0 0 199 94"><desc>SVG generated by Keynote</desc><defs></defs><g transform="matrix(1.00, 0.00, -0.00, -1.00, 0.0, 94.0)"><path d="M 4.5 14.0 L 4.5 79.0 C 4.5 85.0 9.2 89.5 15.2 89.5 L 184.3 89.5 C 190.3 89.5 195.5 85.0 195.5 79.0 L 195.5 14.4 C 195.5 8.4 190.3 3.5 184.3 3.5 L 15.2 3.5 C 9.2 3.5 4.5 8.0 4.5 14.0 Z M 4.3 14.4 " fill="#2D93FA"></path><path d="M 0.2 75.8 L 0.2 10.8 C 0.2 4.9 4.9 0.3 10.8 0.3 L 180.0 0.3 C 186.0 0.3 191.2 4.9 191.2 10.8 L 191.2 75.4 C 191.2 81.4 186.0 86.3 180.0 86.3 L 10.8 86.3 C 4.9 86.3 0.2 81.8 0.2 75.8 Z M 0.0 75.4 " fill="none" stroke="#2D93FA" stroke-width="5.00" transform="matrix(1.00, 0.00, 0.00, -1.00, 4.3, 89.8)"></path><g><clipPath id="clip0x6000046bef60"><path d="M 4.3 3.6 L 195.1 3.6 L 195.1 89.8 L 4.3 89.8 Z M 4.3 3.6 "></path></clipPath><g clip-path="url(#clip0x6000046bef60)"><text xml:space="preserve" font-family="LucidaConsole,Lucida Console" font-size="25.0" fill="#FEFFFE" transform="matrix(1.00, 0.00, -0.00, -1.00, 47.0, 52.6)">g</text><text xml:space="preserve" font-family="LucidaConsole,Lucida Console" font-size="25.0" fill="#FEFFFE" transform="matrix(1.00, 0.00, -0.00, -1.00, 62.1, 52.6)">l</text><text xml:space="preserve" font-family="LucidaConsole,Lucida Console" font-size="25.0" fill="#FEFFFE" transform="matrix(1.00, 0.00, -0.00, -1.00, 77.1, 52.6)">a</text><text xml:space="preserve" font-family="LucidaConsole,Lucida Console" font-size="25.0" fill="#FEFFFE" transform="matrix(1.00, 0.00, -0.00, -1.00, 92.2, 52.6)">n</text><text xml:space="preserve" font-family="LucidaConsole,Lucida Console" font-size="25.0" fill="#FEFFFE" transform="matrix(1.00, 0.00, -0.00, -1.00, 107.2, 52.6)">c</text><text xml:space="preserve" font-family="LucidaConsole,Lucida Console" font-size="25.0" fill="#FEFFFE" transform="matrix(1.00, 0.00, -0.00, -1.00, 122.3, 52.6)">e</text><text xml:space="preserve" font-family="LucidaConsole,Lucida Console" font-size="25.0" fill="#FEFFFE" transform="matrix(1.00, 0.00, -0.00, -1.00, 137.3, 52.6)">-</text><text xml:space="preserve" font-family="LucidaConsole,Lucida Console" font-size="25.0" fill="#FEFFFE" transform="matrix(1.00, 0.00, -0.00, -1.00, 39.5, 27.6)">r</text><text xml:space="preserve" font-family="LucidaConsole,Lucida Console" font-size="25.0" fill="#FEFFFE" transform="matrix(1.00, 0.00, -0.00, -1.00, 54.5, 27.6)">e</text><text xml:space="preserve" font-family="LucidaConsole,Lucida Console" font-size="25.0" fill="#FEFFFE" transform="matrix(1.00, 0.00, -0.00, -1.00, 69.6, 27.6)">g</text><text xml:space="preserve" font-family="LucidaConsole,Lucida Console" font-size="25.0" fill="#FEFFFE" transform="matrix(1.00, 0.00, -0.00, -1.00, 84.6, 27.6)">i</text><text xml:space="preserve" font-family="LucidaConsole,Lucida Console" font-size="25.0" fill="#FEFFFE" transform="matrix(1.00, 0.00, -0.00, -1.00, 99.7, 27.6)">s</text><text xml:space="preserve" font-family="LucidaConsole,Lucida Console" font-size="25.0" fill="#FEFFFE" transform="matrix(1.00, 0.00, -0.00, -1.00, 114.7, 27.6)">t</text><text xml:space="preserve" font-family="LucidaConsole,Lucida Console" font-size="25.0" fill="#FEFFFE" transform="matrix(1.00, 0.00, -0.00, -1.00, 129.8, 27.6)">r</text><text xml:space="preserve" font-family="LucidaConsole,Lucida Console" font-size="25.0" fill="#FEFFFE" transform="matrix(1.00, 0.00, -0.00, -1.00, 144.8, 27.6)">y</text></g></g></g></svg>