<?xml version="1.0" encoding="UTF-8" standalone="no"?><svg xmlns="http://www.w3.org/2000/svg" xmlns:xlink="http://www.w3.org/1999/xlink" clip-rule="evenodd" stroke-miterlimit="10" viewBox="0 0 199 94"><desc>SVG generated by Keynote</desc><defs></defs><g transform="matrix(1.00, 0.00, -0.00, -1.00, 0.0, 94.0)"><path d="M 4.5 15.0 L 4.5 79.3 C 4.5 85.3 9.3 90.5 15.3 90.5 L 184.4 90.5 C 190.4 90.5 195.5 85.3 195.5 79.3 L 195.5 14.7 C 195.5 8.7 190.4 3.5 184.4 3.5 L 15.3 3.5 C 9.3 3.5 4.5 9.0 4.5 15.0 Z M 4.4 14.7 " fill="#FB9301"></path><path d="M 0.1 75.1 L 0.1 10.8 C 0.1 4.9 4.9 -0.4 10.8 -0.4 L 180.0 -0.4 C 186.0 -0.4 191.1 4.9 191.1 10.8 L 191.1 75.4 C 191.1 81.4 186.0 86.6 180.0 86.6 L 10.8 86.6 C 4.9 86.6 0.1 81.1 0.1 75.1 Z M 0.0 75.4 " fill="none" stroke="#FF9300" stroke-width="5.00" transform="matrix(1.00, 0.00, 0.00, -1.00, 4.4, 90.1)"></path><g><clipPath id="clip0x608004cb9d40"><path d="M 4.4 3.8 L 195.3 3.8 L 195.3 90.1 L 4.4 90.1 Z M 4.4 3.8 "></path></clipPath><g clip-path="url(#clip0x608004cb9d40)"><text xml:space="preserve" font-family="LucidaConsole,Lucida Console" font-size="25.0" fill="#FEFFFE" transform="matrix(1.00, 0.00, -0.00, -1.00, 62.2, 52.8)">n</text><text xml:space="preserve" font-family="LucidaConsole,Lucida Console" font-size="25.0" fill="#FEFFFE" transform="matrix(1.00, 0.00, -0.00, -1.00, 77.2, 52.8)">o</text><text xml:space="preserve" font-family="LucidaConsole,Lucida Console" font-size="25.0" fill="#FEFFFE" transform="matrix(1.00, 0.00, -0.00, -1.00, 92.3, 52.8)">v</text><text xml:space="preserve" font-family="LucidaConsole,Lucida Console" font-size="25.0" fill="#FEFFFE" transform="matrix(1.00, 0.00, -0.00, -1.00, 107.3, 52.8)">a</text><text xml:space="preserve" font-family="LucidaConsole,Lucida Console" font-size="25.0" fill="#FEFFFE" transform="matrix(1.00, 0.00, -0.00, -1.00, 122.4, 52.8)">-</text><text xml:space="preserve" font-family="LucidaConsole,Lucida Console" font-size="25.0" fill="#FEFFFE" transform="matrix(1.00, 0.00, -0.00, -1.00, 32.1, 27.8)">c</text><text xml:space="preserve" font-family="LucidaConsole,Lucida Console" font-size="25.0" fill="#FEFFFE" transform="matrix(1.00, 0.00, -0.00, -1.00, 47.1, 27.8)">o</text><text xml:space="preserve" font-family="LucidaConsole,Lucida Console" font-size="25.0" fill="#FEFFFE" transform="matrix(1.00, 0.00, -0.00, -1.00, 62.2, 27.8)">n</text><text xml:space="preserve" font-family="LucidaConsole,Lucida Console" font-size="25.0" fill="#FEFFFE" transform="matrix(1.00, 0.00, -0.00, -1.00, 77.2, 27.8)">d</text><text xml:space="preserve" font-family="LucidaConsole,Lucida Console" font-size="25.0" fill="#FEFFFE" transform="matrix(1.00, 0.00, -0.00, -1.00, 92.3, 27.8)">u</text><text xml:space="preserve" font-family="LucidaConsole,Lucida Console" font-size="25.0" fill="#FEFFFE" transform="matrix(1.00, 0.00, -0.00, -1.00, 107.3, 27.8)">c</text><text xml:space="preserve" font-family="LucidaConsole,Lucida Console" font-size="25.0" fill="#FEFFFE" transform="matrix(1.00, 0.00, -0.00, -1.00, 122.4, 27.8)">t</text><text xml:space="preserve" font-family="LucidaConsole,Lucida Console" font-size="25.0" fill="#FEFFFE" transform="matrix(1.00, 0.00, -0.00, -1.00, 137.4, 27.8)">o</text><text xml:space="preserve" font-family="LucidaConsole,Lucida Console" font-size="25.0" fill="#FEFFFE" transform="matrix(1.00, 0.00, -0.00, -1.00, 152.5, 27.8)">r</text></g></g></g></svg>