<?xml version="1.0" encoding="UTF-8" standalone="no"?><svg xmlns="http://www.w3.org/2000/svg" xmlns:xlink="http://www.w3.org/1999/xlink" clip-rule="evenodd" stroke-miterlimit="10" viewBox="0 0 199 94"><desc>SVG generated by Keynote</desc><defs></defs><g transform="matrix(1.00, 0.00, -0.00, -1.00, 0.0, 94.0)"><path d="M 3.5 15.0 L 3.5 79.2 C 3.5 85.1 8.7 89.5 14.7 89.5 L 183.8 89.5 C 189.8 89.5 194.5 85.1 194.5 79.2 L 194.5 14.6 C 194.5 8.6 189.8 3.5 183.8 3.5 L 14.7 3.5 C 8.7 3.5 3.5 9.0 3.5 15.0 Z M 3.8 14.6 " fill="#EA3C43"></path><path d="M -0.3 75.0 L -0.3 10.8 C -0.3 4.9 4.9 0.5 10.8 0.5 L 180.0 0.5 C 186.0 0.5 190.7 4.9 190.7 10.8 L 190.7 75.4 C 190.7 81.4 186.0 86.5 180.0 86.5 L 10.8 86.5 C 4.9 86.5 -0.3 81.0 -0.3 75.0 Z M 0.0 75.4 " fill="none" stroke="#EB3D44" stroke-width="5.00" transform="matrix(1.00, 0.00, 0.00, -1.00, 3.8, 90.0)"></path><g><clipPath id="clip0x6000046bcbc0"><path d="M 3.8 3.7 L 194.7 3.7 L 194.7 90.0 L 3.8 90.0 Z M 3.8 3.7 "></path></clipPath><g clip-path="url(#clip0x6000046bcbc0)"><text xml:space="preserve" font-family="LucidaConsole,Lucida Console" font-size="25.0" fill="#FEFFFE" transform="matrix(1.00, 0.00, -0.00, -1.00, 39.0, 39.8)">k</text><text xml:space="preserve" font-family="LucidaConsole,Lucida Console" font-size="25.0" fill="#FEFFFE" transform="matrix(1.00, 0.00, -0.00, -1.00, 54.0, 39.8)">e</text><text xml:space="preserve" font-family="LucidaConsole,Lucida Console" font-size="25.0" fill="#FEFFFE" transform="matrix(1.00, 0.00, -0.00, -1.00, 69.1, 39.8)">y</text><text xml:space="preserve" font-family="LucidaConsole,Lucida Console" font-size="25.0" fill="#FEFFFE" transform="matrix(1.00, 0.00, -0.00, -1.00, 84.1, 39.8)">s</text><text xml:space="preserve" font-family="LucidaConsole,Lucida Console" font-size="25.0" fill="#FEFFFE" transform="matrix(1.00, 0.00, -0.00, -1.00, 99.2, 39.8)">t</text><text xml:space="preserve" font-family="LucidaConsole,Lucida Console" font-size="25.0" fill="#FEFFFE" transform="matrix(1.00, 0.00, -0.00, -1.00, 114.2, 39.8)">o</text><text xml:space="preserve" font-family="LucidaConsole,Lucida Console" font-size="25.0" fill="#FEFFFE" transform="matrix(1.00, 0.00, -0.00, -1.00, 129.3, 39.8)">n</text><text xml:space="preserve" font-family="LucidaConsole,Lucida Console" font-size="25.0" fill="#FEFFFE" transform="matrix(1.00, 0.00, -0.00, -1.00, 144.3, 39.8)">e</text></g></g></g></svg>