<?xml version="1.0" encoding="UTF-8" standalone="no"?><svg xmlns="http://www.w3.org/2000/svg" xmlns:xlink="http://www.w3.org/1999/xlink" clip-rule="evenodd" stroke-miterlimit="10" viewBox="0 0 199 94"><desc>SVG generated by Keynote</desc><defs></defs><g transform="matrix(1.00, 0.00, -0.00, -1.00, 0.0, 94.0)"><path d="M 4.5 14.0 L 4.5 78.9 C 4.5 84.9 9.1 89.5 15.1 89.5 L 184.2 89.5 C 190.2 89.5 195.5 84.9 195.5 78.9 L 195.5 14.4 C 195.5 8.4 190.2 3.5 184.2 3.5 L 15.1 3.5 C 9.1 3.5 4.5 8.0 4.5 14.0 Z M 4.2 14.4 " fill="#FB9301"></path><path d="M 0.3 75.8 L 0.3 10.8 C 0.3 4.9 4.9 0.3 10.8 0.3 L 180.0 0.3 C 186.0 0.3 191.3 4.9 191.3 10.8 L 191.3 75.4 C 191.3 81.4 186.0 86.3 180.0 86.3 L 10.8 86.3 C 4.9 86.3 0.3 81.8 0.3 75.8 Z M 0.0 75.4 " fill="none" stroke="#FF9300" stroke-width="5.00" transform="matrix(1.00, 0.00, 0.00, -1.00, 4.2, 89.8)"></path><g><clipPath id="clip0x608004cbaac0"><path d="M 4.2 3.5 L 195.1 3.5 L 195.1 89.8 L 4.2 89.8 Z M 4.2 3.5 "></path></clipPath><g clip-path="url(#clip0x608004cbaac0)"><text xml:space="preserve" font-family="LucidaConsole,Lucida Console" font-size="25.0" fill="#FEFFFE" transform="matrix(1.00, 0.00, -0.00, -1.00, 62.0, 52.5)">n</text><text xml:space="preserve" font-family="LucidaConsole,Lucida Console" font-size="25.0" fill="#FEFFFE" transform="matrix(1.00, 0.00, -0.00, -1.00, 77.0, 52.5)">o</text><text xml:space="preserve" font-family="LucidaConsole,Lucida Console" font-size="25.0" fill="#FEFFFE" transform="matrix(1.00, 0.00, -0.00, -1.00, 92.1, 52.5)">v</text><text xml:space="preserve" font-family="LucidaConsole,Lucida Console" font-size="25.0" fill="#FEFFFE" transform="matrix(1.00, 0.00, -0.00, -1.00, 107.1, 52.5)">a</text><text xml:space="preserve" font-family="LucidaConsole,Lucida Console" font-size="25.0" fill="#FEFFFE" transform="matrix(1.00, 0.00, -0.00, -1.00, 122.2, 52.5)">-</text><text xml:space="preserve" font-family="LucidaConsole,Lucida Console" font-size="25.0" fill="#FEFFFE" transform="matrix(1.00, 0.00, -0.00, -1.00, 46.9, 27.5)">c</text><text xml:space="preserve" font-family="LucidaConsole,Lucida Console" font-size="25.0" fill="#FEFFFE" transform="matrix(1.00, 0.00, -0.00, -1.00, 62.0, 27.5)">o</text><text xml:space="preserve" font-family="LucidaConsole,Lucida Console" font-size="25.0" fill="#FEFFFE" transform="matrix(1.00, 0.00, -0.00, -1.00, 77.0, 27.5)">m</text><text xml:space="preserve" font-family="LucidaConsole,Lucida Console" font-size="25.0" fill="#FEFFFE" transform="matrix(1.00, 0.00, -0.00, -1.00, 92.1, 27.5)">p</text><text xml:space="preserve" font-family="LucidaConsole,Lucida Console" font-size="25.0" fill="#FEFFFE" transform="matrix(1.00, 0.00, -0.00, -1.00, 107.1, 27.5)">u</text><text xml:space="preserve" font-family="LucidaConsole,Lucida Console" font-size="25.0" fill="#FEFFFE" transform="matrix(1.00, 0.00, -0.00, -1.00, 122.2, 27.5)">t</text><text xml:space="preserve" font-family="LucidaConsole,Lucida Console" font-size="25.0" fill="#FEFFFE" transform="matrix(1.00, 0.00, -0.00, -1.00, 137.2, 27.5)">e</text></g></g></g></svg>