<?xml version="1.0" encoding="UTF-8" standalone="no"?><svg xmlns="http://www.w3.org/2000/svg" xmlns:xlink="http://www.w3.org/1999/xlink" clip-rule="evenodd" stroke-miterlimit="10" viewBox="0 0 166 25"><desc>SVG generated by Keynote</desc><defs></defs><g transform="matrix(1.00, 0.00, -0.00, -1.00, 0.0, 25.0)"><text xml:space="preserve" font-family="GillSans,Gill Sans" font-size="30.0" fill="#525252" transform="matrix(1.00, 0.00, -0.00, -1.00, -0.2, 1.9)">P</text><text xml:space="preserve" font-family="GillSans,Gill Sans" font-size="30.0" fill="#525252" transform="matrix(1.00, 0.00, -0.00, -1.00, 15.1, 1.9)">O</text><text xml:space="preserve" font-family="GillSans,Gill Sans" font-size="30.0" fill="#525252" transform="matrix(1.00, 0.00, -0.00, -1.00, 39.8, 1.9)">S</text><text xml:space="preserve" font-family="GillSans,Gill Sans" font-size="30.0" fill="#525252" transform="matrix(1.00, 0.00, -0.00, -1.00, 53.5, 1.9)">T</text><text xml:space="preserve" font-family="GillSans,Gill Sans" font-size="30.0" fill="#525252" transform="matrix(1.00, 0.00, -0.00, -1.00, 71.6, 1.9)"> </text><text xml:space="preserve" font-family="GillSans,Gill Sans" font-size="30.0" fill="#525252" transform="matrix(1.00, 0.00, -0.00, -1.00, 79.9, 1.9)">/</text><text xml:space="preserve" font-family="GillSans,Gill Sans" font-size="30.0" fill="#525252" transform="matrix(1.00, 0.00, -0.00, -1.00, 88.4, 1.9)">c</text><text xml:space="preserve" font-family="GillSans,Gill Sans" font-size="30.0" fill="#525252" transform="matrix(1.00, 0.00, -0.00, -1.00, 101.5, 1.9)">r</text><text xml:space="preserve" font-family="GillSans,Gill Sans" font-size="30.0" fill="#525252" transform="matrix(1.00, 0.00, -0.00, -1.00, 112.8, 1.9)">e</text><text xml:space="preserve" font-family="GillSans,Gill Sans" font-size="30.0" fill="#525252" transform="matrix(1.00, 0.00, -0.00, -1.00, 127.2, 1.9)">a</text><text xml:space="preserve" font-family="GillSans,Gill Sans" font-size="30.0" fill="#525252" transform="matrix(1.00, 0.00, -0.00, -1.00, 140.0, 1.9)">t</text><text xml:space="preserve" font-family="GillSans,Gill Sans" font-size="30.0" fill="#525252" transform="matrix(1.00, 0.00, -0.00, -1.00, 149.9, 1.9)">e</text></g></svg>