<?xml version="1.0" encoding="UTF-8" standalone="no"?><svg xmlns="http://www.w3.org/2000/svg" xmlns:xlink="http://www.w3.org/1999/xlink" clip-rule="evenodd" stroke-miterlimit="10" viewBox="0 0 913 524"><desc>SVG generated by Keynote</desc><defs></defs><g transform="matrix(1.00, 0.00, -0.00, -1.00, 0.0, 524.0)"><g><clipPath id="clip0x6080040bfda0"><path d="M 669.3 1.0 L 912.6 1.0 L 912.6 151.7 L 669.3 151.7 Z M 669.3 1.0 "></path></clipPath><g clip-path="url(#clip0x6080040bfda0)"><path d="M 670.3 24.3 L 670.0 128.4 C 670.0 140.7 680.3 151.0 692.6 151.0 L 889.3 151.0 C 901.6 151.0 912.0 140.7 912.0 128.4 L 912.0 24.3 C 912.0 12.0 901.6 2.0 889.3 2.0 L 692.6 2.0 C 680.3 2.0 670.3 12.0 670.3 24.3 Z M 670.3 24.3 " fill="#F8C200"></path></g></g><g><clipPath id="clip0x6080040bff80"><path d="M 664.0 2.0 L 917.9 2.0 L 917.9 150.7 L 664.0 150.7 Z M 664.0 2.0 "></path></clipPath><g clip-path="url(#clip0x6080040bff80)"><text xml:space="preserve" font-family="GillSans,Gill Sans" font-size="36.0" fill="#FEFFFF" transform="matrix(1.00, 0.00, -0.00, -1.00, 681.8, 64.4)">D</text><text xml:space="preserve" font-family="GillSans,Gill Sans" font-size="36.0" fill="#FEFFFF" transform="matrix(1.00, 0.00, -0.00, -1.00, 706.9, 64.4)">A</text><text xml:space="preserve" font-family="GillSans,Gill Sans" font-size="36.0" fill="#FEFFFF" transform="matrix(1.00, 0.00, -0.00, -1.00, 727.3, 64.4)">T</text><text xml:space="preserve" font-family="GillSans,Gill Sans" font-size="36.0" fill="#FEFFFF" transform="matrix(1.00, 0.00, -0.00, -1.00, 745.4, 64.4)">A</text><text xml:space="preserve" font-family="GillSans,Gill Sans" font-size="36.0" fill="#FEFFFF" transform="matrix(1.00, 0.00, -0.00, -1.00, 769.4, 64.4)"> </text><text xml:space="preserve" font-family="GillSans,Gill Sans" font-size="36.0" fill="#FEFFFF" transform="matrix(1.00, 0.00, -0.00, -1.00, 774.0, 64.4)">V</text><text xml:space="preserve" font-family="GillSans,Gill Sans" font-size="36.0" fill="#FEFFFF" transform="matrix(1.00, 0.00, -0.00, -1.00, 795.8, 64.4)">I</text><text xml:space="preserve" font-family="GillSans,Gill Sans" font-size="36.0" fill="#FEFFFF" transform="matrix(1.00, 0.00, -0.00, -1.00, 804.8, 64.4)">E</text><text xml:space="preserve" font-family="GillSans,Gill Sans" font-size="36.0" fill="#FEFFFF" transform="matrix(1.00, 0.00, -0.00, -1.00, 822.8, 64.4)">W</text><text xml:space="preserve" font-family="GillSans,Gill Sans" font-size="36.0" fill="#FEFFFF" transform="matrix(1.00, 0.00, -0.00, -1.00, 860.3, 64.4)">E</text><text xml:space="preserve" font-family="GillSans,Gill Sans" font-size="36.0" fill="#FEFFFF" transform="matrix(1.00, 0.00, -0.00, -1.00, 878.3, 64.4)">R</text></g></g><g><clipPath id="clip0x6080042a05a0"><path d="M 0.6 1.0 L 243.9 1.0 L 243.9 151.7 L 0.6 151.7 Z M 0.6 1.0 "></path></clipPath><g clip-path="url(#clip0x6080042a05a0)"><path d="M 1.6 25.2 L 2.0 127.5 C 2.0 140.3 12.0 151.0 24.8 151.0 L 219.7 151.0 C 232.5 151.0 243.0 140.3 243.0 127.5 L 243.0 25.2 C 243.0 12.4 232.5 2.0 219.7 2.0 L 24.8 2.0 C 12.0 2.0 1.6 12.4 1.6 25.2 Z M 1.6 25.2 " fill="#4BA034"></path></g></g><g><clipPath id="clip0x6080042a07e0"><path d="M -4.7 2.0 L 249.2 2.0 L 249.2 150.7 L -4.7 150.7 Z M -4.7 2.0 "></path></clipPath><g clip-path="url(#clip0x6080042a07e0)"><text xml:space="preserve" font-family="GillSans,Gill Sans" font-size="36.0" fill="#FEFFFF" transform="matrix(1.00, 0.00, -0.00, -1.00, 19.4, 84.3)">S</text><text xml:space="preserve" font-family="GillSans,Gill Sans" font-size="36.0" fill="#FEFFFF" transform="matrix(1.00, 0.00, -0.00, -1.00, 35.9, 84.3)">I</text><text xml:space="preserve" font-family="GillSans,Gill Sans" font-size="36.0" fill="#FEFFFF" transform="matrix(1.00, 0.00, -0.00, -1.00, 44.9, 84.3)">M</text><text xml:space="preserve" font-family="GillSans,Gill Sans" font-size="36.0" fill="#FEFFFF" transform="matrix(1.00, 0.00, -0.00, -1.00, 73.0, 84.3)">U</text><text xml:space="preserve" font-family="GillSans,Gill Sans" font-size="36.0" fill="#FEFFFF" transform="matrix(1.00, 0.00, -0.00, -1.00, 98.5, 84.3)">L</text><text xml:space="preserve" font-family="GillSans,Gill Sans" font-size="36.0" fill="#FEFFFF" transform="matrix(1.00, 0.00, -0.00, -1.00, 116.2, 84.3)">A</text><text xml:space="preserve" font-family="GillSans,Gill Sans" font-size="36.0" fill="#FEFFFF" transform="matrix(1.00, 0.00, -0.00, -1.00, 136.6, 84.3)">T</text><text xml:space="preserve" font-family="GillSans,Gill Sans" font-size="36.0" fill="#FEFFFF" transform="matrix(1.00, 0.00, -0.00, -1.00, 158.3, 84.3)">I</text><text xml:space="preserve" font-family="GillSans,Gill Sans" font-size="36.0" fill="#FEFFFF" transform="matrix(1.00, 0.00, -0.00, -1.00, 167.3, 84.3)">O</text><text xml:space="preserve" font-family="GillSans,Gill Sans" font-size="36.0" fill="#FEFFFF" transform="matrix(1.00, 0.00, -0.00, -1.00, 197.0, 84.3)">N</text><text xml:space="preserve" font-family="GillSans,Gill Sans" font-size="36.0" fill="#FEFFFF" transform="matrix(1.00, 0.00, -0.00, -1.00, 225.1, 84.3)"> </text><text xml:space="preserve" font-family="GillSans,Gill Sans" font-size="36.0" fill="#FEFFFF" transform="matrix(1.00, 0.00, -0.00, -1.00, 38.7, 43.3)">D</text><text xml:space="preserve" font-family="GillSans,Gill Sans" font-size="36.0" fill="#FEFFFF" transform="matrix(1.00, 0.00, -0.00, -1.00, 63.7, 43.3)">A</text><text xml:space="preserve" font-family="GillSans,Gill Sans" font-size="36.0" fill="#FEFFFF" transform="matrix(1.00, 0.00, -0.00, -1.00, 84.1, 43.3)">T</text><text xml:space="preserve" font-family="GillSans,Gill Sans" font-size="36.0" fill="#FEFFFF" transform="matrix(1.00, 0.00, -0.00, -1.00, 102.3, 43.3)">A</text><text xml:space="preserve" font-family="GillSans,Gill Sans" font-size="36.0" fill="#FEFFFF" transform="matrix(1.00, 0.00, -0.00, -1.00, 126.3, 43.3)">B</text><text xml:space="preserve" font-family="GillSans,Gill Sans" font-size="36.0" fill="#FEFFFF" transform="matrix(1.00, 0.00, -0.00, -1.00, 147.3, 43.3)">A</text><text xml:space="preserve" font-family="GillSans,Gill Sans" font-size="36.0" fill="#FEFFFF" transform="matrix(1.00, 0.00, -0.00, -1.00, 171.3, 43.3)">S</text><text xml:space="preserve" font-family="GillSans,Gill Sans" font-size="36.0" fill="#FEFFFF" transform="matrix(1.00, 0.00, -0.00, -1.00, 187.8, 43.3)">E</text></g></g><g><clipPath id="clip0x6000040bc680"><path d="M 128.1 364.3 L 128.1 178.8 L 116.5 178.8 L 116.5 364.3 Z M 128.1 364.3 "></path></clipPath><g clip-path="url(#clip0x6000040bc680)"><path d="M 0.3 0.3 L 173.9 0.3 L 175.3 0.3 " fill="none" stroke="#595E5D" stroke-width="2.00" transform="matrix(0.00, -1.00, -1.00, 0.00, 122.3, 363.3)"></path><path d="M 117.2 189.0 L 122.0 179.4 L 126.8 189.0 Z M 117.2 189.0 " fill="#595E5D"></path></g></g><g><clipPath id="clip0x6000040bcbc0"><path d="M 634.7 70.5 L 278.5 70.5 L 278.5 82.1 L 634.7 82.1 Z M 634.7 70.5 "></path></clipPath><g clip-path="url(#clip0x6000040bcbc0)"><path d="M -0.3 -0.3 L 344.6 -0.3 L 345.7 -0.3 " fill="none" stroke="#595E5D" stroke-width="2.00" transform="matrix(-1.00, 0.00, 0.00, 1.00, 633.7, 76.3)"></path><path d="M 289.0 80.8 L 279.4 76.0 L 289.0 71.2 Z M 289.0 80.8 " fill="#595E5D"></path></g></g><g><clipPath id="clip0x6000040bcec0"><path d="M 645.8 261.6 L 795.2 261.6 L 795.2 386.0 L 645.8 386.0 Z M 645.8 261.6 "></path></clipPath><g clip-path="url(#clip0x6000040bcec0)"><path d="M 146.3 0.0 C 133.2 79.9 87.5 119.0 9.2 116.8 L 8.2 116.8 " fill="none" stroke="#595E5D" stroke-width="2.00" transform="matrix(1.00, 0.00, 0.00, -1.00, 646.8, 384.8)"></path><path d="M 0.0 0.0 L 3.0 5.0 L 6.0 0.0 M 3.0 0.0 L 3.0 5.0 " fill="none" stroke="#595E5D" stroke-width="1.25" stroke-linejoin="round" transform="matrix(-0.08, -1.60, -1.60, 0.08, 656.2, 272.7)"></path></g></g><g><clipPath id="clip0x6080042a11a0"><path d="M 283.9 409.9 L 461.5 409.9 L 461.5 481.6 L 283.9 481.6 Z M 283.9 409.9 "></path></clipPath><g clip-path="url(#clip0x6080042a11a0)"><path d="M 0.0 5.0 C 94.5 -9.8 151.2 8.4 169.9 59.6 L 169.9 60.6 " fill="none" stroke="#595E5D" stroke-width="2.00" transform="matrix(1.00, 0.00, 0.00, -1.00, 285.1, 479.6)"></path><path d="M 0.0 0.0 L 3.0 5.0 L 6.0 0.0 M 3.0 0.0 L 3.0 5.0 " fill="none" stroke="#595E5D" stroke-width="1.25" stroke-linejoin="round" transform="matrix(1.53, 0.48, 0.48, -1.53, 450.1, 418.5)"></path></g></g><g><clipPath id="clip0x6080042a1440"><path d="M 400.1 25.8 L 513.1 25.8 L 513.1 68.0 L 400.1 68.0 Z M 400.1 25.8 "></path></clipPath><g clip-path="url(#clip0x6080042a1440)"><text xml:space="preserve" font-family="GillSans-Light,Gill Sans" font-size="25.0" fill="#525252" transform="matrix(1.00, 0.00, -0.00, -1.00, 407.7, 38.8)">V</text><text xml:space="preserve" font-family="GillSans-Light,Gill Sans" font-size="25.0" fill="#525252" transform="matrix(1.00, 0.00, -0.00, -1.00, 422.6, 38.8)">i</text><text xml:space="preserve" font-family="GillSans-Light,Gill Sans" font-size="25.0" fill="#525252" transform="matrix(1.00, 0.00, -0.00, -1.00, 427.3, 38.8)">e</text><text xml:space="preserve" font-family="GillSans-Light,Gill Sans" font-size="25.0" fill="#525252" transform="matrix(1.00, 0.00, -0.00, -1.00, 439.2, 38.8)">w</text><text xml:space="preserve" font-family="GillSans-Light,Gill Sans" font-size="25.0" fill="#525252" transform="matrix(1.00, 0.00, -0.00, -1.00, 456.9, 38.8)"> </text><text xml:space="preserve" font-family="GillSans-Light,Gill Sans" font-size="25.0" fill="#525252" transform="matrix(1.00, 0.00, -0.00, -1.00, 463.9, 38.8)">d</text><text xml:space="preserve" font-family="GillSans-Light,Gill Sans" font-size="25.0" fill="#525252" transform="matrix(1.00, 0.00, -0.00, -1.00, 476.6, 38.8)">a</text><text xml:space="preserve" font-family="GillSans-Light,Gill Sans" font-size="25.0" fill="#525252" transform="matrix(1.00, 0.00, -0.00, -1.00, 487.3, 38.8)">t</text><text xml:space="preserve" font-family="GillSans-Light,Gill Sans" font-size="25.0" fill="#525252" transform="matrix(1.00, 0.00, -0.00, -1.00, 494.8, 38.8)">a</text></g></g><g><clipPath id="clip0x6000040bd040"><path d="M 7.4 240.7 L 200.1 240.7 L 200.1 310.9 L 7.4 310.9 Z M 7.4 240.7 "></path></clipPath><g clip-path="url(#clip0x6000040bd040)"><text xml:space="preserve" font-family="GillSans-Light,Gill Sans" font-size="25.0" fill="#525252" transform="matrix(1.00, 0.00, -0.00, -1.00, 21.9, 281.7)">G</text><text xml:space="preserve" font-family="GillSans-Light,Gill Sans" font-size="25.0" fill="#525252" transform="matrix(1.00, 0.00, -0.00, -1.00, 39.9, 281.7)">e</text><text xml:space="preserve" font-family="GillSans-Light,Gill Sans" font-size="25.0" fill="#525252" transform="matrix(1.00, 0.00, -0.00, -1.00, 51.9, 281.7)">t</text><text xml:space="preserve" font-family="GillSans-Light,Gill Sans" font-size="25.0" fill="#525252" transform="matrix(1.00, 0.00, -0.00, -1.00, 59.4, 281.7)">/</text><text xml:space="preserve" font-family="GillSans-Light,Gill Sans" font-size="25.0" fill="#525252" transform="matrix(1.00, 0.00, -0.00, -1.00, 66.4, 281.7)">S</text><text xml:space="preserve" font-family="GillSans-Light,Gill Sans" font-size="25.0" fill="#525252" transform="matrix(1.00, 0.00, -0.00, -1.00, 78.2, 281.7)">e</text><text xml:space="preserve" font-family="GillSans-Light,Gill Sans" font-size="25.0" fill="#525252" transform="matrix(1.00, 0.00, -0.00, -1.00, 90.1, 281.7)">t</text><text xml:space="preserve" font-family="GillSans-Light,Gill Sans" font-size="25.0" fill="#525252" transform="matrix(1.00, 0.00, -0.00, -1.00, 97.7, 281.7)"> </text><text xml:space="preserve" font-family="GillSans-Light,Gill Sans" font-size="25.0" fill="#525252" transform="matrix(1.00, 0.00, -0.00, -1.00, 39.0, 253.7)">d</text><text xml:space="preserve" font-family="GillSans-Light,Gill Sans" font-size="25.0" fill="#525252" transform="matrix(1.00, 0.00, -0.00, -1.00, 51.7, 253.7)">a</text><text xml:space="preserve" font-family="GillSans-Light,Gill Sans" font-size="25.0" fill="#525252" transform="matrix(1.00, 0.00, -0.00, -1.00, 62.4, 253.7)">t</text><text xml:space="preserve" font-family="GillSans-Light,Gill Sans" font-size="25.0" fill="#525252" transform="matrix(1.00, 0.00, -0.00, -1.00, 69.9, 253.7)">a</text></g></g><g><clipPath id="clip0x6000040bd6a0"><path d="M 765.6 254.7 L 852.2 254.7 L 852.2 296.9 L 765.6 296.9 Z M 765.6 254.7 "></path></clipPath><g clip-path="url(#clip0x6000040bd6a0)"><text xml:space="preserve" font-family="GillSans-Light,Gill Sans" font-size="25.0" fill="#525252" transform="matrix(1.00, 0.00, -0.00, -1.00, 773.2, 267.8)">D</text><text xml:space="preserve" font-family="GillSans-Light,Gill Sans" font-size="25.0" fill="#525252" transform="matrix(1.00, 0.00, -0.00, -1.00, 791.7, 267.8)">e</text><text xml:space="preserve" font-family="GillSans-Light,Gill Sans" font-size="25.0" fill="#525252" transform="matrix(1.00, 0.00, -0.00, -1.00, 803.7, 267.8)">p</text><text xml:space="preserve" font-family="GillSans-Light,Gill Sans" font-size="25.0" fill="#525252" transform="matrix(1.00, 0.00, -0.00, -1.00, 816.5, 267.8)">l</text><text xml:space="preserve" font-family="GillSans-Light,Gill Sans" font-size="25.0" fill="#525252" transform="matrix(1.00, 0.00, -0.00, -1.00, 821.2, 267.8)">o</text><text xml:space="preserve" font-family="GillSans-Light,Gill Sans" font-size="25.0" fill="#525252" transform="matrix(1.00, 0.00, -0.00, -1.00, 834.2, 267.8)">y</text></g></g><g><clipPath id="clip0x6000040bdac0"><path d="M 387.8 483.9 L 555.7 483.9 L 555.7 526.1 L 387.8 526.1 Z M 387.8 483.9 "></path></clipPath><g clip-path="url(#clip0x6000040bdac0)"><text xml:space="preserve" font-family="GillSans-Light,Gill Sans" font-size="25.0" fill="#525252" transform="matrix(1.00, 0.00, -0.00, -1.00, 395.4, 496.9)">R</text><text xml:space="preserve" font-family="GillSans-Light,Gill Sans" font-size="25.0" fill="#525252" transform="matrix(1.00, 0.00, -0.00, -1.00, 409.7, 496.9)">u</text><text xml:space="preserve" font-family="GillSans-Light,Gill Sans" font-size="25.0" fill="#525252" transform="matrix(1.00, 0.00, -0.00, -1.00, 422.0, 496.9)">n</text><text xml:space="preserve" font-family="GillSans-Light,Gill Sans" font-size="25.0" fill="#525252" transform="matrix(1.00, 0.00, -0.00, -1.00, 434.2, 496.9)"> </text><text xml:space="preserve" font-family="GillSans-Light,Gill Sans" font-size="25.0" fill="#525252" transform="matrix(1.00, 0.00, -0.00, -1.00, 441.2, 496.9)">s</text><text xml:space="preserve" font-family="GillSans-Light,Gill Sans" font-size="25.0" fill="#525252" transform="matrix(1.00, 0.00, -0.00, -1.00, 450.0, 496.9)">i</text><text xml:space="preserve" font-family="GillSans-Light,Gill Sans" font-size="25.0" fill="#525252" transform="matrix(1.00, 0.00, -0.00, -1.00, 454.7, 496.9)">m</text><text xml:space="preserve" font-family="GillSans-Light,Gill Sans" font-size="25.0" fill="#525252" transform="matrix(1.00, 0.00, -0.00, -1.00, 473.6, 496.9)">u</text><text xml:space="preserve" font-family="GillSans-Light,Gill Sans" font-size="25.0" fill="#525252" transform="matrix(1.00, 0.00, -0.00, -1.00, 485.9, 496.9)">l</text><text xml:space="preserve" font-family="GillSans-Light,Gill Sans" font-size="25.0" fill="#525252" transform="matrix(1.00, 0.00, -0.00, -1.00, 490.6, 496.9)">a</text><text xml:space="preserve" font-family="GillSans-Light,Gill Sans" font-size="25.0" fill="#525252" transform="matrix(1.00, 0.00, -0.00, -1.00, 501.2, 496.9)">t</text><text xml:space="preserve" font-family="GillSans-Light,Gill Sans" font-size="25.0" fill="#525252" transform="matrix(1.00, 0.00, -0.00, -1.00, 508.8, 496.9)">i</text><text xml:space="preserve" font-family="GillSans-Light,Gill Sans" font-size="25.0" fill="#525252" transform="matrix(1.00, 0.00, -0.00, -1.00, 513.5, 496.9)">o</text><text xml:space="preserve" font-family="GillSans-Light,Gill Sans" font-size="25.0" fill="#525252" transform="matrix(1.00, 0.00, -0.00, -1.00, 527.0, 496.9)">n</text><text xml:space="preserve" font-family="GillSans-Light,Gill Sans" font-size="25.0" fill="#525252" transform="matrix(1.00, 0.00, -0.00, -1.00, 539.3, 496.9)">s</text></g></g><g><clipPath id="clip0x6000040be240"><path d="M 284.9 153.6 L 628.3 153.6 L 628.3 397.9 L 284.9 397.9 Z M 284.9 153.6 "></path></clipPath><g clip-path="url(#clip0x6000040be240)"><path d="M 0.1 201.4 L 0.1 35.6 C 0.1 15.9 15.9 -0.1 35.6 -0.1 L 300.9 -0.1 C 320.5 -0.1 336.1 15.9 336.1 35.6 L 336.1 201.7 C 336.1 221.4 320.5 236.9 300.9 236.9 L 35.6 236.9 C 15.9 236.9 0.1 221.1 0.1 201.4 Z M 0.0 201.7 " fill="none" stroke="#DA3825" stroke-width="5.00" transform="matrix(1.00, 0.00, 0.00, -1.00, 288.4, 394.4)"></path></g></g><g><clipPath id="clip0x6000040be480"><path d="M 284.5 157.1 L 628.7 157.1 L 628.7 394.4 L 284.5 394.4 Z M 284.5 157.1 "></path></clipPath><g clip-path="url(#clip0x6000040be480)"><text xml:space="preserve" font-family="GillSans,Gill Sans" font-size="36.0" fill="#DA3825" transform="matrix(1.00, 0.00, -0.00, -1.00, 356.4, 284.1)">O</text><text xml:space="preserve" font-family="GillSans,Gill Sans" font-size="36.0" fill="#DA3825" transform="matrix(1.00, 0.00, -0.00, -1.00, 386.0, 284.1)">P</text><text xml:space="preserve" font-family="GillSans,Gill Sans" font-size="36.0" fill="#DA3825" transform="matrix(1.00, 0.00, -0.00, -1.00, 404.4, 284.1)">E</text><text xml:space="preserve" font-family="GillSans,Gill Sans" font-size="36.0" fill="#DA3825" transform="matrix(1.00, 0.00, -0.00, -1.00, 422.4, 284.1)">N</text><text xml:space="preserve" font-family="GillSans,Gill Sans" font-size="36.0" fill="#DA3825" transform="matrix(1.00, 0.00, -0.00, -1.00, 450.5, 284.1)">S</text><text xml:space="preserve" font-family="GillSans,Gill Sans" font-size="36.0" fill="#DA3825" transform="matrix(1.00, 0.00, -0.00, -1.00, 467.0, 284.1)">T</text><text xml:space="preserve" font-family="GillSans,Gill Sans" font-size="36.0" fill="#DA3825" transform="matrix(1.00, 0.00, -0.00, -1.00, 485.1, 284.1)">A</text><text xml:space="preserve" font-family="GillSans,Gill Sans" font-size="36.0" fill="#DA3825" transform="matrix(1.00, 0.00, -0.00, -1.00, 507.7, 284.1)">C</text><text xml:space="preserve" font-family="GillSans,Gill Sans" font-size="36.0" fill="#DA3825" transform="matrix(1.00, 0.00, -0.00, -1.00, 533.2, 284.1)">K</text><text xml:space="preserve" font-family="GillSans,Gill Sans" font-size="36.0" fill="#DA3825" transform="matrix(1.00, 0.00, -0.00, -1.00, 556.8, 284.1)"> </text><text xml:space="preserve" font-family="GillSans,Gill Sans" font-size="36.0" fill="#DA3825" transform="matrix(1.00, 0.00, -0.00, -1.00, 395.7, 243.1)">S</text><text xml:space="preserve" font-family="GillSans,Gill Sans" font-size="36.0" fill="#DA3825" transform="matrix(1.00, 0.00, -0.00, -1.00, 412.2, 243.1)">Y</text><text xml:space="preserve" font-family="GillSans,Gill Sans" font-size="36.0" fill="#DA3825" transform="matrix(1.00, 0.00, -0.00, -1.00, 433.2, 243.1)">S</text><text xml:space="preserve" font-family="GillSans,Gill Sans" font-size="36.0" fill="#DA3825" transform="matrix(1.00, 0.00, -0.00, -1.00, 449.7, 243.1)">T</text><text xml:space="preserve" font-family="GillSans,Gill Sans" font-size="36.0" fill="#DA3825" transform="matrix(1.00, 0.00, -0.00, -1.00, 471.4, 243.1)">E</text><text xml:space="preserve" font-family="GillSans,Gill Sans" font-size="36.0" fill="#DA3825" transform="matrix(1.00, 0.00, -0.00, -1.00, 489.4, 243.1)">M</text></g></g><g><clipPath id="clip0x6000040bec60"><path d="M 553.0 230.0 L 609.0 230.0 L 609.0 174.0 L 553.0 174.0 Z M 552.6 230.1 "></path></clipPath><g clip-path="url(#clip0x6000040bec60)"><g><clipPath id="clip0x6000040bede0"><path d="M 552.6 173.8 L 608.8 173.8 L 608.8 230.1 L 552.6 230.1 Z M 552.6 173.8 "></path></clipPath><g clip-path="url(#clip0x6000040bede0)"><image xlink:href="../../66CB2C18-9C35-4559-B7CB-EB1DBA60E765/assets/3370E67DAB754AAB6C1509FAE89877E7.png" width="432.00" height="432.00" transform="matrix(0.13, 0.00, -0.00, -0.13, 553.0, 230.0)"></image></g></g></g></g></g></svg>