<?xml version="1.0" encoding="UTF-8" standalone="no"?><svg xmlns="http://www.w3.org/2000/svg" xmlns:xlink="http://www.w3.org/1999/xlink" clip-rule="evenodd" stroke-miterlimit="10" viewBox="0 0 1024 768"><desc>SVG generated by Keynote</desc><defs></defs><g transform="matrix(1.00, 0.00, -0.00, -1.00, 0.0, 768.0)"><g><clipPath id="clip0x608004ea4560"><path d="M 0.0 768.0 L 1024.0 768.0 L 1024.0 0.0 L 0.0 0.0 Z M 0.0 768.0 "></path></clipPath><g clip-path="url(#clip0x608004ea4560)"><image xlink:href="../../BE03AB4A-F5E0-4685-80C7-20DCBC62631F/assets/574DCE55A4CF432400CBDDDE1DFDFC9B.jpeg" width="2048.00" height="1536.00" transform="matrix(0.50, 0.00, -0.00, -0.50, 0.0, 768.0)"></image></g></g><text xml:space="preserve" font-family="GillSans,Gill Sans" font-size="65.0" fill="#525252" transform="matrix(1.00, 0.00, -0.00, -1.00, 219.4, 680.0)">1</text><text xml:space="preserve" font-family="GillSans,Gill Sans" font-size="65.0" fill="#525252" transform="matrix(1.00, 0.00, -0.00, -1.00, 251.9, 680.0)">+</text><text xml:space="preserve" font-family="GillSans,Gill Sans" font-size="65.0" fill="#525252" transform="matrix(1.00, 0.00, -0.00, -1.00, 289.9, 680.0)">N</text><text xml:space="preserve" font-family="GillSans-Light,Gill Sans" font-size="65.0" fill="#525252" transform="matrix(1.00, 0.00, -0.00, -1.00, 340.6, 680.0)"> </text><text xml:space="preserve" font-family="GillSans-Light,Gill Sans" font-size="65.0" fill="#525252" transform="matrix(1.00, 0.00, -0.00, -1.00, 354.8, 680.0)">A</text><text xml:space="preserve" font-family="GillSans-Light,Gill Sans" font-size="65.0" fill="#525252" transform="matrix(1.00, 0.00, -0.00, -1.00, 398.1, 680.0)">R</text><text xml:space="preserve" font-family="GillSans-Light,Gill Sans" font-size="65.0" fill="#525252" transform="matrix(1.00, 0.00, -0.00, -1.00, 435.4, 680.0)">C</text><text xml:space="preserve" font-family="GillSans-Light,Gill Sans" font-size="65.0" fill="#525252" transform="matrix(1.00, 0.00, -0.00, -1.00, 479.4, 680.0)">H</text><text xml:space="preserve" font-family="GillSans-Light,Gill Sans" font-size="65.0" fill="#525252" transform="matrix(1.00, 0.00, -0.00, -1.00, 526.2, 680.0)">I</text><text xml:space="preserve" font-family="GillSans-Light,Gill Sans" font-size="65.0" fill="#525252" transform="matrix(1.00, 0.00, -0.00, -1.00, 539.7, 680.0)">T</text><text xml:space="preserve" font-family="GillSans-Light,Gill Sans" font-size="65.0" fill="#525252" transform="matrix(1.00, 0.00, -0.00, -1.00, 577.0, 680.0)">E</text><text xml:space="preserve" font-family="GillSans-Light,Gill Sans" font-size="65.0" fill="#525252" transform="matrix(1.00, 0.00, -0.00, -1.00, 608.8, 680.0)">C</text><text xml:space="preserve" font-family="GillSans-Light,Gill Sans" font-size="65.0" fill="#525252" transform="matrix(1.00, 0.00, -0.00, -1.00, 652.8, 680.0)">T</text><text xml:space="preserve" font-family="GillSans-Light,Gill Sans" font-size="65.0" fill="#525252" transform="matrix(1.00, 0.00, -0.00, -1.00, 690.1, 680.0)">U</text><text xml:space="preserve" font-family="GillSans-Light,Gill Sans" font-size="65.0" fill="#525252" transform="matrix(1.00, 0.00, -0.00, -1.00, 735.5, 680.0)">R</text><text xml:space="preserve" font-family="GillSans-Light,Gill Sans" font-size="65.0" fill="#525252" transform="matrix(1.00, 0.00, -0.00, -1.00, 772.8, 680.0)">E</text><text xml:space="preserve" font-family="GillSans-Light,Gill Sans" font-size="40.0" fill="#525252" transform="matrix(1.00, 0.00, -0.00, -1.00, 406.0, 633.5)">i</text><text xml:space="preserve" font-family="GillSans-Light,Gill Sans" font-size="40.0" fill="#525252" transform="matrix(1.00, 0.00, -0.00, -1.00, 413.5, 633.5)">n</text><text xml:space="preserve" font-family="GillSans-Light,Gill Sans" font-size="40.0" fill="#525252" transform="matrix(1.00, 0.00, -0.00, -1.00, 433.1, 633.5)"> </text><text xml:space="preserve" font-family="GillSans-Light,Gill Sans" font-size="40.0" fill="#525252" transform="matrix(1.00, 0.00, -0.00, -1.00, 444.2, 633.5)">O</text><text xml:space="preserve" font-family="GillSans-Light,Gill Sans" font-size="40.0" fill="#525252" transform="matrix(1.00, 0.00, -0.00, -1.00, 477.2, 633.5)">p</text><text xml:space="preserve" font-family="GillSans-Light,Gill Sans" font-size="40.0" fill="#525252" transform="matrix(1.00, 0.00, -0.00, -1.00, 497.6, 633.5)">e</text><text xml:space="preserve" font-family="GillSans-Light,Gill Sans" font-size="40.0" fill="#525252" transform="matrix(1.00, 0.00, -0.00, -1.00, 516.7, 633.5)">n</text><text xml:space="preserve" font-family="GillSans-Light,Gill Sans" font-size="40.0" fill="#525252" transform="matrix(1.00, 0.00, -0.00, -1.00, 536.3, 633.5)">S</text><text xml:space="preserve" font-family="GillSans-Light,Gill Sans" font-size="40.0" fill="#525252" transform="matrix(1.00, 0.00, -0.00, -1.00, 555.1, 633.5)">t</text><text xml:space="preserve" font-family="GillSans-Light,Gill Sans" font-size="40.0" fill="#525252" transform="matrix(1.00, 0.00, -0.00, -1.00, 567.2, 633.5)">a</text><text xml:space="preserve" font-family="GillSans-Light,Gill Sans" font-size="40.0" fill="#525252" transform="matrix(1.00, 0.00, -0.00, -1.00, 584.2, 633.5)">c</text><text xml:space="preserve" font-family="GillSans-Light,Gill Sans" font-size="40.0" fill="#525252" transform="matrix(1.00, 0.00, -0.00, -1.00, 600.9, 633.5)">k</text><g><clipPath id="clip0x608004ea67e0"><path d="M 517.3 202.6 L 735.7 202.6 L 735.7 333.1 L 517.3 333.1 Z M 517.3 202.6 "></path></clipPath><g clip-path="url(#clip0x608004ea67e0)"><path d="M -0.3 112.6 L -0.3 10.8 C -0.3 4.9 4.9 0.1 10.8 0.1 L 200.5 0.1 C 206.5 0.1 211.7 4.9 211.7 10.8 L 211.7 112.6 C 211.7 118.6 206.5 123.1 200.5 123.1 L 10.8 123.1 C 4.9 123.1 -0.3 118.6 -0.3 112.6 Z M 0.0 112.6 " fill="none" stroke="#595E5D" stroke-width="5.00" transform="matrix(1.00, 0.00, 0.00, -1.00, 520.8, 329.6)"></path></g></g><g><clipPath id="clip0x608004ea6a20"><path d="M 520.8 206.1 L 732.2 206.1 L 732.2 329.6 L 520.8 329.6 Z M 520.8 206.1 "></path></clipPath><g clip-path="url(#clip0x608004ea6a20)"><text xml:space="preserve" font-family="GillSans,Gill Sans" font-size="20.0" fill="#525252" transform="matrix(1.00, 0.00, -0.00, -1.00, 541.4, 261.3)">C</text><text xml:space="preserve" font-family="GillSans,Gill Sans" font-size="20.0" fill="#525252" transform="matrix(1.00, 0.00, -0.00, -1.00, 555.5, 261.3)">O</text><text xml:space="preserve" font-family="GillSans,Gill Sans" font-size="20.0" fill="#525252" transform="matrix(1.00, 0.00, -0.00, -1.00, 572.0, 261.3)">M</text><text xml:space="preserve" font-family="GillSans,Gill Sans" font-size="20.0" fill="#525252" transform="matrix(1.00, 0.00, -0.00, -1.00, 587.6, 261.3)">P</text><text xml:space="preserve" font-family="GillSans,Gill Sans" font-size="20.0" fill="#525252" transform="matrix(1.00, 0.00, -0.00, -1.00, 597.8, 261.3)">U</text><text xml:space="preserve" font-family="GillSans,Gill Sans" font-size="20.0" fill="#525252" transform="matrix(1.00, 0.00, -0.00, -1.00, 612.0, 261.3)">T</text><text xml:space="preserve" font-family="GillSans,Gill Sans" font-size="20.0" fill="#525252" transform="matrix(1.00, 0.00, -0.00, -1.00, 624.0, 261.3)">E</text><text xml:space="preserve" font-family="GillSans-Light,Gill Sans" font-size="20.0" fill="#525252" transform="matrix(1.00, 0.00, -0.00, -1.00, 634.0, 261.3)"> </text><text xml:space="preserve" font-family="GillSans-Light,Gill Sans" font-size="20.0" fill="#525252" transform="matrix(1.00, 0.00, -0.00, -1.00, 639.6, 261.3)">N</text><text xml:space="preserve" font-family="GillSans-Light,Gill Sans" font-size="20.0" fill="#525252" transform="matrix(1.00, 0.00, -0.00, -1.00, 655.0, 261.3)">O</text><text xml:space="preserve" font-family="GillSans-Light,Gill Sans" font-size="20.0" fill="#525252" transform="matrix(1.00, 0.00, -0.00, -1.00, 671.5, 261.3)">D</text><text xml:space="preserve" font-family="GillSans-Light,Gill Sans" font-size="20.0" fill="#525252" transform="matrix(1.00, 0.00, -0.00, -1.00, 686.3, 261.3)">E</text><text xml:space="preserve" font-family="GillSans-Light,Gill Sans" font-size="20.0" fill="#525252" transform="matrix(1.00, 0.00, -0.00, -1.00, 696.1, 261.3)"> </text><text xml:space="preserve" font-family="GillSans-Light,Gill Sans" font-size="20.0" fill="#525252" transform="matrix(1.00, 0.00, -0.00, -1.00, 701.7, 261.3)">2</text></g></g><g><clipPath id="clip0x608004ea7140"><path d="M 755.6 202.6 L 974.0 202.6 L 974.0 333.1 L 755.6 333.1 Z M 755.6 202.6 "></path></clipPath><g clip-path="url(#clip0x608004ea7140)"><path d="M 0.4 112.6 L 0.4 10.8 C 0.4 4.9 4.9 0.1 10.8 0.1 L 200.5 0.1 C 206.5 0.1 211.4 4.9 211.4 10.8 L 211.4 112.6 C 211.4 118.6 206.5 123.1 200.5 123.1 L 10.8 123.1 C 4.9 123.1 0.4 118.6 0.4 112.6 Z M 0.0 112.6 " fill="none" stroke="#595E5D" stroke-width="5.00" transform="matrix(1.00, 0.00, 0.00, -1.00, 759.1, 329.6)"></path></g></g><g><clipPath id="clip0x608004ea7380"><path d="M 759.1 206.1 L 970.5 206.1 L 970.5 329.6 L 759.1 329.6 Z M 759.1 206.1 "></path></clipPath><g clip-path="url(#clip0x608004ea7380)"><text xml:space="preserve" font-family="GillSans,Gill Sans" font-size="20.0" fill="#525252" transform="matrix(1.00, 0.00, -0.00, -1.00, 779.6, 261.3)">C</text><text xml:space="preserve" font-family="GillSans,Gill Sans" font-size="20.0" fill="#525252" transform="matrix(1.00, 0.00, -0.00, -1.00, 793.8, 261.3)">O</text><text xml:space="preserve" font-family="GillSans,Gill Sans" font-size="20.0" fill="#525252" transform="matrix(1.00, 0.00, -0.00, -1.00, 810.3, 261.3)">M</text><text xml:space="preserve" font-family="GillSans,Gill Sans" font-size="20.0" fill="#525252" transform="matrix(1.00, 0.00, -0.00, -1.00, 825.9, 261.3)">P</text><text xml:space="preserve" font-family="GillSans,Gill Sans" font-size="20.0" fill="#525252" transform="matrix(1.00, 0.00, -0.00, -1.00, 836.1, 261.3)">U</text><text xml:space="preserve" font-family="GillSans,Gill Sans" font-size="20.0" fill="#525252" transform="matrix(1.00, 0.00, -0.00, -1.00, 850.2, 261.3)">T</text><text xml:space="preserve" font-family="GillSans,Gill Sans" font-size="20.0" fill="#525252" transform="matrix(1.00, 0.00, -0.00, -1.00, 862.3, 261.3)">E</text><text xml:space="preserve" font-family="GillSans-Light,Gill Sans" font-size="20.0" fill="#525252" transform="matrix(1.00, 0.00, -0.00, -1.00, 872.3, 261.3)"> </text><text xml:space="preserve" font-family="GillSans-Light,Gill Sans" font-size="20.0" fill="#525252" transform="matrix(1.00, 0.00, -0.00, -1.00, 877.9, 261.3)">N</text><text xml:space="preserve" font-family="GillSans-Light,Gill Sans" font-size="20.0" fill="#525252" transform="matrix(1.00, 0.00, -0.00, -1.00, 893.3, 261.3)">O</text><text xml:space="preserve" font-family="GillSans-Light,Gill Sans" font-size="20.0" fill="#525252" transform="matrix(1.00, 0.00, -0.00, -1.00, 909.8, 261.3)">D</text><text xml:space="preserve" font-family="GillSans-Light,Gill Sans" font-size="20.0" fill="#525252" transform="matrix(1.00, 0.00, -0.00, -1.00, 924.6, 261.3)">E</text><text xml:space="preserve" font-family="GillSans-Light,Gill Sans" font-size="20.0" fill="#525252" transform="matrix(1.00, 0.00, -0.00, -1.00, 934.4, 261.3)"> </text><text xml:space="preserve" font-family="GillSans-Light,Gill Sans" font-size="20.0" fill="#525252" transform="matrix(1.00, 0.00, -0.00, -1.00, 939.9, 261.3)">3</text></g></g><g><clipPath id="clip0x608004ea7aa0"><path d="M 757.3 51.7 L 975.6 51.7 L 975.6 182.2 L 757.3 182.2 Z M 757.3 51.7 "></path></clipPath><g clip-path="url(#clip0x608004ea7aa0)"><path d="M -0.3 112.7 L -0.3 10.8 C -0.3 4.9 4.9 0.2 10.8 0.2 L 200.5 0.2 C 206.5 0.2 211.7 4.9 211.7 10.8 L 211.7 112.6 C 211.7 118.6 206.5 123.2 200.5 123.2 L 10.8 123.2 C 4.9 123.2 -0.3 118.7 -0.3 112.7 Z M 0.0 112.6 " fill="none" stroke="#595E5D" stroke-width="5.00" transform="matrix(1.00, 0.00, 0.00, -1.00, 760.8, 178.7)"></path></g></g><g><clipPath id="clip0x608004ea7ce0"><path d="M 760.8 55.2 L 972.1 55.2 L 972.1 178.7 L 760.8 178.7 Z M 760.8 55.2 "></path></clipPath><g clip-path="url(#clip0x608004ea7ce0)"><text xml:space="preserve" font-family="GillSans,Gill Sans" font-size="20.0" fill="#525252" transform="matrix(1.00, 0.00, -0.00, -1.00, 778.6, 110.4)">C</text><text xml:space="preserve" font-family="GillSans,Gill Sans" font-size="20.0" fill="#525252" transform="matrix(1.00, 0.00, -0.00, -1.00, 792.8, 110.4)">O</text><text xml:space="preserve" font-family="GillSans,Gill Sans" font-size="20.0" fill="#525252" transform="matrix(1.00, 0.00, -0.00, -1.00, 809.2, 110.4)">M</text><text xml:space="preserve" font-family="GillSans,Gill Sans" font-size="20.0" fill="#525252" transform="matrix(1.00, 0.00, -0.00, -1.00, 824.8, 110.4)">P</text><text xml:space="preserve" font-family="GillSans,Gill Sans" font-size="20.0" fill="#525252" transform="matrix(1.00, 0.00, -0.00, -1.00, 835.0, 110.4)">U</text><text xml:space="preserve" font-family="GillSans,Gill Sans" font-size="20.0" fill="#525252" transform="matrix(1.00, 0.00, -0.00, -1.00, 849.2, 110.4)">T</text><text xml:space="preserve" font-family="GillSans,Gill Sans" font-size="20.0" fill="#525252" transform="matrix(1.00, 0.00, -0.00, -1.00, 861.3, 110.4)">E</text><text xml:space="preserve" font-family="GillSans-Light,Gill Sans" font-size="20.0" fill="#525252" transform="matrix(1.00, 0.00, -0.00, -1.00, 871.3, 110.4)"> </text><text xml:space="preserve" font-family="GillSans-Light,Gill Sans" font-size="20.0" fill="#525252" transform="matrix(1.00, 0.00, -0.00, -1.00, 876.8, 110.4)">N</text><text xml:space="preserve" font-family="GillSans-Light,Gill Sans" font-size="20.0" fill="#525252" transform="matrix(1.00, 0.00, -0.00, -1.00, 892.3, 110.4)">O</text><text xml:space="preserve" font-family="GillSans-Light,Gill Sans" font-size="20.0" fill="#525252" transform="matrix(1.00, 0.00, -0.00, -1.00, 908.7, 110.4)">D</text><text xml:space="preserve" font-family="GillSans-Light,Gill Sans" font-size="20.0" fill="#525252" transform="matrix(1.00, 0.00, -0.00, -1.00, 923.5, 110.4)">E</text><text xml:space="preserve" font-family="GillSans-Light,Gill Sans" font-size="20.0" fill="#525252" transform="matrix(1.00, 0.00, -0.00, -1.00, 933.3, 110.4)"> </text><text xml:space="preserve" font-family="GillSans-Light,Gill Sans" font-size="20.0" fill="#525252" transform="matrix(1.00, 0.00, -0.00, -1.00, 938.9, 110.4)">N</text></g></g><g><clipPath id="clip0x6000050a1c20"><path d="M 37.3 53.7 L 478.8 53.7 L 478.8 575.9 L 37.3 575.9 Z M 37.3 53.7 "></path></clipPath><g clip-path="url(#clip0x6000050a1c20)"><path d="M -0.3 499.4 L -0.3 15.9 C -0.3 7.1 7.1 -0.1 15.9 -0.1 L 418.6 -0.1 C 427.4 -0.1 434.7 7.1 434.7 15.9 L 434.7 499.3 C 434.7 508.1 427.4 514.9 418.6 514.9 L 15.9 514.9 C 7.1 514.9 -0.3 508.2 -0.3 499.4 Z M 0.0 499.3 " fill="none" stroke="#595E5D" stroke-width="5.00" transform="matrix(1.00, 0.00, 0.00, -1.00, 40.8, 572.4)"></path></g></g><g><clipPath id="clip0x6000050a1ec0"><path d="M 205.2 514.0 L 457.4 514.0 L 457.4 557.7 L 205.2 557.7 Z M 205.2 514.0 "></path></clipPath><g clip-path="url(#clip0x6000050a1ec0)"><text xml:space="preserve" font-family="GillSans,Gill Sans" font-size="25.0" fill="#525252" transform="matrix(1.00, 0.00, -0.00, -1.00, 212.9, 527.2)">C</text><text xml:space="preserve" font-family="GillSans,Gill Sans" font-size="25.0" fill="#525252" transform="matrix(1.00, 0.00, -0.00, -1.00, 230.6, 527.2)">O</text><text xml:space="preserve" font-family="GillSans,Gill Sans" font-size="25.0" fill="#525252" transform="matrix(1.00, 0.00, -0.00, -1.00, 251.2, 527.2)">N</text><text xml:space="preserve" font-family="GillSans,Gill Sans" font-size="25.0" fill="#525252" transform="matrix(1.00, 0.00, -0.00, -1.00, 270.7, 527.2)">T</text><text xml:space="preserve" font-family="GillSans,Gill Sans" font-size="25.0" fill="#525252" transform="matrix(1.00, 0.00, -0.00, -1.00, 285.8, 527.2)">R</text><text xml:space="preserve" font-family="GillSans,Gill Sans" font-size="25.0" fill="#525252" transform="matrix(1.00, 0.00, -0.00, -1.00, 299.4, 527.2)">O</text><text xml:space="preserve" font-family="GillSans,Gill Sans" font-size="25.0" fill="#525252" transform="matrix(1.00, 0.00, -0.00, -1.00, 320.0, 527.2)">L</text><text xml:space="preserve" font-family="GillSans,Gill Sans" font-size="25.0" fill="#525252" transform="matrix(1.00, 0.00, -0.00, -1.00, 332.2, 527.2)">L</text><text xml:space="preserve" font-family="GillSans,Gill Sans" font-size="25.0" fill="#525252" transform="matrix(1.00, 0.00, -0.00, -1.00, 344.5, 527.2)">E</text><text xml:space="preserve" font-family="GillSans,Gill Sans" font-size="25.0" fill="#525252" transform="matrix(1.00, 0.00, -0.00, -1.00, 357.0, 527.2)">R</text><text xml:space="preserve" font-family="GillSans-Light,Gill Sans" font-size="25.0" fill="#525252" transform="matrix(1.00, 0.00, -0.00, -1.00, 372.1, 527.2)"> </text><text xml:space="preserve" font-family="GillSans-Light,Gill Sans" font-size="25.0" fill="#525252" transform="matrix(1.00, 0.00, -0.00, -1.00, 379.0, 527.2)">N</text><text xml:space="preserve" font-family="GillSans-Light,Gill Sans" font-size="25.0" fill="#525252" transform="matrix(1.00, 0.00, -0.00, -1.00, 398.3, 527.2)">O</text><text xml:space="preserve" font-family="GillSans-Light,Gill Sans" font-size="25.0" fill="#525252" transform="matrix(1.00, 0.00, -0.00, -1.00, 418.9, 527.2)">D</text><text xml:space="preserve" font-family="GillSans-Light,Gill Sans" font-size="25.0" fill="#525252" transform="matrix(1.00, 0.00, -0.00, -1.00, 437.4, 527.2)">E</text></g></g><g><clipPath id="clip0x6000050a2700"><path d="M 52.4 188.1 L 250.2 188.1 L 250.2 281.4 L 52.4 281.4 Z M 52.4 188.1 "></path></clipPath><g clip-path="url(#clip0x6000050a2700)"><path d="M 55.5 202.0 L 55.5 267.0 C 55.5 273.0 60.8 277.5 66.8 277.5 L 235.9 277.5 C 241.9 277.5 246.5 273.0 246.5 267.0 L 246.5 202.4 C 246.5 196.4 241.9 191.5 235.9 191.5 L 66.8 191.5 C 60.8 191.5 55.5 196.0 55.5 202.0 Z M 55.9 202.4 " fill="#FB9301"></path><path d="M -0.4 75.9 L -0.4 10.8 C -0.4 4.9 4.9 0.4 10.8 0.4 L 180.0 0.4 C 186.0 0.4 190.6 4.9 190.6 10.8 L 190.6 75.4 C 190.6 81.4 186.0 86.4 180.0 86.4 L 10.8 86.4 C 4.9 86.4 -0.4 81.8 -0.4 75.9 Z M 0.0 75.4 " fill="none" stroke="#FF9300" stroke-width="5.00" transform="matrix(1.00, 0.00, 0.00, -1.00, 55.9, 277.9)"></path></g></g><g><clipPath id="clip0x6000050a2a00"><path d="M 55.9 191.6 L 246.7 191.6 L 246.7 277.9 L 55.9 277.9 Z M 55.9 191.6 "></path></clipPath><g clip-path="url(#clip0x6000050a2a00)"><text xml:space="preserve" font-family="LucidaConsole,Lucida Console" font-size="25.0" fill="#FEFFFE" transform="matrix(1.00, 0.00, -0.00, -1.00, 91.1, 227.7)">n</text><text xml:space="preserve" font-family="LucidaConsole,Lucida Console" font-size="25.0" fill="#FEFFFE" transform="matrix(1.00, 0.00, -0.00, -1.00, 106.1, 227.7)">o</text><text xml:space="preserve" font-family="LucidaConsole,Lucida Console" font-size="25.0" fill="#FEFFFE" transform="matrix(1.00, 0.00, -0.00, -1.00, 121.2, 227.7)">v</text><text xml:space="preserve" font-family="LucidaConsole,Lucida Console" font-size="25.0" fill="#FEFFFE" transform="matrix(1.00, 0.00, -0.00, -1.00, 136.2, 227.7)">a</text><text xml:space="preserve" font-family="LucidaConsole,Lucida Console" font-size="25.0" fill="#FEFFFE" transform="matrix(1.00, 0.00, -0.00, -1.00, 151.3, 227.7)">-</text><text xml:space="preserve" font-family="LucidaConsole,Lucida Console" font-size="25.0" fill="#FEFFFE" transform="matrix(1.00, 0.00, -0.00, -1.00, 166.3, 227.7)">a</text><text xml:space="preserve" font-family="LucidaConsole,Lucida Console" font-size="25.0" fill="#FEFFFE" transform="matrix(1.00, 0.00, -0.00, -1.00, 181.4, 227.7)">p</text><text xml:space="preserve" font-family="LucidaConsole,Lucida Console" font-size="25.0" fill="#FEFFFE" transform="matrix(1.00, 0.00, -0.00, -1.00, 196.4, 227.7)">i</text></g></g><g><clipPath id="clip0x6000050a2e20"><path d="M 158.4 417.4 L 356.2 417.4 L 356.2 510.6 L 158.4 510.6 Z M 158.4 417.4 "></path></clipPath><g clip-path="url(#clip0x6000050a2e20)"><path d="M 161.5 432.0 L 161.5 496.3 C 161.5 502.3 166.7 507.5 172.7 507.5 L 341.9 507.5 C 347.8 507.5 352.5 502.3 352.5 496.3 L 352.5 431.7 C 352.5 425.7 347.8 420.5 341.9 420.5 L 172.7 420.5 C 166.7 420.5 161.5 426.0 161.5 432.0 Z M 161.9 431.7 " fill="#EA3C43"></path><path d="M -0.4 75.1 L -0.4 10.8 C -0.4 4.9 4.9 -0.4 10.8 -0.4 L 180.0 -0.4 C 186.0 -0.4 190.6 4.9 190.6 10.8 L 190.6 75.4 C 190.6 81.4 186.0 86.6 180.0 86.6 L 10.8 86.6 C 4.9 86.6 -0.4 81.1 -0.4 75.1 Z M 0.0 75.4 " fill="none" stroke="#EB3D44" stroke-width="5.00" transform="matrix(1.00, 0.00, 0.00, -1.00, 161.9, 507.1)"></path></g></g><g><clipPath id="clip0x6000050a3120"><path d="M 161.9 420.9 L 352.7 420.9 L 352.7 507.1 L 161.9 507.1 Z M 161.9 420.9 "></path></clipPath><g clip-path="url(#clip0x6000050a3120)"><text xml:space="preserve" font-family="LucidaConsole,Lucida Console" font-size="25.0" fill="#FEFFFE" transform="matrix(1.00, 0.00, -0.00, -1.00, 197.0, 457.0)">k</text><text xml:space="preserve" font-family="LucidaConsole,Lucida Console" font-size="25.0" fill="#FEFFFE" transform="matrix(1.00, 0.00, -0.00, -1.00, 212.1, 457.0)">e</text><text xml:space="preserve" font-family="LucidaConsole,Lucida Console" font-size="25.0" fill="#FEFFFE" transform="matrix(1.00, 0.00, -0.00, -1.00, 227.1, 457.0)">y</text><text xml:space="preserve" font-family="LucidaConsole,Lucida Console" font-size="25.0" fill="#FEFFFE" transform="matrix(1.00, 0.00, -0.00, -1.00, 242.2, 457.0)">s</text><text xml:space="preserve" font-family="LucidaConsole,Lucida Console" font-size="25.0" fill="#FEFFFE" transform="matrix(1.00, 0.00, -0.00, -1.00, 257.2, 457.0)">t</text><text xml:space="preserve" font-family="LucidaConsole,Lucida Console" font-size="25.0" fill="#FEFFFE" transform="matrix(1.00, 0.00, -0.00, -1.00, 272.3, 457.0)">o</text><text xml:space="preserve" font-family="LucidaConsole,Lucida Console" font-size="25.0" fill="#FEFFFE" transform="matrix(1.00, 0.00, -0.00, -1.00, 287.3, 457.0)">n</text><text xml:space="preserve" font-family="LucidaConsole,Lucida Console" font-size="25.0" fill="#FEFFFE" transform="matrix(1.00, 0.00, -0.00, -1.00, 302.4, 457.0)">e</text></g></g><g><clipPath id="clip0x6000050a3600"><path d="M 52.4 304.2 L 250.2 304.2 L 250.2 397.5 L 52.4 397.5 Z M 52.4 304.2 "></path></clipPath><g clip-path="url(#clip0x6000050a3600)"><path d="M 55.5 319.0 L 55.5 383.1 C 55.5 389.1 60.8 393.5 66.8 393.5 L 235.9 393.5 C 241.9 393.5 246.5 389.1 246.5 383.1 L 246.5 318.6 C 246.5 312.6 241.9 307.5 235.9 307.5 L 66.8 307.5 C 60.8 307.5 55.5 313.0 55.5 319.0 Z M 55.9 318.6 " fill="#2D93FA"></path><path d="M -0.4 75.0 L -0.4 10.8 C -0.4 4.9 4.9 0.5 10.8 0.5 L 180.0 0.5 C 186.0 0.5 190.6 4.9 190.6 10.8 L 190.6 75.4 C 190.6 81.4 186.0 86.5 180.0 86.5 L 10.8 86.5 C 4.9 86.5 -0.4 81.0 -0.4 75.0 Z M 0.0 75.4 " fill="none" stroke="#2D93FA" stroke-width="5.00" transform="matrix(1.00, 0.00, 0.00, -1.00, 55.9, 394.0)"></path></g></g><g><clipPath id="clip0x6000050a3900"><path d="M 55.9 307.7 L 246.7 307.7 L 246.7 394.0 L 55.9 394.0 Z M 55.9 307.7 "></path></clipPath><g clip-path="url(#clip0x6000050a3900)"><text xml:space="preserve" font-family="LucidaConsole,Lucida Console" font-size="25.0" fill="#FEFFFE" transform="matrix(1.00, 0.00, -0.00, -1.00, 76.0, 343.8)">g</text><text xml:space="preserve" font-family="LucidaConsole,Lucida Console" font-size="25.0" fill="#FEFFFE" transform="matrix(1.00, 0.00, -0.00, -1.00, 91.1, 343.8)">l</text><text xml:space="preserve" font-family="LucidaConsole,Lucida Console" font-size="25.0" fill="#FEFFFE" transform="matrix(1.00, 0.00, -0.00, -1.00, 106.1, 343.8)">a</text><text xml:space="preserve" font-family="LucidaConsole,Lucida Console" font-size="25.0" fill="#FEFFFE" transform="matrix(1.00, 0.00, -0.00, -1.00, 121.2, 343.8)">n</text><text xml:space="preserve" font-family="LucidaConsole,Lucida Console" font-size="25.0" fill="#FEFFFE" transform="matrix(1.00, 0.00, -0.00, -1.00, 136.2, 343.8)">c</text><text xml:space="preserve" font-family="LucidaConsole,Lucida Console" font-size="25.0" fill="#FEFFFE" transform="matrix(1.00, 0.00, -0.00, -1.00, 151.3, 343.8)">e</text><text xml:space="preserve" font-family="LucidaConsole,Lucida Console" font-size="25.0" fill="#FEFFFE" transform="matrix(1.00, 0.00, -0.00, -1.00, 166.3, 343.8)">-</text><text xml:space="preserve" font-family="LucidaConsole,Lucida Console" font-size="25.0" fill="#FEFFFE" transform="matrix(1.00, 0.00, -0.00, -1.00, 181.4, 343.8)">a</text><text xml:space="preserve" font-family="LucidaConsole,Lucida Console" font-size="25.0" fill="#FEFFFE" transform="matrix(1.00, 0.00, -0.00, -1.00, 196.4, 343.8)">p</text><text xml:space="preserve" font-family="LucidaConsole,Lucida Console" font-size="25.0" fill="#FEFFFE" transform="matrix(1.00, 0.00, -0.00, -1.00, 211.5, 343.8)">i</text></g></g><g><clipPath id="clip0x6000050a3ea0"><path d="M 265.9 304.2 L 463.7 304.2 L 463.7 397.5 L 265.9 397.5 Z M 265.9 304.2 "></path></clipPath><g clip-path="url(#clip0x6000050a3ea0)"><path d="M 269.5 319.0 L 269.5 383.1 C 269.5 389.1 274.2 393.5 280.2 393.5 L 449.3 393.5 C 455.3 393.5 460.5 389.1 460.5 383.1 L 460.5 318.6 C 460.5 312.6 455.3 307.5 449.3 307.5 L 280.2 307.5 C 274.2 307.5 269.5 313.0 269.5 319.0 Z M 269.4 318.6 " fill="#2D93FA"></path><path d="M 0.1 75.0 L 0.1 10.8 C 0.1 4.9 4.9 0.5 10.8 0.5 L 180.0 0.5 C 186.0 0.5 191.1 4.9 191.1 10.8 L 191.1 75.4 C 191.1 81.4 186.0 86.5 180.0 86.5 L 10.8 86.5 C 4.9 86.5 0.1 81.0 0.1 75.0 Z M 0.0 75.4 " fill="none" stroke="#2D93FA" stroke-width="5.00" transform="matrix(1.00, 0.00, 0.00, -1.00, 269.4, 394.0)"></path></g></g><g><clipPath id="clip0x6000050a41a0"><path d="M 269.4 307.7 L 460.2 307.7 L 460.2 394.0 L 269.4 394.0 Z M 269.4 307.7 "></path></clipPath><g clip-path="url(#clip0x6000050a41a0)"><text xml:space="preserve" font-family="LucidaConsole,Lucida Console" font-size="25.0" fill="#FEFFFE" transform="matrix(1.00, 0.00, -0.00, -1.00, 312.1, 356.7)">g</text><text xml:space="preserve" font-family="LucidaConsole,Lucida Console" font-size="25.0" fill="#FEFFFE" transform="matrix(1.00, 0.00, -0.00, -1.00, 327.1, 356.7)">l</text><text xml:space="preserve" font-family="LucidaConsole,Lucida Console" font-size="25.0" fill="#FEFFFE" transform="matrix(1.00, 0.00, -0.00, -1.00, 342.2, 356.7)">a</text><text xml:space="preserve" font-family="LucidaConsole,Lucida Console" font-size="25.0" fill="#FEFFFE" transform="matrix(1.00, 0.00, -0.00, -1.00, 357.2, 356.7)">n</text><text xml:space="preserve" font-family="LucidaConsole,Lucida Console" font-size="25.0" fill="#FEFFFE" transform="matrix(1.00, 0.00, -0.00, -1.00, 372.3, 356.7)">c</text><text xml:space="preserve" font-family="LucidaConsole,Lucida Console" font-size="25.0" fill="#FEFFFE" transform="matrix(1.00, 0.00, -0.00, -1.00, 387.3, 356.7)">e</text><text xml:space="preserve" font-family="LucidaConsole,Lucida Console" font-size="25.0" fill="#FEFFFE" transform="matrix(1.00, 0.00, -0.00, -1.00, 402.4, 356.7)">-</text><text xml:space="preserve" font-family="LucidaConsole,Lucida Console" font-size="25.0" fill="#FEFFFE" transform="matrix(1.00, 0.00, -0.00, -1.00, 304.5, 331.7)">r</text><text xml:space="preserve" font-family="LucidaConsole,Lucida Console" font-size="25.0" fill="#FEFFFE" transform="matrix(1.00, 0.00, -0.00, -1.00, 319.6, 331.7)">e</text><text xml:space="preserve" font-family="LucidaConsole,Lucida Console" font-size="25.0" fill="#FEFFFE" transform="matrix(1.00, 0.00, -0.00, -1.00, 334.6, 331.7)">g</text><text xml:space="preserve" font-family="LucidaConsole,Lucida Console" font-size="25.0" fill="#FEFFFE" transform="matrix(1.00, 0.00, -0.00, -1.00, 349.7, 331.7)">i</text><text xml:space="preserve" font-family="LucidaConsole,Lucida Console" font-size="25.0" fill="#FEFFFE" transform="matrix(1.00, 0.00, -0.00, -1.00, 364.7, 331.7)">s</text><text xml:space="preserve" font-family="LucidaConsole,Lucida Console" font-size="25.0" fill="#FEFFFE" transform="matrix(1.00, 0.00, -0.00, -1.00, 379.8, 331.7)">t</text><text xml:space="preserve" font-family="LucidaConsole,Lucida Console" font-size="25.0" fill="#FEFFFE" transform="matrix(1.00, 0.00, -0.00, -1.00, 394.8, 331.7)">r</text><text xml:space="preserve" font-family="LucidaConsole,Lucida Console" font-size="25.0" fill="#FEFFFE" transform="matrix(1.00, 0.00, -0.00, -1.00, 409.9, 331.7)">y</text></g></g><g><clipPath id="clip0x6000050a4920"><path d="M 158.4 77.1 L 356.2 77.1 L 356.2 170.3 L 158.4 170.3 Z M 158.4 77.1 "></path></clipPath><g clip-path="url(#clip0x6000050a4920)"><path d="M 161.5 91.0 L 161.5 156.0 C 161.5 162.0 166.7 166.5 172.7 166.5 L 341.9 166.5 C 347.8 166.5 352.5 162.0 352.5 156.0 L 352.5 91.4 C 352.5 85.4 347.8 80.5 341.9 80.5 L 172.7 80.5 C 166.7 80.5 161.5 85.0 161.5 91.0 Z M 161.9 91.4 " fill="#FB9301"></path><path d="M -0.4 75.8 L -0.4 10.8 C -0.4 4.9 4.9 0.3 10.8 0.3 L 180.0 0.3 C 186.0 0.3 190.6 4.9 190.6 10.8 L 190.6 75.4 C 190.6 81.4 186.0 86.3 180.0 86.3 L 10.8 86.3 C 4.9 86.3 -0.4 81.8 -0.4 75.8 Z M 0.0 75.4 " fill="none" stroke="#FF9300" stroke-width="5.00" transform="matrix(1.00, 0.00, 0.00, -1.00, 161.9, 166.8)"></path></g></g><g><clipPath id="clip0x6000050a4c20"><path d="M 161.9 80.6 L 352.7 80.6 L 352.7 166.8 L 161.9 166.8 Z M 161.9 80.6 "></path></clipPath><g clip-path="url(#clip0x6000050a4c20)"><text xml:space="preserve" font-family="LucidaConsole,Lucida Console" font-size="25.0" fill="#FEFFFE" transform="matrix(1.00, 0.00, -0.00, -1.00, 219.6, 129.6)">n</text><text xml:space="preserve" font-family="LucidaConsole,Lucida Console" font-size="25.0" fill="#FEFFFE" transform="matrix(1.00, 0.00, -0.00, -1.00, 234.7, 129.6)">o</text><text xml:space="preserve" font-family="LucidaConsole,Lucida Console" font-size="25.0" fill="#FEFFFE" transform="matrix(1.00, 0.00, -0.00, -1.00, 249.7, 129.6)">v</text><text xml:space="preserve" font-family="LucidaConsole,Lucida Console" font-size="25.0" fill="#FEFFFE" transform="matrix(1.00, 0.00, -0.00, -1.00, 264.8, 129.6)">a</text><text xml:space="preserve" font-family="LucidaConsole,Lucida Console" font-size="25.0" fill="#FEFFFE" transform="matrix(1.00, 0.00, -0.00, -1.00, 279.8, 129.6)">-</text><text xml:space="preserve" font-family="LucidaConsole,Lucida Console" font-size="25.0" fill="#FEFFFE" transform="matrix(1.00, 0.00, -0.00, -1.00, 189.5, 104.6)">s</text><text xml:space="preserve" font-family="LucidaConsole,Lucida Console" font-size="25.0" fill="#FEFFFE" transform="matrix(1.00, 0.00, -0.00, -1.00, 204.6, 104.6)">c</text><text xml:space="preserve" font-family="LucidaConsole,Lucida Console" font-size="25.0" fill="#FEFFFE" transform="matrix(1.00, 0.00, -0.00, -1.00, 219.6, 104.6)">h</text><text xml:space="preserve" font-family="LucidaConsole,Lucida Console" font-size="25.0" fill="#FEFFFE" transform="matrix(1.00, 0.00, -0.00, -1.00, 234.7, 104.6)">e</text><text xml:space="preserve" font-family="LucidaConsole,Lucida Console" font-size="25.0" fill="#FEFFFE" transform="matrix(1.00, 0.00, -0.00, -1.00, 249.7, 104.6)">d</text><text xml:space="preserve" font-family="LucidaConsole,Lucida Console" font-size="25.0" fill="#FEFFFE" transform="matrix(1.00, 0.00, -0.00, -1.00, 264.8, 104.6)">u</text><text xml:space="preserve" font-family="LucidaConsole,Lucida Console" font-size="25.0" fill="#FEFFFE" transform="matrix(1.00, 0.00, -0.00, -1.00, 279.8, 104.6)">l</text><text xml:space="preserve" font-family="LucidaConsole,Lucida Console" font-size="25.0" fill="#FEFFFE" transform="matrix(1.00, 0.00, -0.00, -1.00, 294.9, 104.6)">e</text><text xml:space="preserve" font-family="LucidaConsole,Lucida Console" font-size="25.0" fill="#FEFFFE" transform="matrix(1.00, 0.00, -0.00, -1.00, 309.9, 104.6)">r</text></g></g><g><clipPath id="clip0x6000050a5340"><path d="M 265.9 188.1 L 463.7 188.1 L 463.7 281.4 L 265.9 281.4 Z M 265.9 188.1 "></path></clipPath><g clip-path="url(#clip0x6000050a5340)"><path d="M 269.5 202.0 L 269.5 267.0 C 269.5 273.0 274.2 277.5 280.2 277.5 L 449.3 277.5 C 455.3 277.5 460.5 273.0 460.5 267.0 L 460.5 202.4 C 460.5 196.4 455.3 191.5 449.3 191.5 L 280.2 191.5 C 274.2 191.5 269.5 196.0 269.5 202.0 Z M 269.4 202.4 " fill="#FB9301"></path><path d="M 0.1 75.9 L 0.1 10.8 C 0.1 4.9 4.9 0.4 10.8 0.4 L 180.0 0.4 C 186.0 0.4 191.1 4.9 191.1 10.8 L 191.1 75.4 C 191.1 81.4 186.0 86.4 180.0 86.4 L 10.8 86.4 C 4.9 86.4 0.1 81.8 0.1 75.9 Z M 0.0 75.4 " fill="none" stroke="#FF9300" stroke-width="5.00" transform="matrix(1.00, 0.00, 0.00, -1.00, 269.4, 277.9)"></path></g></g><g><clipPath id="clip0x6000050a5640"><path d="M 269.4 191.6 L 460.2 191.6 L 460.2 277.9 L 269.4 277.9 Z M 269.4 191.6 "></path></clipPath><g clip-path="url(#clip0x6000050a5640)"><text xml:space="preserve" font-family="LucidaConsole,Lucida Console" font-size="25.0" fill="#FEFFFE" transform="matrix(1.00, 0.00, -0.00, -1.00, 327.1, 240.6)">n</text><text xml:space="preserve" font-family="LucidaConsole,Lucida Console" font-size="25.0" fill="#FEFFFE" transform="matrix(1.00, 0.00, -0.00, -1.00, 342.2, 240.6)">o</text><text xml:space="preserve" font-family="LucidaConsole,Lucida Console" font-size="25.0" fill="#FEFFFE" transform="matrix(1.00, 0.00, -0.00, -1.00, 357.2, 240.6)">v</text><text xml:space="preserve" font-family="LucidaConsole,Lucida Console" font-size="25.0" fill="#FEFFFE" transform="matrix(1.00, 0.00, -0.00, -1.00, 372.3, 240.6)">a</text><text xml:space="preserve" font-family="LucidaConsole,Lucida Console" font-size="25.0" fill="#FEFFFE" transform="matrix(1.00, 0.00, -0.00, -1.00, 387.3, 240.6)">-</text><text xml:space="preserve" font-family="LucidaConsole,Lucida Console" font-size="25.0" fill="#FEFFFE" transform="matrix(1.00, 0.00, -0.00, -1.00, 297.0, 215.6)">c</text><text xml:space="preserve" font-family="LucidaConsole,Lucida Console" font-size="25.0" fill="#FEFFFE" transform="matrix(1.00, 0.00, -0.00, -1.00, 312.1, 215.6)">o</text><text xml:space="preserve" font-family="LucidaConsole,Lucida Console" font-size="25.0" fill="#FEFFFE" transform="matrix(1.00, 0.00, -0.00, -1.00, 327.1, 215.6)">n</text><text xml:space="preserve" font-family="LucidaConsole,Lucida Console" font-size="25.0" fill="#FEFFFE" transform="matrix(1.00, 0.00, -0.00, -1.00, 342.2, 215.6)">d</text><text xml:space="preserve" font-family="LucidaConsole,Lucida Console" font-size="25.0" fill="#FEFFFE" transform="matrix(1.00, 0.00, -0.00, -1.00, 357.2, 215.6)">u</text><text xml:space="preserve" font-family="LucidaConsole,Lucida Console" font-size="25.0" fill="#FEFFFE" transform="matrix(1.00, 0.00, -0.00, -1.00, 372.3, 215.6)">c</text><text xml:space="preserve" font-family="LucidaConsole,Lucida Console" font-size="25.0" fill="#FEFFFE" transform="matrix(1.00, 0.00, -0.00, -1.00, 387.3, 215.6)">t</text><text xml:space="preserve" font-family="LucidaConsole,Lucida Console" font-size="25.0" fill="#FEFFFE" transform="matrix(1.00, 0.00, -0.00, -1.00, 402.4, 215.6)">o</text><text xml:space="preserve" font-family="LucidaConsole,Lucida Console" font-size="25.0" fill="#FEFFFE" transform="matrix(1.00, 0.00, -0.00, -1.00, 417.4, 215.6)">r</text></g></g><g><clipPath id="clip0x6000050a5d60"><path d="M 516.7 353.2 L 976.9 353.2 L 976.9 575.2 L 516.7 575.2 Z M 516.7 353.2 "></path></clipPath><g clip-path="url(#clip0x6000050a5d60)"><path d="M 0.3 200.7 L 0.3 14.4 C 0.3 6.5 6.5 0.2 14.4 0.2 L 438.7 0.2 C 446.7 0.2 453.3 6.5 453.3 14.4 L 453.3 200.6 C 453.3 208.6 446.7 215.2 438.7 215.2 L 14.4 215.2 C 6.5 215.2 0.3 208.7 0.3 200.7 Z M 0.0 200.6 " fill="none" stroke="#595E5D" stroke-width="5.00" transform="matrix(1.00, 0.00, 0.00, -1.00, 520.2, 571.7)"></path></g></g><g><clipPath id="clip0x6000050a5fa0"><path d="M 723.2 521.9 L 962.0 521.9 L 962.0 549.9 L 723.2 549.9 Z M 723.2 521.9 "></path></clipPath><g clip-path="url(#clip0x6000050a5fa0)"><text xml:space="preserve" font-family="GillSans,Gill Sans" font-size="25.0" fill="#525252" transform="matrix(1.00, 0.00, -0.00, -1.00, 736.2, 526.7)">C</text><text xml:space="preserve" font-family="GillSans,Gill Sans" font-size="25.0" fill="#525252" transform="matrix(1.00, 0.00, -0.00, -1.00, 753.9, 526.7)">O</text><text xml:space="preserve" font-family="GillSans,Gill Sans" font-size="25.0" fill="#525252" transform="matrix(1.00, 0.00, -0.00, -1.00, 774.5, 526.7)">M</text><text xml:space="preserve" font-family="GillSans,Gill Sans" font-size="25.0" fill="#525252" transform="matrix(1.00, 0.00, -0.00, -1.00, 794.0, 526.7)">P</text><text xml:space="preserve" font-family="GillSans,Gill Sans" font-size="25.0" fill="#525252" transform="matrix(1.00, 0.00, -0.00, -1.00, 806.7, 526.7)">U</text><text xml:space="preserve" font-family="GillSans,Gill Sans" font-size="25.0" fill="#525252" transform="matrix(1.00, 0.00, -0.00, -1.00, 824.4, 526.7)">T</text><text xml:space="preserve" font-family="GillSans,Gill Sans" font-size="25.0" fill="#525252" transform="matrix(1.00, 0.00, -0.00, -1.00, 839.5, 526.7)">E</text><text xml:space="preserve" font-family="GillSans-Light,Gill Sans" font-size="25.0" fill="#525252" transform="matrix(1.00, 0.00, -0.00, -1.00, 852.0, 526.7)"> </text><text xml:space="preserve" font-family="GillSans-Light,Gill Sans" font-size="25.0" fill="#525252" transform="matrix(1.00, 0.00, -0.00, -1.00, 859.0, 526.7)">N</text><text xml:space="preserve" font-family="GillSans-Light,Gill Sans" font-size="25.0" fill="#525252" transform="matrix(1.00, 0.00, -0.00, -1.00, 878.2, 526.7)">O</text><text xml:space="preserve" font-family="GillSans-Light,Gill Sans" font-size="25.0" fill="#525252" transform="matrix(1.00, 0.00, -0.00, -1.00, 898.8, 526.7)">D</text><text xml:space="preserve" font-family="GillSans-Light,Gill Sans" font-size="25.0" fill="#525252" transform="matrix(1.00, 0.00, -0.00, -1.00, 917.3, 526.7)">E</text><text xml:space="preserve" font-family="GillSans-Light,Gill Sans" font-size="25.0" fill="#525252" transform="matrix(1.00, 0.00, -0.00, -1.00, 929.6, 526.7)"> </text><text xml:space="preserve" font-family="GillSans-Light,Gill Sans" font-size="25.0" fill="#525252" transform="matrix(1.00, 0.00, -0.00, -1.00, 936.5, 526.7)">1</text></g></g><g><clipPath id="clip0x6000050a66c0"><path d="M 538.9 374.5 L 736.7 374.5 L 736.7 467.8 L 538.9 467.8 Z M 538.9 374.5 "></path></clipPath><g clip-path="url(#clip0x6000050a66c0)"><path d="M 542.5 389.0 L 542.5 453.4 C 542.5 459.4 547.3 464.5 553.3 464.5 L 722.4 464.5 C 728.4 464.5 733.5 459.4 733.5 453.4 L 733.5 388.8 C 733.5 382.8 728.4 377.5 722.4 377.5 L 553.3 377.5 C 547.3 377.5 542.5 383.0 542.5 389.0 Z M 542.4 388.8 " fill="#FB9301"></path><path d="M 0.1 75.3 L 0.1 10.8 C 0.1 4.9 4.9 -0.2 10.8 -0.2 L 180.0 -0.2 C 186.0 -0.2 191.1 4.9 191.1 10.8 L 191.1 75.4 C 191.1 81.4 186.0 86.8 180.0 86.8 L 10.8 86.8 C 4.9 86.8 0.1 81.3 0.1 75.3 Z M 0.0 75.4 " fill="none" stroke="#FF9300" stroke-width="5.00" transform="matrix(1.00, 0.00, 0.00, -1.00, 542.4, 464.3)"></path></g></g><g><clipPath id="clip0x6000050a69c0"><path d="M 542.4 378.0 L 733.2 378.0 L 733.2 464.3 L 542.4 464.3 Z M 542.4 378.0 "></path></clipPath><g clip-path="url(#clip0x6000050a69c0)"><text xml:space="preserve" font-family="LucidaConsole,Lucida Console" font-size="25.0" fill="#FEFFFE" transform="matrix(1.00, 0.00, -0.00, -1.00, 600.1, 427.0)">n</text><text xml:space="preserve" font-family="LucidaConsole,Lucida Console" font-size="25.0" fill="#FEFFFE" transform="matrix(1.00, 0.00, -0.00, -1.00, 615.2, 427.0)">o</text><text xml:space="preserve" font-family="LucidaConsole,Lucida Console" font-size="25.0" fill="#FEFFFE" transform="matrix(1.00, 0.00, -0.00, -1.00, 630.3, 427.0)">v</text><text xml:space="preserve" font-family="LucidaConsole,Lucida Console" font-size="25.0" fill="#FEFFFE" transform="matrix(1.00, 0.00, -0.00, -1.00, 645.3, 427.0)">a</text><text xml:space="preserve" font-family="LucidaConsole,Lucida Console" font-size="25.0" fill="#FEFFFE" transform="matrix(1.00, 0.00, -0.00, -1.00, 660.4, 427.0)">-</text><text xml:space="preserve" font-family="LucidaConsole,Lucida Console" font-size="25.0" fill="#FEFFFE" transform="matrix(1.00, 0.00, -0.00, -1.00, 585.1, 402.0)">c</text><text xml:space="preserve" font-family="LucidaConsole,Lucida Console" font-size="25.0" fill="#FEFFFE" transform="matrix(1.00, 0.00, -0.00, -1.00, 600.1, 402.0)">o</text><text xml:space="preserve" font-family="LucidaConsole,Lucida Console" font-size="25.0" fill="#FEFFFE" transform="matrix(1.00, 0.00, -0.00, -1.00, 615.2, 402.0)">m</text><text xml:space="preserve" font-family="LucidaConsole,Lucida Console" font-size="25.0" fill="#FEFFFE" transform="matrix(1.00, 0.00, -0.00, -1.00, 630.2, 402.0)">p</text><text xml:space="preserve" font-family="LucidaConsole,Lucida Console" font-size="25.0" fill="#FEFFFE" transform="matrix(1.00, 0.00, -0.00, -1.00, 645.3, 402.0)">u</text><text xml:space="preserve" font-family="LucidaConsole,Lucida Console" font-size="25.0" fill="#FEFFFE" transform="matrix(1.00, 0.00, -0.00, -1.00, 660.3, 402.0)">t</text><text xml:space="preserve" font-family="LucidaConsole,Lucida Console" font-size="25.0" fill="#FEFFFE" transform="matrix(1.00, 0.00, -0.00, -1.00, 675.4, 402.0)">e</text></g></g><g><clipPath id="clip0x6000050a7020"><path d="M 757.6 374.5 L 955.4 374.5 L 955.4 467.8 L 757.6 467.8 Z M 757.6 374.5 "></path></clipPath><g clip-path="url(#clip0x6000050a7020)"><path d="M 761.5 389.0 L 761.5 453.4 C 761.5 459.4 765.9 464.5 771.9 464.5 L 941.1 464.5 C 947.1 464.5 951.5 459.4 951.5 453.4 L 951.5 388.8 C 951.5 382.8 947.1 377.5 941.1 377.5 L 771.9 377.5 C 765.9 377.5 761.5 383.0 761.5 389.0 Z M 761.1 388.8 " fill="#FB9301"></path><path d="M 0.4 75.3 L 0.4 10.8 C 0.4 4.9 4.9 -0.2 10.8 -0.2 L 180.0 -0.2 C 186.0 -0.2 190.4 4.9 190.4 10.8 L 190.4 75.4 C 190.4 81.4 186.0 86.8 180.0 86.8 L 10.8 86.8 C 4.9 86.8 0.4 81.3 0.4 75.3 Z M 0.0 75.4 " fill="none" stroke="#FF9300" stroke-width="5.00" transform="matrix(1.00, 0.00, 0.00, -1.00, 761.1, 464.3)"></path></g></g><g><clipPath id="clip0x6000050a7320"><path d="M 761.1 378.0 L 951.9 378.0 L 951.9 464.3 L 761.1 464.3 Z M 761.1 378.0 "></path></clipPath><g clip-path="url(#clip0x6000050a7320)"><text xml:space="preserve" font-family="LucidaConsole,Lucida Console" font-size="25.0" fill="#FEFFFE" transform="matrix(1.00, 0.00, -0.00, -1.00, 818.8, 427.0)">n</text><text xml:space="preserve" font-family="LucidaConsole,Lucida Console" font-size="25.0" fill="#FEFFFE" transform="matrix(1.00, 0.00, -0.00, -1.00, 833.9, 427.0)">o</text><text xml:space="preserve" font-family="LucidaConsole,Lucida Console" font-size="25.0" fill="#FEFFFE" transform="matrix(1.00, 0.00, -0.00, -1.00, 848.9, 427.0)">v</text><text xml:space="preserve" font-family="LucidaConsole,Lucida Console" font-size="25.0" fill="#FEFFFE" transform="matrix(1.00, 0.00, -0.00, -1.00, 864.0, 427.0)">a</text><text xml:space="preserve" font-family="LucidaConsole,Lucida Console" font-size="25.0" fill="#FEFFFE" transform="matrix(1.00, 0.00, -0.00, -1.00, 879.0, 427.0)">-</text><text xml:space="preserve" font-family="LucidaConsole,Lucida Console" font-size="25.0" fill="#FEFFFE" transform="matrix(1.00, 0.00, -0.00, -1.00, 803.8, 402.0)">n</text><text xml:space="preserve" font-family="LucidaConsole,Lucida Console" font-size="25.0" fill="#FEFFFE" transform="matrix(1.00, 0.00, -0.00, -1.00, 818.8, 402.0)">e</text><text xml:space="preserve" font-family="LucidaConsole,Lucida Console" font-size="25.0" fill="#FEFFFE" transform="matrix(1.00, 0.00, -0.00, -1.00, 833.9, 402.0)">t</text><text xml:space="preserve" font-family="LucidaConsole,Lucida Console" font-size="25.0" fill="#FEFFFE" transform="matrix(1.00, 0.00, -0.00, -1.00, 848.9, 402.0)">w</text><text xml:space="preserve" font-family="LucidaConsole,Lucida Console" font-size="25.0" fill="#FEFFFE" transform="matrix(1.00, 0.00, -0.00, -1.00, 864.0, 402.0)">o</text><text xml:space="preserve" font-family="LucidaConsole,Lucida Console" font-size="25.0" fill="#FEFFFE" transform="matrix(1.00, 0.00, -0.00, -1.00, 879.0, 402.0)">r</text><text xml:space="preserve" font-family="LucidaConsole,Lucida Console" font-size="25.0" fill="#FEFFFE" transform="matrix(1.00, 0.00, -0.00, -1.00, 894.1, 402.0)">k</text></g></g><g><clipPath id="clip0x6000050a7980"><path d="M 518.0 51.7 L 736.4 51.7 L 736.4 182.2 L 518.0 182.2 Z M 518.0 51.7 "></path></clipPath><g clip-path="url(#clip0x6000050a7980)"><path d="M -0.0 112.7 L -0.0 10.8 C -0.0 4.9 4.9 0.2 10.8 0.2 L 200.5 0.2 C 206.5 0.2 211.0 4.9 211.0 10.8 L 211.0 112.6 C 211.0 118.6 206.5 123.2 200.5 123.2 L 10.8 123.2 C 4.9 123.2 -0.0 118.7 -0.0 112.7 Z M 0.0 112.6 " fill="none" stroke="#595E5D" stroke-width="5.00" transform="matrix(1.00, 0.00, 0.00, -1.00, 521.5, 178.7)"></path></g></g><g><clipPath id="clip0x6000050a7bc0"><path d="M 521.5 55.2 L 732.9 55.2 L 732.9 178.7 L 521.5 178.7 Z M 521.5 55.2 "></path></clipPath><g clip-path="url(#clip0x6000050a7bc0)"><text xml:space="preserve" font-family="GillSans,Gill Sans" font-size="20.0" fill="#525252" transform="matrix(1.00, 0.00, -0.00, -1.00, 537.0, 110.4)">C</text><text xml:space="preserve" font-family="GillSans,Gill Sans" font-size="20.0" fill="#525252" transform="matrix(1.00, 0.00, -0.00, -1.00, 551.2, 110.4)">O</text><text xml:space="preserve" font-family="GillSans,Gill Sans" font-size="20.0" fill="#525252" transform="matrix(1.00, 0.00, -0.00, -1.00, 567.7, 110.4)">M</text><text xml:space="preserve" font-family="GillSans,Gill Sans" font-size="20.0" fill="#525252" transform="matrix(1.00, 0.00, -0.00, -1.00, 583.3, 110.4)">P</text><text xml:space="preserve" font-family="GillSans,Gill Sans" font-size="20.0" fill="#525252" transform="matrix(1.00, 0.00, -0.00, -1.00, 593.5, 110.4)">U</text><text xml:space="preserve" font-family="GillSans,Gill Sans" font-size="20.0" fill="#525252" transform="matrix(1.00, 0.00, -0.00, -1.00, 607.6, 110.4)">T</text><text xml:space="preserve" font-family="GillSans,Gill Sans" font-size="20.0" fill="#525252" transform="matrix(1.00, 0.00, -0.00, -1.00, 619.7, 110.4)">E</text><text xml:space="preserve" font-family="GillSans-Light,Gill Sans" font-size="20.0" fill="#525252" transform="matrix(1.00, 0.00, -0.00, -1.00, 629.7, 110.4)"> </text><text xml:space="preserve" font-family="GillSans-Light,Gill Sans" font-size="20.0" fill="#525252" transform="matrix(1.00, 0.00, -0.00, -1.00, 635.3, 110.4)">N</text><text xml:space="preserve" font-family="GillSans-Light,Gill Sans" font-size="20.0" fill="#525252" transform="matrix(1.00, 0.00, -0.00, -1.00, 650.7, 110.4)">O</text><text xml:space="preserve" font-family="GillSans-Light,Gill Sans" font-size="20.0" fill="#525252" transform="matrix(1.00, 0.00, -0.00, -1.00, 667.2, 110.4)">D</text><text xml:space="preserve" font-family="GillSans-Light,Gill Sans" font-size="20.0" fill="#525252" transform="matrix(1.00, 0.00, -0.00, -1.00, 682.0, 110.4)">E</text><text xml:space="preserve" font-family="GillSans-Light,Gill Sans" font-size="20.0" fill="#525252" transform="matrix(1.00, 0.00, -0.00, -1.00, 691.8, 110.4)"> </text><text xml:space="preserve" font-family="GillSans-Light,Gill Sans" font-size="20.0" fill="#525252" transform="matrix(1.00, 0.00, -0.00, -1.00, 697.3, 110.4)">…</text></g></g><g opacity="0.40"><g><clipPath id="clip0x6000050a8280"><path d="M 13.0 29.0 L 1011.0 29.0 L 1011.0 613.0 L 13.0 613.0 Z M 13.0 29.0 "></path></clipPath><g clip-path="url(#clip0x6000050a8280)"><path d="M -0.1 551.3 L -0.1 25.0 C -0.1 11.2 11.2 -0.2 25.0 -0.2 L 965.7 -0.2 C 979.5 -0.2 990.9 11.2 990.9 25.0 L 990.9 551.6 C 990.9 565.4 979.5 576.8 965.7 576.8 L 25.0 576.8 C 11.2 576.8 -0.1 565.1 -0.1 551.3 Z M 0.0 551.6 " fill="none" stroke="#DA3825" stroke-width="5.00" stroke-dasharray="10.0, 10.0" transform="matrix(1.00, 0.00, 0.00, -1.00, 16.6, 609.3)"></path></g></g></g><image xlink:href="../../BE03AB4A-F5E0-4685-80C7-20DCBC62631F/assets/9A6ABB4995EF94E3903C16036EBAD4B5.png" width="720.00" height="720.00" transform="matrix(0.06, 0.00, -0.00, -0.06, 26.0, 747.0)"></image></g></svg>