<?xml version="1.0" encoding="UTF-8" standalone="no"?><svg xmlns="http://www.w3.org/2000/svg" xmlns:xlink="http://www.w3.org/1999/xlink" clip-rule="evenodd" stroke-miterlimit="10" viewBox="0 0 697 35"><desc>SVG generated by Keynote</desc><defs></defs><g transform="matrix(1.00, 0.00, -0.00, -1.00, 0.0, 35.0)"><text xml:space="preserve" font-family="LucidaConsole,Lucida Console" font-size="40.0" fill="#FF9300" transform="matrix(1.00, 0.00, -0.00, -1.00, -1.8, 2.5)">s</text><text xml:space="preserve" font-family="LucidaConsole,Lucida Console" font-size="40.0" fill="#FF9300" transform="matrix(1.00, 0.00, -0.00, -1.00, 22.3, 2.5)">e</text><text xml:space="preserve" font-family="LucidaConsole,Lucida Console" font-size="40.0" fill="#FF9300" transform="matrix(1.00, 0.00, -0.00, -1.00, 46.4, 2.5)">l</text><text xml:space="preserve" font-family="LucidaConsole,Lucida Console" font-size="40.0" fill="#FF9300" transform="matrix(1.00, 0.00, -0.00, -1.00, 70.5, 2.5)">f</text><text xml:space="preserve" font-family="LucidaConsole,Lucida Console" font-size="40.0" fill="#525252" transform="matrix(1.00, 0.00, -0.00, -1.00, 94.6, 2.5)">.</text><text xml:space="preserve" font-family="LucidaConsole,Lucida Console" font-size="40.0" fill="#525252" transform="matrix(1.00, 0.00, -0.00, -1.00, 118.7, 2.5)">c</text><text xml:space="preserve" font-family="LucidaConsole,Lucida Console" font-size="40.0" fill="#525252" transform="matrix(1.00, 0.00, -0.00, -1.00, 142.8, 2.5)">o</text><text xml:space="preserve" font-family="LucidaConsole,Lucida Console" font-size="40.0" fill="#525252" transform="matrix(1.00, 0.00, -0.00, -1.00, 166.9, 2.5)">n</text><text xml:space="preserve" font-family="LucidaConsole,Lucida Console" font-size="40.0" fill="#525252" transform="matrix(1.00, 0.00, -0.00, -1.00, 191.0, 2.5)">s</text><text xml:space="preserve" font-family="LucidaConsole,Lucida Console" font-size="40.0" fill="#525252" transform="matrix(1.00, 0.00, -0.00, -1.00, 215.1, 2.5)">o</text><text xml:space="preserve" font-family="LucidaConsole,Lucida Console" font-size="40.0" fill="#525252" transform="matrix(1.00, 0.00, -0.00, -1.00, 239.1, 2.5)">l</text><text xml:space="preserve" font-family="LucidaConsole,Lucida Console" font-size="40.0" fill="#525252" transform="matrix(1.00, 0.00, -0.00, -1.00, 263.2, 2.5)">i</text><text xml:space="preserve" font-family="LucidaConsole,Lucida Console" font-size="40.0" fill="#525252" transform="matrix(1.00, 0.00, -0.00, -1.00, 287.3, 2.5)">d</text><text xml:space="preserve" font-family="LucidaConsole,Lucida Console" font-size="40.0" fill="#525252" transform="matrix(1.00, 0.00, -0.00, -1.00, 311.4, 2.5)">a</text><text xml:space="preserve" font-family="LucidaConsole,Lucida Console" font-size="40.0" fill="#525252" transform="matrix(1.00, 0.00, -0.00, -1.00, 335.5, 2.5)">t</text><text xml:space="preserve" font-family="LucidaConsole,Lucida Console" font-size="40.0" fill="#525252" transform="matrix(1.00, 0.00, -0.00, -1.00, 359.5, 2.5)">o</text><text xml:space="preserve" font-family="LucidaConsole,Lucida Console" font-size="40.0" fill="#525252" transform="matrix(1.00, 0.00, -0.00, -1.00, 383.6, 2.5)">r</text><text xml:space="preserve" font-family="LucidaConsole,Lucida Console" font-size="40.0" fill="#525252" transform="matrix(1.00, 0.00, -0.00, -1.00, 407.7, 2.5)">.</text><text xml:space="preserve" font-family="LucidaConsole,Lucida Console" font-size="40.0" fill="#525252" transform="matrix(1.00, 0.00, -0.00, -1.00, 431.8, 2.5)">c</text><text xml:space="preserve" font-family="LucidaConsole,Lucida Console" font-size="40.0" fill="#525252" transform="matrix(1.00, 0.00, -0.00, -1.00, 455.9, 2.5)">o</text><text xml:space="preserve" font-family="LucidaConsole,Lucida Console" font-size="40.0" fill="#525252" transform="matrix(1.00, 0.00, -0.00, -1.00, 480.0, 2.5)">n</text><text xml:space="preserve" font-family="LucidaConsole,Lucida Console" font-size="40.0" fill="#525252" transform="matrix(1.00, 0.00, -0.00, -1.00, 504.0, 2.5)">s</text><text xml:space="preserve" font-family="LucidaConsole,Lucida Console" font-size="40.0" fill="#525252" transform="matrix(1.00, 0.00, -0.00, -1.00, 528.1, 2.5)">o</text><text xml:space="preserve" font-family="LucidaConsole,Lucida Console" font-size="40.0" fill="#525252" transform="matrix(1.00, 0.00, -0.00, -1.00, 552.2, 2.5)">l</text><text xml:space="preserve" font-family="LucidaConsole,Lucida Console" font-size="40.0" fill="#525252" transform="matrix(1.00, 0.00, -0.00, -1.00, 576.3, 2.5)">i</text><text xml:space="preserve" font-family="LucidaConsole,Lucida Console" font-size="40.0" fill="#525252" transform="matrix(1.00, 0.00, -0.00, -1.00, 600.4, 2.5)">d</text><text xml:space="preserve" font-family="LucidaConsole,Lucida Console" font-size="40.0" fill="#525252" transform="matrix(1.00, 0.00, -0.00, -1.00, 624.4, 2.5)">a</text><text xml:space="preserve" font-family="LucidaConsole,Lucida Console" font-size="40.0" fill="#525252" transform="matrix(1.00, 0.00, -0.00, -1.00, 648.5, 2.5)">t</text><text xml:space="preserve" font-family="LucidaConsole,Lucida Console" font-size="40.0" fill="#525252" transform="matrix(1.00, 0.00, -0.00, -1.00, 672.6, 2.5)">e</text></g></svg>