<?xml version="1.0" encoding="UTF-8" standalone="no"?><svg xmlns="http://www.w3.org/2000/svg" xmlns:xlink="http://www.w3.org/1999/xlink" clip-rule="evenodd" stroke-miterlimit="10" viewBox="0 0 504 43"><desc>SVG generated by Keynote</desc><defs></defs><g transform="matrix(1.00, 0.00, -0.00, -1.00, 0.0, 43.0)"><text xml:space="preserve" font-family="LucidaConsole,Lucida Console" font-size="40.0" fill="#FF9300" transform="matrix(1.00, 0.00, -0.00, -1.00, -1.8, 10.1)">s</text><text xml:space="preserve" font-family="LucidaConsole,Lucida Console" font-size="40.0" fill="#FF9300" transform="matrix(1.00, 0.00, -0.00, -1.00, 22.3, 10.1)">e</text><text xml:space="preserve" font-family="LucidaConsole,Lucida Console" font-size="40.0" fill="#FF9300" transform="matrix(1.00, 0.00, -0.00, -1.00, 46.4, 10.1)">l</text><text xml:space="preserve" font-family="LucidaConsole,Lucida Console" font-size="40.0" fill="#FF9300" transform="matrix(1.00, 0.00, -0.00, -1.00, 70.5, 10.1)">f</text><text xml:space="preserve" font-family="LucidaConsole,Lucida Console" font-size="40.0" fill="#525252" transform="matrix(1.00, 0.00, -0.00, -1.00, 94.6, 10.1)">.</text><text xml:space="preserve" font-family="LucidaConsole,Lucida Console" font-size="40.0" fill="#525252" transform="matrix(1.00, 0.00, -0.00, -1.00, 118.7, 10.1)">_</text><text xml:space="preserve" font-family="LucidaConsole,Lucida Console" font-size="40.0" fill="#525252" transform="matrix(1.00, 0.00, -0.00, -1.00, 142.8, 10.1)">d</text><text xml:space="preserve" font-family="LucidaConsole,Lucida Console" font-size="40.0" fill="#525252" transform="matrix(1.00, 0.00, -0.00, -1.00, 166.9, 10.1)">o</text><text xml:space="preserve" font-family="LucidaConsole,Lucida Console" font-size="40.0" fill="#525252" transform="matrix(1.00, 0.00, -0.00, -1.00, 191.0, 10.1)">_</text><text xml:space="preserve" font-family="LucidaConsole,Lucida Console" font-size="40.0" fill="#525252" transform="matrix(1.00, 0.00, -0.00, -1.00, 215.1, 10.1)">l</text><text xml:space="preserve" font-family="LucidaConsole,Lucida Console" font-size="40.0" fill="#525252" transform="matrix(1.00, 0.00, -0.00, -1.00, 239.1, 10.1)">i</text><text xml:space="preserve" font-family="LucidaConsole,Lucida Console" font-size="40.0" fill="#525252" transform="matrix(1.00, 0.00, -0.00, -1.00, 263.2, 10.1)">v</text><text xml:space="preserve" font-family="LucidaConsole,Lucida Console" font-size="40.0" fill="#525252" transform="matrix(1.00, 0.00, -0.00, -1.00, 287.3, 10.1)">e</text><text xml:space="preserve" font-family="LucidaConsole,Lucida Console" font-size="40.0" fill="#525252" transform="matrix(1.00, 0.00, -0.00, -1.00, 311.4, 10.1)">_</text><text xml:space="preserve" font-family="LucidaConsole,Lucida Console" font-size="40.0" fill="#525252" transform="matrix(1.00, 0.00, -0.00, -1.00, 335.5, 10.1)">m</text><text xml:space="preserve" font-family="LucidaConsole,Lucida Console" font-size="40.0" fill="#525252" transform="matrix(1.00, 0.00, -0.00, -1.00, 359.5, 10.1)">i</text><text xml:space="preserve" font-family="LucidaConsole,Lucida Console" font-size="40.0" fill="#525252" transform="matrix(1.00, 0.00, -0.00, -1.00, 383.6, 10.1)">g</text><text xml:space="preserve" font-family="LucidaConsole,Lucida Console" font-size="40.0" fill="#525252" transform="matrix(1.00, 0.00, -0.00, -1.00, 407.7, 10.1)">r</text><text xml:space="preserve" font-family="LucidaConsole,Lucida Console" font-size="40.0" fill="#525252" transform="matrix(1.00, 0.00, -0.00, -1.00, 431.8, 10.1)">a</text><text xml:space="preserve" font-family="LucidaConsole,Lucida Console" font-size="40.0" fill="#525252" transform="matrix(1.00, 0.00, -0.00, -1.00, 455.9, 10.1)">t</text><text xml:space="preserve" font-family="LucidaConsole,Lucida Console" font-size="40.0" fill="#525252" transform="matrix(1.00, 0.00, -0.00, -1.00, 480.0, 10.1)">e</text></g></svg>