<?xml version="1.0" encoding="UTF-8" standalone="no"?><svg xmlns="http://www.w3.org/2000/svg" xmlns:xlink="http://www.w3.org/1999/xlink" clip-rule="evenodd" stroke-miterlimit="10" viewBox="0 0 941 525"><desc>SVG generated by Keynote</desc><defs></defs><g transform="matrix(1.00, 0.00, -0.00, -1.00, 0.0, 525.0)"><g><clipPath id="clip0x600003eb4dc0"><path d="M 480.3 151.6 L 698.7 151.6 L 698.7 282.1 L 480.3 282.1 Z M 480.3 151.6 "></path></clipPath><g clip-path="url(#clip0x600003eb4dc0)"><path d="M -0.3 112.6 L -0.3 10.8 C -0.3 4.9 4.9 0.1 10.8 0.1 L 200.5 0.1 C 206.5 0.1 211.7 4.9 211.7 10.8 L 211.7 112.6 C 211.7 118.6 206.5 123.1 200.5 123.1 L 10.8 123.1 C 4.9 123.1 -0.3 118.6 -0.3 112.6 Z M 0.0 112.6 " fill="none" stroke="#595E5D" stroke-width="5.00" transform="matrix(1.00, 0.00, 0.00, -1.00, 483.8, 278.6)"></path></g></g><g><clipPath id="clip0x600003eb64a0"><path d="M 483.8 155.1 L 695.2 155.1 L 695.2 278.6 L 483.8 278.6 Z M 483.8 155.1 "></path></clipPath><g clip-path="url(#clip0x600003eb64a0)"><text xml:space="preserve" font-family="GillSans,Gill Sans" font-size="20.0" fill="#525252" transform="matrix(1.00, 0.00, -0.00, -1.00, 504.4, 210.3)">C</text><text xml:space="preserve" font-family="GillSans,Gill Sans" font-size="20.0" fill="#525252" transform="matrix(1.00, 0.00, -0.00, -1.00, 518.5, 210.3)">O</text><text xml:space="preserve" font-family="GillSans,Gill Sans" font-size="20.0" fill="#525252" transform="matrix(1.00, 0.00, -0.00, -1.00, 535.0, 210.3)">M</text><text xml:space="preserve" font-family="GillSans,Gill Sans" font-size="20.0" fill="#525252" transform="matrix(1.00, 0.00, -0.00, -1.00, 550.6, 210.3)">P</text><text xml:space="preserve" font-family="GillSans,Gill Sans" font-size="20.0" fill="#525252" transform="matrix(1.00, 0.00, -0.00, -1.00, 560.8, 210.3)">U</text><text xml:space="preserve" font-family="GillSans,Gill Sans" font-size="20.0" fill="#525252" transform="matrix(1.00, 0.00, -0.00, -1.00, 575.0, 210.3)">T</text><text xml:space="preserve" font-family="GillSans,Gill Sans" font-size="20.0" fill="#525252" transform="matrix(1.00, 0.00, -0.00, -1.00, 587.0, 210.3)">E</text><text xml:space="preserve" font-family="GillSans-Light,Gill Sans" font-size="20.0" fill="#525252" transform="matrix(1.00, 0.00, -0.00, -1.00, 597.0, 210.3)"> </text><text xml:space="preserve" font-family="GillSans-Light,Gill Sans" font-size="20.0" fill="#525252" transform="matrix(1.00, 0.00, -0.00, -1.00, 602.6, 210.3)">N</text><text xml:space="preserve" font-family="GillSans-Light,Gill Sans" font-size="20.0" fill="#525252" transform="matrix(1.00, 0.00, -0.00, -1.00, 618.0, 210.3)">O</text><text xml:space="preserve" font-family="GillSans-Light,Gill Sans" font-size="20.0" fill="#525252" transform="matrix(1.00, 0.00, -0.00, -1.00, 634.5, 210.3)">D</text><text xml:space="preserve" font-family="GillSans-Light,Gill Sans" font-size="20.0" fill="#525252" transform="matrix(1.00, 0.00, -0.00, -1.00, 649.3, 210.3)">E</text><text xml:space="preserve" font-family="GillSans-Light,Gill Sans" font-size="20.0" fill="#525252" transform="matrix(1.00, 0.00, -0.00, -1.00, 659.1, 210.3)"> </text><text xml:space="preserve" font-family="GillSans-Light,Gill Sans" font-size="20.0" fill="#525252" transform="matrix(1.00, 0.00, -0.00, -1.00, 664.7, 210.3)">2</text></g></g><g><clipPath id="clip0x600003eb6bc0"><path d="M 718.6 151.6 L 937.0 151.6 L 937.0 282.1 L 718.6 282.1 Z M 718.6 151.6 "></path></clipPath><g clip-path="url(#clip0x600003eb6bc0)"><path d="M 0.4 112.6 L 0.4 10.8 C 0.4 4.9 4.9 0.1 10.8 0.1 L 200.5 0.1 C 206.5 0.1 211.4 4.9 211.4 10.8 L 211.4 112.6 C 211.4 118.6 206.5 123.1 200.5 123.1 L 10.8 123.1 C 4.9 123.1 0.4 118.6 0.4 112.6 Z M 0.0 112.6 " fill="none" stroke="#595E5D" stroke-width="5.00" transform="matrix(1.00, 0.00, 0.00, -1.00, 722.1, 278.6)"></path></g></g><g><clipPath id="clip0x600003eb6e00"><path d="M 722.1 155.1 L 933.5 155.1 L 933.5 278.6 L 722.1 278.6 Z M 722.1 155.1 "></path></clipPath><g clip-path="url(#clip0x600003eb6e00)"><text xml:space="preserve" font-family="GillSans,Gill Sans" font-size="20.0" fill="#525252" transform="matrix(1.00, 0.00, -0.00, -1.00, 742.6, 210.3)">C</text><text xml:space="preserve" font-family="GillSans,Gill Sans" font-size="20.0" fill="#525252" transform="matrix(1.00, 0.00, -0.00, -1.00, 756.8, 210.3)">O</text><text xml:space="preserve" font-family="GillSans,Gill Sans" font-size="20.0" fill="#525252" transform="matrix(1.00, 0.00, -0.00, -1.00, 773.3, 210.3)">M</text><text xml:space="preserve" font-family="GillSans,Gill Sans" font-size="20.0" fill="#525252" transform="matrix(1.00, 0.00, -0.00, -1.00, 788.9, 210.3)">P</text><text xml:space="preserve" font-family="GillSans,Gill Sans" font-size="20.0" fill="#525252" transform="matrix(1.00, 0.00, -0.00, -1.00, 799.1, 210.3)">U</text><text xml:space="preserve" font-family="GillSans,Gill Sans" font-size="20.0" fill="#525252" transform="matrix(1.00, 0.00, -0.00, -1.00, 813.2, 210.3)">T</text><text xml:space="preserve" font-family="GillSans,Gill Sans" font-size="20.0" fill="#525252" transform="matrix(1.00, 0.00, -0.00, -1.00, 825.3, 210.3)">E</text><text xml:space="preserve" font-family="GillSans-Light,Gill Sans" font-size="20.0" fill="#525252" transform="matrix(1.00, 0.00, -0.00, -1.00, 835.3, 210.3)"> </text><text xml:space="preserve" font-family="GillSans-Light,Gill Sans" font-size="20.0" fill="#525252" transform="matrix(1.00, 0.00, -0.00, -1.00, 840.9, 210.3)">N</text><text xml:space="preserve" font-family="GillSans-Light,Gill Sans" font-size="20.0" fill="#525252" transform="matrix(1.00, 0.00, -0.00, -1.00, 856.3, 210.3)">O</text><text xml:space="preserve" font-family="GillSans-Light,Gill Sans" font-size="20.0" fill="#525252" transform="matrix(1.00, 0.00, -0.00, -1.00, 872.8, 210.3)">D</text><text xml:space="preserve" font-family="GillSans-Light,Gill Sans" font-size="20.0" fill="#525252" transform="matrix(1.00, 0.00, -0.00, -1.00, 887.6, 210.3)">E</text><text xml:space="preserve" font-family="GillSans-Light,Gill Sans" font-size="20.0" fill="#525252" transform="matrix(1.00, 0.00, -0.00, -1.00, 897.4, 210.3)"> </text><text xml:space="preserve" font-family="GillSans-Light,Gill Sans" font-size="20.0" fill="#525252" transform="matrix(1.00, 0.00, -0.00, -1.00, 902.9, 210.3)">3</text></g></g><g><clipPath id="clip0x6080040a2f40"><path d="M 720.3 0.7 L 938.6 0.7 L 938.6 131.2 L 720.3 131.2 Z M 720.3 0.7 "></path></clipPath><g clip-path="url(#clip0x6080040a2f40)"><path d="M -0.3 112.7 L -0.3 10.8 C -0.3 4.9 4.9 0.2 10.8 0.2 L 200.5 0.2 C 206.5 0.2 211.7 4.9 211.7 10.8 L 211.7 112.6 C 211.7 118.6 206.5 123.2 200.5 123.2 L 10.8 123.2 C 4.9 123.2 -0.3 118.7 -0.3 112.7 Z M 0.0 112.6 " fill="none" stroke="#595E5D" stroke-width="5.00" transform="matrix(1.00, 0.00, 0.00, -1.00, 723.8, 127.7)"></path></g></g><g><clipPath id="clip0x608003eaf420"><path d="M 723.8 4.2 L 935.1 4.2 L 935.1 127.7 L 723.8 127.7 Z M 723.8 4.2 "></path></clipPath><g clip-path="url(#clip0x608003eaf420)"><text xml:space="preserve" font-family="GillSans,Gill Sans" font-size="20.0" fill="#525252" transform="matrix(1.00, 0.00, -0.00, -1.00, 741.6, 59.4)">C</text><text xml:space="preserve" font-family="GillSans,Gill Sans" font-size="20.0" fill="#525252" transform="matrix(1.00, 0.00, -0.00, -1.00, 755.8, 59.4)">O</text><text xml:space="preserve" font-family="GillSans,Gill Sans" font-size="20.0" fill="#525252" transform="matrix(1.00, 0.00, -0.00, -1.00, 772.2, 59.4)">M</text><text xml:space="preserve" font-family="GillSans,Gill Sans" font-size="20.0" fill="#525252" transform="matrix(1.00, 0.00, -0.00, -1.00, 787.8, 59.4)">P</text><text xml:space="preserve" font-family="GillSans,Gill Sans" font-size="20.0" fill="#525252" transform="matrix(1.00, 0.00, -0.00, -1.00, 798.0, 59.4)">U</text><text xml:space="preserve" font-family="GillSans,Gill Sans" font-size="20.0" fill="#525252" transform="matrix(1.00, 0.00, -0.00, -1.00, 812.2, 59.4)">T</text><text xml:space="preserve" font-family="GillSans,Gill Sans" font-size="20.0" fill="#525252" transform="matrix(1.00, 0.00, -0.00, -1.00, 824.3, 59.4)">E</text><text xml:space="preserve" font-family="GillSans-Light,Gill Sans" font-size="20.0" fill="#525252" transform="matrix(1.00, 0.00, -0.00, -1.00, 834.3, 59.4)"> </text><text xml:space="preserve" font-family="GillSans-Light,Gill Sans" font-size="20.0" fill="#525252" transform="matrix(1.00, 0.00, -0.00, -1.00, 839.8, 59.4)">N</text><text xml:space="preserve" font-family="GillSans-Light,Gill Sans" font-size="20.0" fill="#525252" transform="matrix(1.00, 0.00, -0.00, -1.00, 855.3, 59.4)">O</text><text xml:space="preserve" font-family="GillSans-Light,Gill Sans" font-size="20.0" fill="#525252" transform="matrix(1.00, 0.00, -0.00, -1.00, 871.7, 59.4)">D</text><text xml:space="preserve" font-family="GillSans-Light,Gill Sans" font-size="20.0" fill="#525252" transform="matrix(1.00, 0.00, -0.00, -1.00, 886.5, 59.4)">E</text><text xml:space="preserve" font-family="GillSans-Light,Gill Sans" font-size="20.0" fill="#525252" transform="matrix(1.00, 0.00, -0.00, -1.00, 896.3, 59.4)"> </text><text xml:space="preserve" font-family="GillSans-Light,Gill Sans" font-size="20.0" fill="#525252" transform="matrix(1.00, 0.00, -0.00, -1.00, 901.9, 59.4)">N</text></g></g><g><clipPath id="clip0x608003ebdd00"><path d="M 0.3 2.7 L 441.8 2.7 L 441.8 524.9 L 0.3 524.9 Z M 0.3 2.7 "></path></clipPath><g clip-path="url(#clip0x608003ebdd00)"><path d="M -0.3 499.4 L -0.3 15.9 C -0.3 7.1 7.1 -0.1 15.9 -0.1 L 418.6 -0.1 C 427.4 -0.1 434.7 7.1 434.7 15.9 L 434.7 499.3 C 434.7 508.1 427.4 514.9 418.6 514.9 L 15.9 514.9 C 7.1 514.9 -0.3 508.2 -0.3 499.4 Z M 0.0 499.3 " fill="none" stroke="#595E5D" stroke-width="5.00" transform="matrix(1.00, 0.00, 0.00, -1.00, 3.8, 521.4)"></path></g></g><g><clipPath id="clip0x600003eb73a0"><path d="M 168.2 463.0 L 420.4 463.0 L 420.4 506.7 L 168.2 506.7 Z M 168.2 463.0 "></path></clipPath><g clip-path="url(#clip0x600003eb73a0)"><text xml:space="preserve" font-family="GillSans,Gill Sans" font-size="25.0" fill="#525252" transform="matrix(1.00, 0.00, -0.00, -1.00, 175.9, 476.2)">C</text><text xml:space="preserve" font-family="GillSans,Gill Sans" font-size="25.0" fill="#525252" transform="matrix(1.00, 0.00, -0.00, -1.00, 193.6, 476.2)">O</text><text xml:space="preserve" font-family="GillSans,Gill Sans" font-size="25.0" fill="#525252" transform="matrix(1.00, 0.00, -0.00, -1.00, 214.2, 476.2)">N</text><text xml:space="preserve" font-family="GillSans,Gill Sans" font-size="25.0" fill="#525252" transform="matrix(1.00, 0.00, -0.00, -1.00, 233.7, 476.2)">T</text><text xml:space="preserve" font-family="GillSans,Gill Sans" font-size="25.0" fill="#525252" transform="matrix(1.00, 0.00, -0.00, -1.00, 248.8, 476.2)">R</text><text xml:space="preserve" font-family="GillSans,Gill Sans" font-size="25.0" fill="#525252" transform="matrix(1.00, 0.00, -0.00, -1.00, 262.4, 476.2)">O</text><text xml:space="preserve" font-family="GillSans,Gill Sans" font-size="25.0" fill="#525252" transform="matrix(1.00, 0.00, -0.00, -1.00, 283.0, 476.2)">L</text><text xml:space="preserve" font-family="GillSans,Gill Sans" font-size="25.0" fill="#525252" transform="matrix(1.00, 0.00, -0.00, -1.00, 295.2, 476.2)">L</text><text xml:space="preserve" font-family="GillSans,Gill Sans" font-size="25.0" fill="#525252" transform="matrix(1.00, 0.00, -0.00, -1.00, 307.5, 476.2)">E</text><text xml:space="preserve" font-family="GillSans,Gill Sans" font-size="25.0" fill="#525252" transform="matrix(1.00, 0.00, -0.00, -1.00, 320.0, 476.2)">R</text><text xml:space="preserve" font-family="GillSans-Light,Gill Sans" font-size="25.0" fill="#525252" transform="matrix(1.00, 0.00, -0.00, -1.00, 335.1, 476.2)"> </text><text xml:space="preserve" font-family="GillSans-Light,Gill Sans" font-size="25.0" fill="#525252" transform="matrix(1.00, 0.00, -0.00, -1.00, 342.0, 476.2)">N</text><text xml:space="preserve" font-family="GillSans-Light,Gill Sans" font-size="25.0" fill="#525252" transform="matrix(1.00, 0.00, -0.00, -1.00, 361.3, 476.2)">O</text><text xml:space="preserve" font-family="GillSans-Light,Gill Sans" font-size="25.0" fill="#525252" transform="matrix(1.00, 0.00, -0.00, -1.00, 381.9, 476.2)">D</text><text xml:space="preserve" font-family="GillSans-Light,Gill Sans" font-size="25.0" fill="#525252" transform="matrix(1.00, 0.00, -0.00, -1.00, 400.4, 476.2)">E</text></g></g><g><clipPath id="clip0x600003eb7b20"><path d="M 15.4 137.1 L 213.2 137.1 L 213.2 230.4 L 15.4 230.4 Z M 15.4 137.1 "></path></clipPath><g clip-path="url(#clip0x600003eb7b20)"><path d="M 18.5 151.0 L 18.5 216.0 C 18.5 222.0 23.8 226.5 29.8 226.5 L 198.9 226.5 C 204.9 226.5 209.5 222.0 209.5 216.0 L 209.5 151.4 C 209.5 145.4 204.9 140.5 198.9 140.5 L 29.8 140.5 C 23.8 140.5 18.5 145.0 18.5 151.0 Z M 18.9 151.4 " fill="#FB9301"></path><path d="M -0.4 75.9 L -0.4 10.8 C -0.4 4.9 4.9 0.4 10.8 0.4 L 180.0 0.4 C 186.0 0.4 190.6 4.9 190.6 10.8 L 190.6 75.4 C 190.6 81.4 186.0 86.4 180.0 86.4 L 10.8 86.4 C 4.9 86.4 -0.4 81.8 -0.4 75.9 Z M 0.0 75.4 " fill="none" stroke="#FF9300" stroke-width="5.00" transform="matrix(1.00, 0.00, 0.00, -1.00, 18.9, 226.9)"></path></g></g><g><clipPath id="clip0x600003eb7e20"><path d="M 18.9 140.6 L 209.7 140.6 L 209.7 226.9 L 18.9 226.9 Z M 18.9 140.6 "></path></clipPath><g clip-path="url(#clip0x600003eb7e20)"><text xml:space="preserve" font-family="LucidaConsole,Lucida Console" font-size="25.0" fill="#FEFFFE" transform="matrix(1.00, 0.00, -0.00, -1.00, 54.1, 176.7)">n</text><text xml:space="preserve" font-family="LucidaConsole,Lucida Console" font-size="25.0" fill="#FEFFFE" transform="matrix(1.00, 0.00, -0.00, -1.00, 69.1, 176.7)">o</text><text xml:space="preserve" font-family="LucidaConsole,Lucida Console" font-size="25.0" fill="#FEFFFE" transform="matrix(1.00, 0.00, -0.00, -1.00, 84.2, 176.7)">v</text><text xml:space="preserve" font-family="LucidaConsole,Lucida Console" font-size="25.0" fill="#FEFFFE" transform="matrix(1.00, 0.00, -0.00, -1.00, 99.2, 176.7)">a</text><text xml:space="preserve" font-family="LucidaConsole,Lucida Console" font-size="25.0" fill="#FEFFFE" transform="matrix(1.00, 0.00, -0.00, -1.00, 114.3, 176.7)">-</text><text xml:space="preserve" font-family="LucidaConsole,Lucida Console" font-size="25.0" fill="#FEFFFE" transform="matrix(1.00, 0.00, -0.00, -1.00, 129.3, 176.7)">a</text><text xml:space="preserve" font-family="LucidaConsole,Lucida Console" font-size="25.0" fill="#FEFFFE" transform="matrix(1.00, 0.00, -0.00, -1.00, 144.4, 176.7)">p</text><text xml:space="preserve" font-family="LucidaConsole,Lucida Console" font-size="25.0" fill="#FEFFFE" transform="matrix(1.00, 0.00, -0.00, -1.00, 159.4, 176.7)">i</text></g></g><g><clipPath id="clip0x600003eb8300"><path d="M 121.4 366.4 L 319.2 366.4 L 319.2 459.6 L 121.4 459.6 Z M 121.4 366.4 "></path></clipPath><g clip-path="url(#clip0x600003eb8300)"><path d="M 124.5 381.0 L 124.5 445.3 C 124.5 451.3 129.7 456.5 135.7 456.5 L 304.9 456.5 C 310.8 456.5 315.5 451.3 315.5 445.3 L 315.5 380.7 C 315.5 374.7 310.8 369.5 304.9 369.5 L 135.7 369.5 C 129.7 369.5 124.5 375.0 124.5 381.0 Z M 124.9 380.7 " fill="#EA3C43"></path><path d="M -0.4 75.1 L -0.4 10.8 C -0.4 4.9 4.9 -0.4 10.8 -0.4 L 180.0 -0.4 C 186.0 -0.4 190.6 4.9 190.6 10.8 L 190.6 75.4 C 190.6 81.4 186.0 86.6 180.0 86.6 L 10.8 86.6 C 4.9 86.6 -0.4 81.1 -0.4 75.1 Z M 0.0 75.4 " fill="none" stroke="#EB3D44" stroke-width="5.00" transform="matrix(1.00, 0.00, 0.00, -1.00, 124.9, 456.1)"></path></g></g><g><clipPath id="clip0x600003eb8600"><path d="M 124.9 369.9 L 315.7 369.9 L 315.7 456.1 L 124.9 456.1 Z M 124.9 369.9 "></path></clipPath><g clip-path="url(#clip0x600003eb8600)"><text xml:space="preserve" font-family="LucidaConsole,Lucida Console" font-size="25.0" fill="#FEFFFE" transform="matrix(1.00, 0.00, -0.00, -1.00, 160.0, 406.0)">k</text><text xml:space="preserve" font-family="LucidaConsole,Lucida Console" font-size="25.0" fill="#FEFFFE" transform="matrix(1.00, 0.00, -0.00, -1.00, 175.1, 406.0)">e</text><text xml:space="preserve" font-family="LucidaConsole,Lucida Console" font-size="25.0" fill="#FEFFFE" transform="matrix(1.00, 0.00, -0.00, -1.00, 190.1, 406.0)">y</text><text xml:space="preserve" font-family="LucidaConsole,Lucida Console" font-size="25.0" fill="#FEFFFE" transform="matrix(1.00, 0.00, -0.00, -1.00, 205.2, 406.0)">s</text><text xml:space="preserve" font-family="LucidaConsole,Lucida Console" font-size="25.0" fill="#FEFFFE" transform="matrix(1.00, 0.00, -0.00, -1.00, 220.2, 406.0)">t</text><text xml:space="preserve" font-family="LucidaConsole,Lucida Console" font-size="25.0" fill="#FEFFFE" transform="matrix(1.00, 0.00, -0.00, -1.00, 235.3, 406.0)">o</text><text xml:space="preserve" font-family="LucidaConsole,Lucida Console" font-size="25.0" fill="#FEFFFE" transform="matrix(1.00, 0.00, -0.00, -1.00, 250.3, 406.0)">n</text><text xml:space="preserve" font-family="LucidaConsole,Lucida Console" font-size="25.0" fill="#FEFFFE" transform="matrix(1.00, 0.00, -0.00, -1.00, 265.4, 406.0)">e</text></g></g><g><clipPath id="clip0x600003eb8ae0"><path d="M 15.4 253.2 L 213.2 253.2 L 213.2 346.5 L 15.4 346.5 Z M 15.4 253.2 "></path></clipPath><g clip-path="url(#clip0x600003eb8ae0)"><path d="M 18.5 268.0 L 18.5 332.1 C 18.5 338.1 23.8 342.5 29.8 342.5 L 198.9 342.5 C 204.9 342.5 209.5 338.1 209.5 332.1 L 209.5 267.6 C 209.5 261.6 204.9 256.5 198.9 256.5 L 29.8 256.5 C 23.8 256.5 18.5 262.0 18.5 268.0 Z M 18.9 267.6 " fill="#2D93FA"></path><path d="M -0.4 75.0 L -0.4 10.8 C -0.4 4.9 4.9 0.5 10.8 0.5 L 180.0 0.5 C 186.0 0.5 190.6 4.9 190.6 10.8 L 190.6 75.4 C 190.6 81.4 186.0 86.5 180.0 86.5 L 10.8 86.5 C 4.9 86.5 -0.4 81.0 -0.4 75.0 Z M 0.0 75.4 " fill="none" stroke="#2D93FA" stroke-width="5.00" transform="matrix(1.00, 0.00, 0.00, -1.00, 18.9, 343.0)"></path></g></g><g><clipPath id="clip0x600003eb8de0"><path d="M 18.9 256.7 L 209.7 256.7 L 209.7 343.0 L 18.9 343.0 Z M 18.9 256.7 "></path></clipPath><g clip-path="url(#clip0x600003eb8de0)"><text xml:space="preserve" font-family="LucidaConsole,Lucida Console" font-size="25.0" fill="#FEFFFE" transform="matrix(1.00, 0.00, -0.00, -1.00, 39.0, 292.8)">g</text><text xml:space="preserve" font-family="LucidaConsole,Lucida Console" font-size="25.0" fill="#FEFFFE" transform="matrix(1.00, 0.00, -0.00, -1.00, 54.1, 292.8)">l</text><text xml:space="preserve" font-family="LucidaConsole,Lucida Console" font-size="25.0" fill="#FEFFFE" transform="matrix(1.00, 0.00, -0.00, -1.00, 69.1, 292.8)">a</text><text xml:space="preserve" font-family="LucidaConsole,Lucida Console" font-size="25.0" fill="#FEFFFE" transform="matrix(1.00, 0.00, -0.00, -1.00, 84.2, 292.8)">n</text><text xml:space="preserve" font-family="LucidaConsole,Lucida Console" font-size="25.0" fill="#FEFFFE" transform="matrix(1.00, 0.00, -0.00, -1.00, 99.2, 292.8)">c</text><text xml:space="preserve" font-family="LucidaConsole,Lucida Console" font-size="25.0" fill="#FEFFFE" transform="matrix(1.00, 0.00, -0.00, -1.00, 114.3, 292.8)">e</text><text xml:space="preserve" font-family="LucidaConsole,Lucida Console" font-size="25.0" fill="#FEFFFE" transform="matrix(1.00, 0.00, -0.00, -1.00, 129.3, 292.8)">-</text><text xml:space="preserve" font-family="LucidaConsole,Lucida Console" font-size="25.0" fill="#FEFFFE" transform="matrix(1.00, 0.00, -0.00, -1.00, 144.4, 292.8)">a</text><text xml:space="preserve" font-family="LucidaConsole,Lucida Console" font-size="25.0" fill="#FEFFFE" transform="matrix(1.00, 0.00, -0.00, -1.00, 159.4, 292.8)">p</text><text xml:space="preserve" font-family="LucidaConsole,Lucida Console" font-size="25.0" fill="#FEFFFE" transform="matrix(1.00, 0.00, -0.00, -1.00, 174.5, 292.8)">i</text></g></g><g><clipPath id="clip0x600003eb9380"><path d="M 228.9 253.2 L 426.7 253.2 L 426.7 346.5 L 228.9 346.5 Z M 228.9 253.2 "></path></clipPath><g clip-path="url(#clip0x600003eb9380)"><path d="M 232.5 268.0 L 232.5 332.1 C 232.5 338.1 237.2 342.5 243.2 342.5 L 412.3 342.5 C 418.3 342.5 423.5 338.1 423.5 332.1 L 423.5 267.6 C 423.5 261.6 418.3 256.5 412.3 256.5 L 243.2 256.5 C 237.2 256.5 232.5 262.0 232.5 268.0 Z M 232.4 267.6 " fill="#2D93FA"></path><path d="M 0.1 75.0 L 0.1 10.8 C 0.1 4.9 4.9 0.5 10.8 0.5 L 180.0 0.5 C 186.0 0.5 191.1 4.9 191.1 10.8 L 191.1 75.4 C 191.1 81.4 186.0 86.5 180.0 86.5 L 10.8 86.5 C 4.9 86.5 0.1 81.0 0.1 75.0 Z M 0.0 75.4 " fill="none" stroke="#2D93FA" stroke-width="5.00" transform="matrix(1.00, 0.00, 0.00, -1.00, 232.4, 343.0)"></path></g></g><g><clipPath id="clip0x600003eb9680"><path d="M 232.4 256.7 L 423.2 256.7 L 423.2 343.0 L 232.4 343.0 Z M 232.4 256.7 "></path></clipPath><g clip-path="url(#clip0x600003eb9680)"><text xml:space="preserve" font-family="LucidaConsole,Lucida Console" font-size="25.0" fill="#FEFFFE" transform="matrix(1.00, 0.00, -0.00, -1.00, 275.1, 305.7)">g</text><text xml:space="preserve" font-family="LucidaConsole,Lucida Console" font-size="25.0" fill="#FEFFFE" transform="matrix(1.00, 0.00, -0.00, -1.00, 290.1, 305.7)">l</text><text xml:space="preserve" font-family="LucidaConsole,Lucida Console" font-size="25.0" fill="#FEFFFE" transform="matrix(1.00, 0.00, -0.00, -1.00, 305.2, 305.7)">a</text><text xml:space="preserve" font-family="LucidaConsole,Lucida Console" font-size="25.0" fill="#FEFFFE" transform="matrix(1.00, 0.00, -0.00, -1.00, 320.2, 305.7)">n</text><text xml:space="preserve" font-family="LucidaConsole,Lucida Console" font-size="25.0" fill="#FEFFFE" transform="matrix(1.00, 0.00, -0.00, -1.00, 335.3, 305.7)">c</text><text xml:space="preserve" font-family="LucidaConsole,Lucida Console" font-size="25.0" fill="#FEFFFE" transform="matrix(1.00, 0.00, -0.00, -1.00, 350.3, 305.7)">e</text><text xml:space="preserve" font-family="LucidaConsole,Lucida Console" font-size="25.0" fill="#FEFFFE" transform="matrix(1.00, 0.00, -0.00, -1.00, 365.4, 305.7)">-</text><text xml:space="preserve" font-family="LucidaConsole,Lucida Console" font-size="25.0" fill="#FEFFFE" transform="matrix(1.00, 0.00, -0.00, -1.00, 267.5, 280.7)">r</text><text xml:space="preserve" font-family="LucidaConsole,Lucida Console" font-size="25.0" fill="#FEFFFE" transform="matrix(1.00, 0.00, -0.00, -1.00, 282.6, 280.7)">e</text><text xml:space="preserve" font-family="LucidaConsole,Lucida Console" font-size="25.0" fill="#FEFFFE" transform="matrix(1.00, 0.00, -0.00, -1.00, 297.6, 280.7)">g</text><text xml:space="preserve" font-family="LucidaConsole,Lucida Console" font-size="25.0" fill="#FEFFFE" transform="matrix(1.00, 0.00, -0.00, -1.00, 312.7, 280.7)">i</text><text xml:space="preserve" font-family="LucidaConsole,Lucida Console" font-size="25.0" fill="#FEFFFE" transform="matrix(1.00, 0.00, -0.00, -1.00, 327.7, 280.7)">s</text><text xml:space="preserve" font-family="LucidaConsole,Lucida Console" font-size="25.0" fill="#FEFFFE" transform="matrix(1.00, 0.00, -0.00, -1.00, 342.8, 280.7)">t</text><text xml:space="preserve" font-family="LucidaConsole,Lucida Console" font-size="25.0" fill="#FEFFFE" transform="matrix(1.00, 0.00, -0.00, -1.00, 357.8, 280.7)">r</text><text xml:space="preserve" font-family="LucidaConsole,Lucida Console" font-size="25.0" fill="#FEFFFE" transform="matrix(1.00, 0.00, -0.00, -1.00, 372.9, 280.7)">y</text></g></g><g><clipPath id="clip0x600003eb9e00"><path d="M 121.4 26.1 L 319.2 26.1 L 319.2 119.3 L 121.4 119.3 Z M 121.4 26.1 "></path></clipPath><g clip-path="url(#clip0x600003eb9e00)"><path d="M 124.5 40.0 L 124.5 105.0 C 124.5 111.0 129.7 115.5 135.7 115.5 L 304.9 115.5 C 310.8 115.5 315.5 111.0 315.5 105.0 L 315.5 40.4 C 315.5 34.4 310.8 29.5 304.9 29.5 L 135.7 29.5 C 129.7 29.5 124.5 34.0 124.5 40.0 Z M 124.9 40.4 " fill="#FB9301"></path><path d="M -0.4 75.8 L -0.4 10.8 C -0.4 4.9 4.9 0.3 10.8 0.3 L 180.0 0.3 C 186.0 0.3 190.6 4.9 190.6 10.8 L 190.6 75.4 C 190.6 81.4 186.0 86.3 180.0 86.3 L 10.8 86.3 C 4.9 86.3 -0.4 81.8 -0.4 75.8 Z M 0.0 75.4 " fill="none" stroke="#FF9300" stroke-width="5.00" transform="matrix(1.00, 0.00, 0.00, -1.00, 124.9, 115.8)"></path></g></g><g><clipPath id="clip0x600003eba100"><path d="M 124.9 29.6 L 315.7 29.6 L 315.7 115.8 L 124.9 115.8 Z M 124.9 29.6 "></path></clipPath><g clip-path="url(#clip0x600003eba100)"><text xml:space="preserve" font-family="LucidaConsole,Lucida Console" font-size="25.0" fill="#FEFFFE" transform="matrix(1.00, 0.00, -0.00, -1.00, 182.6, 78.6)">n</text><text xml:space="preserve" font-family="LucidaConsole,Lucida Console" font-size="25.0" fill="#FEFFFE" transform="matrix(1.00, 0.00, -0.00, -1.00, 197.7, 78.6)">o</text><text xml:space="preserve" font-family="LucidaConsole,Lucida Console" font-size="25.0" fill="#FEFFFE" transform="matrix(1.00, 0.00, -0.00, -1.00, 212.7, 78.6)">v</text><text xml:space="preserve" font-family="LucidaConsole,Lucida Console" font-size="25.0" fill="#FEFFFE" transform="matrix(1.00, 0.00, -0.00, -1.00, 227.8, 78.6)">a</text><text xml:space="preserve" font-family="LucidaConsole,Lucida Console" font-size="25.0" fill="#FEFFFE" transform="matrix(1.00, 0.00, -0.00, -1.00, 242.8, 78.6)">-</text><text xml:space="preserve" font-family="LucidaConsole,Lucida Console" font-size="25.0" fill="#FEFFFE" transform="matrix(1.00, 0.00, -0.00, -1.00, 152.5, 53.6)">s</text><text xml:space="preserve" font-family="LucidaConsole,Lucida Console" font-size="25.0" fill="#FEFFFE" transform="matrix(1.00, 0.00, -0.00, -1.00, 167.6, 53.6)">c</text><text xml:space="preserve" font-family="LucidaConsole,Lucida Console" font-size="25.0" fill="#FEFFFE" transform="matrix(1.00, 0.00, -0.00, -1.00, 182.6, 53.6)">h</text><text xml:space="preserve" font-family="LucidaConsole,Lucida Console" font-size="25.0" fill="#FEFFFE" transform="matrix(1.00, 0.00, -0.00, -1.00, 197.7, 53.6)">e</text><text xml:space="preserve" font-family="LucidaConsole,Lucida Console" font-size="25.0" fill="#FEFFFE" transform="matrix(1.00, 0.00, -0.00, -1.00, 212.7, 53.6)">d</text><text xml:space="preserve" font-family="LucidaConsole,Lucida Console" font-size="25.0" fill="#FEFFFE" transform="matrix(1.00, 0.00, -0.00, -1.00, 227.8, 53.6)">u</text><text xml:space="preserve" font-family="LucidaConsole,Lucida Console" font-size="25.0" fill="#FEFFFE" transform="matrix(1.00, 0.00, -0.00, -1.00, 242.8, 53.6)">l</text><text xml:space="preserve" font-family="LucidaConsole,Lucida Console" font-size="25.0" fill="#FEFFFE" transform="matrix(1.00, 0.00, -0.00, -1.00, 257.9, 53.6)">e</text><text xml:space="preserve" font-family="LucidaConsole,Lucida Console" font-size="25.0" fill="#FEFFFE" transform="matrix(1.00, 0.00, -0.00, -1.00, 272.9, 53.6)">r</text></g></g><g><clipPath id="clip0x6080040b4220"><path d="M 228.9 137.1 L 426.7 137.1 L 426.7 230.4 L 228.9 230.4 Z M 228.9 137.1 "></path></clipPath><g clip-path="url(#clip0x6080040b4220)"><path d="M 232.5 151.0 L 232.5 216.0 C 232.5 222.0 237.2 226.5 243.2 226.5 L 412.3 226.5 C 418.3 226.5 423.5 222.0 423.5 216.0 L 423.5 151.4 C 423.5 145.4 418.3 140.5 412.3 140.5 L 243.2 140.5 C 237.2 140.5 232.5 145.0 232.5 151.0 Z M 232.4 151.4 " fill="#FB9301"></path><path d="M 0.1 75.9 L 0.1 10.8 C 0.1 4.9 4.9 0.4 10.8 0.4 L 180.0 0.4 C 186.0 0.4 191.1 4.9 191.1 10.8 L 191.1 75.4 C 191.1 81.4 186.0 86.4 180.0 86.4 L 10.8 86.4 C 4.9 86.4 0.1 81.8 0.1 75.9 Z M 0.0 75.4 " fill="none" stroke="#FF9300" stroke-width="5.00" transform="matrix(1.00, 0.00, 0.00, -1.00, 232.4, 226.9)"></path></g></g><g><clipPath id="clip0x600003eba940"><path d="M 232.4 140.6 L 423.2 140.6 L 423.2 226.9 L 232.4 226.9 Z M 232.4 140.6 "></path></clipPath><g clip-path="url(#clip0x600003eba940)"><text xml:space="preserve" font-family="LucidaConsole,Lucida Console" font-size="25.0" fill="#FEFFFE" transform="matrix(1.00, 0.00, -0.00, -1.00, 290.1, 189.6)">n</text><text xml:space="preserve" font-family="LucidaConsole,Lucida Console" font-size="25.0" fill="#FEFFFE" transform="matrix(1.00, 0.00, -0.00, -1.00, 305.2, 189.6)">o</text><text xml:space="preserve" font-family="LucidaConsole,Lucida Console" font-size="25.0" fill="#FEFFFE" transform="matrix(1.00, 0.00, -0.00, -1.00, 320.2, 189.6)">v</text><text xml:space="preserve" font-family="LucidaConsole,Lucida Console" font-size="25.0" fill="#FEFFFE" transform="matrix(1.00, 0.00, -0.00, -1.00, 335.3, 189.6)">a</text><text xml:space="preserve" font-family="LucidaConsole,Lucida Console" font-size="25.0" fill="#FEFFFE" transform="matrix(1.00, 0.00, -0.00, -1.00, 350.3, 189.6)">-</text><text xml:space="preserve" font-family="LucidaConsole,Lucida Console" font-size="25.0" fill="#FEFFFE" transform="matrix(1.00, 0.00, -0.00, -1.00, 260.0, 164.6)">c</text><text xml:space="preserve" font-family="LucidaConsole,Lucida Console" font-size="25.0" fill="#FEFFFE" transform="matrix(1.00, 0.00, -0.00, -1.00, 275.1, 164.6)">o</text><text xml:space="preserve" font-family="LucidaConsole,Lucida Console" font-size="25.0" fill="#FEFFFE" transform="matrix(1.00, 0.00, -0.00, -1.00, 290.1, 164.6)">n</text><text xml:space="preserve" font-family="LucidaConsole,Lucida Console" font-size="25.0" fill="#FEFFFE" transform="matrix(1.00, 0.00, -0.00, -1.00, 305.2, 164.6)">d</text><text xml:space="preserve" font-family="LucidaConsole,Lucida Console" font-size="25.0" fill="#FEFFFE" transform="matrix(1.00, 0.00, -0.00, -1.00, 320.2, 164.6)">u</text><text xml:space="preserve" font-family="LucidaConsole,Lucida Console" font-size="25.0" fill="#FEFFFE" transform="matrix(1.00, 0.00, -0.00, -1.00, 335.3, 164.6)">c</text><text xml:space="preserve" font-family="LucidaConsole,Lucida Console" font-size="25.0" fill="#FEFFFE" transform="matrix(1.00, 0.00, -0.00, -1.00, 350.3, 164.6)">t</text><text xml:space="preserve" font-family="LucidaConsole,Lucida Console" font-size="25.0" fill="#FEFFFE" transform="matrix(1.00, 0.00, -0.00, -1.00, 365.4, 164.6)">o</text><text xml:space="preserve" font-family="LucidaConsole,Lucida Console" font-size="25.0" fill="#FEFFFE" transform="matrix(1.00, 0.00, -0.00, -1.00, 380.4, 164.6)">r</text></g></g><g><clipPath id="clip0x600003ebb060"><path d="M 479.7 302.2 L 939.9 302.2 L 939.9 524.2 L 479.7 524.2 Z M 479.7 302.2 "></path></clipPath><g clip-path="url(#clip0x600003ebb060)"><path d="M 0.3 200.7 L 0.3 14.4 C 0.3 6.5 6.5 0.2 14.4 0.2 L 438.7 0.2 C 446.7 0.2 453.3 6.5 453.3 14.4 L 453.3 200.6 C 453.3 208.6 446.7 215.2 438.7 215.2 L 14.4 215.2 C 6.5 215.2 0.3 208.7 0.3 200.7 Z M 0.0 200.6 " fill="none" stroke="#595E5D" stroke-width="5.00" transform="matrix(1.00, 0.00, 0.00, -1.00, 483.2, 520.7)"></path></g></g><g><clipPath id="clip0x600003ebb2a0"><path d="M 686.2 470.9 L 925.0 470.9 L 925.0 498.9 L 686.2 498.9 Z M 686.2 470.9 "></path></clipPath><g clip-path="url(#clip0x600003ebb2a0)"><text xml:space="preserve" font-family="GillSans,Gill Sans" font-size="25.0" fill="#525252" transform="matrix(1.00, 0.00, -0.00, -1.00, 699.2, 475.7)">C</text><text xml:space="preserve" font-family="GillSans,Gill Sans" font-size="25.0" fill="#525252" transform="matrix(1.00, 0.00, -0.00, -1.00, 716.9, 475.7)">O</text><text xml:space="preserve" font-family="GillSans,Gill Sans" font-size="25.0" fill="#525252" transform="matrix(1.00, 0.00, -0.00, -1.00, 737.5, 475.7)">M</text><text xml:space="preserve" font-family="GillSans,Gill Sans" font-size="25.0" fill="#525252" transform="matrix(1.00, 0.00, -0.00, -1.00, 757.0, 475.7)">P</text><text xml:space="preserve" font-family="GillSans,Gill Sans" font-size="25.0" fill="#525252" transform="matrix(1.00, 0.00, -0.00, -1.00, 769.7, 475.7)">U</text><text xml:space="preserve" font-family="GillSans,Gill Sans" font-size="25.0" fill="#525252" transform="matrix(1.00, 0.00, -0.00, -1.00, 787.4, 475.7)">T</text><text xml:space="preserve" font-family="GillSans,Gill Sans" font-size="25.0" fill="#525252" transform="matrix(1.00, 0.00, -0.00, -1.00, 802.5, 475.7)">E</text><text xml:space="preserve" font-family="GillSans-Light,Gill Sans" font-size="25.0" fill="#525252" transform="matrix(1.00, 0.00, -0.00, -1.00, 815.0, 475.7)"> </text><text xml:space="preserve" font-family="GillSans-Light,Gill Sans" font-size="25.0" fill="#525252" transform="matrix(1.00, 0.00, -0.00, -1.00, 822.0, 475.7)">N</text><text xml:space="preserve" font-family="GillSans-Light,Gill Sans" font-size="25.0" fill="#525252" transform="matrix(1.00, 0.00, -0.00, -1.00, 841.2, 475.7)">O</text><text xml:space="preserve" font-family="GillSans-Light,Gill Sans" font-size="25.0" fill="#525252" transform="matrix(1.00, 0.00, -0.00, -1.00, 861.8, 475.7)">D</text><text xml:space="preserve" font-family="GillSans-Light,Gill Sans" font-size="25.0" fill="#525252" transform="matrix(1.00, 0.00, -0.00, -1.00, 880.3, 475.7)">E</text><text xml:space="preserve" font-family="GillSans-Light,Gill Sans" font-size="25.0" fill="#525252" transform="matrix(1.00, 0.00, -0.00, -1.00, 892.6, 475.7)"> </text><text xml:space="preserve" font-family="GillSans-Light,Gill Sans" font-size="25.0" fill="#525252" transform="matrix(1.00, 0.00, -0.00, -1.00, 899.5, 475.7)">1</text></g></g><g><clipPath id="clip0x600003ebb9c0"><path d="M 501.9 323.5 L 699.7 323.5 L 699.7 416.8 L 501.9 416.8 Z M 501.9 323.5 "></path></clipPath><g clip-path="url(#clip0x600003ebb9c0)"><path d="M 505.5 338.0 L 505.5 402.4 C 505.5 408.4 510.3 413.5 516.3 413.5 L 685.4 413.5 C 691.4 413.5 696.5 408.4 696.5 402.4 L 696.5 337.8 C 696.5 331.8 691.4 326.5 685.4 326.5 L 516.3 326.5 C 510.3 326.5 505.5 332.0 505.5 338.0 Z M 505.4 337.8 " fill="#FB9301"></path><path d="M 0.1 75.3 L 0.1 10.8 C 0.1 4.9 4.9 -0.2 10.8 -0.2 L 180.0 -0.2 C 186.0 -0.2 191.1 4.9 191.1 10.8 L 191.1 75.4 C 191.1 81.4 186.0 86.8 180.0 86.8 L 10.8 86.8 C 4.9 86.8 0.1 81.3 0.1 75.3 Z M 0.0 75.4 " fill="none" stroke="#FF9300" stroke-width="5.00" transform="matrix(1.00, 0.00, 0.00, -1.00, 505.4, 413.3)"></path></g></g><g><clipPath id="clip0x600003ebbcc0"><path d="M 505.4 327.0 L 696.2 327.0 L 696.2 413.3 L 505.4 413.3 Z M 505.4 327.0 "></path></clipPath><g clip-path="url(#clip0x600003ebbcc0)"><text xml:space="preserve" font-family="LucidaConsole,Lucida Console" font-size="25.0" fill="#FEFFFE" transform="matrix(1.00, 0.00, -0.00, -1.00, 563.1, 376.0)">n</text><text xml:space="preserve" font-family="LucidaConsole,Lucida Console" font-size="25.0" fill="#FEFFFE" transform="matrix(1.00, 0.00, -0.00, -1.00, 578.2, 376.0)">o</text><text xml:space="preserve" font-family="LucidaConsole,Lucida Console" font-size="25.0" fill="#FEFFFE" transform="matrix(1.00, 0.00, -0.00, -1.00, 593.3, 376.0)">v</text><text xml:space="preserve" font-family="LucidaConsole,Lucida Console" font-size="25.0" fill="#FEFFFE" transform="matrix(1.00, 0.00, -0.00, -1.00, 608.3, 376.0)">a</text><text xml:space="preserve" font-family="LucidaConsole,Lucida Console" font-size="25.0" fill="#FEFFFE" transform="matrix(1.00, 0.00, -0.00, -1.00, 623.4, 376.0)">-</text><text xml:space="preserve" font-family="LucidaConsole,Lucida Console" font-size="25.0" fill="#FEFFFE" transform="matrix(1.00, 0.00, -0.00, -1.00, 548.1, 351.0)">c</text><text xml:space="preserve" font-family="LucidaConsole,Lucida Console" font-size="25.0" fill="#FEFFFE" transform="matrix(1.00, 0.00, -0.00, -1.00, 563.1, 351.0)">o</text><text xml:space="preserve" font-family="LucidaConsole,Lucida Console" font-size="25.0" fill="#FEFFFE" transform="matrix(1.00, 0.00, -0.00, -1.00, 578.2, 351.0)">m</text><text xml:space="preserve" font-family="LucidaConsole,Lucida Console" font-size="25.0" fill="#FEFFFE" transform="matrix(1.00, 0.00, -0.00, -1.00, 593.2, 351.0)">p</text><text xml:space="preserve" font-family="LucidaConsole,Lucida Console" font-size="25.0" fill="#FEFFFE" transform="matrix(1.00, 0.00, -0.00, -1.00, 608.3, 351.0)">u</text><text xml:space="preserve" font-family="LucidaConsole,Lucida Console" font-size="25.0" fill="#FEFFFE" transform="matrix(1.00, 0.00, -0.00, -1.00, 623.3, 351.0)">t</text><text xml:space="preserve" font-family="LucidaConsole,Lucida Console" font-size="25.0" fill="#FEFFFE" transform="matrix(1.00, 0.00, -0.00, -1.00, 638.4, 351.0)">e</text></g></g><g><clipPath id="clip0x600003ebc320"><path d="M 720.6 323.5 L 918.4 323.5 L 918.4 416.8 L 720.6 416.8 Z M 720.6 323.5 "></path></clipPath><g clip-path="url(#clip0x600003ebc320)"><path d="M 724.5 338.0 L 724.5 402.4 C 724.5 408.4 728.9 413.5 734.9 413.5 L 904.1 413.5 C 910.1 413.5 914.5 408.4 914.5 402.4 L 914.5 337.8 C 914.5 331.8 910.1 326.5 904.1 326.5 L 734.9 326.5 C 728.9 326.5 724.5 332.0 724.5 338.0 Z M 724.1 337.8 " fill="#FB9301"></path><path d="M 0.4 75.3 L 0.4 10.8 C 0.4 4.9 4.9 -0.2 10.8 -0.2 L 180.0 -0.2 C 186.0 -0.2 190.4 4.9 190.4 10.8 L 190.4 75.4 C 190.4 81.4 186.0 86.8 180.0 86.8 L 10.8 86.8 C 4.9 86.8 0.4 81.3 0.4 75.3 Z M 0.0 75.4 " fill="none" stroke="#FF9300" stroke-width="5.00" transform="matrix(1.00, 0.00, 0.00, -1.00, 724.1, 413.3)"></path></g></g><g><clipPath id="clip0x600003ebc620"><path d="M 724.1 327.0 L 914.9 327.0 L 914.9 413.3 L 724.1 413.3 Z M 724.1 327.0 "></path></clipPath><g clip-path="url(#clip0x600003ebc620)"><text xml:space="preserve" font-family="LucidaConsole,Lucida Console" font-size="25.0" fill="#FEFFFE" transform="matrix(1.00, 0.00, -0.00, -1.00, 781.8, 376.0)">n</text><text xml:space="preserve" font-family="LucidaConsole,Lucida Console" font-size="25.0" fill="#FEFFFE" transform="matrix(1.00, 0.00, -0.00, -1.00, 796.9, 376.0)">o</text><text xml:space="preserve" font-family="LucidaConsole,Lucida Console" font-size="25.0" fill="#FEFFFE" transform="matrix(1.00, 0.00, -0.00, -1.00, 811.9, 376.0)">v</text><text xml:space="preserve" font-family="LucidaConsole,Lucida Console" font-size="25.0" fill="#FEFFFE" transform="matrix(1.00, 0.00, -0.00, -1.00, 827.0, 376.0)">a</text><text xml:space="preserve" font-family="LucidaConsole,Lucida Console" font-size="25.0" fill="#FEFFFE" transform="matrix(1.00, 0.00, -0.00, -1.00, 842.0, 376.0)">-</text><text xml:space="preserve" font-family="LucidaConsole,Lucida Console" font-size="25.0" fill="#FEFFFE" transform="matrix(1.00, 0.00, -0.00, -1.00, 766.8, 351.0)">n</text><text xml:space="preserve" font-family="LucidaConsole,Lucida Console" font-size="25.0" fill="#FEFFFE" transform="matrix(1.00, 0.00, -0.00, -1.00, 781.8, 351.0)">e</text><text xml:space="preserve" font-family="LucidaConsole,Lucida Console" font-size="25.0" fill="#FEFFFE" transform="matrix(1.00, 0.00, -0.00, -1.00, 796.9, 351.0)">t</text><text xml:space="preserve" font-family="LucidaConsole,Lucida Console" font-size="25.0" fill="#FEFFFE" transform="matrix(1.00, 0.00, -0.00, -1.00, 811.9, 351.0)">w</text><text xml:space="preserve" font-family="LucidaConsole,Lucida Console" font-size="25.0" fill="#FEFFFE" transform="matrix(1.00, 0.00, -0.00, -1.00, 827.0, 351.0)">o</text><text xml:space="preserve" font-family="LucidaConsole,Lucida Console" font-size="25.0" fill="#FEFFFE" transform="matrix(1.00, 0.00, -0.00, -1.00, 842.0, 351.0)">r</text><text xml:space="preserve" font-family="LucidaConsole,Lucida Console" font-size="25.0" fill="#FEFFFE" transform="matrix(1.00, 0.00, -0.00, -1.00, 857.1, 351.0)">k</text></g></g><g><clipPath id="clip0x600003ebcc80"><path d="M 481.0 0.7 L 699.4 0.7 L 699.4 131.2 L 481.0 131.2 Z M 481.0 0.7 "></path></clipPath><g clip-path="url(#clip0x600003ebcc80)"><path d="M -0.0 112.7 L -0.0 10.8 C -0.0 4.9 4.9 0.2 10.8 0.2 L 200.5 0.2 C 206.5 0.2 211.0 4.9 211.0 10.8 L 211.0 112.6 C 211.0 118.6 206.5 123.2 200.5 123.2 L 10.8 123.2 C 4.9 123.2 -0.0 118.7 -0.0 112.7 Z M 0.0 112.6 " fill="none" stroke="#595E5D" stroke-width="5.00" transform="matrix(1.00, 0.00, 0.00, -1.00, 484.5, 127.7)"></path></g></g><g><clipPath id="clip0x600003ebcec0"><path d="M 484.5 4.2 L 695.9 4.2 L 695.9 127.7 L 484.5 127.7 Z M 484.5 4.2 "></path></clipPath><g clip-path="url(#clip0x600003ebcec0)"><text xml:space="preserve" font-family="GillSans,Gill Sans" font-size="20.0" fill="#525252" transform="matrix(1.00, 0.00, -0.00, -1.00, 500.0, 59.4)">C</text><text xml:space="preserve" font-family="GillSans,Gill Sans" font-size="20.0" fill="#525252" transform="matrix(1.00, 0.00, -0.00, -1.00, 514.2, 59.4)">O</text><text xml:space="preserve" font-family="GillSans,Gill Sans" font-size="20.0" fill="#525252" transform="matrix(1.00, 0.00, -0.00, -1.00, 530.7, 59.4)">M</text><text xml:space="preserve" font-family="GillSans,Gill Sans" font-size="20.0" fill="#525252" transform="matrix(1.00, 0.00, -0.00, -1.00, 546.3, 59.4)">P</text><text xml:space="preserve" font-family="GillSans,Gill Sans" font-size="20.0" fill="#525252" transform="matrix(1.00, 0.00, -0.00, -1.00, 556.5, 59.4)">U</text><text xml:space="preserve" font-family="GillSans,Gill Sans" font-size="20.0" fill="#525252" transform="matrix(1.00, 0.00, -0.00, -1.00, 570.6, 59.4)">T</text><text xml:space="preserve" font-family="GillSans,Gill Sans" font-size="20.0" fill="#525252" transform="matrix(1.00, 0.00, -0.00, -1.00, 582.7, 59.4)">E</text><text xml:space="preserve" font-family="GillSans-Light,Gill Sans" font-size="20.0" fill="#525252" transform="matrix(1.00, 0.00, -0.00, -1.00, 592.7, 59.4)"> </text><text xml:space="preserve" font-family="GillSans-Light,Gill Sans" font-size="20.0" fill="#525252" transform="matrix(1.00, 0.00, -0.00, -1.00, 598.3, 59.4)">N</text><text xml:space="preserve" font-family="GillSans-Light,Gill Sans" font-size="20.0" fill="#525252" transform="matrix(1.00, 0.00, -0.00, -1.00, 613.7, 59.4)">O</text><text xml:space="preserve" font-family="GillSans-Light,Gill Sans" font-size="20.0" fill="#525252" transform="matrix(1.00, 0.00, -0.00, -1.00, 630.2, 59.4)">D</text><text xml:space="preserve" font-family="GillSans-Light,Gill Sans" font-size="20.0" fill="#525252" transform="matrix(1.00, 0.00, -0.00, -1.00, 645.0, 59.4)">E</text><text xml:space="preserve" font-family="GillSans-Light,Gill Sans" font-size="20.0" fill="#525252" transform="matrix(1.00, 0.00, -0.00, -1.00, 654.8, 59.4)"> </text><text xml:space="preserve" font-family="GillSans-Light,Gill Sans" font-size="20.0" fill="#525252" transform="matrix(1.00, 0.00, -0.00, -1.00, 660.3, 59.4)">…</text></g></g></g></svg>