<?xml version="1.0" encoding="UTF-8" standalone="no"?><svg xmlns="http://www.w3.org/2000/svg" xmlns:xlink="http://www.w3.org/1999/xlink" clip-rule="evenodd" stroke-miterlimit="10" viewBox="0 0 573 48"><desc>SVG generated by Keynote</desc><defs></defs><g transform="matrix(1.00, 0.00, -0.00, -1.00, 0.0, 48.0)"><text xml:space="preserve" font-family="GillSans,Gill Sans" font-size="65.0" fill="#525252" transform="matrix(1.00, 0.00, -0.00, -1.00, -11.6, 2.0)">1</text><text xml:space="preserve" font-family="GillSans,Gill Sans" font-size="65.0" fill="#525252" transform="matrix(1.00, 0.00, -0.00, -1.00, 20.9, 2.0)">+</text><text xml:space="preserve" font-family="GillSans,Gill Sans" font-size="65.0" fill="#525252" transform="matrix(1.00, 0.00, -0.00, -1.00, 58.9, 2.0)">N</text><text xml:space="preserve" font-family="GillSans-Light,Gill Sans" font-size="65.0" fill="#525252" transform="matrix(1.00, 0.00, -0.00, -1.00, 109.6, 2.0)"> </text><text xml:space="preserve" font-family="GillSans-Light,Gill Sans" font-size="65.0" fill="#525252" transform="matrix(1.00, 0.00, -0.00, -1.00, 123.8, 2.0)">A</text><text xml:space="preserve" font-family="GillSans-Light,Gill Sans" font-size="65.0" fill="#525252" transform="matrix(1.00, 0.00, -0.00, -1.00, 167.1, 2.0)">R</text><text xml:space="preserve" font-family="GillSans-Light,Gill Sans" font-size="65.0" fill="#525252" transform="matrix(1.00, 0.00, -0.00, -1.00, 204.4, 2.0)">C</text><text xml:space="preserve" font-family="GillSans-Light,Gill Sans" font-size="65.0" fill="#525252" transform="matrix(1.00, 0.00, -0.00, -1.00, 248.4, 2.0)">H</text><text xml:space="preserve" font-family="GillSans-Light,Gill Sans" font-size="65.0" fill="#525252" transform="matrix(1.00, 0.00, -0.00, -1.00, 295.2, 2.0)">I</text><text xml:space="preserve" font-family="GillSans-Light,Gill Sans" font-size="65.0" fill="#525252" transform="matrix(1.00, 0.00, -0.00, -1.00, 308.7, 2.0)">T</text><text xml:space="preserve" font-family="GillSans-Light,Gill Sans" font-size="65.0" fill="#525252" transform="matrix(1.00, 0.00, -0.00, -1.00, 346.0, 2.0)">E</text><text xml:space="preserve" font-family="GillSans-Light,Gill Sans" font-size="65.0" fill="#525252" transform="matrix(1.00, 0.00, -0.00, -1.00, 377.8, 2.0)">C</text><text xml:space="preserve" font-family="GillSans-Light,Gill Sans" font-size="65.0" fill="#525252" transform="matrix(1.00, 0.00, -0.00, -1.00, 421.8, 2.0)">T</text><text xml:space="preserve" font-family="GillSans-Light,Gill Sans" font-size="65.0" fill="#525252" transform="matrix(1.00, 0.00, -0.00, -1.00, 459.1, 2.0)">U</text><text xml:space="preserve" font-family="GillSans-Light,Gill Sans" font-size="65.0" fill="#525252" transform="matrix(1.00, 0.00, -0.00, -1.00, 504.5, 2.0)">R</text><text xml:space="preserve" font-family="GillSans-Light,Gill Sans" font-size="65.0" fill="#525252" transform="matrix(1.00, 0.00, -0.00, -1.00, 541.8, 2.0)">E</text></g></svg>