<?xml version="1.0" encoding="UTF-8" standalone="no"?><svg xmlns="http://www.w3.org/2000/svg" xmlns:xlink="http://www.w3.org/1999/xlink" clip-rule="evenodd" stroke-miterlimit="10" viewBox="0 0 330 456"><desc>SVG generated by Keynote</desc><defs></defs><g transform="matrix(1.00, 0.00, -0.00, -1.00, 0.0, 456.0)"><g><clipPath id="clip0x600003cbdc40"><path d="M 16.0 455.0 L 314.0 455.0 L 314.0 157.0 L 16.0 157.0 Z M 15.8 455.0 "></path></clipPath><g clip-path="url(#clip0x600003cbdc40)"><g><clipPath id="clip0x6000036bdf40"><path d="M 15.8 156.5 L 314.2 156.5 L 314.2 455.0 L 15.8 455.0 Z M 15.8 156.5 "></path></clipPath><g clip-path="url(#clip0x6000036bdf40)"><image xlink:href="../../5597C60D-90F3-4109-98AE-7C9C8B692B7E/assets/DF84E74DAD5AE495E861FECE6DD80E8F.png" width="500.00" height="500.00" transform="matrix(0.60, 0.00, -0.00, -0.60, 16.0, 455.0)"></image></g></g></g></g><g><clipPath id="clip0x608003eb9d40"><path d="M -28.7 -28.3 L 358.7 -28.3 L 358.7 178.7 L -28.7 178.7 Z M -28.7 -28.3 "></path></clipPath><g clip-path="url(#clip0x608003eb9d40)"><text xml:space="preserve" font-family="GillSans,Gill Sans" font-size="120.0" fill="#494949" transform="matrix(1.00, 0.00, -0.00, -1.00, 6.3, 33.9)">a</text><text xml:space="preserve" font-family="GillSans,Gill Sans" font-size="120.0" fill="#494949" transform="matrix(1.00, 0.00, -0.00, -1.00, 57.5, 33.9)">D</text><text xml:space="preserve" font-family="GillSans,Gill Sans" font-size="120.0" fill="#494949" transform="matrix(1.00, 0.00, -0.00, -1.00, 147.5, 33.9)">o</text><text xml:space="preserve" font-family="GillSans,Gill Sans" font-size="120.0" fill="#494949" transform="matrix(1.00, 0.00, -0.00, -1.00, 213.6, 33.9)">c</text><text xml:space="preserve" font-family="GillSans,Gill Sans" font-size="120.0" fill="#494949" transform="matrix(1.00, 0.00, -0.00, -1.00, 266.2, 33.9)">k</text></g></g></g></svg>