<?xml version="1.0" encoding="UTF-8" standalone="no"?><svg xmlns="http://www.w3.org/2000/svg" xmlns:xlink="http://www.w3.org/1999/xlink" clip-rule="evenodd" stroke-miterlimit="10" viewBox="0 0 1024 768"><desc>SVG generated by Keynote</desc><defs></defs><g transform="matrix(1.00, 0.00, -0.00, -1.00, 0.0, 768.0)"><g><clipPath id="clip0x6000044b7640"><path d="M 0.0 768.0 L 1024.0 768.0 L 1024.0 0.0 L 0.0 0.0 Z M 0.0 768.0 "></path></clipPath><g clip-path="url(#clip0x6000044b7640)"><image xlink:href="../../BE03AB4A-F5E0-4685-80C7-20DCBC62631F/assets/574DCE55A4CF432400CBDDDE1DFDFC9B.jpeg" width="2048.00" height="1536.00" transform="matrix(0.50, 0.00, -0.00, -0.50, 0.0, 768.0)"></image></g></g><g opacity="0.20"><g><clipPath id="clip0x6080044aa440"><path d="M 0.0 0.0 L 1024.0 0.0 L 1024.0 768.0 L 0.0 768.0 Z M 0.0 0.0 "></path></clipPath><g clip-path="url(#clip0x6080044aa440)"><image xlink:href="../../29DDE6FF-1025-413C-8C4A-E634106F2582/assets/EEC9DD03ED1A12BB06DF1CE05A7229B5.png" width="1024.00" height="1024.00" transform="matrix(1.00, 0.00, -0.00, -1.00, 0.0, 817.0)"></image></g></g></g><text xml:space="preserve" font-family="GillSans-Light,Gill Sans" font-size="72.0" fill="#525252" transform="matrix(1.00, 0.00, -0.00, -1.00, 151.4, 636.1)">B</text><text xml:space="preserve" font-family="GillSans-Light,Gill Sans" font-size="72.0" fill="#525252" transform="matrix(1.00, 0.00, -0.00, -1.00, 191.0, 636.1)">A</text><text xml:space="preserve" font-family="GillSans-Light,Gill Sans" font-size="72.0" fill="#525252" transform="matrix(1.00, 0.00, -0.00, -1.00, 239.1, 636.1)">S</text><text xml:space="preserve" font-family="GillSans-Light,Gill Sans" font-size="72.0" fill="#525252" transform="matrix(1.00, 0.00, -0.00, -1.00, 272.9, 636.1)">E</text><text xml:space="preserve" font-family="GillSans-Light,Gill Sans" font-size="72.0" fill="#525252" transform="matrix(1.00, 0.00, -0.00, -1.00, 308.2, 636.1)"> </text><text xml:space="preserve" font-family="GillSans,Gill Sans" font-size="72.0" fill="#525252" transform="matrix(1.00, 0.00, -0.00, -1.00, 328.2, 636.1)">C</text><text xml:space="preserve" font-family="GillSans,Gill Sans" font-size="72.0" fill="#525252" transform="matrix(1.00, 0.00, -0.00, -1.00, 379.1, 636.1)">O</text><text xml:space="preserve" font-family="GillSans,Gill Sans" font-size="72.0" fill="#525252" transform="matrix(1.00, 0.00, -0.00, -1.00, 438.4, 636.1)">N</text><text xml:space="preserve" font-family="GillSans,Gill Sans" font-size="72.0" fill="#525252" transform="matrix(1.00, 0.00, -0.00, -1.00, 494.6, 636.1)">S</text><text xml:space="preserve" font-family="GillSans,Gill Sans" font-size="72.0" fill="#525252" transform="matrix(1.00, 0.00, -0.00, -1.00, 527.6, 636.1)">O</text><text xml:space="preserve" font-family="GillSans,Gill Sans" font-size="72.0" fill="#525252" transform="matrix(1.00, 0.00, -0.00, -1.00, 586.9, 636.1)">L</text><text xml:space="preserve" font-family="GillSans,Gill Sans" font-size="72.0" fill="#525252" transform="matrix(1.00, 0.00, -0.00, -1.00, 622.2, 636.1)">I</text><text xml:space="preserve" font-family="GillSans,Gill Sans" font-size="72.0" fill="#525252" transform="matrix(1.00, 0.00, -0.00, -1.00, 640.2, 636.1)">D</text><text xml:space="preserve" font-family="GillSans,Gill Sans" font-size="72.0" fill="#525252" transform="matrix(1.00, 0.00, -0.00, -1.00, 690.2, 636.1)">A</text><text xml:space="preserve" font-family="GillSans,Gill Sans" font-size="72.0" fill="#525252" transform="matrix(1.00, 0.00, -0.00, -1.00, 731.1, 636.1)">T</text><text xml:space="preserve" font-family="GillSans,Gill Sans" font-size="72.0" fill="#525252" transform="matrix(1.00, 0.00, -0.00, -1.00, 769.9, 636.1)">O</text><text xml:space="preserve" font-family="GillSans,Gill Sans" font-size="72.0" fill="#525252" transform="matrix(1.00, 0.00, -0.00, -1.00, 829.2, 636.1)">R</text><text xml:space="preserve" font-family="GillSans-Light,Gill Sans" font-size="72.0" fill="#525252" transform="matrix(1.00, 0.00, -0.00, -1.00, 872.6, 636.1)"> </text><text xml:space="preserve" font-family="GillSans-Light,Gill Sans" font-size="72.0" fill="#525252" transform="matrix(1.00, 0.00, -0.00, -1.00, 412.9, 554.1)">C</text><text xml:space="preserve" font-family="GillSans-Light,Gill Sans" font-size="72.0" fill="#525252" transform="matrix(1.00, 0.00, -0.00, -1.00, 461.7, 554.1)">L</text><text xml:space="preserve" font-family="GillSans-Light,Gill Sans" font-size="72.0" fill="#525252" transform="matrix(1.00, 0.00, -0.00, -1.00, 495.5, 554.1)">A</text><text xml:space="preserve" font-family="GillSans-Light,Gill Sans" font-size="72.0" fill="#525252" transform="matrix(1.00, 0.00, -0.00, -1.00, 543.5, 554.1)">S</text><text xml:space="preserve" font-family="GillSans-Light,Gill Sans" font-size="72.0" fill="#525252" transform="matrix(1.00, 0.00, -0.00, -1.00, 577.3, 554.1)">S</text><text xml:space="preserve" font-family="GillSans-Light,Gill Sans" font-size="37.7" fill="#525252" transform="matrix(1.00, 0.00, -0.00, -1.00, 51.7, 433.8)">•</text><text xml:space="preserve" font-family="GillSans,Gill Sans" font-size="46.0" fill="#525252" transform="matrix(1.00, 0.00, -0.00, -1.00, 92.7, 430.6)">E</text><text xml:space="preserve" font-family="GillSans,Gill Sans" font-size="46.0" fill="#525252" transform="matrix(1.00, 0.00, -0.00, -1.00, 115.7, 430.6)">x</text><text xml:space="preserve" font-family="GillSans,Gill Sans" font-size="46.0" fill="#525252" transform="matrix(1.00, 0.00, -0.00, -1.00, 138.7, 430.6)">t</text><text xml:space="preserve" font-family="GillSans,Gill Sans" font-size="46.0" fill="#525252" transform="matrix(1.00, 0.00, -0.00, -1.00, 154.0, 430.6)">e</text><text xml:space="preserve" font-family="GillSans,Gill Sans" font-size="46.0" fill="#525252" transform="matrix(1.00, 0.00, -0.00, -1.00, 176.1, 430.6)">n</text><text xml:space="preserve" font-family="GillSans,Gill Sans" font-size="46.0" fill="#525252" transform="matrix(1.00, 0.00, -0.00, -1.00, 199.1, 430.6)">d</text><text xml:space="preserve" font-family="GillSans-Light,Gill Sans" font-size="46.0" fill="#525252" transform="matrix(1.00, 0.00, -0.00, -1.00, 222.5, 430.6)"> </text><text xml:space="preserve" font-family="GillSans-Light,Gill Sans" font-size="46.0" fill="#525252" transform="matrix(1.00, 0.00, -0.00, -1.00, 235.3, 430.6)">t</text><text xml:space="preserve" font-family="GillSans-Light,Gill Sans" font-size="46.0" fill="#525252" transform="matrix(1.00, 0.00, -0.00, -1.00, 249.2, 430.6)">h</text><text xml:space="preserve" font-family="GillSans-Light,Gill Sans" font-size="46.0" fill="#525252" transform="matrix(1.00, 0.00, -0.00, -1.00, 271.7, 430.6)">e</text><text xml:space="preserve" font-family="GillSans-Light,Gill Sans" font-size="46.0" fill="#525252" transform="matrix(1.00, 0.00, -0.00, -1.00, 293.8, 430.6)"> </text><text xml:space="preserve" font-family="LucidaConsole,Lucida Console" font-size="40.0" fill="#8F73B2" transform="matrix(1.00, 0.00, -0.00, -1.00, 306.6, 430.6)">B</text><text xml:space="preserve" font-family="LucidaConsole,Lucida Console" font-size="40.0" fill="#8F73B2" transform="matrix(1.00, 0.00, -0.00, -1.00, 330.6, 430.6)">a</text><text xml:space="preserve" font-family="LucidaConsole,Lucida Console" font-size="40.0" fill="#8F73B2" transform="matrix(1.00, 0.00, -0.00, -1.00, 354.7, 430.6)">s</text><text xml:space="preserve" font-family="LucidaConsole,Lucida Console" font-size="40.0" fill="#8F73B2" transform="matrix(1.00, 0.00, -0.00, -1.00, 378.8, 430.6)">e</text><text xml:space="preserve" font-family="LucidaConsole,Lucida Console" font-size="40.0" fill="#8F73B2" transform="matrix(1.00, 0.00, -0.00, -1.00, 402.9, 430.6)">C</text><text xml:space="preserve" font-family="LucidaConsole,Lucida Console" font-size="40.0" fill="#8F73B2" transform="matrix(1.00, 0.00, -0.00, -1.00, 427.0, 430.6)">o</text><text xml:space="preserve" font-family="LucidaConsole,Lucida Console" font-size="40.0" fill="#8F73B2" transform="matrix(1.00, 0.00, -0.00, -1.00, 451.0, 430.6)">n</text><text xml:space="preserve" font-family="LucidaConsole,Lucida Console" font-size="40.0" fill="#8F73B2" transform="matrix(1.00, 0.00, -0.00, -1.00, 475.1, 430.6)">s</text><text xml:space="preserve" font-family="LucidaConsole,Lucida Console" font-size="40.0" fill="#8F73B2" transform="matrix(1.00, 0.00, -0.00, -1.00, 499.2, 430.6)">o</text><text xml:space="preserve" font-family="LucidaConsole,Lucida Console" font-size="40.0" fill="#8F73B2" transform="matrix(1.00, 0.00, -0.00, -1.00, 523.3, 430.6)">l</text><text xml:space="preserve" font-family="LucidaConsole,Lucida Console" font-size="40.0" fill="#8F73B2" transform="matrix(1.00, 0.00, -0.00, -1.00, 547.4, 430.6)">i</text><text xml:space="preserve" font-family="LucidaConsole,Lucida Console" font-size="40.0" fill="#8F73B2" transform="matrix(1.00, 0.00, -0.00, -1.00, 571.4, 430.6)">d</text><text xml:space="preserve" font-family="LucidaConsole,Lucida Console" font-size="40.0" fill="#8F73B2" transform="matrix(1.00, 0.00, -0.00, -1.00, 595.5, 430.6)">a</text><text xml:space="preserve" font-family="LucidaConsole,Lucida Console" font-size="40.0" fill="#8F73B2" transform="matrix(1.00, 0.00, -0.00, -1.00, 619.6, 430.6)">t</text><text xml:space="preserve" font-family="LucidaConsole,Lucida Console" font-size="40.0" fill="#8F73B2" transform="matrix(1.00, 0.00, -0.00, -1.00, 643.7, 430.6)">o</text><text xml:space="preserve" font-family="LucidaConsole,Lucida Console" font-size="40.0" fill="#8F73B2" transform="matrix(1.00, 0.00, -0.00, -1.00, 667.8, 430.6)">r</text><text xml:space="preserve" font-family="LucidaConsole,Lucida Console" font-size="40.0" fill="#525252" transform="matrix(1.00, 0.00, -0.00, -1.00, 692.2, 430.6)"> </text><text xml:space="preserve" font-family="GillSans-Light,Gill Sans" font-size="46.0" fill="#525252" transform="matrix(1.00, 0.00, -0.00, -1.00, 716.3, 430.6)">c</text><text xml:space="preserve" font-family="GillSans-Light,Gill Sans" font-size="46.0" fill="#525252" transform="matrix(1.00, 0.00, -0.00, -1.00, 735.5, 430.6)">l</text><text xml:space="preserve" font-family="GillSans-Light,Gill Sans" font-size="46.0" fill="#525252" transform="matrix(1.00, 0.00, -0.00, -1.00, 744.1, 430.6)">a</text><text xml:space="preserve" font-family="GillSans-Light,Gill Sans" font-size="46.0" fill="#525252" transform="matrix(1.00, 0.00, -0.00, -1.00, 763.7, 430.6)">s</text><text xml:space="preserve" font-family="GillSans-Light,Gill Sans" font-size="46.0" fill="#525252" transform="matrix(1.00, 0.00, -0.00, -1.00, 780.0, 430.6)">s</text><text xml:space="preserve" font-family="GillSans-Light,Gill Sans" font-size="37.7" fill="#525252" transform="matrix(1.00, 0.00, -0.00, -1.00, 51.7, 323.8)">•</text><text xml:space="preserve" font-family="GillSans,Gill Sans" font-size="46.0" fill="#525252" transform="matrix(1.00, 0.00, -0.00, -1.00, 92.7, 320.6)">O</text><text xml:space="preserve" font-family="GillSans,Gill Sans" font-size="46.0" fill="#525252" transform="matrix(1.00, 0.00, -0.00, -1.00, 130.6, 320.6)">v</text><text xml:space="preserve" font-family="GillSans,Gill Sans" font-size="46.0" fill="#525252" transform="matrix(1.00, 0.00, -0.00, -1.00, 149.8, 320.6)">e</text><text xml:space="preserve" font-family="GillSans,Gill Sans" font-size="46.0" fill="#525252" transform="matrix(1.00, 0.00, -0.00, -1.00, 171.9, 320.6)">r</text><text xml:space="preserve" font-family="GillSans,Gill Sans" font-size="46.0" fill="#525252" transform="matrix(1.00, 0.00, -0.00, -1.00, 189.6, 320.6)">r</text><text xml:space="preserve" font-family="GillSans,Gill Sans" font-size="46.0" fill="#525252" transform="matrix(1.00, 0.00, -0.00, -1.00, 207.8, 320.6)">i</text><text xml:space="preserve" font-family="GillSans,Gill Sans" font-size="46.0" fill="#525252" transform="matrix(1.00, 0.00, -0.00, -1.00, 217.9, 320.6)">d</text><text xml:space="preserve" font-family="GillSans,Gill Sans" font-size="46.0" fill="#525252" transform="matrix(1.00, 0.00, -0.00, -1.00, 241.4, 320.6)">e</text><text xml:space="preserve" font-family="GillSans-Light,Gill Sans" font-size="46.0" fill="#525252" transform="matrix(1.00, 0.00, -0.00, -1.00, 263.4, 320.6)"> </text><text xml:space="preserve" font-family="GillSans-Light,Gill Sans" font-size="46.0" fill="#525252" transform="matrix(1.00, 0.00, -0.00, -1.00, 276.2, 320.6)">t</text><text xml:space="preserve" font-family="GillSans-Light,Gill Sans" font-size="46.0" fill="#525252" transform="matrix(1.00, 0.00, -0.00, -1.00, 290.0, 320.6)">h</text><text xml:space="preserve" font-family="GillSans-Light,Gill Sans" font-size="46.0" fill="#525252" transform="matrix(1.00, 0.00, -0.00, -1.00, 312.6, 320.6)">e</text><text xml:space="preserve" font-family="GillSans-Light,Gill Sans" font-size="46.0" fill="#525252" transform="matrix(1.00, 0.00, -0.00, -1.00, 334.6, 320.6)"> </text><text xml:space="preserve" font-family="LucidaConsole,Lucida Console" font-size="40.0" fill="#8F73B2" transform="matrix(1.00, 0.00, -0.00, -1.00, 347.4, 320.6)">g</text><text xml:space="preserve" font-family="LucidaConsole,Lucida Console" font-size="40.0" fill="#8F73B2" transform="matrix(1.00, 0.00, -0.00, -1.00, 371.5, 320.6)">e</text><text xml:space="preserve" font-family="LucidaConsole,Lucida Console" font-size="40.0" fill="#8F73B2" transform="matrix(1.00, 0.00, -0.00, -1.00, 395.6, 320.6)">t</text><text xml:space="preserve" font-family="LucidaConsole,Lucida Console" font-size="40.0" fill="#8F73B2" transform="matrix(1.00, 0.00, -0.00, -1.00, 419.7, 320.6)">_</text><text xml:space="preserve" font-family="LucidaConsole,Lucida Console" font-size="40.0" fill="#8F73B2" transform="matrix(1.00, 0.00, -0.00, -1.00, 443.8, 320.6)">m</text><text xml:space="preserve" font-family="LucidaConsole,Lucida Console" font-size="40.0" fill="#8F73B2" transform="matrix(1.00, 0.00, -0.00, -1.00, 467.8, 320.6)">i</text><text xml:space="preserve" font-family="LucidaConsole,Lucida Console" font-size="40.0" fill="#8F73B2" transform="matrix(1.00, 0.00, -0.00, -1.00, 491.9, 320.6)">g</text><text xml:space="preserve" font-family="LucidaConsole,Lucida Console" font-size="40.0" fill="#8F73B2" transform="matrix(1.00, 0.00, -0.00, -1.00, 516.0, 320.6)">r</text><text xml:space="preserve" font-family="LucidaConsole,Lucida Console" font-size="40.0" fill="#8F73B2" transform="matrix(1.00, 0.00, -0.00, -1.00, 540.1, 320.6)">a</text><text xml:space="preserve" font-family="LucidaConsole,Lucida Console" font-size="40.0" fill="#8F73B2" transform="matrix(1.00, 0.00, -0.00, -1.00, 564.2, 320.6)">t</text><text xml:space="preserve" font-family="LucidaConsole,Lucida Console" font-size="40.0" fill="#8F73B2" transform="matrix(1.00, 0.00, -0.00, -1.00, 588.2, 320.6)">i</text><text xml:space="preserve" font-family="LucidaConsole,Lucida Console" font-size="40.0" fill="#8F73B2" transform="matrix(1.00, 0.00, -0.00, -1.00, 612.3, 320.6)">o</text><text xml:space="preserve" font-family="LucidaConsole,Lucida Console" font-size="40.0" fill="#8F73B2" transform="matrix(1.00, 0.00, -0.00, -1.00, 636.4, 320.6)">n</text><text xml:space="preserve" font-family="LucidaConsole,Lucida Console" font-size="40.0" fill="#8F73B2" transform="matrix(1.00, 0.00, -0.00, -1.00, 660.5, 320.6)">s</text><text xml:space="preserve" font-family="LucidaConsole,Lucida Console" font-size="40.0" fill="#525252" transform="matrix(1.00, 0.00, -0.00, -1.00, 684.9, 320.6)"> </text><text xml:space="preserve" font-family="GillSans-Light,Gill Sans" font-size="46.0" fill="#525252" transform="matrix(1.00, 0.00, -0.00, -1.00, 709.0, 320.6)">m</text><text xml:space="preserve" font-family="GillSans-Light,Gill Sans" font-size="46.0" fill="#525252" transform="matrix(1.00, 0.00, -0.00, -1.00, 744.4, 320.6)">e</text><text xml:space="preserve" font-family="GillSans-Light,Gill Sans" font-size="46.0" fill="#525252" transform="matrix(1.00, 0.00, -0.00, -1.00, 766.5, 320.6)">t</text><text xml:space="preserve" font-family="GillSans-Light,Gill Sans" font-size="46.0" fill="#525252" transform="matrix(1.00, 0.00, -0.00, -1.00, 780.3, 320.6)">h</text><text xml:space="preserve" font-family="GillSans-Light,Gill Sans" font-size="46.0" fill="#525252" transform="matrix(1.00, 0.00, -0.00, -1.00, 802.9, 320.6)">o</text><text xml:space="preserve" font-family="GillSans-Light,Gill Sans" font-size="46.0" fill="#525252" transform="matrix(1.00, 0.00, -0.00, -1.00, 827.8, 320.6)">d</text><text xml:space="preserve" font-family="LucidaConsole,Lucida Console" font-size="40.0" fill="#525252" transform="matrix(1.00, 0.00, -0.00, -1.00, 851.3, 320.6)"> </text><text xml:space="preserve" font-family="GillSans-Light,Gill Sans" font-size="37.7" fill="#525252" transform="matrix(1.00, 0.00, -0.00, -1.00, 51.7, 213.7)">•</text><text xml:space="preserve" font-family="GillSans-Light,Gill Sans" font-size="46.0" fill="#525252" transform="matrix(1.00, 0.00, -0.00, -1.00, 92.7, 210.5)">A</text><text xml:space="preserve" font-family="GillSans-Light,Gill Sans" font-size="46.0" fill="#525252" transform="matrix(1.00, 0.00, -0.00, -1.00, 123.4, 210.5)">n</text><text xml:space="preserve" font-family="GillSans-Light,Gill Sans" font-size="46.0" fill="#525252" transform="matrix(1.00, 0.00, -0.00, -1.00, 146.0, 210.5)"> </text><text xml:space="preserve" font-family="GillSans-Light,Gill Sans" font-size="46.0" fill="#525252" transform="matrix(1.00, 0.00, -0.00, -1.00, 158.7, 210.5)">o</text><text xml:space="preserve" font-family="GillSans-Light,Gill Sans" font-size="46.0" fill="#525252" transform="matrix(1.00, 0.00, -0.00, -1.00, 183.7, 210.5)">b</text><text xml:space="preserve" font-family="GillSans-Light,Gill Sans" font-size="46.0" fill="#525252" transform="matrix(1.00, 0.00, -0.00, -1.00, 207.1, 210.5)">j</text><text xml:space="preserve" font-family="GillSans-Light,Gill Sans" font-size="46.0" fill="#525252" transform="matrix(1.00, 0.00, -0.00, -1.00, 215.8, 210.5)">e</text><text xml:space="preserve" font-family="GillSans-Light,Gill Sans" font-size="46.0" fill="#525252" transform="matrix(1.00, 0.00, -0.00, -1.00, 237.8, 210.5)">c</text><text xml:space="preserve" font-family="GillSans-Light,Gill Sans" font-size="46.0" fill="#525252" transform="matrix(1.00, 0.00, -0.00, -1.00, 257.0, 210.5)">t</text><text xml:space="preserve" font-family="GillSans-Light,Gill Sans" font-size="46.0" fill="#525252" transform="matrix(1.00, 0.00, -0.00, -1.00, 270.8, 210.5)"> </text><text xml:space="preserve" font-family="GillSans-Light,Gill Sans" font-size="46.0" fill="#525252" transform="matrix(1.00, 0.00, -0.00, -1.00, 283.6, 210.5)">c</text><text xml:space="preserve" font-family="GillSans-Light,Gill Sans" font-size="46.0" fill="#525252" transform="matrix(1.00, 0.00, -0.00, -1.00, 302.8, 210.5)">o</text><text xml:space="preserve" font-family="GillSans-Light,Gill Sans" font-size="46.0" fill="#525252" transform="matrix(1.00, 0.00, -0.00, -1.00, 327.7, 210.5)">n</text><text xml:space="preserve" font-family="GillSans-Light,Gill Sans" font-size="46.0" fill="#525252" transform="matrix(1.00, 0.00, -0.00, -1.00, 350.3, 210.5)">t</text><text xml:space="preserve" font-family="GillSans-Light,Gill Sans" font-size="46.0" fill="#525252" transform="matrix(1.00, 0.00, -0.00, -1.00, 364.2, 210.5)">a</text><text xml:space="preserve" font-family="GillSans-Light,Gill Sans" font-size="46.0" fill="#525252" transform="matrix(1.00, 0.00, -0.00, -1.00, 383.8, 210.5)">i</text><text xml:space="preserve" font-family="GillSans-Light,Gill Sans" font-size="46.0" fill="#525252" transform="matrix(1.00, 0.00, -0.00, -1.00, 392.4, 210.5)">n</text><text xml:space="preserve" font-family="GillSans-Light,Gill Sans" font-size="46.0" fill="#525252" transform="matrix(1.00, 0.00, -0.00, -1.00, 415.0, 210.5)">i</text><text xml:space="preserve" font-family="GillSans-Light,Gill Sans" font-size="46.0" fill="#525252" transform="matrix(1.00, 0.00, -0.00, -1.00, 423.6, 210.5)">n</text><text xml:space="preserve" font-family="GillSans-Light,Gill Sans" font-size="46.0" fill="#525252" transform="matrix(1.00, 0.00, -0.00, -1.00, 446.2, 210.5)">g</text><text xml:space="preserve" font-family="GillSans-Light,Gill Sans" font-size="46.0" fill="#525252" transform="matrix(1.00, 0.00, -0.00, -1.00, 465.8, 210.5)"> </text><text xml:space="preserve" font-family="GillSans-Light,Gill Sans" font-size="46.0" fill="#525252" transform="matrix(1.00, 0.00, -0.00, -1.00, 478.6, 210.5)">a</text><text xml:space="preserve" font-family="GillSans-Light,Gill Sans" font-size="46.0" fill="#525252" transform="matrix(1.00, 0.00, -0.00, -1.00, 498.2, 210.5)"> </text><text xml:space="preserve" font-family="GillSans,Gill Sans" font-size="46.0" fill="#525252" transform="matrix(1.00, 0.00, -0.00, -1.00, 511.0, 210.5)">s</text><text xml:space="preserve" font-family="GillSans,Gill Sans" font-size="46.0" fill="#525252" transform="matrix(1.00, 0.00, -0.00, -1.00, 528.7, 210.5)">n</text><text xml:space="preserve" font-family="GillSans,Gill Sans" font-size="46.0" fill="#525252" transform="matrix(1.00, 0.00, -0.00, -1.00, 551.7, 210.5)">a</text><text xml:space="preserve" font-family="GillSans,Gill Sans" font-size="46.0" fill="#525252" transform="matrix(1.00, 0.00, -0.00, -1.00, 570.9, 210.5)">p</text><text xml:space="preserve" font-family="GillSans,Gill Sans" font-size="46.0" fill="#525252" transform="matrix(1.00, 0.00, -0.00, -1.00, 593.9, 210.5)">s</text><text xml:space="preserve" font-family="GillSans,Gill Sans" font-size="46.0" fill="#525252" transform="matrix(1.00, 0.00, -0.00, -1.00, 611.6, 210.5)">h</text><text xml:space="preserve" font-family="GillSans,Gill Sans" font-size="46.0" fill="#525252" transform="matrix(1.00, 0.00, -0.00, -1.00, 634.6, 210.5)">o</text><text xml:space="preserve" font-family="GillSans,Gill Sans" font-size="46.0" fill="#525252" transform="matrix(1.00, 0.00, -0.00, -1.00, 660.0, 210.5)">t</text><text xml:space="preserve" font-family="GillSans-Light,Gill Sans" font-size="46.0" fill="#525252" transform="matrix(1.00, 0.00, -0.00, -1.00, 675.3, 210.5)"> </text><text xml:space="preserve" font-family="GillSans-Light,Gill Sans" font-size="46.0" fill="#525252" transform="matrix(1.00, 0.00, -0.00, -1.00, 688.1, 210.5)">o</text><text xml:space="preserve" font-family="GillSans-Light,Gill Sans" font-size="46.0" fill="#525252" transform="matrix(1.00, 0.00, -0.00, -1.00, 713.0, 210.5)">f</text><text xml:space="preserve" font-family="GillSans-Light,Gill Sans" font-size="46.0" fill="#525252" transform="matrix(1.00, 0.00, -0.00, -1.00, 724.1, 210.5)"> </text><text xml:space="preserve" font-family="GillSans-Light,Gill Sans" font-size="46.0" fill="#525252" transform="matrix(1.00, 0.00, -0.00, -1.00, 736.8, 210.5)">t</text><text xml:space="preserve" font-family="GillSans-Light,Gill Sans" font-size="46.0" fill="#525252" transform="matrix(1.00, 0.00, -0.00, -1.00, 750.7, 210.5)">h</text><text xml:space="preserve" font-family="GillSans-Light,Gill Sans" font-size="46.0" fill="#525252" transform="matrix(1.00, 0.00, -0.00, -1.00, 773.3, 210.5)">e</text><text xml:space="preserve" font-family="GillSans-Light,Gill Sans" font-size="46.0" fill="#525252" transform="matrix(1.00, 0.00, -0.00, -1.00, 795.3, 210.5)"> </text><text xml:space="preserve" font-family="GillSans-Light,Gill Sans" font-size="46.0" fill="#525252" transform="matrix(1.00, 0.00, -0.00, -1.00, 808.1, 210.5)">s</text><text xml:space="preserve" font-family="GillSans-Light,Gill Sans" font-size="46.0" fill="#525252" transform="matrix(1.00, 0.00, -0.00, -1.00, 824.4, 210.5)">y</text><text xml:space="preserve" font-family="GillSans-Light,Gill Sans" font-size="46.0" fill="#525252" transform="matrix(1.00, 0.00, -0.00, -1.00, 843.6, 210.5)">s</text><text xml:space="preserve" font-family="GillSans-Light,Gill Sans" font-size="46.0" fill="#525252" transform="matrix(1.00, 0.00, -0.00, -1.00, 859.8, 210.5)">t</text><text xml:space="preserve" font-family="GillSans-Light,Gill Sans" font-size="46.0" fill="#525252" transform="matrix(1.00, 0.00, -0.00, -1.00, 873.7, 210.5)">e</text><text xml:space="preserve" font-family="GillSans-Light,Gill Sans" font-size="46.0" fill="#525252" transform="matrix(1.00, 0.00, -0.00, -1.00, 895.7, 210.5)">m</text><text xml:space="preserve" font-family="GillSans-Light,Gill Sans" font-size="46.0" fill="#525252" transform="matrix(1.00, 0.00, -0.00, -1.00, 931.2, 210.5)"> </text><text xml:space="preserve" font-family="GillSans-Light,Gill Sans" font-size="46.0" fill="#525252" transform="matrix(1.00, 0.00, -0.00, -1.00, 944.0, 210.5)">i</text><text xml:space="preserve" font-family="GillSans-Light,Gill Sans" font-size="46.0" fill="#525252" transform="matrix(1.00, 0.00, -0.00, -1.00, 952.6, 210.5)">s</text><text xml:space="preserve" font-family="GillSans-Light,Gill Sans" font-size="46.0" fill="#525252" transform="matrix(1.00, 0.00, -0.00, -1.00, 968.9, 210.5)"> </text><text xml:space="preserve" font-family="GillSans-Light,Gill Sans" font-size="46.0" fill="#525252" transform="matrix(1.00, 0.00, -0.00, -1.00, 92.7, 147.9)">p</text><text xml:space="preserve" font-family="GillSans-Light,Gill Sans" font-size="46.0" fill="#525252" transform="matrix(1.00, 0.00, -0.00, -1.00, 116.2, 147.9)">a</text><text xml:space="preserve" font-family="GillSans-Light,Gill Sans" font-size="46.0" fill="#525252" transform="matrix(1.00, 0.00, -0.00, -1.00, 135.8, 147.9)">s</text><text xml:space="preserve" font-family="GillSans-Light,Gill Sans" font-size="46.0" fill="#525252" transform="matrix(1.00, 0.00, -0.00, -1.00, 152.1, 147.9)">s</text><text xml:space="preserve" font-family="GillSans-Light,Gill Sans" font-size="46.0" fill="#525252" transform="matrix(1.00, 0.00, -0.00, -1.00, 168.4, 147.9)">e</text><text xml:space="preserve" font-family="GillSans-Light,Gill Sans" font-size="46.0" fill="#525252" transform="matrix(1.00, 0.00, -0.00, -1.00, 190.4, 147.9)">d</text><image xlink:href="../../BE03AB4A-F5E0-4685-80C7-20DCBC62631F/assets/9A6ABB4995EF94E3903C16036EBAD4B5.png" width="720.00" height="720.00" transform="matrix(0.06, 0.00, -0.00, -0.06, 27.0, 739.0)"></image></g></svg>