<?xml version="1.0" encoding="UTF-8" standalone="no"?><svg xmlns="http://www.w3.org/2000/svg" xmlns:xlink="http://www.w3.org/1999/xlink" clip-rule="evenodd" stroke-miterlimit="10" viewBox="0 0 300 300"><desc>SVG generated by Keynote</desc><defs></defs><g transform="matrix(1.00, 0.00, -0.00, -1.00, 0.0, 300.0)"><path d="M 255.2 255.2 C 313.2 197.1 313.2 102.9 255.2 44.8 C 197.1 -13.2 102.9 -13.2 44.8 44.8 C -13.2 102.9 -13.2 197.1 44.8 255.2 C 102.9 313.2 197.1 313.2 255.2 255.2 " fill="#84BD39"></path><g><clipPath id="clip0x6080038b92c0"><path d="M -8.2 1.3 L 308.2 1.3 L 308.2 298.7 L -8.2 298.7 Z M -8.2 1.3 "></path></clipPath><g clip-path="url(#clip0x6080038b92c0)"><text xml:space="preserve" font-family="GillSans-Light,Gill Sans" font-size="40.0" fill="#FEFFFF" transform="matrix(1.00, 0.00, -0.00, -1.00, 71.5, 178.2)">I</text><text xml:space="preserve" font-family="GillSans-Light,Gill Sans" font-size="40.0" fill="#FEFFFF" transform="matrix(1.00, 0.00, -0.00, -1.00, 79.8, 178.2)">M</text><text xml:space="preserve" font-family="GillSans-Light,Gill Sans" font-size="40.0" fill="#FEFFFF" transform="matrix(1.00, 0.00, -0.00, -1.00, 111.1, 178.2)">P</text><text xml:space="preserve" font-family="GillSans-Light,Gill Sans" font-size="40.0" fill="#FEFFFF" transform="matrix(1.00, 0.00, -0.00, -1.00, 131.4, 178.2)">R</text><text xml:space="preserve" font-family="GillSans-Light,Gill Sans" font-size="40.0" fill="#FEFFFF" transform="matrix(1.00, 0.00, -0.00, -1.00, 153.8, 178.2)">O</text><text xml:space="preserve" font-family="GillSans-Light,Gill Sans" font-size="40.0" fill="#FEFFFF" transform="matrix(1.00, 0.00, -0.00, -1.00, 185.1, 178.2)">V</text><text xml:space="preserve" font-family="GillSans-Light,Gill Sans" font-size="40.0" fill="#FEFFFF" transform="matrix(1.00, 0.00, -0.00, -1.00, 208.9, 178.2)">E</text><text xml:space="preserve" font-family="GillSans-Light,Gill Sans" font-size="40.0" fill="#FEFFFF" transform="matrix(1.00, 0.00, -0.00, -1.00, 228.5, 178.2)"> </text><text xml:space="preserve" font-family="GillSans,Gill Sans" font-size="40.0" fill="#FEFFFF" transform="matrix(1.00, 0.00, -0.00, -1.00, 51.9, 136.5)">R</text><text xml:space="preserve" font-family="GillSans,Gill Sans" font-size="40.0" fill="#FEFFFF" transform="matrix(1.00, 0.00, -0.00, -1.00, 76.1, 136.5)">E</text><text xml:space="preserve" font-family="GillSans,Gill Sans" font-size="40.0" fill="#FEFFFF" transform="matrix(1.00, 0.00, -0.00, -1.00, 96.1, 136.5)">S</text><text xml:space="preserve" font-family="GillSans,Gill Sans" font-size="40.0" fill="#FEFFFF" transform="matrix(1.00, 0.00, -0.00, -1.00, 114.4, 136.5)">O</text><text xml:space="preserve" font-family="GillSans,Gill Sans" font-size="40.0" fill="#FEFFFF" transform="matrix(1.00, 0.00, -0.00, -1.00, 147.3, 136.5)">U</text><text xml:space="preserve" font-family="GillSans,Gill Sans" font-size="40.0" fill="#FEFFFF" transform="matrix(1.00, 0.00, -0.00, -1.00, 175.6, 136.5)">R</text><text xml:space="preserve" font-family="GillSans,Gill Sans" font-size="40.0" fill="#FEFFFF" transform="matrix(1.00, 0.00, -0.00, -1.00, 199.8, 136.5)">C</text><text xml:space="preserve" font-family="GillSans,Gill Sans" font-size="40.0" fill="#FEFFFF" transform="matrix(1.00, 0.00, -0.00, -1.00, 228.1, 136.5)">E</text><text xml:space="preserve" font-family="GillSans,Gill Sans" font-size="40.0" fill="#FEFFFF" transform="matrix(1.00, 0.00, -0.00, -1.00, 248.1, 136.5)"> </text><text xml:space="preserve" font-family="GillSans,Gill Sans" font-size="40.0" fill="#FEFFFF" transform="matrix(1.00, 0.00, -0.00, -1.00, 25.4, 95.1)">A</text><text xml:space="preserve" font-family="GillSans,Gill Sans" font-size="40.0" fill="#FEFFFF" transform="matrix(1.00, 0.00, -0.00, -1.00, 52.1, 95.1)">L</text><text xml:space="preserve" font-family="GillSans,Gill Sans" font-size="40.0" fill="#FEFFFF" transform="matrix(1.00, 0.00, -0.00, -1.00, 71.7, 95.1)">L</text><text xml:space="preserve" font-family="GillSans,Gill Sans" font-size="40.0" fill="#FEFFFF" transform="matrix(1.00, 0.00, -0.00, -1.00, 91.4, 95.1)">O</text><text xml:space="preserve" font-family="GillSans,Gill Sans" font-size="40.0" fill="#FEFFFF" transform="matrix(1.00, 0.00, -0.00, -1.00, 124.3, 95.1)">C</text><text xml:space="preserve" font-family="GillSans,Gill Sans" font-size="40.0" fill="#FEFFFF" transform="matrix(1.00, 0.00, -0.00, -1.00, 153.6, 95.1)">A</text><text xml:space="preserve" font-family="GillSans,Gill Sans" font-size="40.0" fill="#FEFFFF" transform="matrix(1.00, 0.00, -0.00, -1.00, 176.3, 95.1)">T</text><text xml:space="preserve" font-family="GillSans,Gill Sans" font-size="40.0" fill="#FEFFFF" transform="matrix(1.00, 0.00, -0.00, -1.00, 200.4, 95.1)">I</text><text xml:space="preserve" font-family="GillSans,Gill Sans" font-size="40.0" fill="#FEFFFF" transform="matrix(1.00, 0.00, -0.00, -1.00, 210.4, 95.1)">O</text><text xml:space="preserve" font-family="GillSans,Gill Sans" font-size="40.0" fill="#FEFFFF" transform="matrix(1.00, 0.00, -0.00, -1.00, 243.4, 95.1)">N</text></g></g></g></svg>