<?xml version="1.0" encoding="UTF-8" standalone="no"?><svg xmlns="http://www.w3.org/2000/svg" xmlns:xlink="http://www.w3.org/1999/xlink" clip-rule="evenodd" stroke-miterlimit="10" viewBox="0 0 178 38"><desc>SVG generated by Keynote</desc><defs></defs><g transform="matrix(1.00, 0.00, -0.00, -1.00, 0.0, 38.0)"><text xml:space="preserve" font-family="GillSans-Light,Gill Sans" font-size="31.2" fill="#525252" transform="matrix(1.00, 0.00, -0.00, -1.00, 0.6, 9.5)">•</text><text xml:space="preserve" font-family="GillSans-Light,Gill Sans" font-size="38.0" fill="#525252" transform="matrix(1.00, 0.00, -0.00, -1.00, 34.4, 7.2)">D</text><text xml:space="preserve" font-family="GillSans-Light,Gill Sans" font-size="38.0" fill="#525252" transform="matrix(1.00, 0.00, -0.00, -1.00, 62.6, 7.2)">e</text><text xml:space="preserve" font-family="GillSans-Light,Gill Sans" font-size="38.0" fill="#525252" transform="matrix(1.00, 0.00, -0.00, -1.00, 80.8, 7.2)">v</text><text xml:space="preserve" font-family="GillSans-Light,Gill Sans" font-size="38.0" fill="#525252" transform="matrix(1.00, 0.00, -0.00, -1.00, 97.0, 7.2)">S</text><text xml:space="preserve" font-family="GillSans-Light,Gill Sans" font-size="38.0" fill="#525252" transform="matrix(1.00, 0.00, -0.00, -1.00, 114.8, 7.2)">t</text><text xml:space="preserve" font-family="GillSans-Light,Gill Sans" font-size="38.0" fill="#525252" transform="matrix(1.00, 0.00, -0.00, -1.00, 126.3, 7.2)">a</text><text xml:space="preserve" font-family="GillSans-Light,Gill Sans" font-size="38.0" fill="#525252" transform="matrix(1.00, 0.00, -0.00, -1.00, 142.5, 7.2)">c</text><text xml:space="preserve" font-family="GillSans-Light,Gill Sans" font-size="38.0" fill="#525252" transform="matrix(1.00, 0.00, -0.00, -1.00, 158.3, 7.2)">k</text></g></svg>