<?xml version="1.0" encoding="UTF-8" standalone="no"?><svg xmlns="http://www.w3.org/2000/svg" xmlns:xlink="http://www.w3.org/1999/xlink" clip-rule="evenodd" stroke-miterlimit="10" viewBox="0 0 490 112"><desc>SVG generated by Keynote</desc><defs></defs><g transform="matrix(1.00, 0.00, -0.00, -1.00, 0.0, 112.0)"><text xml:space="preserve" font-family="GillSans-Light,Gill Sans" font-size="59.0" fill="#525252" transform="matrix(1.00, 0.00, -0.00, -1.00, 1.2, 70.1)">V</text><text xml:space="preserve" font-family="GillSans-Light,Gill Sans" font-size="59.0" fill="#525252" transform="matrix(1.00, 0.00, -0.00, -1.00, 36.3, 70.1)">I</text><text xml:space="preserve" font-family="GillSans-Light,Gill Sans" font-size="59.0" fill="#525252" transform="matrix(1.00, 0.00, -0.00, -1.00, 48.5, 70.1)">R</text><text xml:space="preserve" font-family="GillSans-Light,Gill Sans" font-size="59.0" fill="#525252" transform="matrix(1.00, 0.00, -0.00, -1.00, 80.6, 70.1)">T</text><text xml:space="preserve" font-family="GillSans-Light,Gill Sans" font-size="59.0" fill="#525252" transform="matrix(1.00, 0.00, -0.00, -1.00, 114.5, 70.1)">U</text><text xml:space="preserve" font-family="GillSans-Light,Gill Sans" font-size="59.0" fill="#525252" transform="matrix(1.00, 0.00, -0.00, -1.00, 153.9, 70.1)">A</text><text xml:space="preserve" font-family="GillSans-Light,Gill Sans" font-size="59.0" fill="#525252" transform="matrix(1.00, 0.00, -0.00, -1.00, 193.3, 70.1)">L</text><text xml:space="preserve" font-family="GillSans-Light,Gill Sans" font-size="59.0" fill="#525252" transform="matrix(1.00, 0.00, -0.00, -1.00, 221.0, 70.1)"> </text><text xml:space="preserve" font-family="GillSans-Light,Gill Sans" font-size="59.0" fill="#525252" transform="matrix(1.00, 0.00, -0.00, -1.00, 237.3, 70.1)">M</text><text xml:space="preserve" font-family="GillSans-Light,Gill Sans" font-size="59.0" fill="#525252" transform="matrix(1.00, 0.00, -0.00, -1.00, 283.4, 70.1)">A</text><text xml:space="preserve" font-family="GillSans-Light,Gill Sans" font-size="59.0" fill="#525252" transform="matrix(1.00, 0.00, -0.00, -1.00, 319.8, 70.1)">C</text><text xml:space="preserve" font-family="GillSans-Light,Gill Sans" font-size="59.0" fill="#525252" transform="matrix(1.00, 0.00, -0.00, -1.00, 359.7, 70.1)">H</text><text xml:space="preserve" font-family="GillSans-Light,Gill Sans" font-size="59.0" fill="#525252" transform="matrix(1.00, 0.00, -0.00, -1.00, 402.2, 70.1)">I</text><text xml:space="preserve" font-family="GillSans-Light,Gill Sans" font-size="59.0" fill="#525252" transform="matrix(1.00, 0.00, -0.00, -1.00, 414.4, 70.1)">N</text><text xml:space="preserve" font-family="GillSans-Light,Gill Sans" font-size="59.0" fill="#525252" transform="matrix(1.00, 0.00, -0.00, -1.00, 459.9, 70.1)">E</text><text xml:space="preserve" font-family="GillSans-Light,Gill Sans" font-size="59.0" fill="#525252" transform="matrix(1.00, 0.00, -0.00, -1.00, 488.9, 70.1)"> </text><text xml:space="preserve" font-family="GillSans,Gill Sans" font-size="59.0" fill="#525252" transform="matrix(1.00, 0.00, -0.00, -1.00, 7.4, 1.6)">C</text><text xml:space="preserve" font-family="GillSans,Gill Sans" font-size="59.0" fill="#525252" transform="matrix(1.00, 0.00, -0.00, -1.00, 49.2, 1.6)">O</text><text xml:space="preserve" font-family="GillSans,Gill Sans" font-size="59.0" fill="#525252" transform="matrix(1.00, 0.00, -0.00, -1.00, 97.8, 1.6)">N</text><text xml:space="preserve" font-family="GillSans,Gill Sans" font-size="59.0" fill="#525252" transform="matrix(1.00, 0.00, -0.00, -1.00, 143.8, 1.6)">S</text><text xml:space="preserve" font-family="GillSans,Gill Sans" font-size="59.0" fill="#525252" transform="matrix(1.00, 0.00, -0.00, -1.00, 170.9, 1.6)">O</text><text xml:space="preserve" font-family="GillSans,Gill Sans" font-size="59.0" fill="#525252" transform="matrix(1.00, 0.00, -0.00, -1.00, 219.4, 1.6)">L</text><text xml:space="preserve" font-family="GillSans,Gill Sans" font-size="59.0" fill="#525252" transform="matrix(1.00, 0.00, -0.00, -1.00, 248.4, 1.6)">I</text><text xml:space="preserve" font-family="GillSans,Gill Sans" font-size="59.0" fill="#525252" transform="matrix(1.00, 0.00, -0.00, -1.00, 263.1, 1.6)">D</text><text xml:space="preserve" font-family="GillSans,Gill Sans" font-size="59.0" fill="#525252" transform="matrix(1.00, 0.00, -0.00, -1.00, 304.1, 1.6)">A</text><text xml:space="preserve" font-family="GillSans,Gill Sans" font-size="59.0" fill="#525252" transform="matrix(1.00, 0.00, -0.00, -1.00, 337.6, 1.6)">T</text><text xml:space="preserve" font-family="GillSans,Gill Sans" font-size="59.0" fill="#525252" transform="matrix(1.00, 0.00, -0.00, -1.00, 373.2, 1.6)">I</text><text xml:space="preserve" font-family="GillSans,Gill Sans" font-size="59.0" fill="#525252" transform="matrix(1.00, 0.00, -0.00, -1.00, 388.0, 1.6)">O</text><text xml:space="preserve" font-family="GillSans,Gill Sans" font-size="59.0" fill="#525252" transform="matrix(1.00, 0.00, -0.00, -1.00, 436.5, 1.6)">N</text></g></svg>