<?xml version="1.0" encoding="UTF-8" standalone="no"?><svg xmlns="http://www.w3.org/2000/svg" xmlns:xlink="http://www.w3.org/1999/xlink" clip-rule="evenodd" stroke-miterlimit="10" viewBox="0 0 1024 768"><desc>SVG generated by Keynote</desc><defs></defs><g transform="matrix(1.00, 0.00, -0.00, -1.00, 0.0, 768.0)"><g><clipPath id="clip0x608003eb4ca0"><path d="M 0.0 768.0 L 1024.0 768.0 L 1024.0 0.0 L 0.0 0.0 Z M 0.0 768.0 "></path></clipPath><g clip-path="url(#clip0x608003eb4ca0)"><image xlink:href="../../BE03AB4A-F5E0-4685-80C7-20DCBC62631F/assets/574DCE55A4CF432400CBDDDE1DFDFC9B.jpeg" width="2048.00" height="1536.00" transform="matrix(0.50, 0.00, -0.00, -0.50, 0.0, 768.0)"></image></g></g><text xml:space="preserve" font-family="GillSans-Light,Gill Sans" font-size="72.0" fill="#525252" transform="matrix(1.00, 0.00, -0.00, -1.00, 147.9, 668.6)">T</text><text xml:space="preserve" font-family="GillSans-Light,Gill Sans" font-size="72.0" fill="#525252" transform="matrix(1.00, 0.00, -0.00, -1.00, 189.2, 668.6)">H</text><text xml:space="preserve" font-family="GillSans-Light,Gill Sans" font-size="72.0" fill="#525252" transform="matrix(1.00, 0.00, -0.00, -1.00, 241.0, 668.6)">E</text><text xml:space="preserve" font-family="GillSans-Light,Gill Sans" font-size="72.0" fill="#525252" transform="matrix(1.00, 0.00, -0.00, -1.00, 276.3, 668.6)"> </text><text xml:space="preserve" font-family="GillSans,Gill Sans" font-size="72.0" fill="#525252" transform="matrix(1.00, 0.00, -0.00, -1.00, 296.3, 668.6)">C</text><text xml:space="preserve" font-family="GillSans,Gill Sans" font-size="72.0" fill="#525252" transform="matrix(1.00, 0.00, -0.00, -1.00, 347.2, 668.6)">O</text><text xml:space="preserve" font-family="GillSans,Gill Sans" font-size="72.0" fill="#525252" transform="matrix(1.00, 0.00, -0.00, -1.00, 406.5, 668.6)">N</text><text xml:space="preserve" font-family="GillSans,Gill Sans" font-size="72.0" fill="#525252" transform="matrix(1.00, 0.00, -0.00, -1.00, 462.7, 668.6)">S</text><text xml:space="preserve" font-family="GillSans,Gill Sans" font-size="72.0" fill="#525252" transform="matrix(1.00, 0.00, -0.00, -1.00, 495.7, 668.6)">O</text><text xml:space="preserve" font-family="GillSans,Gill Sans" font-size="72.0" fill="#525252" transform="matrix(1.00, 0.00, -0.00, -1.00, 555.0, 668.6)">L</text><text xml:space="preserve" font-family="GillSans,Gill Sans" font-size="72.0" fill="#525252" transform="matrix(1.00, 0.00, -0.00, -1.00, 590.3, 668.6)">I</text><text xml:space="preserve" font-family="GillSans,Gill Sans" font-size="72.0" fill="#525252" transform="matrix(1.00, 0.00, -0.00, -1.00, 608.3, 668.6)">D</text><text xml:space="preserve" font-family="GillSans,Gill Sans" font-size="72.0" fill="#525252" transform="matrix(1.00, 0.00, -0.00, -1.00, 658.3, 668.6)">A</text><text xml:space="preserve" font-family="GillSans,Gill Sans" font-size="72.0" fill="#525252" transform="matrix(1.00, 0.00, -0.00, -1.00, 699.1, 668.6)">T</text><text xml:space="preserve" font-family="GillSans,Gill Sans" font-size="72.0" fill="#525252" transform="matrix(1.00, 0.00, -0.00, -1.00, 742.6, 668.6)">I</text><text xml:space="preserve" font-family="GillSans,Gill Sans" font-size="72.0" fill="#525252" transform="matrix(1.00, 0.00, -0.00, -1.00, 760.6, 668.6)">O</text><text xml:space="preserve" font-family="GillSans,Gill Sans" font-size="72.0" fill="#525252" transform="matrix(1.00, 0.00, -0.00, -1.00, 819.9, 668.6)">N</text><text xml:space="preserve" font-family="GillSans-Light,Gill Sans" font-size="72.0" fill="#525252" transform="matrix(1.00, 0.00, -0.00, -1.00, 876.1, 668.6)"> </text><text xml:space="preserve" font-family="GillSans-Light,Gill Sans" font-size="72.0" fill="#525252" transform="matrix(1.00, 0.00, -0.00, -1.00, 362.2, 586.6)">P</text><text xml:space="preserve" font-family="GillSans-Light,Gill Sans" font-size="72.0" fill="#525252" transform="matrix(1.00, 0.00, -0.00, -1.00, 398.9, 586.6)">R</text><text xml:space="preserve" font-family="GillSans-Light,Gill Sans" font-size="72.0" fill="#525252" transform="matrix(1.00, 0.00, -0.00, -1.00, 439.0, 586.6)">O</text><text xml:space="preserve" font-family="GillSans-Light,Gill Sans" font-size="72.0" fill="#525252" transform="matrix(1.00, 0.00, -0.00, -1.00, 498.3, 586.6)">B</text><text xml:space="preserve" font-family="GillSans-Light,Gill Sans" font-size="72.0" fill="#525252" transform="matrix(1.00, 0.00, -0.00, -1.00, 536.5, 586.6)">L</text><text xml:space="preserve" font-family="GillSans-Light,Gill Sans" font-size="72.0" fill="#525252" transform="matrix(1.00, 0.00, -0.00, -1.00, 570.3, 586.6)">E</text><text xml:space="preserve" font-family="GillSans-Light,Gill Sans" font-size="72.0" fill="#525252" transform="matrix(1.00, 0.00, -0.00, -1.00, 605.5, 586.6)">M</text><text xml:space="preserve" font-family="GillSans,Gill Sans" font-size="46.0" fill="#525252" transform="matrix(1.00, 0.00, -0.00, -1.00, 342.5, 321.6)">L</text><text xml:space="preserve" font-family="GillSans,Gill Sans" font-size="46.0" fill="#525252" transform="matrix(1.00, 0.00, -0.00, -1.00, 365.0, 321.6)">A</text><text xml:space="preserve" font-family="GillSans,Gill Sans" font-size="46.0" fill="#525252" transform="matrix(1.00, 0.00, -0.00, -1.00, 393.9, 321.6)">C</text><text xml:space="preserve" font-family="GillSans,Gill Sans" font-size="46.0" fill="#525252" transform="matrix(1.00, 0.00, -0.00, -1.00, 426.5, 321.6)">K</text><text xml:space="preserve" font-family="GillSans-Light,Gill Sans" font-size="46.0" fill="#525252" transform="matrix(1.00, 0.00, -0.00, -1.00, 456.6, 321.6)"> </text><text xml:space="preserve" font-family="GillSans-Light,Gill Sans" font-size="46.0" fill="#525252" transform="matrix(1.00, 0.00, -0.00, -1.00, 469.4, 321.6)">O</text><text xml:space="preserve" font-family="GillSans-Light,Gill Sans" font-size="46.0" fill="#525252" transform="matrix(1.00, 0.00, -0.00, -1.00, 507.3, 321.6)">F</text><text xml:space="preserve" font-family="GillSans-Light,Gill Sans" font-size="46.0" fill="#525252" transform="matrix(1.00, 0.00, -0.00, -1.00, 527.4, 321.6)"> </text><text xml:space="preserve" font-family="GillSans-Light,Gill Sans" font-size="46.0" fill="#525252" transform="matrix(1.00, 0.00, -0.00, -1.00, 540.2, 321.6)">I</text><text xml:space="preserve" font-family="GillSans-Light,Gill Sans" font-size="46.0" fill="#525252" transform="matrix(1.00, 0.00, -0.00, -1.00, 549.7, 321.6)">M</text><text xml:space="preserve" font-family="GillSans-Light,Gill Sans" font-size="46.0" fill="#525252" transform="matrix(1.00, 0.00, -0.00, -1.00, 585.6, 321.6)">P</text><text xml:space="preserve" font-family="GillSans-Light,Gill Sans" font-size="46.0" fill="#525252" transform="matrix(1.00, 0.00, -0.00, -1.00, 609.1, 321.6)">L</text><text xml:space="preserve" font-family="GillSans-Light,Gill Sans" font-size="46.0" fill="#525252" transform="matrix(1.00, 0.00, -0.00, -1.00, 630.7, 321.6)">E</text><text xml:space="preserve" font-family="GillSans-Light,Gill Sans" font-size="46.0" fill="#525252" transform="matrix(1.00, 0.00, -0.00, -1.00, 653.2, 321.6)">M</text><text xml:space="preserve" font-family="GillSans-Light,Gill Sans" font-size="46.0" fill="#525252" transform="matrix(1.00, 0.00, -0.00, -1.00, 689.1, 321.6)">E</text><text xml:space="preserve" font-family="GillSans-Light,Gill Sans" font-size="46.0" fill="#525252" transform="matrix(1.00, 0.00, -0.00, -1.00, 711.7, 321.6)">N</text><text xml:space="preserve" font-family="GillSans-Light,Gill Sans" font-size="46.0" fill="#525252" transform="matrix(1.00, 0.00, -0.00, -1.00, 747.2, 321.6)">T</text><text xml:space="preserve" font-family="GillSans-Light,Gill Sans" font-size="46.0" fill="#525252" transform="matrix(1.00, 0.00, -0.00, -1.00, 768.9, 321.6)">A</text><text xml:space="preserve" font-family="GillSans-Light,Gill Sans" font-size="46.0" fill="#525252" transform="matrix(1.00, 0.00, -0.00, -1.00, 795.0, 321.6)">T</text><text xml:space="preserve" font-family="GillSans-Light,Gill Sans" font-size="46.0" fill="#525252" transform="matrix(1.00, 0.00, -0.00, -1.00, 821.4, 321.6)">I</text><text xml:space="preserve" font-family="GillSans-Light,Gill Sans" font-size="46.0" fill="#525252" transform="matrix(1.00, 0.00, -0.00, -1.00, 831.0, 321.6)">O</text><text xml:space="preserve" font-family="GillSans-Light,Gill Sans" font-size="46.0" fill="#525252" transform="matrix(1.00, 0.00, -0.00, -1.00, 868.8, 321.6)">N</text><text xml:space="preserve" font-family="GillSans-Light,Gill Sans" font-size="46.0" fill="#525252" transform="matrix(1.00, 0.00, -0.00, -1.00, 904.3, 321.6)"> </text><text xml:space="preserve" font-family="GillSans-Light,Gill Sans" font-size="46.0" fill="#525252" transform="matrix(1.00, 0.00, -0.00, -1.00, 917.1, 321.6)">I</text><text xml:space="preserve" font-family="GillSans-Light,Gill Sans" font-size="46.0" fill="#525252" transform="matrix(1.00, 0.00, -0.00, -1.00, 926.7, 321.6)">N</text><text xml:space="preserve" font-family="GillSans-Light,Gill Sans" font-size="46.0" fill="#525252" transform="matrix(1.00, 0.00, -0.00, -1.00, 962.1, 321.6)"> </text><text xml:space="preserve" font-family="GillSans,Gill Sans" font-size="46.0" fill="#525252" transform="matrix(1.00, 0.00, -0.00, -1.00, 400.0, 257.6)">O</text><text xml:space="preserve" font-family="GillSans,Gill Sans" font-size="46.0" fill="#525252" transform="matrix(1.00, 0.00, -0.00, -1.00, 437.9, 257.6)">P</text><text xml:space="preserve" font-family="GillSans,Gill Sans" font-size="46.0" fill="#525252" transform="matrix(1.00, 0.00, -0.00, -1.00, 461.3, 257.6)">E</text><text xml:space="preserve" font-family="GillSans,Gill Sans" font-size="46.0" fill="#525252" transform="matrix(1.00, 0.00, -0.00, -1.00, 484.3, 257.6)">N</text><text xml:space="preserve" font-family="GillSans,Gill Sans" font-size="46.0" fill="#525252" transform="matrix(1.00, 0.00, -0.00, -1.00, 520.2, 257.6)">-</text><text xml:space="preserve" font-family="GillSans,Gill Sans" font-size="46.0" fill="#525252" transform="matrix(1.00, 0.00, -0.00, -1.00, 535.1, 257.6)">S</text><text xml:space="preserve" font-family="GillSans,Gill Sans" font-size="46.0" fill="#525252" transform="matrix(1.00, 0.00, -0.00, -1.00, 556.2, 257.6)">O</text><text xml:space="preserve" font-family="GillSans,Gill Sans" font-size="46.0" fill="#525252" transform="matrix(1.00, 0.00, -0.00, -1.00, 594.1, 257.6)">U</text><text xml:space="preserve" font-family="GillSans,Gill Sans" font-size="46.0" fill="#525252" transform="matrix(1.00, 0.00, -0.00, -1.00, 626.6, 257.6)">R</text><text xml:space="preserve" font-family="GillSans,Gill Sans" font-size="46.0" fill="#525252" transform="matrix(1.00, 0.00, -0.00, -1.00, 654.4, 257.6)">C</text><text xml:space="preserve" font-family="GillSans,Gill Sans" font-size="46.0" fill="#525252" transform="matrix(1.00, 0.00, -0.00, -1.00, 687.0, 257.6)">E</text><text xml:space="preserve" font-family="GillSans-Light,Gill Sans" font-size="46.0" fill="#525252" transform="matrix(1.00, 0.00, -0.00, -1.00, 710.0, 257.6)"> </text><text xml:space="preserve" font-family="GillSans-Light,Gill Sans" font-size="46.0" fill="#525252" transform="matrix(1.00, 0.00, -0.00, -1.00, 722.7, 257.6)">P</text><text xml:space="preserve" font-family="GillSans-Light,Gill Sans" font-size="46.0" fill="#525252" transform="matrix(1.00, 0.00, -0.00, -1.00, 746.2, 257.6)">L</text><text xml:space="preserve" font-family="GillSans-Light,Gill Sans" font-size="46.0" fill="#525252" transform="matrix(1.00, 0.00, -0.00, -1.00, 767.8, 257.6)">A</text><text xml:space="preserve" font-family="GillSans-Light,Gill Sans" font-size="46.0" fill="#525252" transform="matrix(1.00, 0.00, -0.00, -1.00, 793.8, 257.6)">T</text><text xml:space="preserve" font-family="GillSans-Light,Gill Sans" font-size="46.0" fill="#525252" transform="matrix(1.00, 0.00, -0.00, -1.00, 820.2, 257.6)">F</text><text xml:space="preserve" font-family="GillSans-Light,Gill Sans" font-size="46.0" fill="#525252" transform="matrix(1.00, 0.00, -0.00, -1.00, 840.4, 257.6)">O</text><text xml:space="preserve" font-family="GillSans-Light,Gill Sans" font-size="46.0" fill="#525252" transform="matrix(1.00, 0.00, -0.00, -1.00, 878.3, 257.6)">R</text><text xml:space="preserve" font-family="GillSans-Light,Gill Sans" font-size="46.0" fill="#525252" transform="matrix(1.00, 0.00, -0.00, -1.00, 904.6, 257.6)">M</text><text xml:space="preserve" font-family="GillSans-Light,Gill Sans" font-size="46.0" fill="#525252" transform="matrix(1.00, 0.00, -0.00, -1.00, 940.5, 257.6)">S</text><image xlink:href="../../BE03AB4A-F5E0-4685-80C7-20DCBC62631F/assets/9A6ABB4995EF94E3903C16036EBAD4B5.png" width="720.00" height="720.00" transform="matrix(0.06, 0.00, -0.00, -0.06, 27.0, 739.0)"></image></g></svg>