<?xml version="1.0" encoding="UTF-8" standalone="no"?><svg xmlns="http://www.w3.org/2000/svg" xmlns:xlink="http://www.w3.org/1999/xlink" clip-rule="evenodd" stroke-miterlimit="10" viewBox="0 0 111 301"><desc>SVG generated by Keynote</desc><defs></defs><g transform="matrix(1.00, 0.00, -0.00, -1.00, 0.0, 301.0)"><g><clipPath id="clip0x6080036a9d20"><path d="M 0.5 49.0 L 110.5 49.0 L 110.5 301.0 L 0.5 301.0 Z M 0.5 49.0 "></path></clipPath><g clip-path="url(#clip0x6080036a9d20)"><path d="M -0.5 -0.0 L 103.5 -0.0 L 103.5 246.0 L -0.5 246.0 Z M 0.0 0.0 " fill="none" stroke="#7F8685" stroke-width="4.00" transform="matrix(1.00, 0.00, 0.00, -1.00, 3.5, 298.0)"></path></g></g><g><clipPath id="clip0x608003cbb960"><path d="M 95.3 284.9 L 103.3 284.9 L 103.3 293.0 L 95.3 293.0 Z M 95.3 284.9 "></path></clipPath><g clip-path="url(#clip0x608003cbb960)"><path d="M 102.0 286.0 L 96.0 286.0 L 96.0 292.0 L 102.0 292.0 Z M 102.3 285.9 " fill="#00F900"></path></g></g><g><clipPath id="clip0x608003eac000"><path d="M 95.3 276.8 L 103.3 276.8 L 103.3 284.9 L 95.3 284.9 Z M 95.3 276.8 "></path></clipPath><g clip-path="url(#clip0x608003eac000)"><path d="M 102.0 278.0 L 96.0 278.0 L 96.0 284.0 L 102.0 284.0 Z M 102.3 277.8 " fill="#FF2600"></path></g></g><g><clipPath id="clip0x608003eb5ae0"><path d="M 95.3 268.7 L 103.3 268.7 L 103.3 276.7 L 95.3 276.7 Z M 95.3 268.7 "></path></clipPath><g clip-path="url(#clip0x608003eb5ae0)"><path d="M 102.0 270.0 L 96.0 270.0 L 96.0 276.0 L 102.0 276.0 Z M 102.3 269.7 " fill="#7F8685"></path></g></g><g><clipPath id="clip0x608003abc080"><path d="M 36.5 -2.6 L 74.5 -2.6 L 74.5 48.5 L 36.5 48.5 Z M 36.5 -2.6 "></path></clipPath><g clip-path="url(#clip0x608003abc080)"><text xml:space="preserve" font-family="GillSans-Light,Gill Sans" font-size="30.0" fill="#525252" transform="matrix(1.00, 0.00, -0.00, -1.00, 45.5, 13.1)">A</text></g></g></g></svg>