<?xml version="1.0" encoding="UTF-8" standalone="no"?><svg xmlns="http://www.w3.org/2000/svg" xmlns:xlink="http://www.w3.org/1999/xlink" clip-rule="evenodd" stroke-miterlimit="10" viewBox="0 0 1024 768"><desc>SVG generated by Keynote</desc><defs></defs><g transform="matrix(1.00, 0.00, -0.00, -1.00, 0.0, 768.0)"><g><clipPath id="clip0x608004ea0a80"><path d="M 0.0 768.0 L 1024.0 768.0 L 1024.0 0.0 L 0.0 0.0 Z M 0.0 768.0 "></path></clipPath><g clip-path="url(#clip0x608004ea0a80)"><image xlink:href="../../BE03AB4A-F5E0-4685-80C7-20DCBC62631F/assets/574DCE55A4CF432400CBDDDE1DFDFC9B.jpeg" width="2048.00" height="1536.00" transform="matrix(0.50, 0.00, -0.00, -0.50, 0.0, 768.0)"></image></g></g><text xml:space="preserve" font-family="GillSans,Gill Sans" font-size="102.0" fill="#525252" transform="matrix(1.00, 0.00, -0.00, -1.00, 225.4, 348.5)">T</text><text xml:space="preserve" font-family="GillSans,Gill Sans" font-size="102.0" fill="#525252" transform="matrix(1.00, 0.00, -0.00, -1.00, 287.0, 348.5)">H</text><text xml:space="preserve" font-family="GillSans,Gill Sans" font-size="102.0" fill="#525252" transform="matrix(1.00, 0.00, -0.00, -1.00, 361.4, 348.5)">A</text><text xml:space="preserve" font-family="GillSans,Gill Sans" font-size="102.0" fill="#525252" transform="matrix(1.00, 0.00, -0.00, -1.00, 429.4, 348.5)">N</text><text xml:space="preserve" font-family="GillSans,Gill Sans" font-size="102.0" fill="#525252" transform="matrix(1.00, 0.00, -0.00, -1.00, 509.0, 348.5)">K</text><text xml:space="preserve" font-family="GillSans,Gill Sans" font-size="102.0" fill="#525252" transform="matrix(1.00, 0.00, -0.00, -1.00, 575.9, 348.5)"> </text><text xml:space="preserve" font-family="GillSans,Gill Sans" font-size="102.0" fill="#525252" transform="matrix(1.00, 0.00, -0.00, -1.00, 588.9, 348.5)">Y</text><text xml:space="preserve" font-family="GillSans,Gill Sans" font-size="102.0" fill="#525252" transform="matrix(1.00, 0.00, -0.00, -1.00, 642.4, 348.5)">O</text><text xml:space="preserve" font-family="GillSans,Gill Sans" font-size="102.0" fill="#525252" transform="matrix(1.00, 0.00, -0.00, -1.00, 726.3, 348.5)">U</text></g></svg>