<?xml version="1.0" encoding="UTF-8" standalone="no"?><svg xmlns="http://www.w3.org/2000/svg" xmlns:xlink="http://www.w3.org/1999/xlink" clip-rule="evenodd" stroke-miterlimit="10" viewBox="0 0 988 81"><desc>SVG generated by Keynote</desc><defs></defs><g transform="matrix(1.00, 0.00, -0.00, -1.00, 0.0, 81.0)"><g><clipPath id="clip0x6080052a0900"><path d="M -2.8 14.1 L 236.2 14.1 L 236.2 66.7 L -2.8 66.7 Z M -2.8 14.1 "></path></clipPath><g clip-path="url(#clip0x6080052a0900)"><text xml:space="preserve" font-family="GillSans-Light,Gill Sans" font-size="30.0" fill="#525252" transform="matrix(1.00, 0.00, -0.00, -1.00, 5.9, 29.9)">A</text><text xml:space="preserve" font-family="GillSans-Light,Gill Sans" font-size="30.0" fill="#525252" transform="matrix(1.00, 0.00, -0.00, -1.00, 25.9, 29.9)">r</text><text xml:space="preserve" font-family="GillSans-Light,Gill Sans" font-size="30.0" fill="#525252" transform="matrix(1.00, 0.00, -0.00, -1.00, 35.9, 29.9)">c</text><text xml:space="preserve" font-family="GillSans-Light,Gill Sans" font-size="30.0" fill="#525252" transform="matrix(1.00, 0.00, -0.00, -1.00, 48.4, 29.9)">h</text><text xml:space="preserve" font-family="GillSans-Light,Gill Sans" font-size="30.0" fill="#525252" transform="matrix(1.00, 0.00, -0.00, -1.00, 63.1, 29.9)">i</text><text xml:space="preserve" font-family="GillSans-Light,Gill Sans" font-size="30.0" fill="#525252" transform="matrix(1.00, 0.00, -0.00, -1.00, 68.7, 29.9)">t</text><text xml:space="preserve" font-family="GillSans-Light,Gill Sans" font-size="30.0" fill="#525252" transform="matrix(1.00, 0.00, -0.00, -1.00, 77.8, 29.9)">e</text><text xml:space="preserve" font-family="GillSans-Light,Gill Sans" font-size="30.0" fill="#525252" transform="matrix(1.00, 0.00, -0.00, -1.00, 92.1, 29.9)">c</text><text xml:space="preserve" font-family="GillSans-Light,Gill Sans" font-size="30.0" fill="#525252" transform="matrix(1.00, 0.00, -0.00, -1.00, 104.6, 29.9)">t</text><text xml:space="preserve" font-family="GillSans-Light,Gill Sans" font-size="30.0" fill="#525252" transform="matrix(1.00, 0.00, -0.00, -1.00, 113.7, 29.9)">u</text><text xml:space="preserve" font-family="GillSans-Light,Gill Sans" font-size="30.0" fill="#525252" transform="matrix(1.00, 0.00, -0.00, -1.00, 128.4, 29.9)">r</text><text xml:space="preserve" font-family="GillSans-Light,Gill Sans" font-size="30.0" fill="#525252" transform="matrix(1.00, 0.00, -0.00, -1.00, 138.4, 29.9)">e</text><text xml:space="preserve" font-family="GillSans-Light,Gill Sans" font-size="30.0" fill="#525252" transform="matrix(1.00, 0.00, -0.00, -1.00, 152.8, 29.9)">:</text><text xml:space="preserve" font-family="GillSans-Light,Gill Sans" font-size="30.0" fill="#525252" transform="matrix(1.00, 0.00, -0.00, -1.00, 155.7, 29.9)"> </text><text xml:space="preserve" font-family="GillSans,Gill Sans" font-size="30.0" fill="#525252" transform="matrix(1.00, 0.00, -0.00, -1.00, 164.0, 29.9)">1</text><text xml:space="preserve" font-family="GillSans,Gill Sans" font-size="30.0" fill="#525252" transform="matrix(1.00, 0.00, -0.00, -1.00, 179.0, 29.9)">+</text><text xml:space="preserve" font-family="GillSans,Gill Sans" font-size="30.0" fill="#525252" transform="matrix(1.00, 0.00, -0.00, -1.00, 196.5, 29.9)">1</text><text xml:space="preserve" font-family="GillSans,Gill Sans" font-size="30.0" fill="#525252" transform="matrix(1.00, 0.00, -0.00, -1.00, 211.5, 29.9)">0</text></g></g><g><clipPath id="clip0x6080052a1200"><path d="M 297.2 -3.5 L 1002.5 -3.5 L 1002.5 84.3 L 297.2 84.3 Z M 297.2 -3.5 "></path></clipPath><g clip-path="url(#clip0x6080052a1200)"><text xml:space="preserve" font-family="GillSans,Gill Sans" font-size="30.0" fill="#525252" transform="matrix(1.00, 0.00, -0.00, -1.00, 310.6, 47.5)">5</text><text xml:space="preserve" font-family="GillSans,Gill Sans" font-size="30.0" fill="#525252" transform="matrix(1.00, 0.00, -0.00, -1.00, 325.6, 47.5)">0</text><text xml:space="preserve" font-family="GillSans,Gill Sans" font-size="30.0" fill="#525252" transform="matrix(1.00, 0.00, -0.00, -1.00, 340.6, 47.5)"> </text><text xml:space="preserve" font-family="GillSans-Light,Gill Sans" font-size="30.0" fill="#525252" transform="matrix(1.00, 0.00, -0.00, -1.00, 348.9, 47.5)">s</text><text xml:space="preserve" font-family="GillSans-Light,Gill Sans" font-size="30.0" fill="#525252" transform="matrix(1.00, 0.00, -0.00, -1.00, 359.5, 47.5)">i</text><text xml:space="preserve" font-family="GillSans-Light,Gill Sans" font-size="30.0" fill="#525252" transform="matrix(1.00, 0.00, -0.00, -1.00, 365.2, 47.5)">m</text><text xml:space="preserve" font-family="GillSans-Light,Gill Sans" font-size="30.0" fill="#525252" transform="matrix(1.00, 0.00, -0.00, -1.00, 387.9, 47.5)">u</text><text xml:space="preserve" font-family="GillSans-Light,Gill Sans" font-size="30.0" fill="#525252" transform="matrix(1.00, 0.00, -0.00, -1.00, 402.6, 47.5)">l</text><text xml:space="preserve" font-family="GillSans-Light,Gill Sans" font-size="30.0" fill="#525252" transform="matrix(1.00, 0.00, -0.00, -1.00, 408.2, 47.5)">a</text><text xml:space="preserve" font-family="GillSans-Light,Gill Sans" font-size="30.0" fill="#525252" transform="matrix(1.00, 0.00, -0.00, -1.00, 421.0, 47.5)">t</text><text xml:space="preserve" font-family="GillSans-Light,Gill Sans" font-size="30.0" fill="#525252" transform="matrix(1.00, 0.00, -0.00, -1.00, 430.1, 47.5)">i</text><text xml:space="preserve" font-family="GillSans-Light,Gill Sans" font-size="30.0" fill="#525252" transform="matrix(1.00, 0.00, -0.00, -1.00, 435.7, 47.5)">o</text><text xml:space="preserve" font-family="GillSans-Light,Gill Sans" font-size="30.0" fill="#525252" transform="matrix(1.00, 0.00, -0.00, -1.00, 451.9, 47.5)">n</text><text xml:space="preserve" font-family="GillSans-Light,Gill Sans" font-size="30.0" fill="#525252" transform="matrix(1.00, 0.00, -0.00, -1.00, 466.7, 47.5)">s</text><text xml:space="preserve" font-family="GillSans-Light,Gill Sans" font-size="30.0" fill="#525252" transform="matrix(1.00, 0.00, -0.00, -1.00, 477.3, 47.5)"> </text><text xml:space="preserve" font-family="GillSans-Light,Gill Sans" font-size="30.0" fill="#525252" transform="matrix(1.00, 0.00, -0.00, -1.00, 485.6, 47.5)">p</text><text xml:space="preserve" font-family="GillSans-Light,Gill Sans" font-size="30.0" fill="#525252" transform="matrix(1.00, 0.00, -0.00, -1.00, 500.9, 47.5)">e</text><text xml:space="preserve" font-family="GillSans-Light,Gill Sans" font-size="30.0" fill="#525252" transform="matrix(1.00, 0.00, -0.00, -1.00, 515.3, 47.5)">r</text><text xml:space="preserve" font-family="GillSans-Light,Gill Sans" font-size="30.0" fill="#525252" transform="matrix(1.00, 0.00, -0.00, -1.00, 525.3, 47.5)"> </text><text xml:space="preserve" font-family="GillSans-Light,Gill Sans" font-size="30.0" fill="#525252" transform="matrix(1.00, 0.00, -0.00, -1.00, 533.6, 47.5)">c</text><text xml:space="preserve" font-family="GillSans-Light,Gill Sans" font-size="30.0" fill="#525252" transform="matrix(1.00, 0.00, -0.00, -1.00, 546.1, 47.5)">o</text><text xml:space="preserve" font-family="GillSans-Light,Gill Sans" font-size="30.0" fill="#525252" transform="matrix(1.00, 0.00, -0.00, -1.00, 562.4, 47.5)">n</text><text xml:space="preserve" font-family="GillSans-Light,Gill Sans" font-size="30.0" fill="#525252" transform="matrix(1.00, 0.00, -0.00, -1.00, 577.1, 47.5)">s</text><text xml:space="preserve" font-family="GillSans-Light,Gill Sans" font-size="30.0" fill="#525252" transform="matrix(1.00, 0.00, -0.00, -1.00, 587.7, 47.5)"> </text><text xml:space="preserve" font-family="GillSans-Light,Gill Sans" font-size="30.0" fill="#525252" transform="matrix(1.00, 0.00, -0.00, -1.00, 596.0, 47.5)">t</text><text xml:space="preserve" font-family="GillSans-Light,Gill Sans" font-size="30.0" fill="#525252" transform="matrix(1.00, 0.00, -0.00, -1.00, 605.1, 47.5)">y</text><text xml:space="preserve" font-family="GillSans-Light,Gill Sans" font-size="30.0" fill="#525252" transform="matrix(1.00, 0.00, -0.00, -1.00, 617.6, 47.5)">p</text><text xml:space="preserve" font-family="GillSans-Light,Gill Sans" font-size="30.0" fill="#525252" transform="matrix(1.00, 0.00, -0.00, -1.00, 632.9, 47.5)">e</text><text xml:space="preserve" font-family="GillSans,Gill Sans" font-size="30.0" fill="#525252" transform="matrix(1.00, 0.00, -0.00, -1.00, 335.2, 12.3)">1</text><text xml:space="preserve" font-family="GillSans,Gill Sans" font-size="30.0" fill="#525252" transform="matrix(1.00, 0.00, -0.00, -1.00, 350.2, 12.3)">5</text><text xml:space="preserve" font-family="GillSans,Gill Sans" font-size="30.0" fill="#525252" transform="matrix(1.00, 0.00, -0.00, -1.00, 365.2, 12.3)">0</text><text xml:space="preserve" font-family="GillSans-Light,Gill Sans" font-size="30.0" fill="#525252" transform="matrix(1.00, 0.00, -0.00, -1.00, 380.2, 12.3)"> </text><text xml:space="preserve" font-family="GillSans-Light,Gill Sans" font-size="30.0" fill="#525252" transform="matrix(1.00, 0.00, -0.00, -1.00, 388.6, 12.3)">s</text><text xml:space="preserve" font-family="GillSans-Light,Gill Sans" font-size="30.0" fill="#525252" transform="matrix(1.00, 0.00, -0.00, -1.00, 399.2, 12.3)">t</text><text xml:space="preserve" font-family="GillSans-Light,Gill Sans" font-size="30.0" fill="#525252" transform="matrix(1.00, 0.00, -0.00, -1.00, 408.2, 12.3)">e</text><text xml:space="preserve" font-family="GillSans-Light,Gill Sans" font-size="30.0" fill="#525252" transform="matrix(1.00, 0.00, -0.00, -1.00, 422.6, 12.3)">p</text><text xml:space="preserve" font-family="GillSans-Light,Gill Sans" font-size="30.0" fill="#525252" transform="matrix(1.00, 0.00, -0.00, -1.00, 437.9, 12.3)">s</text><text xml:space="preserve" font-family="GillSans-Light,Gill Sans" font-size="30.0" fill="#525252" transform="matrix(1.00, 0.00, -0.00, -1.00, 448.5, 12.3)"> </text><text xml:space="preserve" font-family="GillSans-Light,Gill Sans" font-size="30.0" fill="#525252" transform="matrix(1.00, 0.00, -0.00, -1.00, 456.8, 12.3)">p</text><text xml:space="preserve" font-family="GillSans-Light,Gill Sans" font-size="30.0" fill="#525252" transform="matrix(1.00, 0.00, -0.00, -1.00, 472.1, 12.3)">e</text><text xml:space="preserve" font-family="GillSans-Light,Gill Sans" font-size="30.0" fill="#525252" transform="matrix(1.00, 0.00, -0.00, -1.00, 486.5, 12.3)">r</text><text xml:space="preserve" font-family="GillSans-Light,Gill Sans" font-size="30.0" fill="#525252" transform="matrix(1.00, 0.00, -0.00, -1.00, 496.5, 12.3)"> </text><text xml:space="preserve" font-family="GillSans-Light,Gill Sans" font-size="30.0" fill="#525252" transform="matrix(1.00, 0.00, -0.00, -1.00, 504.8, 12.3)">s</text><text xml:space="preserve" font-family="GillSans-Light,Gill Sans" font-size="30.0" fill="#525252" transform="matrix(1.00, 0.00, -0.00, -1.00, 515.4, 12.3)">i</text><text xml:space="preserve" font-family="GillSans-Light,Gill Sans" font-size="30.0" fill="#525252" transform="matrix(1.00, 0.00, -0.00, -1.00, 521.1, 12.3)">m</text><text xml:space="preserve" font-family="GillSans-Light,Gill Sans" font-size="30.0" fill="#525252" transform="matrix(1.00, 0.00, -0.00, -1.00, 543.8, 12.3)">u</text><text xml:space="preserve" font-family="GillSans-Light,Gill Sans" font-size="30.0" fill="#525252" transform="matrix(1.00, 0.00, -0.00, -1.00, 558.5, 12.3)">l</text><text xml:space="preserve" font-family="GillSans-Light,Gill Sans" font-size="30.0" fill="#525252" transform="matrix(1.00, 0.00, -0.00, -1.00, 564.1, 12.3)">a</text><text xml:space="preserve" font-family="GillSans-Light,Gill Sans" font-size="30.0" fill="#525252" transform="matrix(1.00, 0.00, -0.00, -1.00, 576.9, 12.3)">t</text><text xml:space="preserve" font-family="GillSans-Light,Gill Sans" font-size="30.0" fill="#525252" transform="matrix(1.00, 0.00, -0.00, -1.00, 586.0, 12.3)">i</text><text xml:space="preserve" font-family="GillSans-Light,Gill Sans" font-size="30.0" fill="#525252" transform="matrix(1.00, 0.00, -0.00, -1.00, 591.6, 12.3)">o</text><text xml:space="preserve" font-family="GillSans-Light,Gill Sans" font-size="30.0" fill="#525252" transform="matrix(1.00, 0.00, -0.00, -1.00, 607.9, 12.3)">n</text></g></g><g><clipPath id="clip0x6080052a2760"><path d="M 678.4 14.1 L 990.8 14.1 L 990.8 66.7 L 678.4 66.7 Z M 678.4 14.1 "></path></clipPath><g clip-path="url(#clip0x6080052a2760)"><text xml:space="preserve" font-family="GillSans-Light,Gill Sans" font-size="30.0" fill="#525252" transform="matrix(1.00, 0.00, -0.00, -1.00, 688.1, 29.9)">O</text><text xml:space="preserve" font-family="GillSans-Light,Gill Sans" font-size="30.0" fill="#525252" transform="matrix(1.00, 0.00, -0.00, -1.00, 712.8, 29.9)">p</text><text xml:space="preserve" font-family="GillSans-Light,Gill Sans" font-size="30.0" fill="#525252" transform="matrix(1.00, 0.00, -0.00, -1.00, 728.1, 29.9)">s</text><text xml:space="preserve" font-family="GillSans-Light,Gill Sans" font-size="30.0" fill="#525252" transform="matrix(1.00, 0.00, -0.00, -1.00, 738.7, 29.9)"> </text><text xml:space="preserve" font-family="GillSans-Light,Gill Sans" font-size="30.0" fill="#525252" transform="matrix(1.00, 0.00, -0.00, -1.00, 747.0, 29.9)">r</text><text xml:space="preserve" font-family="GillSans-Light,Gill Sans" font-size="30.0" fill="#525252" transform="matrix(1.00, 0.00, -0.00, -1.00, 757.8, 29.9)">a</text><text xml:space="preserve" font-family="GillSans-Light,Gill Sans" font-size="30.0" fill="#525252" transform="matrix(1.00, 0.00, -0.00, -1.00, 770.6, 29.9)">t</text><text xml:space="preserve" font-family="GillSans-Light,Gill Sans" font-size="30.0" fill="#525252" transform="matrix(1.00, 0.00, -0.00, -1.00, 779.6, 29.9)">i</text><text xml:space="preserve" font-family="GillSans-Light,Gill Sans" font-size="30.0" fill="#525252" transform="matrix(1.00, 0.00, -0.00, -1.00, 785.3, 29.9)">o</text><text xml:space="preserve" font-family="GillSans-Light,Gill Sans" font-size="30.0" fill="#525252" transform="matrix(1.00, 0.00, -0.00, -1.00, 801.5, 29.9)">:</text><text xml:space="preserve" font-family="GillSans-Light,Gill Sans" font-size="30.0" fill="#525252" transform="matrix(1.00, 0.00, -0.00, -1.00, 804.4, 29.9)"> </text><text xml:space="preserve" font-family="GillSans,Gill Sans" font-size="30.0" fill="#525252" transform="matrix(1.00, 0.00, -0.00, -1.00, 812.8, 29.9)">2</text><text xml:space="preserve" font-family="GillSans,Gill Sans" font-size="30.0" fill="#525252" transform="matrix(1.00, 0.00, -0.00, -1.00, 827.8, 29.9)">0</text><text xml:space="preserve" font-family="GillSans,Gill Sans" font-size="30.0" fill="#525252" transform="matrix(1.00, 0.00, -0.00, -1.00, 842.8, 29.9)">:</text><text xml:space="preserve" font-family="GillSans,Gill Sans" font-size="30.0" fill="#525252" transform="matrix(1.00, 0.00, -0.00, -1.00, 849.4, 29.9)">4</text><text xml:space="preserve" font-family="GillSans,Gill Sans" font-size="30.0" fill="#525252" transform="matrix(1.00, 0.00, -0.00, -1.00, 864.4, 29.9)">:</text><text xml:space="preserve" font-family="GillSans,Gill Sans" font-size="30.0" fill="#525252" transform="matrix(1.00, 0.00, -0.00, -1.00, 870.9, 29.9)">1</text><text xml:space="preserve" font-family="GillSans-Light,Gill Sans" font-size="30.0" fill="#525252" transform="matrix(1.00, 0.00, -0.00, -1.00, 885.9, 29.9)">(</text><text xml:space="preserve" font-family="GillSans-Light,Gill Sans" font-size="30.0" fill="#525252" transform="matrix(1.00, 0.00, -0.00, -1.00, 895.9, 29.9)">N</text><text xml:space="preserve" font-family="GillSans-Light,Gill Sans" font-size="30.0" fill="#525252" transform="matrix(1.00, 0.00, -0.00, -1.00, 919.0, 29.9)">:</text><text xml:space="preserve" font-family="GillSans-Light,Gill Sans" font-size="30.0" fill="#525252" transform="matrix(1.00, 0.00, -0.00, -1.00, 924.3, 29.9)">C</text><text xml:space="preserve" font-family="GillSans-Light,Gill Sans" font-size="30.0" fill="#525252" transform="matrix(1.00, 0.00, -0.00, -1.00, 944.6, 29.9)">:</text><text xml:space="preserve" font-family="GillSans-Light,Gill Sans" font-size="30.0" fill="#525252" transform="matrix(1.00, 0.00, -0.00, -1.00, 949.9, 29.9)">D</text><text xml:space="preserve" font-family="GillSans-Light,Gill Sans" font-size="30.0" fill="#525252" transform="matrix(1.00, 0.00, -0.00, -1.00, 972.2, 29.9)">)</text></g></g></g></svg>