<?xml version="1.0" encoding="UTF-8" standalone="no"?><svg xmlns="http://www.w3.org/2000/svg" xmlns:xlink="http://www.w3.org/1999/xlink" clip-rule="evenodd" stroke-miterlimit="10" viewBox="0 0 538 385"><desc>SVG generated by Keynote</desc><defs></defs><g transform="matrix(1.00, 0.00, -0.00, -1.00, 0.0, 385.0)"><g><clipPath id="clip0x6000040b5360"><path d="M 0.4 265.0 L 259.2 265.0 L 259.2 384.3 L 0.4 384.3 Z M 0.4 265.0 "></path></clipPath><g clip-path="url(#clip0x6000040b5360)"><path d="M -0.4 102.8 L -0.4 9.9 C -0.4 4.4 4.4 0.3 9.9 0.3 L 241.9 0.3 C 247.3 0.3 251.6 4.4 251.6 9.9 L 251.6 102.4 C 251.6 107.9 247.3 112.3 241.9 112.3 L 9.9 112.3 C 4.4 112.3 -0.4 108.2 -0.4 102.8 Z M 0.0 102.4 " fill="none" stroke="#EA3C43" stroke-width="5.00" transform="matrix(1.00, 0.00, 0.00, -1.00, 3.9, 380.8)"></path></g></g><g><clipPath id="clip0x6000040b6560"><path d="M 12.8 297.1 L 246.7 297.1 L 246.7 368.6 L 12.8 368.6 Z M 12.8 297.1 "></path></clipPath><g clip-path="url(#clip0x6000040b6560)"><text xml:space="preserve" font-family="GillSans,Gill Sans" font-size="25.0" fill="#EA3C43" transform="matrix(1.00, 0.00, -0.00, -1.00, 50.2, 338.2)">C</text><text xml:space="preserve" font-family="GillSans,Gill Sans" font-size="25.0" fill="#EA3C43" transform="matrix(1.00, 0.00, -0.00, -1.00, 67.9, 338.2)">O</text><text xml:space="preserve" font-family="GillSans,Gill Sans" font-size="25.0" fill="#EA3C43" transform="matrix(1.00, 0.00, -0.00, -1.00, 88.5, 338.2)">N</text><text xml:space="preserve" font-family="GillSans,Gill Sans" font-size="25.0" fill="#EA3C43" transform="matrix(1.00, 0.00, -0.00, -1.00, 108.0, 338.2)">T</text><text xml:space="preserve" font-family="GillSans,Gill Sans" font-size="25.0" fill="#EA3C43" transform="matrix(1.00, 0.00, -0.00, -1.00, 123.1, 338.2)">R</text><text xml:space="preserve" font-family="GillSans,Gill Sans" font-size="25.0" fill="#EA3C43" transform="matrix(1.00, 0.00, -0.00, -1.00, 136.7, 338.2)">O</text><text xml:space="preserve" font-family="GillSans,Gill Sans" font-size="25.0" fill="#EA3C43" transform="matrix(1.00, 0.00, -0.00, -1.00, 157.3, 338.2)">L</text><text xml:space="preserve" font-family="GillSans,Gill Sans" font-size="25.0" fill="#EA3C43" transform="matrix(1.00, 0.00, -0.00, -1.00, 169.5, 338.2)">L</text><text xml:space="preserve" font-family="GillSans,Gill Sans" font-size="25.0" fill="#EA3C43" transform="matrix(1.00, 0.00, -0.00, -1.00, 181.8, 338.2)">E</text><text xml:space="preserve" font-family="GillSans,Gill Sans" font-size="25.0" fill="#EA3C43" transform="matrix(1.00, 0.00, -0.00, -1.00, 194.3, 338.2)">R</text><text xml:space="preserve" font-family="GillSans-Light,Gill Sans" font-size="25.0" fill="#EA3C43" transform="matrix(1.00, 0.00, -0.00, -1.00, 209.4, 338.2)"> </text><text xml:space="preserve" font-family="GillSans-Light,Gill Sans" font-size="25.0" fill="#EA3C43" transform="matrix(1.00, 0.00, -0.00, -1.00, 94.5, 310.2)">N</text><text xml:space="preserve" font-family="GillSans-Light,Gill Sans" font-size="25.0" fill="#EA3C43" transform="matrix(1.00, 0.00, -0.00, -1.00, 113.7, 310.2)">O</text><text xml:space="preserve" font-family="GillSans-Light,Gill Sans" font-size="25.0" fill="#EA3C43" transform="matrix(1.00, 0.00, -0.00, -1.00, 134.3, 310.2)">D</text><text xml:space="preserve" font-family="GillSans-Light,Gill Sans" font-size="25.0" fill="#EA3C43" transform="matrix(1.00, 0.00, -0.00, -1.00, 152.8, 310.2)">E</text></g></g><g><clipPath id="clip0x6000040b6ce0"><path d="M 192.9 279.8 L 244.2 279.8 L 244.2 321.8 L 192.9 321.8 Z M 192.9 279.8 "></path></clipPath><g clip-path="url(#clip0x6000040b6ce0)"><image xlink:href="../../B0AA1713-97D4-40B8-9578-D2576DFDE6E2/assets/39FF6B4CBDB334DB044D3EEAA0837883.png" width="292.00" height="239.00" transform="matrix(0.17, 0.00, -0.00, -0.18, 193.0, 322.0)"></image></g></g><g><clipPath id="clip0x6000040b6d40"><path d="M 278.4 265.0 L 537.2 265.0 L 537.2 384.3 L 278.4 384.3 Z M 278.4 265.0 "></path></clipPath><g clip-path="url(#clip0x6000040b6d40)"><path d="M -0.4 102.8 L -0.4 9.9 C -0.4 4.4 4.4 0.3 9.9 0.3 L 241.9 0.3 C 247.3 0.3 251.6 4.4 251.6 9.9 L 251.6 102.4 C 251.6 107.9 247.3 112.3 241.9 112.3 L 9.9 112.3 C 4.4 112.3 -0.4 108.2 -0.4 102.8 Z M 0.0 102.4 " fill="none" stroke="#595E5D" stroke-width="5.00" transform="matrix(1.00, 0.00, 0.00, -1.00, 281.9, 380.8)"></path></g></g><g><clipPath id="clip0x6000040b7160"><path d="M 290.9 297.3 L 524.7 297.3 L 524.7 368.6 L 290.9 368.6 Z M 290.9 297.3 "></path></clipPath><g clip-path="url(#clip0x6000040b7160)"><text xml:space="preserve" font-family="GillSans,Gill Sans" font-size="25.0" fill="#525252" transform="matrix(1.00, 0.00, -0.00, -1.00, 349.9, 338.2)">C</text><text xml:space="preserve" font-family="GillSans,Gill Sans" font-size="25.0" fill="#525252" transform="matrix(1.00, 0.00, -0.00, -1.00, 367.6, 338.2)">O</text><text xml:space="preserve" font-family="GillSans,Gill Sans" font-size="25.0" fill="#525252" transform="matrix(1.00, 0.00, -0.00, -1.00, 388.1, 338.2)">M</text><text xml:space="preserve" font-family="GillSans,Gill Sans" font-size="25.0" fill="#525252" transform="matrix(1.00, 0.00, -0.00, -1.00, 407.7, 338.2)">P</text><text xml:space="preserve" font-family="GillSans,Gill Sans" font-size="25.0" fill="#525252" transform="matrix(1.00, 0.00, -0.00, -1.00, 420.4, 338.2)">U</text><text xml:space="preserve" font-family="GillSans,Gill Sans" font-size="25.0" fill="#525252" transform="matrix(1.00, 0.00, -0.00, -1.00, 438.1, 338.2)">T</text><text xml:space="preserve" font-family="GillSans,Gill Sans" font-size="25.0" fill="#525252" transform="matrix(1.00, 0.00, -0.00, -1.00, 453.2, 338.2)">E</text><text xml:space="preserve" font-family="GillSans-Light,Gill Sans" font-size="25.0" fill="#525252" transform="matrix(1.00, 0.00, -0.00, -1.00, 359.3, 310.4)"> </text><text xml:space="preserve" font-family="GillSans-Light,Gill Sans" font-size="25.0" fill="#525252" transform="matrix(1.00, 0.00, -0.00, -1.00, 366.2, 310.4)">N</text><text xml:space="preserve" font-family="GillSans-Light,Gill Sans" font-size="25.0" fill="#525252" transform="matrix(1.00, 0.00, -0.00, -1.00, 385.5, 310.4)">O</text><text xml:space="preserve" font-family="GillSans-Light,Gill Sans" font-size="25.0" fill="#525252" transform="matrix(1.00, 0.00, -0.00, -1.00, 406.1, 310.4)">D</text><text xml:space="preserve" font-family="GillSans-Light,Gill Sans" font-size="25.0" fill="#525252" transform="matrix(1.00, 0.00, -0.00, -1.00, 424.6, 310.4)">E</text><text xml:space="preserve" font-family="GillSans-Light,Gill Sans" font-size="25.0" fill="#525252" transform="matrix(1.00, 0.00, -0.00, -1.00, 436.8, 310.4)"> </text><text xml:space="preserve" font-family="GillSans-Light,Gill Sans" font-size="25.0" fill="#525252" transform="matrix(1.00, 0.00, -0.00, -1.00, 443.8, 310.4)">1</text></g></g><g><clipPath id="clip0x6000040b7880"><path d="M 476.7 279.0 L 528.0 279.0 L 528.0 321.0 L 476.7 321.0 Z M 476.7 279.0 "></path></clipPath><g clip-path="url(#clip0x6000040b7880)"><image xlink:href="../../B0AA1713-97D4-40B8-9578-D2576DFDE6E2/assets/39FF6B4CBDB334DB044D3EEAA0837883.png" width="292.00" height="239.00" transform="matrix(0.17, 0.00, -0.00, -0.18, 477.0, 321.0)"></image></g></g><g><clipPath id="clip0x6080040bbde0"><path d="M 278.4 132.9 L 537.2 132.9 L 537.2 252.2 L 278.4 252.2 Z M 278.4 132.9 "></path></clipPath><g clip-path="url(#clip0x6080040bbde0)"><path d="M -0.4 102.7 L -0.4 9.9 C -0.4 4.4 4.4 0.2 9.9 0.2 L 241.9 0.2 C 247.3 0.2 251.6 4.4 251.6 9.9 L 251.6 102.4 C 251.6 107.9 247.3 112.2 241.9 112.2 L 9.9 112.2 C 4.4 112.2 -0.4 108.1 -0.4 102.7 Z M 0.0 102.4 " fill="none" stroke="#595E5D" stroke-width="5.00" transform="matrix(1.00, 0.00, 0.00, -1.00, 281.9, 248.7)"></path></g></g><g><clipPath id="clip0x6080040bc140"><path d="M 290.9 165.2 L 524.7 165.2 L 524.7 236.4 L 290.9 236.4 Z M 290.9 165.2 "></path></clipPath><g clip-path="url(#clip0x6080040bc140)"><text xml:space="preserve" font-family="GillSans,Gill Sans" font-size="25.0" fill="#525252" transform="matrix(1.00, 0.00, -0.00, -1.00, 349.9, 206.0)">C</text><text xml:space="preserve" font-family="GillSans,Gill Sans" font-size="25.0" fill="#525252" transform="matrix(1.00, 0.00, -0.00, -1.00, 367.6, 206.0)">O</text><text xml:space="preserve" font-family="GillSans,Gill Sans" font-size="25.0" fill="#525252" transform="matrix(1.00, 0.00, -0.00, -1.00, 388.1, 206.0)">M</text><text xml:space="preserve" font-family="GillSans,Gill Sans" font-size="25.0" fill="#525252" transform="matrix(1.00, 0.00, -0.00, -1.00, 407.7, 206.0)">P</text><text xml:space="preserve" font-family="GillSans,Gill Sans" font-size="25.0" fill="#525252" transform="matrix(1.00, 0.00, -0.00, -1.00, 420.4, 206.0)">U</text><text xml:space="preserve" font-family="GillSans,Gill Sans" font-size="25.0" fill="#525252" transform="matrix(1.00, 0.00, -0.00, -1.00, 438.1, 206.0)">T</text><text xml:space="preserve" font-family="GillSans,Gill Sans" font-size="25.0" fill="#525252" transform="matrix(1.00, 0.00, -0.00, -1.00, 453.2, 206.0)">E</text><text xml:space="preserve" font-family="GillSans-Light,Gill Sans" font-size="25.0" fill="#525252" transform="matrix(1.00, 0.00, -0.00, -1.00, 359.3, 178.2)"> </text><text xml:space="preserve" font-family="GillSans-Light,Gill Sans" font-size="25.0" fill="#525252" transform="matrix(1.00, 0.00, -0.00, -1.00, 366.2, 178.2)">N</text><text xml:space="preserve" font-family="GillSans-Light,Gill Sans" font-size="25.0" fill="#525252" transform="matrix(1.00, 0.00, -0.00, -1.00, 385.5, 178.2)">O</text><text xml:space="preserve" font-family="GillSans-Light,Gill Sans" font-size="25.0" fill="#525252" transform="matrix(1.00, 0.00, -0.00, -1.00, 406.1, 178.2)">D</text><text xml:space="preserve" font-family="GillSans-Light,Gill Sans" font-size="25.0" fill="#525252" transform="matrix(1.00, 0.00, -0.00, -1.00, 424.6, 178.2)">E</text><text xml:space="preserve" font-family="GillSans-Light,Gill Sans" font-size="25.0" fill="#525252" transform="matrix(1.00, 0.00, -0.00, -1.00, 436.8, 178.2)"> </text><text xml:space="preserve" font-family="GillSans-Light,Gill Sans" font-size="25.0" fill="#525252" transform="matrix(1.00, 0.00, -0.00, -1.00, 443.8, 178.2)">3</text></g></g><g><clipPath id="clip0x6080040bc860"><path d="M 476.7 145.8 L 528.0 145.8 L 528.0 187.8 L 476.7 187.8 Z M 476.7 145.8 "></path></clipPath><g clip-path="url(#clip0x6080040bc860)"><image xlink:href="../../B0AA1713-97D4-40B8-9578-D2576DFDE6E2/assets/39FF6B4CBDB334DB044D3EEAA0837883.png" width="292.00" height="239.00" transform="matrix(0.17, 0.00, -0.00, -0.18, 477.0, 188.0)"></image></g></g><g><clipPath id="clip0x6080040bc8c0"><path d="M 278.4 0.7 L 537.2 0.7 L 537.2 120.0 L 278.4 120.0 Z M 278.4 0.7 "></path></clipPath><g clip-path="url(#clip0x6080040bc8c0)"><path d="M -0.4 102.5 L -0.4 9.9 C -0.4 4.4 4.4 0.0 9.9 0.0 L 241.9 0.0 C 247.3 0.0 251.6 4.4 251.6 9.9 L 251.6 102.4 C 251.6 107.9 247.3 112.0 241.9 112.0 L 9.9 112.0 C 4.4 112.0 -0.4 108.0 -0.4 102.5 Z M 0.0 102.4 " fill="none" stroke="#595E5D" stroke-width="5.00" transform="matrix(1.00, 0.00, 0.00, -1.00, 281.9, 116.5)"></path></g></g><g><clipPath id="clip0x6080040bcce0"><path d="M 290.9 33.0 L 524.7 33.0 L 524.7 104.3 L 290.9 104.3 Z M 290.9 33.0 "></path></clipPath><g clip-path="url(#clip0x6080040bcce0)"><text xml:space="preserve" font-family="GillSans,Gill Sans" font-size="25.0" fill="#525252" transform="matrix(1.00, 0.00, -0.00, -1.00, 349.9, 73.9)">C</text><text xml:space="preserve" font-family="GillSans,Gill Sans" font-size="25.0" fill="#525252" transform="matrix(1.00, 0.00, -0.00, -1.00, 367.6, 73.9)">O</text><text xml:space="preserve" font-family="GillSans,Gill Sans" font-size="25.0" fill="#525252" transform="matrix(1.00, 0.00, -0.00, -1.00, 388.1, 73.9)">M</text><text xml:space="preserve" font-family="GillSans,Gill Sans" font-size="25.0" fill="#525252" transform="matrix(1.00, 0.00, -0.00, -1.00, 407.7, 73.9)">P</text><text xml:space="preserve" font-family="GillSans,Gill Sans" font-size="25.0" fill="#525252" transform="matrix(1.00, 0.00, -0.00, -1.00, 420.4, 73.9)">U</text><text xml:space="preserve" font-family="GillSans,Gill Sans" font-size="25.0" fill="#525252" transform="matrix(1.00, 0.00, -0.00, -1.00, 438.1, 73.9)">T</text><text xml:space="preserve" font-family="GillSans,Gill Sans" font-size="25.0" fill="#525252" transform="matrix(1.00, 0.00, -0.00, -1.00, 453.2, 73.9)">E</text><text xml:space="preserve" font-family="GillSans-Light,Gill Sans" font-size="25.0" fill="#525252" transform="matrix(1.00, 0.00, -0.00, -1.00, 355.9, 46.1)"> </text><text xml:space="preserve" font-family="GillSans-Light,Gill Sans" font-size="25.0" fill="#525252" transform="matrix(1.00, 0.00, -0.00, -1.00, 362.8, 46.1)">N</text><text xml:space="preserve" font-family="GillSans-Light,Gill Sans" font-size="25.0" fill="#525252" transform="matrix(1.00, 0.00, -0.00, -1.00, 382.1, 46.1)">O</text><text xml:space="preserve" font-family="GillSans-Light,Gill Sans" font-size="25.0" fill="#525252" transform="matrix(1.00, 0.00, -0.00, -1.00, 402.7, 46.1)">D</text><text xml:space="preserve" font-family="GillSans-Light,Gill Sans" font-size="25.0" fill="#525252" transform="matrix(1.00, 0.00, -0.00, -1.00, 421.2, 46.1)">E</text><text xml:space="preserve" font-family="GillSans-Light,Gill Sans" font-size="25.0" fill="#525252" transform="matrix(1.00, 0.00, -0.00, -1.00, 433.5, 46.1)"> </text><text xml:space="preserve" font-family="GillSans-Light,Gill Sans" font-size="25.0" fill="#525252" transform="matrix(1.00, 0.00, -0.00, -1.00, 440.4, 46.1)">N</text></g></g><g><clipPath id="clip0x6080040bd400"><path d="M 476.7 10.4 L 528.0 10.4 L 528.0 52.4 L 476.7 52.4 Z M 476.7 10.4 "></path></clipPath><g clip-path="url(#clip0x6080040bd400)"><image xlink:href="../../B0AA1713-97D4-40B8-9578-D2576DFDE6E2/assets/39FF6B4CBDB334DB044D3EEAA0837883.png" width="292.00" height="239.00" transform="matrix(0.17, 0.00, -0.00, -0.18, 477.0, 52.0)"></image></g></g><g><clipPath id="clip0x6000040b78e0"><path d="M 0.4 132.9 L 259.2 132.9 L 259.2 252.2 L 0.4 252.2 Z M 0.4 132.9 "></path></clipPath><g clip-path="url(#clip0x6000040b78e0)"><path d="M -0.4 102.7 L -0.4 9.9 C -0.4 4.4 4.4 0.2 9.9 0.2 L 241.9 0.2 C 247.3 0.2 251.6 4.4 251.6 9.9 L 251.6 102.4 C 251.6 107.9 247.3 112.2 241.9 112.2 L 9.9 112.2 C 4.4 112.2 -0.4 108.1 -0.4 102.7 Z M 0.0 102.4 " fill="none" stroke="#595E5D" stroke-width="5.00" transform="matrix(1.00, 0.00, 0.00, -1.00, 3.9, 248.7)"></path></g></g><g><clipPath id="clip0x6000040b7d00"><path d="M 12.9 165.2 L 246.7 165.2 L 246.7 236.4 L 12.9 236.4 Z M 12.9 165.2 "></path></clipPath><g clip-path="url(#clip0x6000040b7d00)"><text xml:space="preserve" font-family="GillSans,Gill Sans" font-size="25.0" fill="#525252" transform="matrix(1.00, 0.00, -0.00, -1.00, 71.9, 206.0)">C</text><text xml:space="preserve" font-family="GillSans,Gill Sans" font-size="25.0" fill="#525252" transform="matrix(1.00, 0.00, -0.00, -1.00, 89.6, 206.0)">O</text><text xml:space="preserve" font-family="GillSans,Gill Sans" font-size="25.0" fill="#525252" transform="matrix(1.00, 0.00, -0.00, -1.00, 110.1, 206.0)">M</text><text xml:space="preserve" font-family="GillSans,Gill Sans" font-size="25.0" fill="#525252" transform="matrix(1.00, 0.00, -0.00, -1.00, 129.7, 206.0)">P</text><text xml:space="preserve" font-family="GillSans,Gill Sans" font-size="25.0" fill="#525252" transform="matrix(1.00, 0.00, -0.00, -1.00, 142.4, 206.0)">U</text><text xml:space="preserve" font-family="GillSans,Gill Sans" font-size="25.0" fill="#525252" transform="matrix(1.00, 0.00, -0.00, -1.00, 160.1, 206.0)">T</text><text xml:space="preserve" font-family="GillSans,Gill Sans" font-size="25.0" fill="#525252" transform="matrix(1.00, 0.00, -0.00, -1.00, 175.2, 206.0)">E</text><text xml:space="preserve" font-family="GillSans-Light,Gill Sans" font-size="25.0" fill="#525252" transform="matrix(1.00, 0.00, -0.00, -1.00, 81.3, 178.2)"> </text><text xml:space="preserve" font-family="GillSans-Light,Gill Sans" font-size="25.0" fill="#525252" transform="matrix(1.00, 0.00, -0.00, -1.00, 88.2, 178.2)">N</text><text xml:space="preserve" font-family="GillSans-Light,Gill Sans" font-size="25.0" fill="#525252" transform="matrix(1.00, 0.00, -0.00, -1.00, 107.5, 178.2)">O</text><text xml:space="preserve" font-family="GillSans-Light,Gill Sans" font-size="25.0" fill="#525252" transform="matrix(1.00, 0.00, -0.00, -1.00, 128.1, 178.2)">D</text><text xml:space="preserve" font-family="GillSans-Light,Gill Sans" font-size="25.0" fill="#525252" transform="matrix(1.00, 0.00, -0.00, -1.00, 146.6, 178.2)">E</text><text xml:space="preserve" font-family="GillSans-Light,Gill Sans" font-size="25.0" fill="#525252" transform="matrix(1.00, 0.00, -0.00, -1.00, 158.8, 178.2)"> </text><text xml:space="preserve" font-family="GillSans-Light,Gill Sans" font-size="25.0" fill="#525252" transform="matrix(1.00, 0.00, -0.00, -1.00, 165.8, 178.2)">2</text></g></g><g><clipPath id="clip0x6000040b8420"><path d="M 198.7 145.8 L 250.0 145.8 L 250.0 187.8 L 198.7 187.8 Z M 198.7 145.8 "></path></clipPath><g clip-path="url(#clip0x6000040b8420)"><image xlink:href="../../B0AA1713-97D4-40B8-9578-D2576DFDE6E2/assets/39FF6B4CBDB334DB044D3EEAA0837883.png" width="292.00" height="239.00" transform="matrix(0.17, 0.00, -0.00, -0.18, 199.0, 188.0)"></image></g></g><g><clipPath id="clip0x6080040bd460"><path d="M 102.1 53.1 L 116.6 53.1 L 116.6 67.6 L 102.1 67.6 Z M 102.1 53.1 "></path></clipPath><g clip-path="url(#clip0x6080040bd460)"><path d="M 113.8 64.8 C 116.2 62.3 116.2 58.4 113.8 56.0 C 111.4 53.5 107.4 53.5 105.0 56.0 C 102.5 58.4 102.5 62.3 105.0 64.8 C 107.4 67.2 111.4 67.2 113.8 64.8 Z M 113.8 64.8 " fill="#7F8685"></path></g></g><g><clipPath id="clip0x6080040bd880"><path d="M 122.5 53.1 L 137.0 53.1 L 137.0 67.6 L 122.5 67.6 Z M 122.5 53.1 "></path></clipPath><g clip-path="url(#clip0x6080040bd880)"><path d="M 134.2 64.8 C 136.6 62.3 136.6 58.4 134.2 56.0 C 131.8 53.5 127.8 53.5 125.4 56.0 C 122.9 58.4 122.9 62.3 125.4 64.8 C 127.8 67.2 131.8 67.2 134.2 64.8 Z M 134.2 64.8 " fill="#7F8685"></path></g></g><g><clipPath id="clip0x6080040bdac0"><path d="M 142.9 53.1 L 157.4 53.1 L 157.4 67.6 L 142.9 67.6 Z M 142.9 53.1 "></path></clipPath><g clip-path="url(#clip0x6080040bdac0)"><path d="M 154.6 64.8 C 157.0 62.3 157.0 58.4 154.6 56.0 C 152.2 53.5 148.2 53.5 145.8 56.0 C 143.3 58.4 143.3 62.3 145.8 64.8 C 148.2 67.2 152.2 67.2 154.6 64.8 Z M 154.6 64.8 " fill="#7F8685"></path></g></g></g></svg>